<?xml version="1.0" encoding="UTF-8" standalone="no"?>
<svg xmlns:xlink="http://www.w3.org/1999/xlink" height="32.15px" width="36.75px" xmlns="http://www.w3.org/2000/svg">
  <g transform="matrix(1.0, 0.0, 0.0, 1.0, -4.95, -12.7)">
    <use height="26.1" transform="matrix(1.0, 0.0, 0.0, 1.0, 9.55, 15.9)" width="31.85" xlink:href="#sprite0"/>
  </g>
  <defs>
    <g id="sprite0" transform="matrix(1.0, 0.0, 0.0, 1.0, 0.0, 0.65)">
      <use height="26.1" transform="matrix(1.0, 0.0, 0.0, 1.0, 0.0, -0.65)" width="31.85" xlink:href="#shape0"/>
    </g>
    <g id="shape0" transform="matrix(1.0, 0.0, 0.0, 1.0, 0.0, 0.65)">
      <path d="M25.85 9.4 L22.65 6.05 27.0 3.65 28.45 5.25 25.85 9.4" fill="#c9c9c9" fill-rule="evenodd" stroke="none"/>
      <path d="M25.85 9.4 L28.45 5.25 31.25 4.2 26.45 11.95 25.85 9.4" fill="#eaeaea" fill-rule="evenodd" stroke="none"/>
      <path d="M19.35 13.7 L25.85 9.4 26.45 11.95 20.85 15.7 19.35 13.7" fill="#666666" fill-rule="evenodd" stroke="none"/>
      <path d="M28.45 5.25 L27.0 3.65 31.85 -0.65 28.45 5.25" fill="#adadad" fill-rule="evenodd" stroke="none"/>
      <path d="M22.65 6.05 L25.85 9.4 19.35 13.7 12.85 9.9 18.65 5.8 20.65 4.4 22.65 6.05 M28.05 13.65 L23.25 17.2 20.85 15.7 26.45 11.95 28.05 13.65 M16.75 17.55 L16.8 18.95 12.85 20.35 12.85 18.2 16.75 17.55" fill="#4f4f4f" fill-rule="evenodd" stroke="none"/>
      <path d="M31.25 4.2 L28.45 5.25 31.85 -0.65 31.25 4.2 M22.8 19.55 L20.35 21.35 21.0 18.8 22.8 19.55 M18.35 22.65 L13.6 25.45 15.3 20.9 18.35 22.65 M7.6 16.7 L3.95 18.95 5.8 15.5 6.25 15.8 6.25 15.85 7.6 16.7" fill="#ffffff" fill-rule="evenodd" stroke="none"/>
      <path d="M12.85 9.9 L19.35 13.7 20.85 15.7 23.25 17.2 28.05 13.65 28.05 16.95 23.8 20.15 22.8 19.55 21.0 18.8 19.2 18.05 16.75 17.55 12.85 18.2 12.85 20.35 13.6 25.45 8.8 22.05 8.8 17.5 7.6 16.7 6.25 15.85 6.25 15.8 5.8 15.5 3.95 14.35 3.95 18.95 0.0 16.45 0.0 6.25 10.45 13.2 12.85 9.9" fill="#000000" fill-rule="evenodd" stroke="none"/>
      <path d="M16.8 18.95 L18.35 22.65 15.3 20.9 13.6 25.45 12.85 20.35 16.8 18.95 M21.0 18.8 L20.35 21.35 19.2 18.05 21.0 18.8 M5.8 15.5 L3.95 18.95 3.95 14.35 5.8 15.5" fill="#464646" fill-rule="evenodd" stroke="none"/>
      <path d="M18.65 5.8 L12.85 9.9 10.45 13.2 0.0 6.25 10.0 0.0 18.65 5.8" fill="#303030" fill-rule="evenodd" stroke="none"/>
      <path d="M20.35 21.35 L16.8 18.95 16.75 17.55 19.2 18.05 20.35 21.35" fill="#191919" fill-rule="evenodd" stroke="none"/>
      <path d="M19.4 16.45 L18.65 15.95 18.65 14.1 19.4 14.65 19.4 16.45" fill="#ffffff" fill-rule="evenodd" stroke="none"/>
      <path d="M19.4 14.65 L20.1 15.1 20.1 16.9 19.4 16.45 19.4 14.65" fill="#000000" fill-rule="evenodd" stroke="none"/>
      <path d="M3.8 13.5 L9.6 12.75 12.45 15.0 3.8 13.5" fill="#adadad" fill-rule="evenodd" stroke="none"/>
      <path d="M18.45 13.2 L16.2 15.85 10.55 17.4 12.45 15.0 18.45 13.2" fill="#eaeaea" fill-rule="evenodd" stroke="none"/>
      <path d="M12.45 15.0 L9.6 12.75 14.15 10.65 18.45 13.2 12.45 15.0" fill="#c9c9c9" fill-rule="evenodd" stroke="none"/>
      <path d="M3.8 13.5 L12.45 15.0 10.55 17.4 3.8 13.5" fill="#ffffff" fill-rule="evenodd" stroke="none"/>
    </g>
  </defs>
</svg>
