<?xml version="1.0" encoding="UTF-8" standalone="no"?>
<svg xmlns:xlink="http://www.w3.org/1999/xlink" height="32.15px" width="36.75px" xmlns="http://www.w3.org/2000/svg">
  <g transform="matrix(1.0, 0.0, 0.0, 1.0, -4.95, -12.7)">
    <use height="27.55" transform="matrix(1.0, 0.0, 0.0, 1.0, 11.55, 15.55)" width="23.2" xlink:href="#sprite0"/>
  </g>
  <defs>
    <g id="sprite0" transform="matrix(1.0, 0.0, 0.0, 1.0, 0.0, 0.0)">
      <use height="27.55" transform="matrix(1.0, 0.0, 0.0, 1.0, 0.0, 0.0)" width="23.2" xlink:href="#shape0"/>
    </g>
    <g id="shape0" transform="matrix(1.0, 0.0, 0.0, 1.0, 0.0, 0.0)">
      <path d="M23.2 13.2 L20.8 14.6 12.95 4.75 15.0 3.8 17.5 2.6 23.2 13.2 M12.3 7.0 L9.65 13.1 6.25 10.95 6.3 10.95 1.65 7.15 5.8 4.7 12.3 7.0 M3.2 19.3 L3.95 14.8 6.45 16.15 5.65 18.1 3.2 19.3 M12.75 25.1 L12.75 22.85 12.8 22.85 15.7 13.3 19.45 16.0 19.45 18.65 19.35 17.95 19.5 21.4 Q18.6 22.05 17.65 22.65 L17.75 19.75 15.55 20.7 15.5 22.25 15.4 23.85 12.75 25.1" fill="#ffffff" fill-rule="evenodd" stroke="none"/>
      <path d="M20.8 14.6 L23.2 13.2 23.05 15.6 20.8 16.85 20.8 14.6 M17.5 2.6 L15.0 3.8 12.95 4.75 14.25 1.4 15.0 3.8 16.8 0.0 17.5 2.6" fill="#464646" fill-rule="evenodd" stroke="none"/>
      <path d="M12.95 4.75 L20.8 14.6 20.8 16.85 19.45 16.0 15.7 13.3 12.8 22.85 12.75 22.85 12.75 25.1 9.65 23.2 9.65 18.3 6.45 16.15 3.95 14.8 3.2 19.3 0.0 17.65 0.0 14.6 0.05 14.6 1.65 7.15 6.3 10.95 6.25 10.95 9.65 13.1 12.3 7.0 12.95 4.75 M15.5 22.25 L15.55 20.7 17.75 19.75 17.65 22.65 15.5 22.25" fill="#999999" fill-rule="evenodd" stroke="none"/>
      <path d="M0.0 17.65 L3.2 19.3 3.65 21.05 0.0 19.3 0.0 17.65 M9.65 23.2 L12.75 25.1 13.1 27.55 9.6 25.4 9.65 23.2 M15.5 22.25 L17.65 22.65 17.75 24.65 15.4 23.85 15.5 22.25" fill="#000000" fill-rule="evenodd" stroke="none"/>
      <path d="M5.65 18.1 L6.8 19.6 3.65 21.05 3.2 19.3 5.65 18.1 M17.65 22.65 Q18.6 22.05 19.5 21.4 L20.45 22.95 17.75 24.65 17.65 22.65 M15.4 23.85 L16.0 25.8 13.1 27.55 12.75 25.1 15.4 23.85" fill="#666666" fill-rule="evenodd" stroke="none"/>
      <path d="M14.65 10.25 L13.9 9.75 13.9 7.9 14.65 8.45 14.65 10.25" fill="#ffffff" fill-rule="evenodd" stroke="none"/>
      <path d="M14.65 8.45 L15.35 8.9 15.35 10.7 14.65 10.25 14.65 8.45" fill="#000000" fill-rule="evenodd" stroke="none"/>
    </g>
  </defs>
</svg>
