<?xml version="1.0" encoding="UTF-8" standalone="no"?>
<svg xmlns:xlink="http://www.w3.org/1999/xlink" height="32.15px" width="36.75px" xmlns="http://www.w3.org/2000/svg">
  <g transform="matrix(1.0, 0.0, 0.0, 1.0, -4.95, -12.7)">
    <use height="20.65" transform="matrix(1.0922, 0.0, 0.0, 1.0922, 5.4328, 19.0818)" width="27.35" xlink:href="#sprite0"/>
  </g>
  <defs>
    <g id="sprite0" transform="matrix(1.0, 0.0, 0.0, 1.0, 13.2, 10.5)">
      <use height="12.65" transform="matrix(0.5714, 0.0, 0.0, 0.5714, -6.6999, 2.9215)" width="16.35" xlink:href="#sprite1"/>
      <use height="12.65" transform="matrix(0.5714, 0.0, 0.0, 0.5714, -13.1999, -0.8785)" width="16.35" xlink:href="#sprite1"/>
      <use height="20.45" transform="matrix(0.8033, 0.0, 0.0, 0.8033, -9.8411, -8.9181)" width="28.25" xlink:href="#sprite2"/>
      <use height="18.0" transform="matrix(1.0, 0.0, 0.0, 1.0, 4.7, -10.5)" width="9.45" xlink:href="#sprite3"/>
    </g>
    <g id="sprite1" transform="matrix(1.0, 0.0, 0.0, 1.0, 5.95, 4.25)">
      <use height="12.65" transform="matrix(1.0, 0.0, 0.0, 1.0, -5.95, -4.25)" width="16.35" xlink:href="#shape0"/>
    </g>
    <g id="shape0" transform="matrix(1.0, 0.0, 0.0, 1.0, 5.95, 4.25)">
      <path d="M-5.95 4.05 L1.25 0.55 1.3 5.8 -5.95 4.05" fill="#c1e088" fill-rule="evenodd" stroke="none"/>
      <path d="M9.5 -0.9 L10.4 1.95 1.3 8.4 1.3 5.8 9.5 -0.9" fill="#d4f696" fill-rule="evenodd" stroke="none"/>
      <path d="M1.25 0.55 L3.65 -4.25 Q6.6 -2.55 9.5 -0.9 L1.3 5.8 1.25 0.55" fill="#e7ff6b" fill-rule="evenodd" stroke="none"/>
      <path d="M1.3 8.4 L-5.95 5.05 -5.95 4.05 1.3 5.8 1.3 8.4" fill="#bdc343" fill-rule="evenodd" stroke="none"/>
    </g>
    <g id="sprite2" transform="matrix(1.0, 0.0, 0.0, 1.0, 15.55, 8.55)">
      <use height="20.45" transform="matrix(1.0, 0.0, 0.0, 1.0, -15.55, -8.55)" width="28.25" xlink:href="#shape1"/>
    </g>
    <g id="shape1" transform="matrix(1.0, 0.0, 0.0, 1.0, 15.55, 8.55)">
      <path d="M-10.55 -4.8 L-3.65 -8.55 5.0 -4.65 -1.9 -0.4 -10.55 -4.8" fill="#14ba2e" fill-rule="evenodd" stroke="none"/>
      <path d="M2.25 3.75 L1.35 7.65 -0.8 8.8 -2.4 3.55 2.25 3.75" fill="#24bc24" fill-rule="evenodd" stroke="none"/>
      <path d="M10.05 -2.25 L12.2 0.7 9.75 2.35 7.35 0.55 10.05 -2.25" fill="#3bed3b" fill-rule="evenodd" stroke="none"/>
      <path d="M-13.75 -2.55 L-10.55 -4.8 -1.9 -0.4 -2.4 3.55 -13.75 -2.55" fill="#1e9b1e" fill-rule="evenodd" stroke="none"/>
      <path d="M-14.7 1.1 L-13.75 -2.55 -2.4 3.55 -0.8 8.8 -14.7 1.1" fill="#2d892d" fill-rule="evenodd" stroke="none"/>
      <path d="M5.0 -4.65 L7.35 0.55 2.25 3.75 -1.9 -0.4 5.0 -4.65" fill="#6bff6b" fill-rule="evenodd" stroke="none"/>
      <path d="M2.25 3.75 L-2.4 3.55 -1.9 -0.4 2.25 3.75" fill="#28d328" fill-rule="evenodd" stroke="none"/>
      <path d="M9.55 5.05 L6.95 3.6 7.1 2.2 9.95 3.7 9.55 5.05" fill="#b7dddd" fill-rule="evenodd" stroke="none"/>
      <path d="M12.2 0.7 L12.7 1.95 9.95 3.7 9.75 2.35 12.2 0.7 M3.65 5.5 L2.45 10.15 2.45 8.7 3.25 4.5 2.25 3.75 7.35 0.55 7.1 2.2 3.25 4.5 3.65 5.5 M1.35 7.65 L2.45 8.7 -0.9 10.5 -0.8 8.8 1.35 7.65" fill="#e5ffff" fill-rule="evenodd" stroke="none"/>
      <path d="M-15.55 2.4 L-14.7 1.1 -0.8 8.8 -0.9 10.5 -15.55 2.4 M7.1 2.2 L7.35 0.55 9.75 2.35 9.95 3.7 7.1 2.2" fill="#c2e2e2" fill-rule="evenodd" stroke="none"/>
      <path d="M-0.5 11.9 L-14.8 3.85 -15.55 2.4 -0.9 10.5 -0.5 11.9" fill="#b3d8d8" fill-rule="evenodd" stroke="none"/>
      <path d="M12.7 1.95 L12.1 3.25 9.55 5.05 9.95 3.7 12.7 1.95 M6.95 3.6 L3.65 5.5 3.25 4.5 7.1 2.2 6.95 3.6 M2.45 10.15 L-0.5 11.9 -0.9 10.5 2.45 8.7 2.45 10.15" fill="#d8f7f7" fill-rule="evenodd" stroke="none"/>
      <path d="M5.0 -4.65 L10.05 -2.25 7.35 0.55 5.0 -4.65" fill="#adffad" fill-rule="evenodd" stroke="none"/>
      <path d="M2.25 3.75 L3.25 4.5 2.45 8.7 1.35 7.65 2.25 3.75" fill="#f2ffff" fill-rule="evenodd" stroke="none"/>
    </g>
    <g id="sprite3" transform="matrix(1.0, 0.0, 0.0, 1.0, 4.7, 6.75)">
      <use height="18.0" transform="matrix(1.0, 0.0, 0.0, 1.0, -4.7, -6.75)" width="9.45" xlink:href="#shape2"/>
    </g>
    <g id="shape2" transform="matrix(1.0, 0.0, 0.0, 1.0, 4.7, 6.75)">
      <path d="M-0.05 -1.65 L3.55 -3.4 4.75 1.0 2.6 2.0 1.25 2.6 -0.05 -1.65" fill="#d4f696" fill-rule="evenodd" stroke="none"/>
      <path d="M-0.05 -1.65 L-3.8 -3.9 -0.25 -5.5 3.55 -3.4 -0.05 -1.65" fill="#e7ff6b" fill-rule="evenodd" stroke="none"/>
      <path d="M-0.05 9.5 L-0.05 1.6 1.25 2.6 2.6 2.0 2.45 8.0 -0.05 9.5" fill="#c1e088" fill-rule="evenodd" stroke="none"/>
      <path d="M-3.8 -3.9 L-0.05 -1.65 1.25 2.6 -0.05 1.6 -0.05 9.5 -1.7 11.25 -3.2 10.4 -3.8 6.0 -3.8 -3.9" fill="#bfc443" fill-rule="evenodd" stroke="none"/>
      <path d="M-1.7 11.25 L-0.05 9.5 2.45 8.0 1.8 9.15 -1.7 11.25" fill="#cfe560" fill-rule="evenodd" stroke="none"/>
      <path d="M-3.8 6.0 L-3.2 10.4 -4.7 9.55 -3.8 6.0" fill="#adb23d" fill-rule="evenodd" stroke="none"/>
      <path d="M-1.95 1.0 L-3.15 0.35 -3.15 -2.6 -1.95 -1.85 -1.95 1.0" fill="#ffffff" fill-rule="evenodd" stroke="none"/>
      <path d="M-1.95 -1.85 L-0.85 -1.35 -0.85 1.5 -1.95 1.0 -1.95 -1.85" fill="#000000" fill-rule="evenodd" stroke="none"/>
      <path d="M0.1 -5.35 L0.65 -5.5 1.5 -2.6 -0.1 -5.2 -0.1 -5.25 0.1 -5.35" fill="#fcdccb" fill-rule="evenodd" stroke="none"/>
      <path d="M-2.35 -6.4 L-1.15 -5.75 -0.2 -3.3 -1.4 -3.75 -2.35 -6.4 -1.75 -3.9 -2.8 -4.35 -2.85 -4.35 -3.2 -5.55 -2.35 -6.4 M-1.1 -5.75 L-0.2 -5.25 -0.15 -5.25 -0.1 -5.25 -0.1 -5.2 1.5 -2.6 0.15 -3.1 -1.1 -5.75" fill="#f38581" fill-rule="evenodd" stroke="none"/>
      <path d="M0.65 -5.5 L0.1 -5.35 -0.15 -5.25 -0.2 -5.25 -1.1 -5.75 -1.15 -5.75 -2.35 -6.4 -1.45 -6.75 0.65 -5.5" fill="#fac6bf" fill-rule="evenodd" stroke="none"/>
      <path d="M-1.15 -5.75 L-1.1 -5.75 0.15 -3.1 -0.2 -3.3 -1.15 -5.75 M-1.4 -3.75 L-1.75 -3.9 -2.35 -6.4 -1.4 -3.75 M-2.8 -4.35 L-3.55 -4.05 -3.2 -5.55 -2.85 -4.35 -2.8 -4.35" fill="#c26d6a" fill-rule="evenodd" stroke="none"/>
    </g>
  </defs>
</svg>
