<?xml version="1.0" encoding="UTF-8" standalone="no"?>
<svg xmlns:xlink="http://www.w3.org/1999/xlink" height="32.15px" width="36.75px" xmlns="http://www.w3.org/2000/svg">
  <g transform="matrix(1.0, 0.0, 0.0, 1.0, -4.95, -12.7)">
    <use height="26.25" transform="matrix(1.0, 0.0, 0.0, 1.0, 11.55, 16.7)" width="23.85" xlink:href="#sprite0"/>
  </g>
  <defs>
    <g id="sprite0" transform="matrix(1.0, 0.0, 0.0, 1.0, 0.0, 0.0)">
      <use height="26.25" transform="matrix(1.0, 0.0, 0.0, 1.0, 0.0, 0.0)" width="23.85" xlink:href="#shape0"/>
    </g>
    <g id="shape0" transform="matrix(1.0, 0.0, 0.0, 1.0, 0.0, 0.0)">
      <path d="M23.85 11.7 L20.8 13.45 11.2 2.1 15.3 0.0 23.85 11.7 M10.9 4.15 L9.75 12.05 6.25 9.8 6.3 9.8 0.05 5.8 6.6 1.6 10.9 4.15" fill="#464646" fill-rule="evenodd" stroke="none"/>
      <path d="M20.8 13.45 L23.85 11.7 23.7 14.9 20.8 16.7 20.8 13.45 M3.95 20.65 L3.95 16.05 6.25 17.5 6.25 17.55 7.6 18.4 5.7 17.3 5.75 19.25 3.95 20.65 M12.75 26.25 L12.75 21.7 12.8 21.7 14.35 14.65 19.45 16.3 19.7 22.1 17.75 23.2 17.75 18.6 15.15 20.0 15.15 21.65 15.3 24.6 12.75 26.25" fill="#666666" fill-rule="evenodd" stroke="none"/>
      <path d="M11.2 2.1 L20.8 13.45 20.8 16.7 19.45 16.3 14.35 14.65 12.8 21.7 12.75 21.7 12.75 26.25 8.8 23.75 8.8 19.2 7.6 18.4 6.25 17.55 6.25 17.5 3.95 16.05 3.95 20.65 0.0 18.15 0.0 13.45 0.05 13.5 0.05 13.45 0.05 5.8 6.3 9.8 6.25 9.8 9.75 12.05 10.9 4.15 11.2 2.1 M15.15 21.65 L15.15 20.0 17.75 18.6 17.75 23.2 15.15 21.65" fill="#000000" fill-rule="evenodd" stroke="none"/>
      <path d="M0.05 13.45 L0.05 13.5 0.0 13.45 0.05 13.45" fill="#999999" fill-rule="evenodd" stroke="none"/>
      <path d="M12.85 7.95 L12.1 7.45 12.1 5.6 12.85 6.15 12.85 7.95" fill="#ffffff" fill-rule="evenodd" stroke="none"/>
      <path d="M12.85 6.15 L13.55 6.6 13.55 8.4 12.85 7.95 12.85 6.15" fill="#000000" fill-rule="evenodd" stroke="none"/>
    </g>
  </defs>
</svg>
