<?xml version="1.0" encoding="UTF-8" standalone="no"?>
<svg xmlns:xlink="http://www.w3.org/1999/xlink" height="32.15px" width="36.75px" xmlns="http://www.w3.org/2000/svg">
  <g transform="matrix(1.0, 0.0, 0.0, 1.0, -4.95, -12.7)">
    <use height="29.35" transform="matrix(1.0, 0.0, 0.0, 1.0, 11.55, 13.6)" width="22.6" xlink:href="#sprite0"/>
  </g>
  <defs>
    <g id="sprite0" transform="matrix(1.0, 0.0, 0.0, 1.0, 0.0, 7.95)">
      <use height="29.35" transform="matrix(1.0, 0.0, 0.0, 1.0, 0.0, -7.95)" width="22.6" xlink:href="#shape0"/>
    </g>
    <g id="shape0" transform="matrix(1.0, 0.0, 0.0, 1.0, 0.0, 7.95)">
      <path d="M21.75 1.4 L22.6 3.65 20.0 4.4 20.35 1.7 21.75 1.4" fill="#000000" fill-rule="evenodd" stroke="none"/>
      <path d="M0.0 8.6 L0.05 8.6 0.05 8.65 0.0 8.6" fill="#999999" fill-rule="evenodd" stroke="none"/>
      <path d="M13.75 -6.75 L16.9 -5.1 18.5 -7.95 18.5 -4.95 21.75 1.4 20.35 1.7 13.75 -6.75 M18.25 2.0 L18.9 17.15 16.95 18.55 16.95 12.2 15.15 13.1 15.15 16.8 15.3 19.75 12.75 21.4 13.0 15.95 14.35 9.8 16.75 1.85 18.25 2.0 M4.65 11.8 L4.65 13.85 2.95 15.1 3.05 10.95 4.65 11.8 M1.3 2.1 L4.5 0.65 11.9 4.9 10.95 7.95 1.3 2.1" fill="#fcf793" fill-rule="evenodd" stroke="none"/>
      <path d="M11.9 4.9 L14.7 -4.0 13.75 -6.75 20.35 1.7 20.0 4.4 18.25 2.0 16.75 1.85 14.35 9.8 13.0 15.95 12.75 21.4 10.4 19.75 10.4 15.4 6.25 12.75 4.65 11.8 3.05 10.95 2.95 15.1 0.0 13.3 0.0 8.6 0.05 8.65 0.05 8.6 1.3 2.1 10.95 7.95 11.9 4.9 M16.95 18.55 L15.15 16.8 15.15 13.1 16.95 12.2 16.95 18.55" fill="#ffdb00" fill-rule="evenodd" stroke="none"/>
      <path d="M15.95 -0.5 L15.2 -1.0 15.2 -2.85 15.95 -2.3 15.95 -0.5" fill="#ffffff" fill-rule="evenodd" stroke="none"/>
      <path d="M15.95 -2.3 L16.65 -1.85 16.65 -0.05 15.95 -0.5 15.95 -2.3" fill="#000000" fill-rule="evenodd" stroke="none"/>
      <path d="M1.35 5.45 L4.4 5.0 4.4 7.8 0.55 8.45 1.35 5.45" fill="#ff9900" fill-rule="evenodd" stroke="none"/>
      <path d="M4.7 8.75 L8.6 11.05 7.0 12.65 3.4 10.65 4.7 8.75" fill="#ff9900" fill-rule="evenodd" stroke="none"/>
      <path d="M5.1 5.15 L9.3 8.1 8.6 10.45 4.95 8.15 5.1 5.15" fill="#ff9900" fill-rule="evenodd" stroke="none"/>
      <path d="M0.55 8.85 L4.2 8.35 2.4 11.05 0.5 10.8 0.55 8.85" fill="#ff9900" fill-rule="evenodd" stroke="none"/>
      <path d="M0.5 11.2 L2.4 11.5 2.5 14.05 0.5 12.8 0.5 11.2" fill="#ff9900" fill-rule="evenodd" stroke="none"/>
      <path d="M8.8 11.4 L11.8 12.0 10.75 15.05 7.35 12.75 8.8 11.4" fill="#ff9900" fill-rule="evenodd" stroke="none"/>
      <path d="M9.8 8.25 L12.65 9.75 12.0 11.65 9.15 11.05 9.8 8.25" fill="#ff9900" fill-rule="evenodd" stroke="none"/>
      <path d="M12.3 6.0 L14.6 6.0 13.75 9.65 11.4 8.25 12.3 6.0" fill="#ff9900" fill-rule="evenodd" stroke="none"/>
      <path d="M13.4 2.5 L15.85 2.85 14.6 5.45 12.4 5.45 13.4 2.5" fill="#ff9900" fill-rule="evenodd" stroke="none"/>
      <path d="M14.1 0.1 L14.9 0.55 15.8 2.5 13.4 2.15 14.1 0.1" fill="#ff9900" fill-rule="evenodd" stroke="none"/>
      <path d="M10.8 15.7 L12.5 15.7 12.35 18.4 10.8 16.55 10.8 15.7" fill="#ff9900" fill-rule="evenodd" stroke="none"/>
      <path d="M10.8 17.4 L12.3 19.1 12.3 20.45 10.8 19.55 10.8 17.4" fill="#ff9900" fill-rule="evenodd" stroke="none"/>
      <path d="M13.35 18.55 L14.85 17.45 14.9 19.6 13.2 20.7 13.35 18.55" fill="#ffca0c" fill-rule="evenodd" stroke="none"/>
      <path d="M14.6 11.2 L15.85 11.4 16.3 12.05 14.1 12.7 14.6 11.2" fill="#ffca0c" fill-rule="evenodd" stroke="none"/>
      <path d="M15.5 8.0 L18.1 9.2 15.95 11.15 14.55 11.0 15.5 8.0" fill="#ffca0c" fill-rule="evenodd" stroke="none"/>
      <path d="M16.1 5.85 L17.9 5.65 18.2 8.8 15.5 7.65 16.1 5.85" fill="#ffca0c" fill-rule="evenodd" stroke="none"/>
      <path d="M16.8 3.15 L17.85 3.2 18.0 5.2 16.05 5.55 16.8 3.15" fill="#ffca0c" fill-rule="evenodd" stroke="none"/>
      <path d="M16.35 11.3 L18.25 9.6 18.35 11.95 16.7 11.9 16.35 11.3" fill="#ffca0c" fill-rule="evenodd" stroke="none"/>
      <path d="M17.15 12.3 L18.4 12.35 18.4 15.35 17.2 13.65 17.15 12.3" fill="#ffca0c" fill-rule="evenodd" stroke="none"/>
      <path d="M17.25 14.3 L18.4 15.9 18.75 17.05 17.3 17.85 17.25 14.3" fill="#ffca0c" fill-rule="evenodd" stroke="none"/>
      <path d="M11.2 15.25 L13.1 9.95 13.85 10.35 12.8 15.1 11.2 15.25" fill="#ff9900" fill-rule="evenodd" stroke="none"/>
      <path d="M1.8 3.05 L4.25 4.65 1.4 4.95 1.8 3.05" fill="#ff9900" fill-rule="evenodd" stroke="none"/>
      <path d="M13.9 13.35 L14.7 13.0 14.9 14.4 13.55 15.4 13.9 13.35" fill="#ffca0c" fill-rule="evenodd" stroke="none"/>
      <path d="M13.55 15.85 L14.7 15.1 14.85 16.7 13.25 18.25 13.55 15.85" fill="#ffca0c" fill-rule="evenodd" stroke="none"/>
      <path d="M4.55 1.1 L6.55 2.35 6.75 5.1 2.1 2.25 Q3.35 1.65 4.55 1.1" fill="#ffca0c" fill-rule="evenodd" stroke="none"/>
      <path d="M6.9 2.55 L10.7 4.75 7.1 5.25 6.9 2.55" fill="#ffca0c" fill-rule="evenodd" stroke="none"/>
      <path d="M7.55 5.5 L11.05 5.0 11.75 5.15 11.1 7.6 7.55 5.5" fill="#ffca0c" fill-rule="evenodd" stroke="none"/>
    </g>
  </defs>
</svg>
