<?xml version="1.0" encoding="UTF-8" standalone="no"?>
<svg xmlns:xlink="http://www.w3.org/1999/xlink" height="32.15px" width="36.75px" xmlns="http://www.w3.org/2000/svg">
  <g transform="matrix(1.0, 0.0, 0.0, 1.0, -4.95, -12.7)">
    <use height="25.45" transform="matrix(1.0, 0.0, 0.0, 1.0, 11.55, 18.4)" width="27.05" xlink:href="#sprite0"/>
  </g>
  <defs>
    <g id="sprite0" transform="matrix(1.0, 0.0, 0.0, 1.0, 0.0, 0.0)">
      <use height="25.45" transform="matrix(1.0, 0.0, 0.0, 1.0, 0.0, 0.0)" width="27.05" xlink:href="#shape0"/>
    </g>
    <g id="shape0" transform="matrix(1.0, 0.0, 0.0, 1.0, 0.0, 0.0)">
      <path d="M27.05 14.55 L26.9 17.75 24.0 19.55 24.0 16.3 27.05 14.55" fill="#000000" fill-rule="evenodd" stroke="none"/>
      <path d="M22.8 19.55 L20.35 21.35 19.2 18.05 22.8 19.55 M16.8 18.95 L18.35 22.65 13.6 25.45 12.75 20.0 12.8 20.0 12.85 18.2 16.75 17.55 16.8 18.95 M7.6 16.7 L3.95 18.95 3.95 14.35 6.25 15.8 6.25 15.85 7.6 16.7 M19.5 6.6 L22.55 4.4 27.05 14.55 24.0 16.3 12.85 9.9 19.5 6.6" fill="#b29a69" fill-rule="evenodd" stroke="none"/>
      <path d="M24.0 19.55 L22.8 19.55 19.2 18.05 20.35 21.35 16.8 18.95 16.75 17.55 12.85 18.2 12.8 18.2 10.4 13.2 11.2 13.7 10.45 13.2 12.85 9.9 24.0 16.3 24.0 19.55" fill="#473000" fill-rule="evenodd" stroke="none"/>
      <path d="M0.05 6.15 L10.0 0.0 19.5 6.6 12.85 9.9 10.45 13.2 0.05 6.15" fill="#996600" fill-rule="evenodd" stroke="none"/>
      <path d="M0.0 11.75 L0.05 11.75 0.05 11.8 0.0 11.75" fill="#999999" fill-rule="evenodd" stroke="none"/>
      <path d="M13.6 25.45 L8.8 22.05 8.8 17.5 7.6 16.7 6.25 15.85 6.25 15.8 3.95 14.35 3.95 18.95 0.0 16.45 0.0 11.75 0.05 11.8 0.05 11.75 0.05 6.15 10.45 13.2 11.2 13.7 10.4 13.2 12.8 18.2 12.85 18.2 12.8 20.0 12.75 20.0 13.6 25.45" fill="#483000" fill-rule="evenodd" stroke="none"/>
      <path d="M14.75 14.25 L14.0 13.75 14.0 11.9 14.75 12.45 14.75 14.25" fill="#ffffff" fill-rule="evenodd" stroke="none"/>
      <path d="M14.75 12.45 L15.45 12.9 15.45 14.7 14.75 14.25 14.75 12.45" fill="#000000" fill-rule="evenodd" stroke="none"/>
    </g>
  </defs>
</svg>
