<?xml version="1.0" encoding="UTF-8" standalone="no"?>
<svg xmlns:xlink="http://www.w3.org/1999/xlink" height="32.15px" width="36.75px" xmlns="http://www.w3.org/2000/svg">
  <g transform="matrix(1.0, 0.0, 0.0, 1.0, -4.95, -12.7)">
    <use height="23.5" transform="matrix(1.0, 0.0, 0.0, 1.0, 11.5, 19.45)" width="23.9" xlink:href="#sprite0"/>
  </g>
  <defs>
    <g id="sprite0" transform="matrix(1.0, 0.0, 0.0, 1.0, 0.0, 0.0)">
      <use height="23.5" transform="matrix(1.0, 0.0, 0.0, 1.0, 0.0, 0.0)" width="23.9" xlink:href="#shape0"/>
    </g>
    <g id="shape0" transform="matrix(1.0, 0.0, 0.0, 1.0, 0.0, 0.0)">
      <path d="M23.9 8.95 L20.85 10.7 16.8 4.3 16.05 1.55 17.15 2.35 18.3 3.2 19.25 0.7 23.9 8.95 M9.8 9.3 L6.3 7.05 6.35 7.05 0.1 3.05 6.2 0.0 13.7 4.4 9.8 9.3 M12.8 23.5 L12.8 18.95 12.85 18.95 14.4 11.9 19.5 13.55 19.75 19.35 17.8 20.45 17.8 15.85 15.2 17.25 15.2 18.9 15.35 21.85 12.8 23.5" fill="#ffffff" fill-rule="evenodd" stroke="none"/>
      <path d="M20.85 10.7 L23.9 8.95 23.75 12.15 20.85 13.95 20.85 10.7 M19.25 0.7 L18.3 3.2 17.15 2.35 19.25 0.7 M16.05 1.55 L16.8 4.3 11.35 10.1 9.8 9.3 13.7 4.4 16.05 1.55" fill="#000000" fill-rule="evenodd" stroke="none"/>
      <path d="M16.8 4.3 L20.85 10.7 20.85 13.95 19.5 13.55 14.4 11.9 12.85 18.95 12.8 18.95 12.8 23.5 8.85 21.0 8.85 16.45 7.65 15.65 6.3 14.8 6.3 14.75 4.0 13.3 4.0 17.9 0.05 15.4 0.05 10.7 0.1 10.7 0.1 3.05 6.35 7.05 6.3 7.05 9.8 9.3 11.35 10.1 16.8 4.3 M15.2 18.9 L15.2 17.25 17.8 15.85 17.8 20.45 15.2 18.9" fill="#999999" fill-rule="evenodd" stroke="none"/>
      <path d="M4.0 17.9 L4.0 13.3 6.3 14.75 6.3 14.8 7.65 15.65 5.75 14.55 5.8 16.5 4.0 17.9" fill="#666666" fill-rule="evenodd" stroke="none"/>
      <path d="M10.5 5.75 L13.35 4.85 11.8 6.35 7.9 8.1 10.5 5.75 M5.45 2.35 L8.45 1.35 6.45 3.0 2.65 4.5 5.45 2.35 M0.1 7.6 L2.9 4.45 1.6 7.55 0.0 9.5 0.1 7.6 M1.1 15.2 L6.05 6.8 6.65 7.2 5.1 10.55 1.1 15.2 M7.85 3.8 L10.95 2.6 8.85 4.5 4.85 6.15 7.85 3.8 M10.4 21.85 L15.9 12.4 17.3 12.8 13.9 17.8 10.4 21.85 M6.35 14.95 L9.85 9.35 11.25 10.05 6.35 14.95" fill="#000000" fill-rule="evenodd" stroke="none"/>
      <path d="M12.0 12.2 L15.55 8.1 12.85 13.05 8.85 17.7 12.0 12.2" fill="#000000" fill-rule="evenodd" stroke="none"/>
      <path d="M16.65 8.2 L15.9 7.7 15.9 5.85 16.65 6.4 16.65 8.2" fill="#ffffff" fill-rule="evenodd" stroke="none"/>
      <path d="M16.65 6.4 L17.35 6.85 17.35 8.65 16.65 8.2 16.65 6.4" fill="#000000" fill-rule="evenodd" stroke="none"/>
    </g>
  </defs>
</svg>
