<?xml version="1.0" encoding="UTF-8" standalone="no"?>
<svg xmlns:xlink="http://www.w3.org/1999/xlink" height="32.15px" width="36.75px" xmlns="http://www.w3.org/2000/svg">
  <g transform="matrix(1.0, 0.0, 0.0, 1.0, -4.95, -12.7)">
    <use height="73.6" id="kamel_förenklad" transform="matrix(0.3758, 0.0, 0.0, 0.3758, 11.2589, 16.2741)" width="75.35" xlink:href="#sprite0"/>
  </g>
  <defs>
    <g id="sprite0" transform="matrix(1.0, 0.0, 0.0, 1.0, 37.5, 34.0)">
      <use height="73.6" transform="matrix(1.0, 0.0, 0.0, 1.0, -37.5, -34.0)" width="75.35" xlink:href="#shape0"/>
    </g>
    <g id="shape0" transform="matrix(1.0, 0.0, 0.0, 1.0, 37.5, 34.0)">
      <path d="M-3.15 -0.8 L9.2 -8.6 13.5 -6.9 0.2 1.0 -3.15 -0.8 M7.45 21.7 L7.45 17.85 6.7 17.4 9.45 15.75 9.45 22.85 7.45 21.7 M-6.45 32.8 L-6.55 27.4 -10.45 24.85 -14.3 14.0 -3.65 20.7 -3.85 31.15 -4.05 31.25 -6.45 30.25 -6.45 32.8 M-18.0 6.2 L-18.9 7.45 -27.1 6.75 -23.55 2.95 -18.0 6.2 M-29.5 16.0 L-29.4 12.3 -33.2 10.05 -37.5 0.25 -27.2 6.7 -27.2 17.45 -29.5 16.0 M-34.15 -15.3 L-23.8 -21.35 -25.95 -14.55 -34.15 -15.3 M-12.1 -10.8 L-13.3 -6.95 -16.4 -8.8 -15.75 -8.45 -12.1 -10.8" fill="#461413" fill-rule="evenodd" stroke="none"/>
      <path d="M14.3 24.8 L14.4 24.9 16.6 27.6 12.5 28.3 10.2 31.3 9.45 27.9 9.45 27.85 6.95 26.7 7.4 21.7 7.45 21.7 9.45 22.85 9.4 22.9 9.45 27.75 14.3 24.8 M0.75 32.95 L1.0 33.25 2.75 36.6 -1.15 36.6 -3.2 39.6 -4.0 36.25 -4.0 36.1 -6.45 34.9 -6.45 34.7 -6.45 32.8 -6.45 30.25 -4.05 31.25 -4.0 36.1 0.75 32.95 M-22.25 19.4 L-22.2 19.45 -20.35 22.85 -24.05 22.85 -26.1 26.5 -27.2 22.45 -22.25 19.4 M-29.8 21.2 L-29.5 16.0 -27.2 17.45 -27.2 22.4 -29.8 21.2" fill="#210d0e" fill-rule="evenodd" stroke="none"/>
      <path d="M2.7 -23.0 L9.2 -8.6 -3.15 -0.8 -2.85 -19.75 2.7 -23.0 M13.5 -6.9 L18.9 12.15 11.5 18.05 11.45 18.05 11.45 21.65 9.4 22.9 9.45 22.85 9.45 15.75 6.7 17.4 6.5 17.5 4.3 21.25 -2.0 25.95 -2.0 30.0 -3.85 31.15 -3.65 20.7 13.5 -6.9 M-18.9 7.45 L-25.2 12.15 -25.2 16.2 -27.2 17.45 -27.2 6.7 -27.1 6.75 -18.9 7.45 M-9.95 -30.7 L-7.2 -23.65 -8.35 -23.0 -12.1 -10.8 -15.75 -8.45 -15.45 -27.4 -9.95 -30.7" fill="#952821" fill-rule="evenodd" stroke="none"/>
      <path d="M2.7 -23.0 L-2.85 -19.75 -8.35 -23.0 -7.2 -23.65 -2.8 -26.3 2.7 -23.0 M-20.95 -30.65 L-15.4 -34.0 -9.95 -30.7 -15.45 -27.4 -20.95 -30.65" fill="#d45c57" fill-rule="evenodd" stroke="none"/>
      <path d="M-2.85 -19.75 L-3.15 -0.8 0.2 1.0 13.5 -6.9 -3.65 20.7 -14.3 14.0 -13.35 8.95 -18.0 6.2 -23.55 2.95 -27.1 6.75 -27.2 6.7 -37.5 0.25 -35.45 -10.85 -34.15 -15.3 -25.95 -14.55 -23.8 -21.35 -20.95 -30.65 -15.45 -27.4 -15.75 -8.45 -16.4 -8.8 -13.3 -6.95 -12.1 -10.8 -8.35 -23.0 -2.85 -19.75 M11.45 21.65 L14.3 24.8 9.45 27.75 9.4 22.9 11.45 21.65 M-2.0 30.0 L0.75 32.95 -4.0 36.1 -4.05 31.25 -3.85 31.15 -2.0 30.0 M-25.2 16.2 L-22.25 19.4 -27.2 22.45 -27.2 22.4 -27.2 17.45 -25.2 16.2" fill="#5e1b17" fill-rule="evenodd" stroke="none"/>
      <path d="M10.2 31.3 L6.7 29.1 6.95 26.7 9.45 27.85 9.45 27.9 10.2 31.3 M-3.2 39.6 L-6.75 37.45 -6.45 34.9 -4.0 36.1 -4.0 36.25 -3.2 39.6 M-26.1 26.5 L-29.95 23.65 -29.8 21.2 -27.2 22.4 -27.2 22.45 -26.1 26.5" fill="#000000" fill-rule="evenodd" stroke="none"/>
      <path d="M37.5 -28.95 L37.85 -28.25 36.8 -23.35 35.75 -23.75 37.5 -28.95" fill="#6b3519" fill-rule="evenodd" stroke="none"/>
      <path d="M30.1 -25.65 L28.8 -21.3 27.1 -19.75 28.9 -24.85 30.1 -25.65" fill="#6b3519" fill-rule="evenodd" stroke="none"/>
      <path d="M27.7 -19.35 L24.4 -16.3 26.1 -15.4 25.45 -14.1 21.5 -15.55 22.9 -17.0 22.95 -17.0 25.75 -20.5 26.85 -24.9 28.9 -24.85 27.75 -21.7 31.8 -22.15 32.0 -20.5 27.7 -19.35" fill="#eba83c" fill-rule="evenodd" stroke="none"/>
      <path d="M27.35 -32.7 L27.6 -33.15 29.15 -28.45 28.9 -24.85 26.85 -24.9 27.55 -28.1 27.35 -32.7" fill="#f5db62" fill-rule="evenodd" stroke="none"/>
      <path d="M27.35 -32.7 L27.6 -33.15 29.15 -28.45 27.55 -28.1 27.35 -32.7" fill="#faefb4" fill-rule="evenodd" stroke="none"/>
      <path d="M36.8 -23.35 L33.1 -19.9 32.0 -20.5 35.75 -23.75 36.8 -23.35" fill="#af5729" fill-rule="evenodd" stroke="none"/>
      <path d="M36.65 -28.9 L37.5 -28.95 35.75 -23.75 32.0 -20.5 31.8 -22.15 34.55 -24.75 36.65 -28.9" fill="#f5db62" fill-rule="evenodd" stroke="none"/>
      <path d="M27.6 -33.15 L28.55 -32.95 29.95 -29.2 29.15 -28.45 27.6 -33.15" fill="#af5729" fill-rule="evenodd" stroke="none"/>
      <path d="M27.7 -19.35 L28.6 -18.7 26.1 -15.4 24.35 -16.3 27.7 -19.35" fill="#af5729" fill-rule="evenodd" stroke="none"/>
      <path d="M29.95 -29.2 L30.1 -25.65 28.9 -24.85 29.15 -28.45 29.95 -29.2" fill="#af5729" fill-rule="evenodd" stroke="none"/>
      <path d="M24.45 -17.0 L29.1 -16.0 32.05 -17.85 32.75 -17.85 30.15 -14.65 25.75 -15.05 24.45 -17.0" fill="#eba83c" fill-rule="evenodd" stroke="none"/>
      <path d="M30.15 -14.65 L30.15 -13.5 26.15 -13.15 25.75 -15.05 30.15 -14.65" fill="#af5729" fill-rule="evenodd" stroke="none"/>
      <path d="M32.75 -17.85 L32.75 -16.9 30.15 -13.5 30.15 -14.65 32.75 -17.85" fill="#6b3519" fill-rule="evenodd" stroke="none"/>
      <path d="M29.1 -16.0 L32.05 -17.85 32.75 -17.85 30.15 -14.65 29.1 -16.0" fill="#faefb4" fill-rule="evenodd" stroke="none"/>
      <path d="M33.1 -19.9 L28.6 -18.7 27.7 -19.35 32.0 -20.5 33.1 -19.9" fill="#6b3519" fill-rule="evenodd" stroke="none"/>
      <path d="M25.6 -14.05 L23.95 -9.6 24.3 -16.0 25.6 -14.05" fill="#652e2d" fill-rule="evenodd" stroke="none"/>
      <path d="M-0.3 0.75 L6.4 -2.75 9.0 -1.15 7.5 4.8 -0.3 0.75" fill="#461413" fill-rule="evenodd" stroke="none"/>
      <path d="M9.0 -1.15 L7.85 -11.05 14.0 -15.9 Q17.1 -14.35 20.15 -12.85 L32.1 -0.5 32.1 8.65 24.75 6.1 17.2 3.6 13.8 17.4 -0.6 7.75 -0.3 0.75 7.5 4.8 9.0 -1.15" fill="#5e1b17" fill-rule="evenodd" stroke="none"/>
      <path d="M14.0 -15.9 L19.45 -19.15 25.8 -16.35 20.15 -12.85 Q17.1 -14.35 14.0 -15.9" fill="#d45c57" fill-rule="evenodd" stroke="none"/>
      <path d="M37.55 -4.25 L37.55 4.75 32.1 8.65 32.1 -0.5 37.55 -4.25" fill="#000000" fill-rule="evenodd" stroke="none"/>
      <path d="M25.8 -16.35 L37.55 -4.25 32.1 -0.5 20.15 -12.85 25.8 -16.35" fill="#a53831" fill-rule="evenodd" stroke="none"/>
      <path d="M24.75 6.1 L23.5 11.55 13.8 17.4 17.2 3.6 24.75 6.1" fill="#952821" fill-rule="evenodd" stroke="none"/>
      <path d="M19.65 -2.2 L16.8 -3.75 16.8 -10.8 19.65 -9.0 19.65 -2.2" fill="#ffffff" fill-rule="evenodd" stroke="none"/>
      <path d="M19.65 -9.0 L22.25 -7.8 22.25 -1.0 19.65 -2.2 19.65 -9.0" fill="#000000" fill-rule="evenodd" stroke="none"/>
      <path d="M0.3 -18.6 L2.35 -15.05 4.95 -12.35 3.85 -11.9 0.9 -15.3 -0.8 -18.95 0.3 -18.55 0.3 -18.6 M11.85 -6.5 L14.45 -9.7 14.5 -9.7 15.4 -11.15 15.4 -8.75 13.85 -7.0 13.75 -6.85 10.7 -3.4 10.45 -4.7 11.85 -6.5 M1.2 -7.9 L1.9 -9.05 7.1 -10.6 5.75 -8.9 1.2 -7.9" fill="#af5729" fill-rule="evenodd" stroke="none"/>
      <path d="M-2.1 -25.35 L0.3 -18.6 0.3 -18.55 -0.8 -18.95 -2.55 -25.6 -2.1 -25.35 M-7.3 -15.05 L-3.15 -10.6 -3.8 -9.6 -7.4 -14.4 -7.3 -15.05 M7.15 -10.6 L9.1 -9.95 11.6 -9.1 10.45 -7.4 5.75 -8.9 7.15 -10.6 M10.7 -3.4 L4.25 -1.95 3.65 -2.55 10.4 -4.75 10.7 -3.4" fill="#6b3519" fill-rule="evenodd" stroke="none"/>
      <path d="M0.3 -18.6 L1.85 -19.05 4.1 -16.1 2.35 -15.05 0.3 -18.6 M-3.15 -10.6 L-2.55 -12.2 1.2 -10.9 1.9 -9.05 -3.15 -10.6" fill="#f5db62" fill-rule="evenodd" stroke="none"/>
      <path d="M1.85 -19.05 L0.3 -18.6 -2.1 -25.35 -0.3 -23.8 1.85 -19.05 M-3.15 -10.6 L-7.3 -15.05 -6.55 -15.35 -2.55 -12.2 -3.15 -10.6 M9.1 -5.4 L10.4 -4.75 3.65 -2.55 4.3 -3.5 9.1 -5.4" fill="#faefb4" fill-rule="evenodd" stroke="none"/>
      <path d="M-3.8 -9.6 L-3.15 -10.6 1.9 -9.05 1.2 -7.9 -3.8 -9.6" fill="#804621" fill-rule="evenodd" stroke="none"/>
      <path d="M2.35 -15.05 L4.1 -16.1 8.25 -12.7 8.25 -12.75 11.75 -10.9 13.3 -12.65 15.4 -11.15 14.5 -9.7 14.45 -9.7 11.85 -6.5 10.4 -4.75 9.1 -5.4 10.45 -7.4 11.6 -9.1 11.6 -9.15 9.1 -9.95 7.15 -10.6 7.1 -10.65 7.1 -10.6 1.9 -9.05 1.2 -10.9 3.85 -11.9 4.95 -12.35 2.35 -15.05" fill="#eba83c" fill-rule="evenodd" stroke="none"/>
      <path d="M13.75 -6.85 L13.85 -7.0 13.8 -6.85 13.75 -6.85" fill="#744140" fill-rule="evenodd" stroke="none"/>
    </g>
  </defs>
</svg>
