<?xml version="1.0" encoding="UTF-8" standalone="no"?>
<svg xmlns:xlink="http://www.w3.org/1999/xlink" height="32.15px" width="36.75px" xmlns="http://www.w3.org/2000/svg">
  <g transform="matrix(1.0, 0.0, 0.0, 1.0, -4.95, -12.7)">
    <use height="30.65" transform="matrix(1.0, 0.0, 0.0, 1.0, 12.0, 12.7)" width="19.95" xlink:href="#sprite0"/>
  </g>
  <defs>
    <g id="sprite0" transform="matrix(1.0, 0.0, 0.0, 1.0, -0.45, 8.85)">
      <use height="30.65" transform="matrix(1.0, 0.0, 0.0, 1.0, 0.45, -8.85)" width="19.95" xlink:href="#shape0"/>
    </g>
    <g id="shape0" transform="matrix(1.0, 0.0, 0.0, 1.0, -0.45, 8.85)">
      <path d="M15.4 -5.35 L19.0 -7.1 20.4 6.9 19.35 17.55 17.4 18.95 17.45 12.6 16.35 13.5 16.25 17.1 16.6 19.65 14.2 21.8 15.4 -5.35 M10.85 3.8 L9.8 7.55 1.75 4.15 6.45 2.45 10.85 3.8 M3.4 15.5 L3.6 10.75 5.45 11.75 5.1 14.25 3.4 15.5" fill="#ffffff" fill-rule="evenodd" stroke="none"/>
      <path d="M0.5 9.0 L0.5 9.05 0.45 9.0 0.5 9.0" fill="#999999" fill-rule="evenodd" stroke="none"/>
      <path d="M11.65 -7.2 L15.4 -5.35 14.2 21.8 11.5 19.9 11.1 14.05 5.45 11.75 3.6 10.75 3.4 15.5 0.45 13.7 0.45 9.0 0.5 9.05 0.5 9.0 1.75 4.15 9.8 7.55 10.85 3.8 11.65 -7.2 M16.25 17.1 L16.35 13.5 17.45 12.6 17.4 18.95 16.25 17.1" fill="#a7c6bc" fill-rule="evenodd" stroke="none"/>
      <path d="M15.4 -5.35 L11.65 -7.2 15.2 -8.85 19.0 -7.1 15.4 -5.35" fill="#bce0d4" fill-rule="evenodd" stroke="none"/>
      <path d="M13.8 -5.5 L13.8 -3.7 13.05 -4.2 13.05 -6.05 13.8 -5.5" fill="#ffffff" fill-rule="evenodd" stroke="none"/>
      <path d="M13.8 -3.7 L13.8 -5.5 14.5 -5.05 14.5 -3.25 13.8 -3.7" fill="#000000" fill-rule="evenodd" stroke="none"/>
      <path d="M16.2 -4.25 L18.2 -5.2 19.65 -4.7 17.65 -3.6 16.2 -4.25" fill="#bce0d4" fill-rule="evenodd" stroke="none"/>
      <path d="M17.55 -0.95 L16.05 -1.55 16.2 -4.25 17.65 -3.6 17.55 -0.95" fill="#a7c6bc" fill-rule="evenodd" stroke="none"/>
      <path d="M19.65 -4.7 L19.75 -2.1 17.55 -0.95 17.65 -3.6 19.65 -4.7" fill="#e2e2e2" fill-rule="evenodd" stroke="none"/>
    </g>
  </defs>
</svg>
