<?xml version="1.0" encoding="UTF-8" standalone="no"?>
<svg xmlns:xlink="http://www.w3.org/1999/xlink" height="32.15px" width="36.75px" xmlns="http://www.w3.org/2000/svg">
  <g transform="matrix(1.0, 0.0, 0.0, 1.0, -4.95, -12.7)">
    <use height="22.5" transform="matrix(1.0, 0.0, 0.0, 1.0, 10.8, 18.85)" width="30.9" xlink:href="#sprite0"/>
  </g>
  <defs>
    <g id="sprite0" transform="matrix(1.0, 0.0, 0.0, 1.0, -0.2, -0.15)">
      <use height="22.5" transform="matrix(1.0, 0.0, 0.0, 1.0, 0.2, 0.15)" width="30.9" xlink:href="#shape0"/>
    </g>
    <g id="shape0" transform="matrix(1.0, 0.0, 0.0, 1.0, -0.2, -0.15)">
      <path d="M31.1 13.7 L22.05 10.85 24.55 8.75 31.1 13.7" fill="#ffffff" fill-rule="evenodd" stroke="none"/>
      <path d="M22.05 10.85 L31.1 13.7 23.7 13.1 22.05 10.85" fill="#e8e8e8" fill-rule="evenodd" stroke="none"/>
      <path d="M23.3 8.6 L20.35 10.3 15.4 7.0 10.6 7.1 14.45 3.75 14.35 3.65 15.4 2.7 19.55 2.2 23.3 8.6 M0.2 10.3 L0.25 10.3 0.25 10.35 0.2 10.3 M19.25 13.2 L19.25 18.65 Q18.35 19.2 17.4 19.7 L17.4 15.3 14.85 16.6 14.85 18.2 15.0 21.1 12.55 22.65 12.55 18.25 12.6 18.25 13.15 16.2 19.25 13.2" fill="#999999" fill-rule="evenodd" stroke="none"/>
      <path d="M20.35 10.3 L23.3 8.6 24.55 18.4 22.35 19.9 20.35 10.3" fill="#b5b5b5" fill-rule="evenodd" stroke="none"/>
      <path d="M10.6 7.1 L15.4 7.0 20.35 10.3 22.35 19.9 20.15 18.5 19.25 13.2 13.15 16.2 9.95 13.35 9.95 9.3 10.6 7.1" fill="#5e5e5e" fill-rule="evenodd" stroke="none"/>
      <path d="M14.35 3.65 L14.45 3.75 10.6 7.1 9.95 9.3 0.95 4.05 8.05 0.15 14.35 3.65" fill="#777777" fill-rule="evenodd" stroke="none"/>
      <path d="M0.25 10.3 L0.95 4.05 9.95 9.3 9.95 13.35 13.15 16.2 12.6 18.25 12.55 18.25 12.55 22.65 8.7 20.25 8.7 15.85 6.25 14.3 6.25 14.2 4.05 12.8 4.05 17.25 0.2 14.85 0.2 10.3 0.25 10.35 0.25 10.3" fill="#565656" fill-rule="evenodd" stroke="none"/>
      <path d="M6.25 14.3 L5.75 14.0 5.75 15.9 4.05 17.25 4.05 12.8 6.25 14.2 6.25 14.3" fill="#666666" fill-rule="evenodd" stroke="none"/>
      <path d="M17.4 19.7 L14.85 18.2 14.85 16.6 17.4 15.3 17.4 19.7" fill="#464646" fill-rule="evenodd" stroke="none"/>
      <path d="M16.75 10.4 L15.8 9.75 15.8 7.35 16.75 8.05 16.75 10.4" fill="#ffffff" fill-rule="evenodd" stroke="none"/>
      <path d="M16.75 8.05 L17.65 8.65 17.65 11.0 16.75 10.4 16.75 8.05" fill="#000000" fill-rule="evenodd" stroke="none"/>
      <path d="M20.3 18.95 L16.55 14.3 18.0 12.0 20.3 18.95" fill="#e8e8e8" fill-rule="evenodd" stroke="none"/>
      <path d="M18.0 12.0 L20.3 13.05 20.3 18.95 18.0 12.0" fill="#ffffff" fill-rule="evenodd" stroke="none"/>
    </g>
  </defs>
</svg>
