<?xml version="1.0" encoding="UTF-8" standalone="no"?>
<svg xmlns:xlink="http://www.w3.org/1999/xlink" height="32.15px" width="36.75px" xmlns="http://www.w3.org/2000/svg">
  <g transform="matrix(1.0, 0.0, 0.0, 1.0, -4.95, -12.7)">
    <use height="21.4" transform="matrix(1.0, 0.0, 0.0, 1.0, 11.55, 21.55)" width="23.85" xlink:href="#sprite0"/>
  </g>
  <defs>
    <g id="sprite0" transform="matrix(1.0, 0.0, 0.0, 1.0, 0.0, 0.0)">
      <use height="21.4" transform="matrix(1.0, 0.0, 0.0, 1.0, 0.0, 0.0)" width="23.85" xlink:href="#shape0"/>
    </g>
    <g id="shape0" transform="matrix(1.0, 0.0, 0.0, 1.0, 0.0, 0.0)">
      <path d="M23.85 6.85 L20.8 8.6 12.1 3.0 13.15 3.0 17.05 3.0 20.0 0.25 23.85 6.85 M12.75 21.4 L12.75 16.85 12.8 16.85 14.35 9.8 19.7 11.6 19.7 17.25 17.75 18.35 17.75 13.75 15.15 15.15 15.15 16.8 15.3 19.75 12.75 21.4" fill="#fccc01" fill-rule="evenodd" stroke="none"/>
      <path d="M20.8 8.6 L23.85 6.85 23.7 10.05 20.8 11.85 20.8 8.6" fill="#000000" fill-rule="evenodd" stroke="none"/>
      <path d="M12.1 3.0 L20.8 8.6 20.8 11.85 19.7 11.6 14.35 9.8 12.8 16.85 12.75 16.85 12.75 21.4 8.8 18.9 8.8 14.35 7.6 13.55 6.25 12.7 6.25 12.65 3.95 11.2 3.95 15.8 0.0 13.3 0.0 8.6 0.05 8.65 0.05 8.6 2.5 2.8 10.05 7.6 12.1 3.0 M15.15 16.8 L15.15 15.15 17.75 13.75 17.75 18.35 15.15 16.8" fill="#cc6600" fill-rule="evenodd" stroke="none"/>
      <path d="M13.15 3.0 L12.1 3.0 10.05 7.6 2.5 2.8 7.5 0.0 13.15 3.0" fill="#ff9900" fill-rule="evenodd" stroke="none"/>
      <path d="M0.05 8.6 L0.05 8.65 0.0 8.6 0.05 8.6" fill="#999999" fill-rule="evenodd" stroke="none"/>
      <path d="M3.95 15.8 L3.95 11.2 6.25 12.65 6.25 12.7 7.6 13.55 5.7 12.45 5.75 14.4 3.95 15.8" fill="#666666" fill-rule="evenodd" stroke="none"/>
      <path d="M2.7 4.3 L4.15 5.3 4.15 7.1 2.7 6.15 2.7 4.3" fill="#000000" fill-rule="evenodd" stroke="none"/>
      <path d="M1.6 8.15 L3.05 9.15 3.05 10.95 1.6 10.0 1.6 8.15" fill="#000000" fill-rule="evenodd" stroke="none"/>
      <path d="M5.05 8.95 L6.5 9.95 6.5 11.75 5.05 10.8 5.05 8.95" fill="#000000" fill-rule="evenodd" stroke="none"/>
      <path d="M8.7 7.7 L10.15 8.7 10.15 10.5 8.7 9.55 8.7 7.7" fill="#000000" fill-rule="evenodd" stroke="none"/>
      <path d="M10.25 12.25 L11.7 13.25 11.7 15.05 10.25 14.1 10.25 12.25" fill="#000000" fill-rule="evenodd" stroke="none"/>
      <path d="M10.25 16.5 L11.7 17.5 11.7 19.3 10.25 18.35 10.25 16.5" fill="#000000" fill-rule="evenodd" stroke="none"/>
      <path d="M0.95 11.4 L2.4 12.4 2.4 14.2 0.95 13.25 0.95 11.4" fill="#000000" fill-rule="evenodd" stroke="none"/>
      <path d="M17.1 11.4 L17.1 13.25 15.65 14.2 15.65 12.4 17.1 11.4" fill="#000000" fill-rule="evenodd" stroke="none"/>
      <path d="M14.65 17.15 L14.65 19.0 13.2 19.95 13.2 18.15 14.65 17.15" fill="#000000" fill-rule="evenodd" stroke="none"/>
      <path d="M19.5 13.35 L19.5 15.2 18.05 16.15 18.05 14.35 19.5 13.35" fill="#000000" fill-rule="evenodd" stroke="none"/>
      <path d="M13.45 6.75 L12.7 6.25 12.7 4.4 13.45 4.95 13.45 6.75" fill="#ffffff" fill-rule="evenodd" stroke="none"/>
      <path d="M13.45 4.95 L14.15 5.4 14.15 7.2 13.45 6.75 13.45 4.95" fill="#000000" fill-rule="evenodd" stroke="none"/>
    </g>
  </defs>
</svg>
