<?xml version="1.0" encoding="UTF-8" standalone="no"?>
<svg xmlns:xlink="http://www.w3.org/1999/xlink" height="32.15px" width="36.75px" xmlns="http://www.w3.org/2000/svg">
  <g transform="matrix(1.0, 0.0, 0.0, 1.0, -4.95, -12.7)">
    <use height="42.95" transform="matrix(0.7042, 0.0, 0.0, 0.7042, 13.4565, 14.6076)" width="28.65" xlink:href="#sprite0"/>
  </g>
  <defs>
    <g id="sprite0" transform="matrix(1.0, 0.0, 0.0, 1.0, 14.05, 19.8)">
      <use height="42.95" transform="matrix(1.0, 0.0, 0.0, 1.0, -14.05, -19.8)" width="28.65" xlink:href="#shape0"/>
    </g>
    <g id="shape0" transform="matrix(1.0, 0.0, 0.0, 1.0, 14.05, 19.8)">
      <path d="M-1.55 14.55 L-1.4 14.45 -1.5 14.55 -1.55 14.55" fill="#f2d1c0" fill-rule="evenodd" stroke="none"/>
      <path d="M8.35 17.55 L8.8 17.9 6.1 17.3 6.05 17.25 4.7 16.95 3.4 14.15 3.75 14.4 3.8 14.4 8.35 17.55 M6.0 19.6 L6.05 19.65 4.65 19.35 6.0 19.6 1.0 16.85 -2.3 16.85 0.55 13.5 5.6 19.3 6.0 19.6" fill="#de9546" fill-rule="evenodd" stroke="none"/>
      <path d="M8.35 17.55 L3.8 14.4 3.75 14.4 3.35 14.1 3.4 14.15 4.7 16.95 6.0 19.6 5.6 19.3 0.55 13.5 2.45 13.5 2.45 13.45 2.5 13.45 2.45 13.5 4.35 12.0 8.75 17.85 8.35 17.55" fill="#fada57" fill-rule="evenodd" stroke="none"/>
      <path d="M-6.2 17.0 L-1.15 22.8 -0.75 23.1 -0.7 23.15 -2.1 22.85 -0.75 23.1 -5.75 20.35 -9.05 20.35 -6.2 17.0 M-2.05 20.45 L-3.35 17.65 -3.0 17.9 -2.95 17.9 1.6 21.05 2.05 21.4 -0.65 20.8 -0.7 20.75 -2.05 20.45" fill="#de9546" fill-rule="evenodd" stroke="none"/>
      <path d="M-6.2 17.0 L-4.3 17.0 -2.4 15.5 2.0 21.35 1.6 21.05 -2.95 17.9 -3.0 17.9 -3.4 17.6 -3.35 17.65 -2.05 20.45 -0.75 23.1 -1.15 22.8 -6.2 17.0 M-4.3 17.0 L-4.3 16.95 -4.25 16.95 -4.3 17.0" fill="#fada57" fill-rule="evenodd" stroke="none"/>
      <path d="M-4.2 17.9 L-8.55 5.7 -6.3 4.6 -2.55 17.1 -4.2 17.9" fill="#edbba1" fill-rule="evenodd" stroke="none"/>
      <path d="M-4.25 17.95 L-5.9 16.95 -10.8 4.4 -8.55 5.75 -4.25 17.95" fill="#ca7b63" fill-rule="evenodd" stroke="none"/>
      <path d="M-6.3 4.55 L-8.55 5.7 -10.8 4.35 -8.55 3.25 -6.3 4.55" fill="#fada57" fill-rule="evenodd" stroke="none"/>
      <path d="M2.65 14.35 L-1.35 2.1 0.55 1.15 4.2 13.55 2.65 14.35" fill="#edbba1" fill-rule="evenodd" stroke="none"/>
      <path d="M2.6 14.35 L0.8 13.3 -3.55 0.8 -1.35 2.1 2.6 14.35" fill="#ca7b63" fill-rule="evenodd" stroke="none"/>
      <path d="M0.9 0.95 L-1.35 2.1 -3.55 0.75 -1.35 -0.35 0.9 0.95" fill="#fada57" fill-rule="evenodd" stroke="none"/>
      <path d="M12.8 -18.85 L10.2 -14.35 9.7 -14.95 9.75 -14.95 10.1 -16.65 9.45 -17.0 12.8 -18.85 M7.6 -7.9 L7.55 -5.95 7.55 -4.7 7.45 6.4 7.4 8.7 5.25 10.15 5.6 -8.3 7.6 -7.9 M5.25 10.2 L5.2 10.2 5.25 10.2 M3.4 -10.6 L-0.25 -11.7 6.45 -15.35 6.55 -15.25 4.85 -12.75 3.4 -10.6" fill="#edbba1" fill-rule="evenodd" stroke="none"/>
      <path d="M10.2 -14.35 L11.5 -12.75 8.3 -10.8 8.3 -10.85 8.4 -14.15 9.7 -14.95 10.2 -14.35 M3.9 10.75 L3.8 10.8 3.65 10.7 3.9 10.75" fill="#daac95" fill-rule="evenodd" stroke="none"/>
      <path d="M8.15 -17.75 L11.6 -19.65 12.8 -18.85 9.45 -17.0 8.15 -17.75 M-0.25 -11.7 L-1.45 -12.55 3.35 -15.15 5.15 -16.1 6.45 -15.35 -0.25 -11.7" fill="#cf927c" fill-rule="evenodd" stroke="none"/>
      <path d="M7.55 -5.95 L8.75 -5.4 7.55 -4.7 7.55 -5.95 M-2.1 -10.7 L-1.7 -10.95 3.35 -8.2 3.25 -2.15 0.0 -0.25 -0.05 -0.25 -0.05 -0.3 -9.75 -6.05 Q-5.9 -8.35 -2.1 -10.7 M3.15 -19.0 L4.6 -19.8 8.15 -17.75 9.45 -17.0 10.1 -16.65 8.4 -15.85 3.15 -19.0" fill="#a64c34" fill-rule="evenodd" stroke="none"/>
      <path d="M8.75 -5.4 L8.75 5.6 7.45 6.4 7.55 -4.7 8.75 -5.4 M3.05 9.0 L-0.05 10.85 -0.05 10.8 -0.05 -0.25 0.0 -0.25 3.25 -2.15 3.05 9.0 M-2.85 9.15 L-4.2 9.95 -4.15 2.8 -4.25 2.75 -1.7 1.25 -1.65 8.4 -2.85 9.15 M-4.3 10.05 L-4.35 10.05 -4.35 10.0 -4.3 10.05 M10.1 -16.65 L9.75 -14.95 9.7 -14.95 8.4 -14.15 8.4 -14.2 8.4 -15.85 10.1 -16.65" fill="#dc8573" fill-rule="evenodd" stroke="none"/>
      <path d="M-0.05 10.8 L-2.85 9.15 -1.65 8.4 -1.7 1.25 -4.25 2.75 -4.15 2.8 -4.2 9.95 -4.2 10.1 -4.3 10.05 -4.35 10.0 -9.85 6.7 -14.05 -3.25 -10.55 -1.1 -9.75 -0.65 -4.25 2.7 -1.7 1.2 -9.75 -3.65 -9.75 -6.05 -0.05 -0.3 -0.05 -0.25 -0.05 10.8 M3.35 -15.15 L3.15 -19.0 8.4 -15.85 8.4 -14.2 6.55 -15.25 6.45 -15.35 5.15 -16.1 3.35 -15.15" fill="#773723" fill-rule="evenodd" stroke="none"/>
      <path d="M8.4 -14.2 L8.4 -14.15 8.3 -10.85 8.2 -10.85 6.8 -11.65 4.85 -12.75 6.55 -15.25 8.4 -14.2 M8.9 -10.3 L8.9 -10.35 9.55 -9.85 8.9 -10.3" fill="#b36e58" fill-rule="evenodd" stroke="none"/>
      <path d="M8.2 -7.9 L8.15 -7.8 7.6 -7.9 5.6 -8.3 5.25 10.15 5.25 10.2 5.2 10.2 3.05 9.2 3.05 9.0 3.25 -2.15 3.35 -8.2 3.35 -10.6 3.4 -10.6 6.8 -9.8 8.2 -8.9 8.15 -7.9 8.2 -7.9 M8.2 -10.85 L8.3 -10.85 8.3 -10.8 8.25 -10.8 8.9 -10.35 8.9 -10.3 8.2 -10.8 8.2 -10.85" fill="#ca7b63" fill-rule="evenodd" stroke="none"/>
      <path d="M4.85 -12.75 L6.8 -11.65 8.2 -10.85 8.2 -10.8 7.35 -11.3 6.8 -11.65 6.8 -9.8 3.4 -10.6 4.85 -12.75" fill="#925a48" fill-rule="evenodd" stroke="none"/>
      <path d="M11.5 -12.75 L14.55 -6.4 14.15 -6.7 9.6 -9.85 9.55 -9.85 8.9 -10.35 8.25 -10.8 8.3 -10.8 11.5 -12.75 M8.2 -9.9 L8.2 -8.9 6.8 -9.8 6.8 -11.65 7.35 -11.3 7.35 -10.45 8.2 -9.9" fill="#fada57" fill-rule="evenodd" stroke="none"/>
      <path d="M11.9 -6.95 L11.85 -6.95 11.85 -7.0 11.9 -6.95 M8.2 -10.8 L8.2 -9.9 7.35 -10.45 7.35 -11.3 8.2 -10.8" fill="#020203" fill-rule="evenodd" stroke="none"/>
      <path d="M14.15 -6.7 L14.6 -6.35 11.9 -6.95 11.85 -7.0 8.2 -7.9 8.15 -7.9 8.2 -8.9 8.2 -9.9 8.2 -10.8 8.9 -10.3 9.55 -9.85 9.6 -9.85 14.15 -6.7" fill="#de9546" fill-rule="evenodd" stroke="none"/>
      <path d="M-9.75 -0.65 L-10.55 -1.1 -14.05 -3.25 -11.6 -4.8 -9.75 -3.65 -1.7 1.2 -4.25 2.7 -9.75 -0.65" fill="#90432d" fill-rule="evenodd" stroke="none"/>
      <path d="M-14.05 -3.25 L-13.3 -11.95 -2.1 -10.7 Q-5.9 -8.35 -9.75 -6.05 L-9.75 -3.65 -11.6 -4.8 -14.05 -3.25" fill="#c45e3d" fill-rule="evenodd" stroke="none"/>
    </g>
  </defs>
</svg>
