<?xml version="1.0" encoding="UTF-8" standalone="no"?>
<svg xmlns:xlink="http://www.w3.org/1999/xlink" height="32.15px" width="36.75px" xmlns="http://www.w3.org/2000/svg">
  <g transform="matrix(1.0, 0.0, 0.0, 1.0, -4.95, -12.7)">
    <use height="27.7" transform="matrix(1.0, 0.0, 0.0, 1.0, 8.35, 15.65)" width="27.85" xlink:href="#sprite0"/>
  </g>
  <defs>
    <g id="sprite0" transform="matrix(1.0, 0.0, 0.0, 1.0, 13.9, 13.85)">
      <use height="25.1" transform="matrix(1.0, 0.0, 0.0, 1.0, -13.9, -11.25)" width="25.5" xlink:href="#shape0"/>
      <use height="29.1" transform="matrix(0.3578, 0.0, 0.0, 0.3578, 4.3833, -13.8388)" width="26.8" xlink:href="#sprite1"/>
    </g>
    <g id="shape0" transform="matrix(1.0, 0.0, 0.0, 1.0, 13.9, 11.25)">
      <path d="M-8.2 5.65 L-5.75 4.5 -5.05 5.75 -8.15 7.2 -8.2 5.65" fill="url(#gradient0)" fill-rule="evenodd" stroke="none"/>
      <path d="M7.95 7.75 L8.9 9.3 6.6 10.9 6.1 9.0 7.95 7.75" fill="url(#gradient1)" fill-rule="evenodd" stroke="none"/>
      <path d="M1.25 11.4 L3.9 10.15 4.5 12.1 1.6 13.85 1.25 11.4" fill="url(#gradient2)" fill-rule="evenodd" stroke="none"/>
      <path d="M-11.35 5.65 L-8.2 5.65 -8.15 7.2 -11.35 5.65 M-1.8 11.7 L-1.55 9.6 1.25 11.4 1.6 13.85 -1.8 11.7 M6.6 10.9 L3.8 9.45 4.0 7.95 6.1 9.0 6.6 10.9" fill="#d23b84" fill-rule="evenodd" stroke="none"/>
      <path d="M4.05 7.05 L6.2 6.1 6.1 9.0 3.9 9.55 4.05 7.05 M9.25 3.25 L7.9 2.4 4.2 -0.3 1.3 9.2 1.25 9.2 1.25 11.4 -1.8 11.7 -1.8 4.65 -4.95 2.55 -7.45 1.2 -8.2 5.65 -11.35 5.65 -11.15 0.25 -9.7 -6.35 -5.1 -2.6 -5.15 -2.6 -1.8 -0.45 0.8 -6.5 1.45 -8.75 9.25 1.0 9.25 3.25" fill="#dbd7c7" fill-rule="evenodd" stroke="none"/>
      <path d="M-5.75 4.5 L-8.2 5.65 -7.45 1.2 -4.95 2.55 -5.75 4.5 M-5.1 -2.6 L-9.7 -6.35 -5.6 -8.8 0.8 -6.5 -1.8 -0.45 -5.1 -2.6 M7.7 2.25 L7.95 7.75 6.1 9.0 6.2 6.1 4.05 7.05 4.0 8.6 3.9 10.15 1.25 11.4 1.25 9.2 1.3 9.2 4.2 -0.3 7.7 2.25 M9.25 1.0 L1.45 -8.75 3.5 -9.7 5.95 -10.85 11.6 -0.4 9.25 1.0" fill="#ffffff" fill-rule="evenodd" stroke="none"/>
      <path d="M11.6 -0.4 L11.45 2.0 9.25 3.25 9.25 1.0 11.6 -0.4" fill="#dbd7c7" fill-rule="evenodd" stroke="none"/>
      <path d="M-6.6 -8.2 L-9.7 -6.35 -10.1 -4.75 -10.9 -5.5 -11.5 -7.8 -9.7 -8.8 -6.6 -8.2" fill="url(#gradient3)" fill-rule="evenodd" stroke="none"/>
      <path d="M-11.5 -7.8 L-9.8 -5.95 -11.15 0.25 -12.2 6.1 -13.9 3.9 -13.4 -3.3 -11.5 -7.8" fill="url(#gradient4)" fill-rule="evenodd" stroke="none"/>
      <path d="M-11.5 -7.8 L-9.8 -5.95 -11.15 0.25 -12.2 6.1 -13.9 3.9 -13.4 -3.3 -11.5 -7.8" fill="url(#gradient5)" fill-rule="evenodd" stroke="none"/>
      <path d="M1.95 -3.95 L1.45 -4.85 2.9 -5.3 4.25 -2.6 2.9 -3.35 1.95 -3.95" fill="#ffffff" fill-rule="evenodd" stroke="none"/>
      <path d="M4.25 -5.25 L4.25 -2.6 2.9 -3.35 2.95 -6.8 4.25 -5.25" fill="#221f20" fill-rule="evenodd" stroke="none"/>
      <path d="M2.95 -6.85 L3.65 -6.0 2.75 -5.65 2.4 -5.15 1.3 -3.35 1.1 10.35 -2.75 7.95 -3.75 4.8 -3.1 2.25 -3.95 -3.05 1.15 -9.35 5.1 -11.25 5.95 -10.85 2.95 -6.85" fill="url(#gradient6)" fill-rule="evenodd" stroke="none"/>
      <path d="M2.95 -6.85 L3.65 -6.0 2.75 -5.65 2.4 -5.15 1.3 -3.35 1.1 10.35 -2.75 7.95 -3.75 4.8 -3.1 2.25 -3.95 -3.05 1.15 -9.35 5.1 -11.25 5.95 -10.85 2.95 -6.85" fill="url(#gradient7)" fill-rule="evenodd" stroke="none"/>
      <path d="M2.2 -6.3 L0.8 -9.8 2.4 -7.8 2.2 -6.3" fill="#ffffff" fill-rule="evenodd" stroke="none"/>
      <path d="M0.8 -9.8 L2.2 -6.3 1.1 -6.7 0.8 -9.8" fill="#dbd7c7" fill-rule="evenodd" stroke="none"/>
      <path d="M5.95 -10.85 L4.35 -7.2 4.25 -5.25 1.95 -3.95 1.1 9.2 -0.15 -1.65 2.4 -7.8 5.95 -10.85" fill="url(#gradient8)" fill-rule="evenodd" stroke="none"/>
      <path d="M5.95 -10.85 L4.35 -7.2 4.25 -5.25 1.95 -3.95 1.1 9.2 -0.15 -1.65 2.4 -7.8 5.95 -10.85" fill="url(#gradient9)" fill-rule="evenodd" stroke="none"/>
      <path d="M-11.35 5.65 L-12.2 6.1 -11.15 0.25 -11.35 5.65" fill="url(#gradient10)" fill-rule="evenodd" stroke="none"/>
    </g>
    <linearGradient gradientTransform="matrix(-0.0017, 0.0, 0.0, 0.0017, -6.7, 5.8)" gradientUnits="userSpaceOnUse" id="gradient0" spreadMethod="pad" x1="-819.2" x2="819.2">
      <stop offset="0.0" stop-color="#f2c185"/>
      <stop offset="0.1450980392156863" stop-color="#ebac97"/>
      <stop offset="0.4" stop-color="#e185a3"/>
      <stop offset="0.5176470588235295" stop-color="#de73a3"/>
      <stop offset="0.796078431372549" stop-color="#bd5f99"/>
      <stop offset="1.0" stop-color="#a25192"/>
    </linearGradient>
    <linearGradient gradientTransform="matrix(-0.0024, 0.0, 0.0, 0.0024, 7.4, 9.3)" gradientUnits="userSpaceOnUse" id="gradient1" spreadMethod="pad" x1="-819.2" x2="819.2">
      <stop offset="0.0" stop-color="#f2c185"/>
      <stop offset="0.1450980392156863" stop-color="#ebac97"/>
      <stop offset="0.4" stop-color="#e185a3"/>
      <stop offset="0.5176470588235295" stop-color="#de73a3"/>
      <stop offset="0.796078431372549" stop-color="#bd5f99"/>
      <stop offset="1.0" stop-color="#a25192"/>
    </linearGradient>
    <linearGradient gradientTransform="matrix(-0.0021, 0.0, 0.0, 0.0021, 2.85, 12.0)" gradientUnits="userSpaceOnUse" id="gradient2" spreadMethod="pad" x1="-819.2" x2="819.2">
      <stop offset="0.0" stop-color="#f2c185"/>
      <stop offset="0.1450980392156863" stop-color="#ebac97"/>
      <stop offset="0.4" stop-color="#e185a3"/>
      <stop offset="0.5176470588235295" stop-color="#de73a3"/>
      <stop offset="0.796078431372549" stop-color="#bd5f99"/>
      <stop offset="1.0" stop-color="#a25192"/>
    </linearGradient>
    <linearGradient gradientTransform="matrix(0.0, 0.0024, 0.0024, 0.0, -9.0, -6.75)" gradientUnits="userSpaceOnUse" id="gradient3" spreadMethod="pad" x1="-819.2" x2="819.2">
      <stop offset="0.0" stop-color="#f2c185"/>
      <stop offset="0.1450980392156863" stop-color="#ebac97"/>
      <stop offset="0.4" stop-color="#e185a3"/>
      <stop offset="0.5176470588235295" stop-color="#de73a3"/>
      <stop offset="0.796078431372549" stop-color="#bd5f99"/>
      <stop offset="1.0" stop-color="#a25192"/>
    </linearGradient>
    <linearGradient gradientTransform="matrix(0.0038, -0.0065, -0.0065, -0.0038, -11.85, -0.8)" gradientUnits="userSpaceOnUse" id="gradient4" spreadMethod="pad" x1="-819.2" x2="819.2">
      <stop offset="0.0" stop-color="#413283"/>
      <stop offset="0.15294117647058825" stop-color="#395da2"/>
      <stop offset="0.28627450980392155" stop-color="#5296a1"/>
      <stop offset="0.3686274509803922" stop-color="#69b390"/>
      <stop offset="0.3764705882352941" stop-color="#79b890"/>
      <stop offset="0.41568627450980394" stop-color="#adcc91"/>
      <stop offset="0.45098039215686275" stop-color="#d0dc92"/>
      <stop offset="0.48627450980392156" stop-color="#e6e692"/>
      <stop offset="0.5137254901960784" stop-color="#f3ec92"/>
      <stop offset="0.5372549019607843" stop-color="#f8ee92"/>
      <stop offset="0.596078431372549" stop-color="#f6e18f"/>
      <stop offset="0.7137254901960784" stop-color="#f2c185"/>
      <stop offset="0.7568627450980392" stop-color="#ebac97"/>
      <stop offset="0.7568627450980392" stop-color="#ebac97" stop-opacity="0.0"/>
      <stop offset="1.0" stop-color="#000000" stop-opacity="0.0"/>
    </linearGradient>
    <linearGradient gradientTransform="matrix(0.0038, -0.0065, -0.0065, -0.0038, -11.85, -0.8)" gradientUnits="userSpaceOnUse" id="gradient5" spreadMethod="pad" x1="-819.2" x2="819.2">
      <stop offset="0.0" stop-color="#000000" stop-opacity="0.0"/>
      <stop offset="0.7568627450980392" stop-color="#ebac97" stop-opacity="0.0"/>
      <stop offset="0.7568627450980392" stop-color="#ebac97"/>
      <stop offset="0.8274509803921568" stop-color="#e185a3"/>
      <stop offset="0.8627450980392157" stop-color="#de73a3"/>
      <stop offset="0.9411764705882353" stop-color="#bd5f99"/>
      <stop offset="1.0" stop-color="#a25192"/>
    </linearGradient>
    <linearGradient gradientTransform="matrix(0.0045, -0.0124, -0.0124, -0.0045, 0.4, -1.4)" gradientUnits="userSpaceOnUse" id="gradient6" spreadMethod="pad" x1="-819.2" x2="819.2">
      <stop offset="0.0" stop-color="#413283"/>
      <stop offset="0.15294117647058825" stop-color="#395da2"/>
      <stop offset="0.28627450980392155" stop-color="#5296a1"/>
      <stop offset="0.3686274509803922" stop-color="#69b390"/>
      <stop offset="0.3764705882352941" stop-color="#79b890"/>
      <stop offset="0.41568627450980394" stop-color="#adcc91"/>
      <stop offset="0.45098039215686275" stop-color="#d0dc92"/>
      <stop offset="0.48627450980392156" stop-color="#e6e692"/>
      <stop offset="0.5137254901960784" stop-color="#f3ec92"/>
      <stop offset="0.5372549019607843" stop-color="#f8ee92"/>
      <stop offset="0.596078431372549" stop-color="#f6e18f"/>
      <stop offset="0.7137254901960784" stop-color="#f2c185"/>
      <stop offset="0.7568627450980392" stop-color="#ebac97"/>
      <stop offset="0.7568627450980392" stop-color="#ebac97" stop-opacity="0.0"/>
      <stop offset="1.0" stop-color="#000000" stop-opacity="0.0"/>
    </linearGradient>
    <linearGradient gradientTransform="matrix(0.0045, -0.0124, -0.0124, -0.0045, 0.4, -1.4)" gradientUnits="userSpaceOnUse" id="gradient7" spreadMethod="pad" x1="-819.2" x2="819.2">
      <stop offset="0.0" stop-color="#000000" stop-opacity="0.0"/>
      <stop offset="0.7568627450980392" stop-color="#ebac97" stop-opacity="0.0"/>
      <stop offset="0.7568627450980392" stop-color="#ebac97"/>
      <stop offset="0.8274509803921568" stop-color="#e185a3"/>
      <stop offset="0.8627450980392157" stop-color="#de73a3"/>
      <stop offset="0.9411764705882353" stop-color="#bd5f99"/>
      <stop offset="1.0" stop-color="#a25192"/>
    </linearGradient>
    <linearGradient gradientTransform="matrix(-0.0033, -0.0092, -0.0092, 0.0033, 3.7, -0.25)" gradientUnits="userSpaceOnUse" id="gradient8" spreadMethod="pad" x1="-819.2" x2="819.2">
      <stop offset="0.0" stop-color="#413283"/>
      <stop offset="0.15294117647058825" stop-color="#395da2"/>
      <stop offset="0.28627450980392155" stop-color="#5296a1"/>
      <stop offset="0.3686274509803922" stop-color="#69b390"/>
      <stop offset="0.3764705882352941" stop-color="#79b890"/>
      <stop offset="0.41568627450980394" stop-color="#adcc91"/>
      <stop offset="0.45098039215686275" stop-color="#d0dc92"/>
      <stop offset="0.48627450980392156" stop-color="#e6e692"/>
      <stop offset="0.5137254901960784" stop-color="#f3ec92"/>
      <stop offset="0.5372549019607843" stop-color="#f8ee92"/>
      <stop offset="0.596078431372549" stop-color="#f6e18f"/>
      <stop offset="0.7137254901960784" stop-color="#f2c185"/>
      <stop offset="0.7568627450980392" stop-color="#ebac97"/>
      <stop offset="0.7568627450980392" stop-color="#ebac97" stop-opacity="0.0"/>
      <stop offset="1.0" stop-color="#000000" stop-opacity="0.0"/>
    </linearGradient>
    <linearGradient gradientTransform="matrix(-0.0033, -0.0092, -0.0092, 0.0033, 3.7, -0.25)" gradientUnits="userSpaceOnUse" id="gradient9" spreadMethod="pad" x1="-819.2" x2="819.2">
      <stop offset="0.0" stop-color="#000000" stop-opacity="0.0"/>
      <stop offset="0.7568627450980392" stop-color="#ebac97" stop-opacity="0.0"/>
      <stop offset="0.7568627450980392" stop-color="#ebac97"/>
      <stop offset="0.8274509803921568" stop-color="#e185a3"/>
      <stop offset="0.8627450980392157" stop-color="#de73a3"/>
      <stop offset="0.9411764705882353" stop-color="#bd5f99"/>
      <stop offset="1.0" stop-color="#a25192"/>
    </linearGradient>
    <linearGradient gradientTransform="matrix(0.0017, -0.0029, -0.0029, -0.0017, -11.45, 3.3)" gradientUnits="userSpaceOnUse" id="gradient10" spreadMethod="pad" x1="-819.2" x2="819.2">
      <stop offset="0.0" stop-color="#355199"/>
      <stop offset="0.4" stop-color="#46438e"/>
      <stop offset="1.0" stop-color="#a25192"/>
    </linearGradient>
    <g id="sprite1" transform="matrix(1.0, 0.0, 0.0, 1.0, 13.6, 14.5)">
      <use height="29.1" transform="matrix(1.0, 0.0, 0.0, 1.0, -13.6, -14.5)" width="26.8" xlink:href="#shape1"/>
    </g>
    <g id="shape1" transform="matrix(1.0, 0.0, 0.0, 1.0, 13.6, 14.5)">
      <path d="M1.95 -4.5 L13.2 -14.5 2.25 -0.95 1.95 -4.5" fill="url(#gradient11)" fill-rule="evenodd" stroke="none"/>
      <path d="M13.2 -14.5 L1.95 -4.5 3.9 -8.1 6.5 -10.85 13.2 -14.5" fill="url(#gradient12)" fill-rule="evenodd" stroke="none"/>
      <path d="M-1.5 -4.4 L0.7 -7.1 3.9 -8.1 1.95 -4.5 -0.05 -3.95 -2.55 -0.55 -1.5 -4.4" fill="url(#gradient13)" fill-rule="evenodd" stroke="none"/>
      <path d="M2.25 -0.95 L13.2 -14.5 3.8 1.1 2.25 -0.95" fill="url(#gradient14)" fill-rule="evenodd" stroke="none"/>
      <path d="M1.95 -4.5 L2.25 -0.95 -1.95 4.25 -2.55 -0.55 -0.05 -3.95 1.95 -4.5" fill="url(#gradient15)" fill-rule="evenodd" stroke="none"/>
      <path d="M13.2 -14.5 L7.8 -0.85 5.15 1.35 3.8 1.1 13.2 -14.5" fill="url(#gradient16)" fill-rule="evenodd" stroke="none"/>
      <path d="M5.15 1.35 L4.45 4.85 2.5 6.55 0.6 6.3 2.75 4.0 3.8 1.1 5.15 1.35" fill="url(#gradient17)" fill-rule="evenodd" stroke="none"/>
      <path d="M-1.95 4.25 L2.25 -0.95 3.8 1.1 2.75 4.0 0.6 6.3 -1.95 4.25" fill="url(#gradient18)" fill-rule="evenodd" stroke="none"/>
      <path d="M2.5 6.55 L1.9 10.35 -0.65 12.65 -3.2 12.55 -0.7 9.85 0.6 6.3 2.5 6.55" fill="url(#gradient19)" fill-rule="evenodd" stroke="none"/>
      <path d="M-5.55 -1.6 L-3.95 -4.1 -1.5 -4.4 -2.55 -0.55 -4.75 0.4 -6.9 3.3 -5.55 -1.6" fill="url(#gradient20)" fill-rule="evenodd" stroke="none"/>
      <path d="M-13.6 9.2 L-13.1 3.55 -7.45 -0.95 -5.55 -1.6 -6.9 3.3 -8.45 3.4 -13.6 9.2" fill="url(#gradient21)" fill-rule="evenodd" stroke="none"/>
      <path d="M-9.75 13.8 L-13.6 9.2 -8.45 3.4 -6.9 3.3 -5.7 8.8 -7.65 9.9 -9.75 13.8" fill="url(#gradient22)" fill-rule="evenodd" stroke="none"/>
      <path d="M-4.45 14.6 L-9.75 13.8 -7.65 9.9 -5.7 8.8 -3.2 12.55 -4.45 14.6" fill="url(#gradient23)" fill-rule="evenodd" stroke="none"/>
      <path d="M-2.55 -0.55 L-1.95 4.25 -3.65 6.95 -5.7 8.8 -6.9 3.3 -4.75 0.4 -2.55 -0.55" fill="url(#gradient24)" fill-rule="evenodd" stroke="none"/>
      <path d="M-5.7 8.8 L-3.65 6.95 -1.95 4.25 0.6 6.3 -0.7 9.85 -3.2 12.55 -5.7 8.8" fill="url(#gradient25)" fill-rule="evenodd" stroke="none"/>
      <path d="M-0.65 12.65 L-4.45 14.6 -3.2 12.55 -0.65 12.65" fill="url(#gradient26)" fill-rule="evenodd" stroke="none"/>
    </g>
    <linearGradient gradientTransform="matrix(0.005, -0.005, 0.0012, 0.0012, 7.15, -7.8)" gradientUnits="userSpaceOnUse" id="gradient11" spreadMethod="pad" x1="-819.2" x2="819.2">
      <stop offset="0.0" stop-color="#faf1c3"/>
      <stop offset="1.0" stop-color="#e5959e"/>
    </linearGradient>
    <linearGradient gradientTransform="matrix(0.0038, -0.0029, 6.0E-4, 9.0E-4, 6.65, -9.1)" gradientUnits="userSpaceOnUse" id="gradient12" spreadMethod="pad" x1="-819.2" x2="819.2">
      <stop offset="0.0" stop-color="#f8edb0"/>
      <stop offset="1.0" stop-color="#ecaf93"/>
    </linearGradient>
    <linearGradient gradientTransform="matrix(0.0013, -0.0011, 9.0E-4, 0.001, -0.6, -3.8)" gradientUnits="userSpaceOnUse" id="gradient13" spreadMethod="pad" x1="-819.2" x2="819.2">
      <stop offset="0.0" stop-color="#eeeeb4"/>
      <stop offset="1.0" stop-color="#fff3a9"/>
    </linearGradient>
    <linearGradient gradientTransform="matrix(0.0037, -0.0044, 0.0013, 0.0011, 6.45, -4.3)" gradientUnits="userSpaceOnUse" id="gradient14" spreadMethod="pad" x1="-819.2" x2="819.2">
      <stop offset="0.0" stop-color="#c7c4a4"/>
      <stop offset="1.0" stop-color="#bd9073"/>
    </linearGradient>
    <linearGradient gradientTransform="matrix(0.0014, -0.0012, 0.0016, 0.0019, -1.2, 0.85)" gradientUnits="userSpaceOnUse" id="gradient15" spreadMethod="pad" x1="-819.2" x2="819.2">
      <stop offset="0.0" stop-color="#e5eccb"/>
      <stop offset="1.0" stop-color="#ddd393"/>
    </linearGradient>
    <linearGradient gradientTransform="matrix(0.003, -0.0053, 7.0E-4, 4.0E-4, 7.15, -3.55)" gradientUnits="userSpaceOnUse" id="gradient16" spreadMethod="pad" x1="-819.2" x2="819.2">
      <stop offset="0.0" stop-color="#aaa38a"/>
      <stop offset="1.0" stop-color="#967072"/>
    </linearGradient>
    <linearGradient gradientTransform="matrix(0.001, -0.0023, 0.0013, 5.0E-4, 2.75, 4.0)" gradientUnits="userSpaceOnUse" id="gradient17" spreadMethod="pad" x1="-819.2" x2="819.2">
      <stop offset="0.0" stop-color="#9ba18c"/>
      <stop offset="1.0" stop-color="#a9a27a"/>
    </linearGradient>
    <linearGradient gradientTransform="matrix(0.0015, -0.0022, 0.0016, 0.0011, 0.75, 3.2)" gradientUnits="userSpaceOnUse" id="gradient18" spreadMethod="pad" x1="-819.2" x2="819.2">
      <stop offset="0.0" stop-color="#9eb2a4"/>
      <stop offset="1.0" stop-color="#bcbc8b"/>
    </linearGradient>
    <linearGradient gradientTransform="matrix(0.0023, -0.0028, 0.0015, 0.0012, -0.4, 9.85)" gradientUnits="userSpaceOnUse" id="gradient19" spreadMethod="pad" x1="-819.2" x2="819.2">
      <stop offset="0.0" stop-color="#738e94"/>
      <stop offset="1.0" stop-color="#92997a"/>
    </linearGradient>
    <linearGradient gradientTransform="matrix(0.0016, 4.0E-4, -0.0015, 0.0052, -4.0, -0.55)" gradientUnits="userSpaceOnUse" id="gradient20" spreadMethod="pad" x1="-819.2" x2="819.2">
      <stop offset="0.0" stop-color="#9ecbb4"/>
      <stop offset="1.0" stop-color="#ebeba8"/>
    </linearGradient>
    <linearGradient gradientTransform="matrix(0.0026, -0.0012, 0.0016, 0.0034, -10.95, 4.4)" gradientUnits="userSpaceOnUse" id="gradient21" spreadMethod="pad" x1="-819.2" x2="819.2">
      <stop offset="0.0" stop-color="#3a87c5"/>
      <stop offset="1.0" stop-color="#8bc0a4"/>
    </linearGradient>
    <linearGradient gradientTransform="matrix(0.0026, -0.0013, 0.0022, 0.0044, -9.6, 9.15)" gradientUnits="userSpaceOnUse" id="gradient22" spreadMethod="pad" x1="-819.2" x2="819.2">
      <stop offset="0.0" stop-color="#3a87c5"/>
      <stop offset="1.0" stop-color="#73b4b1"/>
    </linearGradient>
    <linearGradient gradientTransform="matrix(5.0E-4, -0.0013, 0.0032, 0.0013, -6.45, 13.0)" gradientUnits="userSpaceOnUse" id="gradient23" spreadMethod="pad" x1="-819.2" x2="819.2">
      <stop offset="0.0" stop-color="#2d6c9d"/>
      <stop offset="1.0" stop-color="#3a7e9a"/>
    </linearGradient>
    <linearGradient gradientTransform="matrix(0.0023, -4.0E-4, 0.001, 0.0051, -4.15, 4.1)" gradientUnits="userSpaceOnUse" id="gradient24" spreadMethod="pad" x1="-819.2" x2="819.2">
      <stop offset="0.0" stop-color="#aed3d0"/>
      <stop offset="1.0" stop-color="#d7e1a9"/>
    </linearGradient>
    <linearGradient gradientTransform="matrix(0.0011, -0.0016, 0.0021, 0.0015, -3.35, 9.1)" gradientUnits="userSpaceOnUse" id="gradient25" spreadMethod="pad" x1="-819.2" x2="819.2">
      <stop offset="0.0" stop-color="#7ea3b0"/>
      <stop offset="1.0" stop-color="#779e89"/>
    </linearGradient>
    <linearGradient gradientTransform="matrix(0.0, -4.0E-4, 0.0024, -3.0E-4, -2.65, 13.2)" gradientUnits="userSpaceOnUse" id="gradient26" spreadMethod="pad" x1="-819.2" x2="819.2">
      <stop offset="0.0" stop-color="#2d6c9d"/>
      <stop offset="1.0" stop-color="#3a7e9a"/>
    </linearGradient>
  </defs>
</svg>
