<?xml version="1.0" encoding="UTF-8" standalone="no"?>
<svg xmlns:xlink="http://www.w3.org/1999/xlink" height="151.95px" width="202.0px" xmlns="http://www.w3.org/2000/svg">
  <g transform="matrix(1.0, 0.0, 0.0, 1.0, 0.0, 0.0)">
    <use height="146.0" id="bound" transform="matrix(1.0, 0.0, 0.0, 1.0, 0.0, 0.0)" width="201.0" xlink:href="#sprite0"/>
    <use height="102.1" id="style" transform="matrix(1.0, 0.0, 0.0, 1.0, 16.4, 13.5)" width="164.5" xlink:href="#sprite1"/>
  </g>
  <defs>
    <g id="sprite0" transform="matrix(1.0, 0.0, 0.0, 1.0, 0.0, 0.0)">
      <use height="146.0" transform="matrix(1.0, 0.0, 0.0, 1.0, 0.0, 0.0)" width="201.0" xlink:href="#shape0"/>
    </g>
    <g id="shape0" transform="matrix(1.0, 0.0, 0.0, 1.0, 0.0, 0.0)">
      <path d="M0.0 0.0 L201.0 0.0 201.0 146.0 0.0 146.0 0.0 0.0" fill="#000000" fill-opacity="0.0" fill-rule="evenodd" stroke="none"/>
    </g>
    <g id="sprite1" transform="matrix(1.0, 0.0, 0.0, 1.0, 0.0, 15.95)">
      <use height="13.3" transform="matrix(2.0, 0.0, 0.0, 2.0, 62.0, 37.0)" width="4.75" xlink:href="#sprite2"/>
      <use height="13.3" transform="matrix(2.0, 0.0, 0.0, 2.0, 93.5, 40.8)" width="4.75" xlink:href="#sprite2"/>
      <use height="13.3" transform="matrix(2.0, 0.0, 0.0, 2.0, 117.0, 28.0)" width="4.75" xlink:href="#sprite2"/>
      <use height="13.3" transform="matrix(2.0, 0.0, 0.0, 2.0, 155.0, 37.0)" width="4.75" xlink:href="#sprite2"/>
      <use height="13.3" transform="matrix(2.0, 0.0, 0.0, 2.0, 141.5, 54.5)" width="4.75" xlink:href="#sprite2"/>
      <use height="13.3" transform="matrix(2.0, 0.0, 0.0, 2.0, 33.8, 59.2)" width="4.75" xlink:href="#sprite2"/>
      <use height="13.3" transform="matrix(2.0, 0.0, 0.0, 2.0, 64.5, 75.5)" width="4.75" xlink:href="#sprite2"/>
      <use height="13.3" transform="matrix(2.0, 0.0, 0.0, 2.0, 105.5, 75.3)" width="4.75" xlink:href="#sprite2"/>
      <use height="13.3" transform="matrix(2.0, 0.0, 0.0, 2.0, 0.0, 45.5)" width="4.75" xlink:href="#sprite2"/>
      <use height="13.3" transform="matrix(2.0, 0.0, 0.0, 2.0, 59.5, 1.5)" width="4.75" xlink:href="#sprite2"/>
      <use height="13.3" transform="matrix(2.0, 0.0, 0.0, 2.0, 99.0, 0.0)" width="4.75" xlink:href="#sprite2"/>
      <use height="13.3" transform="matrix(2.0, 0.0, 0.0, 2.0, 28.0, 22.5)" width="4.75" xlink:href="#sprite2"/>
    </g>
    <g id="sprite2" transform="matrix(1.0, 0.0, 0.0, 1.0, 2.3, 11.9)">
      <use height="13.3" transform="matrix(1.0, 0.0, 0.0, 1.0, -2.3, -11.9)" width="4.75" xlink:href="#shape1"/>
    </g>
    <g id="shape1" transform="matrix(1.0, 0.0, 0.0, 1.0, 2.3, 11.9)">
      <path d="M-0.1 1.4 L-2.3 -0.2 -0.75 -11.9 -0.1 1.4" fill="#49b500" fill-rule="evenodd" stroke="none"/>
      <path d="M-0.75 -11.9 L2.45 -0.2 -0.1 1.4 -0.75 -11.9" fill="#87ff00" fill-rule="evenodd" stroke="none"/>
    </g>
  </defs>
</svg>
