<?xml version="1.0" encoding="UTF-8" standalone="no"?>
<svg xmlns:xlink="http://www.w3.org/1999/xlink" height="191.4px" width="201.65px" xmlns="http://www.w3.org/2000/svg">
  <g transform="matrix(1.0, 0.0, 0.0, 1.0, 1.0, 1.35)">
    <use height="130.15" transform="matrix(1.0, 0.0, 0.0, 1.0, 0.0, 59.9)" width="200.0" xlink:href="#shape0"/>
    <use height="124.65" transform="matrix(0.9765, 0.0, 0.0, 0.9765, -0.484, -1.3626)" width="205.8" xlink:href="#sprite0"/>
  </g>
  <defs>
    <g id="shape0" transform="matrix(1.0, 0.0, 0.0, 1.0, 0.0, -59.9)">
      <path d="M100.0 190.05 L0.0 130.2 0.0 59.9 100.0 115.5 100.0 190.05" fill="#585d7a" fill-rule="evenodd" stroke="none"/>
      <path d="M100.0 115.5 L200.0 60.0 200.0 130.1 100.0 190.05 100.0 115.5" fill="#87808c" fill-rule="evenodd" stroke="none"/>
    </g>
    <g id="sprite0" transform="matrix(1.0, 0.0, 0.0, 1.0, 102.95, 61.25)">
      <use height="124.65" transform="matrix(1.0, 0.0, 0.0, 1.0, -102.95, -61.25)" width="205.8" xlink:href="#shape1"/>
    </g>
    <g id="shape1" transform="matrix(1.0, 0.0, 0.0, 1.0, 102.95, 61.25)">
      <path d="M-55.5 -27.15 L2.1 -61.25 17.55 -52.3 -35.15 -19.85 -39.25 -22.4 -48.5 -22.1 -48.0 -22.45 -55.5 -27.15" fill="#89b800" fill-rule="evenodd" stroke="none"/>
      <path d="M26.05 -41.9 L26.2 -41.85 26.9 -42.4 29.85 -44.05 73.65 -21.5 56.45 -10.9 14.05 -34.35 26.05 -41.9 M-48.5 -22.1 L-39.25 -22.4 -35.15 -19.85 -31.5 -17.25 -3.1 0.4 -21.85 11.8 -23.15 11.0 -23.55 10.75 -48.75 -4.6 -70.7 7.45 -87.6 -1.4 -48.5 -22.1 M7.6 -32.2 L27.25 -20.2 3.0 -3.3 -27.05 -21.35 -27.25 -21.5 -1.05 -37.45 1.65 -35.85 1.9 -35.1 7.6 -32.2" fill="#99cc00" fill-rule="evenodd" stroke="none"/>
      <path d="M19.45 -46.05 L26.05 -41.9 14.05 -34.35 9.7 -31.15 7.6 -32.2 1.9 -35.1 19.45 -46.05 M78.8 -12.5 L94.8 -4.6 94.1 -4.15 45.6 26.15 36.65 26.15 9.4 44.4 -16.15 17.85 33.4 -11.8 56.45 1.75 78.8 -12.5 M-102.95 1.45 Q-87.2 -8.05 -71.4 -17.5 L-55.5 -27.15 -48.0 -22.45 -48.5 -22.1 -87.6 -1.4 -102.95 1.45 M-18.7 23.25 L-16.6 24.55 -16.15 24.8 -16.4 24.95 -34.65 35.3 -63.95 17.5 -65.0 16.9 -68.1 14.95 -68.15 14.9 -49.7 4.4 -18.7 23.25" fill="#89b801" fill-rule="evenodd" stroke="none"/>
      <path d="M-0.4 63.4 L-70.65 20.9 -71.25 20.55 -71.85 20.2 -72.3 19.9 -102.95 1.45 -87.6 -1.4 -70.7 7.45 -68.15 14.9 -68.1 14.95 -68.15 15.0 -65.0 16.9 -63.95 17.5 -34.65 35.3 -0.4 63.4 M7.6 -32.2 L9.7 -31.15 14.05 -34.35 56.45 -10.9 56.45 1.75 33.4 -11.8 27.25 -20.2 7.6 -32.2 M3.0 -3.3 L2.95 -3.15 2.0 6.6 -3.1 0.4 -31.5 -17.25 -27.25 -21.4 -27.05 -21.35 3.0 -3.3 M-21.85 11.8 L-16.15 17.85 9.4 44.4 -0.05 63.35 -16.4 24.95 -16.15 24.8 -16.6 24.55 -16.65 24.45 -18.7 23.25 -49.7 4.4 -48.75 -4.6 -23.55 10.75 -23.15 11.0 -21.85 11.8 M45.6 26.15 L45.6 35.4 36.65 26.15 45.6 26.15" fill="#77a000" fill-rule="evenodd" stroke="none"/>
      <path d="M17.55 -52.3 L19.45 -46.05 1.9 -35.1 1.65 -35.85 -1.05 -37.45 -27.25 -21.5 -27.05 -21.35 -27.25 -21.4 -31.5 -17.25 -35.15 -19.85 17.55 -52.3 M73.65 -21.5 L78.8 -12.5 56.45 1.75 56.45 -10.9 73.65 -21.5 M94.1 -4.15 L94.85 -4.6 102.85 1.45 45.6 35.4 -0.05 63.35 -0.4 63.4 -34.65 35.3 -16.4 24.95 -0.05 63.35 9.4 44.4 36.65 26.15 45.6 35.4 45.6 26.15 94.1 -4.15 M27.25 -20.2 L33.4 -11.8 -16.15 17.85 -21.85 11.8 -3.1 0.4 2.0 6.6 2.95 -3.15 3.0 -3.3 27.25 -20.2 M-16.6 24.55 L-18.7 23.25 -16.65 24.45 -16.6 24.55 M-49.7 4.4 L-68.15 14.9 -70.7 7.45 -48.75 -4.6 -49.7 4.4 M-68.1 14.95 L-65.0 16.9 -68.15 15.0 -68.1 14.95" fill="#97d667" fill-rule="evenodd" stroke="none"/>
    </g>
  </defs>
</svg>
