<?xml version="1.0" encoding="UTF-8" standalone="no"?>
<svg xmlns:xlink="http://www.w3.org/1999/xlink" height="191.4px" width="201.65px" xmlns="http://www.w3.org/2000/svg">
  <g transform="matrix(1.0, 0.0, 0.0, 1.0, 1.0, 1.35)">
    <use height="176.4" transform="matrix(1.0, 0.0, 0.0, 1.0, -0.7, 12.2)" width="200.45" xlink:href="#sprite0"/>
  </g>
  <defs>
    <g id="sprite0" transform="matrix(1.0, 0.0, 0.0, 1.0, 99.35, 79.8)">
      <use height="173.4" transform="matrix(1.0, 0.0, 0.0, 1.0, -99.2, -76.8)" width="200.3" xlink:href="#shape0"/>
      <use height="10.7" transform="matrix(1.0, 0.0, 0.0, 1.0, -24.5, -56.65)" width="8.9" xlink:href="#sprite1"/>
      <use height="10.7" transform="matrix(1.0, 0.0, 0.0, 1.0, -1.75, -27.25)" width="8.9" xlink:href="#sprite1"/>
      <use height="10.7" transform="matrix(0.5, -0.866, 0.866, 0.5, 16.5052, -15.9712)" width="8.9" xlink:href="#sprite1"/>
      <use height="10.7" transform="matrix(0.5, -0.866, 0.866, 0.5, 37.7552, -28.3712)" width="8.9" xlink:href="#sprite1"/>
      <use height="10.7" transform="matrix(0.866, -0.5, 0.5, 0.866, 22.1714, -47.7948)" width="8.9" xlink:href="#sprite1"/>
      <use height="10.7" transform="matrix(1.0, 0.0, 0.0, 1.0, -39.5, 7.25)" width="8.9" xlink:href="#sprite1"/>
      <use height="10.7" transform="matrix(1.0, 0.0, 0.0, 1.0, -8.85, -11.65)" width="8.9" xlink:href="#sprite1"/>
      <use height="10.7" transform="matrix(1.0, 0.0, 0.0, 1.0, -31.85, -25.9)" width="8.9" xlink:href="#sprite1"/>
      <use height="10.7" transform="matrix(0.5, -0.866, 0.866, 0.5, 18.7052, 10.2788)" width="8.9" xlink:href="#sprite1"/>
      <use height="10.7" transform="matrix(0.5, -0.866, 0.866, 0.5, 31.9552, -1.9712)" width="8.9" xlink:href="#sprite1"/>
      <use height="10.7" transform="matrix(0.866, -0.5, 0.5, 0.866, 57.4214, -17.5448)" width="8.9" xlink:href="#sprite1"/>
      <use height="10.7" transform="matrix(1.0, 0.0, 0.0, 1.0, 5.15, -57.4)" width="8.9" xlink:href="#sprite1"/>
      <use height="10.7" transform="matrix(0.5, -0.866, 0.866, 0.5, -13.4948, -61.4712)" width="8.9" xlink:href="#sprite1"/>
      <use height="10.7" transform="matrix(0.866, -0.5, 0.5, 0.866, 19.6714, -60.7948)" width="8.9" xlink:href="#sprite1"/>
      <use height="10.7" transform="matrix(1.0, 0.0, 0.0, 1.0, -96.45, -4.7)" width="8.9" xlink:href="#sprite1"/>
      <use height="10.7" transform="matrix(0.5, -0.866, 0.866, 0.5, -68.4948, -6.3212)" width="8.9" xlink:href="#sprite1"/>
      <use height="10.7" transform="matrix(0.866, -0.5, 0.5, 0.866, -57.0786, -20.7448)" width="8.9" xlink:href="#sprite1"/>
      <use height="10.7" transform="matrix(1.0, 0.0, 0.0, 1.0, -74.85, -33.7)" width="8.9" xlink:href="#sprite1"/>
      <use height="10.7" transform="matrix(1.0, 0.0, 0.0, 1.0, -80.75, 4.15)" width="8.9" xlink:href="#sprite1"/>
      <use height="10.7" transform="matrix(1.0, 0.0, 0.0, 1.0, 33.05, -21.5)" width="8.9" xlink:href="#sprite1"/>
      <use height="10.7" transform="matrix(0.5, -0.866, 0.866, 0.5, 71.5052, -3.7712)" width="8.9" xlink:href="#sprite1"/>
      <use height="10.7" transform="matrix(0.866, -0.5, 0.5, 0.866, 83.4214, 1.3052)" width="8.9" xlink:href="#sprite1"/>
      <use height="10.7" transform="matrix(1.0, 0.0, 0.0, 1.0, 45.15, -18.65)" width="8.9" xlink:href="#sprite1"/>
      <use height="10.7" transform="matrix(1.0, 0.0, 0.0, 1.0, 45.15, 7.85)" width="8.9" xlink:href="#sprite1"/>
      <use height="10.7" transform="matrix(0.5, -0.866, 0.866, 0.5, 65.0052, -27.7712)" width="8.9" xlink:href="#sprite1"/>
      <use height="10.7" transform="matrix(1.0, 0.0, 0.0, 1.0, -39.85, 31.3)" width="8.9" xlink:href="#sprite1"/>
      <use height="10.7" transform="matrix(0.5, -0.866, 0.866, 0.5, 0.5052, 39.1788)" width="8.9" xlink:href="#sprite1"/>
      <use height="10.7" transform="matrix(0.866, -0.5, 0.5, 0.866, 11.9214, 20.2552)" width="8.9" xlink:href="#sprite1"/>
      <use height="10.7" transform="matrix(1.0, 0.0, 0.0, 1.0, -25.85, 24.3)" width="8.9" xlink:href="#sprite1"/>
      <use height="10.7" transform="matrix(1.0, 0.0, 0.0, 1.0, -17.85, 45.8)" width="8.9" xlink:href="#sprite1"/>
      <use height="10.7" transform="matrix(1.0, 0.0, 0.0, 1.0, -24.5, -56.65)" width="8.9" xlink:href="#sprite1"/>
      <use height="10.7" transform="matrix(1.0, 0.0, 0.0, 1.0, -1.75, -27.25)" width="8.9" xlink:href="#sprite1"/>
      <use height="10.7" transform="matrix(0.5, -0.866, 0.866, 0.5, 16.5052, -15.9712)" width="8.9" xlink:href="#sprite1"/>
      <use height="10.7" transform="matrix(0.5, -0.866, 0.866, 0.5, 37.7552, -28.3712)" width="8.9" xlink:href="#sprite1"/>
      <use height="10.7" transform="matrix(0.866, -0.5, 0.5, 0.866, 22.1714, -47.7948)" width="8.9" xlink:href="#sprite1"/>
      <use height="10.7" transform="matrix(1.0, 0.0, 0.0, 1.0, -39.5, 7.25)" width="8.9" xlink:href="#sprite1"/>
      <use height="10.7" transform="matrix(1.0, 0.0, 0.0, 1.0, -8.85, -11.65)" width="8.9" xlink:href="#sprite1"/>
      <use height="10.7" transform="matrix(1.0, 0.0, 0.0, 1.0, -31.85, -25.9)" width="8.9" xlink:href="#sprite1"/>
      <use height="10.7" transform="matrix(0.5, -0.866, 0.866, 0.5, 18.7052, 10.2788)" width="8.9" xlink:href="#sprite1"/>
      <use height="10.7" transform="matrix(0.5, -0.866, 0.866, 0.5, 31.9552, -1.9712)" width="8.9" xlink:href="#sprite1"/>
      <use height="10.7" transform="matrix(0.866, -0.5, 0.5, 0.866, 57.4214, -17.5448)" width="8.9" xlink:href="#sprite1"/>
      <use height="10.7" transform="matrix(1.0, 0.0, 0.0, 1.0, 5.15, -57.4)" width="8.9" xlink:href="#sprite1"/>
      <use height="10.7" transform="matrix(0.5, -0.866, 0.866, 0.5, -13.4948, -61.4712)" width="8.9" xlink:href="#sprite1"/>
      <use height="10.7" transform="matrix(0.866, -0.5, 0.5, 0.866, 19.6714, -60.7948)" width="8.9" xlink:href="#sprite1"/>
      <use height="10.7" transform="matrix(1.0, 0.0, 0.0, 1.0, -96.45, -4.7)" width="8.9" xlink:href="#sprite1"/>
      <use height="10.7" transform="matrix(0.5, -0.866, 0.866, 0.5, -68.4948, -6.3212)" width="8.9" xlink:href="#sprite1"/>
      <use height="10.7" transform="matrix(0.866, -0.5, 0.5, 0.866, -57.0786, -20.7448)" width="8.9" xlink:href="#sprite1"/>
      <use height="10.7" transform="matrix(1.0, 0.0, 0.0, 1.0, -74.85, -33.7)" width="8.9" xlink:href="#sprite1"/>
      <use height="10.7" transform="matrix(1.0, 0.0, 0.0, 1.0, -80.75, 4.15)" width="8.9" xlink:href="#sprite1"/>
      <use height="10.7" transform="matrix(1.0, 0.0, 0.0, 1.0, 33.05, -21.5)" width="8.9" xlink:href="#sprite1"/>
      <use height="10.7" transform="matrix(0.5, -0.866, 0.866, 0.5, 71.5052, -3.7712)" width="8.9" xlink:href="#sprite1"/>
      <use height="10.7" transform="matrix(0.866, -0.5, 0.5, 0.866, 83.4214, 1.3052)" width="8.9" xlink:href="#sprite1"/>
      <use height="10.7" transform="matrix(1.0, 0.0, 0.0, 1.0, 45.15, -18.65)" width="8.9" xlink:href="#sprite1"/>
      <use height="10.7" transform="matrix(1.0, 0.0, 0.0, 1.0, 45.15, 7.85)" width="8.9" xlink:href="#sprite1"/>
      <use height="10.7" transform="matrix(0.5, -0.866, 0.866, 0.5, 65.0052, -27.7712)" width="8.9" xlink:href="#sprite1"/>
      <use height="10.7" transform="matrix(1.0, 0.0, 0.0, 1.0, -39.85, 31.3)" width="8.9" xlink:href="#sprite1"/>
      <use height="10.7" transform="matrix(0.5, -0.866, 0.866, 0.5, 0.5052, 39.1788)" width="8.9" xlink:href="#sprite1"/>
      <use height="10.7" transform="matrix(0.866, -0.5, 0.5, 0.866, 11.9214, 20.2552)" width="8.9" xlink:href="#sprite1"/>
      <use height="10.7" transform="matrix(1.0, 0.0, 0.0, 1.0, -25.85, 24.3)" width="8.9" xlink:href="#sprite1"/>
      <use height="10.7" transform="matrix(1.0, 0.0, 0.0, 1.0, -17.85, 45.8)" width="8.9" xlink:href="#sprite1"/>
      <use height="10.7" transform="matrix(1.0, 0.0, 0.0, 1.0, -70.35, 38.3)" width="8.9" xlink:href="#sprite1"/>
      <use height="10.7" transform="matrix(1.0, 0.0, 0.0, 1.0, -87.85, 20.05)" width="8.9" xlink:href="#sprite1"/>
      <use height="10.7" transform="matrix(1.0, 0.0, 0.0, 1.0, -39.35, 56.8)" width="8.9" xlink:href="#sprite1"/>
      <use height="10.7" transform="matrix(1.0, 0.0, 0.0, 1.0, -14.1, 76.05)" width="8.9" xlink:href="#sprite1"/>
      <use height="10.7" transform="matrix(0.5, -0.866, 0.866, 0.5, 5.7552, 69.9288)" width="8.9" xlink:href="#sprite1"/>
      <use height="10.7" transform="matrix(0.5, -0.866, 0.866, 0.5, 21.2552, 54.6788)" width="8.9" xlink:href="#sprite1"/>
      <use height="10.7" transform="matrix(0.5, -0.866, 0.866, 0.5, 33.5052, 69.6788)" width="8.9" xlink:href="#sprite1"/>
      <use height="10.7" transform="matrix(0.5, -0.866, 0.866, 0.5, 55.2552, 55.1788)" width="8.9" xlink:href="#sprite1"/>
      <use height="10.7" transform="matrix(0.5, -0.866, 0.866, 0.5, 42.3552, 35.8288)" width="8.9" xlink:href="#sprite1"/>
      <use height="10.7" transform="matrix(0.5, -0.866, 0.866, 0.5, 71.1052, 35.8288)" width="8.9" xlink:href="#sprite1"/>
      <use height="10.7" transform="matrix(0.866, -0.5, 0.5, 0.866, 73.1714, 16.0552)" width="8.9" xlink:href="#sprite1"/>
      <use height="60.05" transform="matrix(2.0, 0.0, 0.0, 2.0, -99.35, -79.8)" width="100.0" xlink:href="#sprite2"/>
    </g>
    <g id="shape0" transform="matrix(1.0, 0.0, 0.0, 1.0, 99.2, 76.8)">
      <path d="M32.2 -30.7 L55.05 -42.05 59.95 -44.5 101.0 -17.5 71.55 -11.45 33.0 -29.95 32.1 -30.4 32.2 -30.7 M101.05 6.8 L101.05 5.45 101.1 8.95 101.0 8.95 101.05 6.8 M43.15 71.5 L2.85 95.55 57.35 38.85 43.15 71.5 M57.35 38.85 L101.0 8.95 87.6 44.85 57.35 38.85 M-47.4 -33.8 L-48.35 -33.55 -48.3 -33.6 -47.4 -33.8" fill="#ffffff" fill-rule="evenodd" stroke="none"/>
      <path d="M101.0 -17.5 L101.05 6.8 101.0 8.95 57.35 38.85 88.1 -6.15 101.0 -17.5 M87.6 44.85 L74.0 53.0 43.1 71.5 43.15 71.5 57.35 38.85 87.6 44.85 M17.1 36.8 L49.3 34.75 57.35 38.85 2.85 95.55 1.2 96.5 1.1 70.55 17.1 36.8 M-51.9 -8.7 L-39.0 -22.05 -11.85 -5.1 -21.85 -3.5 -39.7 1.8 -62.5 27.4 -51.9 -8.7" fill="#e2f8ff" fill-opacity="0.9882353" fill-rule="evenodd" stroke="none"/>
      <path d="M32.2 -30.7 L30.25 -28.8 9.55 -43.0 41.9 -56.65 55.05 -42.05 32.2 -30.7 M2.8 -2.45 L28.55 13.85 31.2 15.5 57.35 38.85 49.3 34.75 17.1 36.8 1.1 -3.5 2.8 -2.45 M71.55 -11.45 L101.0 -17.5 88.1 -6.15 71.55 -11.45 M-72.95 -18.25 L-47.4 -33.8 -40.75 -24.5 -39.0 -22.05 -51.9 -8.7 -72.95 -18.25" fill="#eaf9ff" fill-opacity="0.9882353" fill-rule="evenodd" stroke="none"/>
      <path d="M41.9 -56.65 L9.55 -43.0 -24.85 -63.3 1.1 -76.8 41.9 -56.65" fill="#f5fdff" fill-rule="evenodd" stroke="none"/>
      <path d="M9.55 -43.0 L30.25 -28.8 14.35 -13.55 9.55 -43.0 M101.1 8.95 L101.1 36.1 87.6 44.85 101.0 8.95 101.1 8.95 M71.55 -11.45 L88.1 -6.15 57.35 38.85 71.55 -11.45 M17.1 36.8 L1.1 70.55 1.1 -3.5 17.1 36.8 M-73.95 -17.65 L-72.95 -18.25 -51.9 -8.7 -62.5 27.4 -73.95 -17.65" fill="#f7fdff" fill-opacity="0.9882353" fill-rule="evenodd" stroke="none"/>
      <path d="M14.35 -13.55 L2.8 -2.45 1.1 -3.5 -1.65 -3.5 -13.3 -15.2 9.55 -43.0 14.35 -13.55 M34.55 7.75 L42.05 -2.2 71.55 -11.45 57.35 38.85 34.55 7.75 M1.1 -3.5 L1.1 70.55 -48.9 66.5 -28.95 40.75 1.1 -3.5" fill="#96e5ff" fill-opacity="0.9882353" fill-rule="evenodd" stroke="none"/>
      <path d="M9.55 -43.0 L-13.3 -15.2 -35.2 -50.8 -24.85 -63.3 9.55 -43.0 M-1.65 -3.5 L1.1 -3.5 -28.95 40.75 -21.85 -3.5 -11.85 -5.1 -13.75 -3.5 -1.65 -3.5" fill="#84e2ff" fill-opacity="0.9882353" fill-rule="evenodd" stroke="none"/>
      <path d="M30.25 -28.8 L32.2 -30.7 32.1 -30.4 33.0 -29.95 42.05 -2.2 34.55 7.75 28.55 13.85 2.8 -2.45 14.35 -13.55 30.25 -28.8 M-48.75 -34.4 L-35.2 -50.8 -13.3 -15.2 -40.75 -24.5 -47.4 -33.8 -48.75 -34.4 M-28.95 40.75 L-48.9 66.5 -62.5 27.4 -39.7 1.8 -21.85 -3.5 -28.95 40.75" fill="#a0e8ff" fill-opacity="0.9882353" fill-rule="evenodd" stroke="none"/>
      <path d="M28.55 13.85 L34.55 7.75 57.35 38.85 31.2 15.5 28.55 13.85 M-13.3 -15.2 L-1.65 -3.5 -13.75 -3.5 -11.85 -5.1 -39.0 -22.05 -40.75 -24.5 -13.3 -15.2 M-99.2 -4.75 L-99.2 -18.1 -75.15 -18.1 -99.2 -4.75" fill="#a3e9ff" fill-opacity="0.9882353" fill-rule="evenodd" stroke="none"/>
      <path d="M-99.2 -18.1 L-64.8 -41.45 -48.75 -34.4 -47.4 -33.8 -48.3 -33.6 -48.35 -33.55 -47.4 -33.8 -72.95 -18.25 -73.95 -17.65 -74.05 -17.6 -75.15 -18.1 -99.2 -18.1" fill="#d7f2fd" fill-rule="evenodd" stroke="none"/>
      <path d="M-99.0 36.45 L-99.1 8.3 -99.1 9.9 -99.2 -4.75 -75.15 -18.1 -74.05 -17.6 -73.95 -17.65 -62.5 27.4 -99.0 36.45" fill="#bceeff" fill-opacity="0.9882353" fill-rule="evenodd" stroke="none"/>
      <path d="M42.05 -2.2 L33.0 -29.95 71.55 -11.45 42.05 -2.2" fill="#baeeff" fill-opacity="0.9882353" fill-rule="evenodd" stroke="none"/>
      <path d="M2.85 95.55 L1.2 96.6 -48.9 66.5 1.1 70.55 1.2 96.5 2.85 95.55" fill="#b9eefc" fill-rule="evenodd" stroke="none"/>
      <path d="M-48.9 66.5 L-99.0 36.45 -62.5 27.4 -48.9 66.5" fill="#83e2fc" fill-rule="evenodd" stroke="none"/>
    </g>
    <g id="sprite1" transform="matrix(1.0, 0.0, 0.0, 1.0, 4.45, 5.45)">
      <use height="10.7" transform="matrix(1.0, 0.0, 0.0, 1.0, -4.45, -5.45)" width="8.9" xlink:href="#shape1"/>
    </g>
    <g id="shape1" transform="matrix(1.0, 0.0, 0.0, 1.0, 4.45, 5.45)">
      <path d="M2.15 5.25 L-4.45 1.65 -0.05 -0.1 -2.15 -5.45 4.45 -2.3 -0.05 -0.1 2.15 5.25" fill="#84e2ff" fill-opacity="0.9882353" fill-rule="evenodd" stroke="none"/>
      <path d="M4.45 -2.3 L2.15 5.25 -0.05 -0.1 4.45 -2.3" fill="#28ccff" fill-opacity="0.9882353" fill-rule="evenodd" stroke="none"/>
      <path d="M-4.45 1.65 L-2.15 -5.45 -0.05 -0.1 -4.45 1.65" fill="#ffffff" fill-rule="evenodd" stroke="none"/>
    </g>
    <g id="sprite2" transform="matrix(1.0, 0.0, 0.0, 1.0, 0.0, 0.0)">
      <use height="60.05" transform="matrix(1.0, 0.0, 0.0, 1.0, 0.0, 0.0)" width="100.0" xlink:href="#shape2"/>
    </g>
    <g id="shape2" transform="matrix(1.0, 0.0, 0.0, 1.0, 0.0, 0.0)">
      <path d="M83.8 39.75 L59.65 52.45 50.0 60.05 23.45 42.2 0.0 30.05 9.65 22.45 50.05 0.0 73.45 12.2 100.0 30.05 83.8 39.75" fill="#4bfbff" fill-opacity="0.5568628" fill-rule="evenodd" stroke="none"/>
    </g>
  </defs>
</svg>
