<?xml version="1.0" encoding="UTF-8" standalone="no"?>
<svg xmlns:xlink="http://www.w3.org/1999/xlink" height="191.4px" width="201.65px" xmlns="http://www.w3.org/2000/svg">
  <g transform="matrix(1.0, 0.0, 0.0, 1.0, 1.0, 1.35)">
    <use height="130.15" transform="matrix(1.0, 0.0, 0.0, 1.0, 0.0, 59.9)" width="200.0" xlink:href="#shape0"/>
    <use height="120.9" transform="matrix(1.0, 0.0, 0.0, 1.0, -0.1, -1.0)" width="200.75" xlink:href="#shape1"/>
    <use height="2.6" transform="matrix(1.0, 0.0, 0.0, 1.0, 88.45, 15.25)" width="2.5" xlink:href="#sprite0"/>
    <use height="2.6" transform="matrix(1.0, 0.0, 0.0, 1.0, 83.45, 32.3)" width="2.5" xlink:href="#sprite0"/>
    <use height="2.6" transform="matrix(1.0, 0.0, 0.0, 1.0, 137.95, 63.8)" width="2.5" xlink:href="#sprite0"/>
    <use height="2.6" transform="matrix(1.0, 0.0, 0.0, 1.0, 137.45, 44.8)" width="2.5" xlink:href="#sprite0"/>
    <use height="2.6" transform="matrix(1.0, 0.0, 0.0, 1.0, 110.45, 59.8)" width="2.5" xlink:href="#sprite0"/>
    <use height="2.6" transform="matrix(1.0, 0.0, 0.0, 1.0, 120.45, 88.8)" width="2.5" xlink:href="#sprite0"/>
    <use height="2.6" transform="matrix(1.0, 0.0, 0.0, 1.0, 76.95, 80.3)" width="2.5" xlink:href="#sprite0"/>
    <use height="2.6" transform="matrix(1.0, 0.0, 0.0, 1.0, 81.2, 97.8)" width="2.5" xlink:href="#sprite0"/>
    <use height="2.6" transform="matrix(1.0, 0.0, 0.0, 1.0, 43.95, 76.8)" width="2.5" xlink:href="#sprite0"/>
    <use height="2.6" transform="matrix(1.0, 0.0, 0.0, 1.0, 41.95, 52.3)" width="2.5" xlink:href="#sprite0"/>
    <use height="2.6" transform="matrix(1.0, 0.0, 0.0, 1.0, 19.95, 53.3)" width="2.5" xlink:href="#sprite0"/>
    <use height="2.6" transform="matrix(1.0, 0.0, 0.0, 1.0, 56.95, 33.8)" width="2.5" xlink:href="#sprite0"/>
    <use height="2.6" transform="matrix(1.0, 0.0, 0.0, 1.0, 62.0, 63.6)" width="2.5" xlink:href="#sprite0"/>
    <use height="2.6" transform="matrix(1.0, 0.0, 0.0, 1.0, 71.5, 53.6)" width="2.5" xlink:href="#sprite0"/>
    <use height="2.6" transform="matrix(1.0, 0.0, 0.0, 1.0, 70.75, 42.55)" width="2.5" xlink:href="#sprite0"/>
    <use height="2.6" transform="matrix(1.0, 0.0, 0.0, 1.0, 105.75, 37.3)" width="2.5" xlink:href="#sprite0"/>
    <use height="2.6" transform="matrix(1.0, 0.0, 0.0, 1.0, 101.0, 23.05)" width="2.5" xlink:href="#sprite0"/>
    <use height="2.6" transform="matrix(1.0, 0.0, 0.0, 1.0, 120.75, 23.8)" width="2.5" xlink:href="#sprite0"/>
    <use height="2.6" transform="matrix(1.0, 0.0, 0.0, 1.0, 112.5, 13.8)" width="2.5" xlink:href="#sprite0"/>
    <use height="2.6" transform="matrix(1.0, 0.0, 0.0, 1.0, 179.75, 58.35)" width="2.5" xlink:href="#sprite0"/>
    <use height="2.6" transform="matrix(1.0, 0.0, 0.0, 1.0, 165.5, 48.3)" width="2.5" xlink:href="#sprite0"/>
    <use height="2.6" transform="matrix(1.0, 0.0, 0.0, 1.0, 140.5, 83.35)" width="2.5" xlink:href="#sprite0"/>
    <use height="2.6" transform="matrix(1.0, 0.0, 0.0, 1.0, 100.25, 87.1)" width="2.5" xlink:href="#sprite0"/>
    <use height="2.6" transform="matrix(1.0, 0.0, 0.0, 1.0, 104.5, 100.6)" width="2.5" xlink:href="#sprite0"/>
  </g>
  <defs>
    <g id="shape0" transform="matrix(1.0, 0.0, 0.0, 1.0, 0.0, -59.9)">
      <path d="M100.0 190.05 L0.0 130.2 0.0 59.9 100.0 115.5 100.0 190.05" fill="#592120" fill-rule="evenodd" stroke="none"/>
      <path d="M100.0 115.5 L200.0 60.0 200.0 130.1 100.0 190.05 100.0 115.5" fill="#824c16" fill-rule="evenodd" stroke="none"/>
    </g>
    <g id="shape1" transform="matrix(1.0, 0.0, 0.0, 1.0, 0.1, 1.0)">
      <path d="M166.95 80.5 L164.15 82.2 142.15 95.25 120.0 108.15 90.0 59.55 166.95 80.5 M99.95 119.9 L46.9 88.1 90.0 59.55 67.55 19.6 46.85 88.1 -0.1 59.95 18.8 45.85 67.55 19.6 100.0 -1.0 90.0 59.55 99.95 119.9" fill="#d3ffff" fill-rule="evenodd" stroke="none"/>
      <path d="M100.0 -1.0 L147.55 26.95 200.65 59.65 166.95 80.5 147.55 26.95 90.0 59.55 120.0 108.15 99.95 119.9 90.0 59.55 100.0 -1.0" fill="#f2ffff" fill-rule="evenodd" stroke="none"/>
      <path d="M90.0 59.55 L147.55 26.95 166.95 80.5 90.0 59.55" fill="#e3ffff" fill-rule="evenodd" stroke="none"/>
      <path d="M46.9 88.1 L46.85 88.1 67.55 19.6 90.0 59.55 46.9 88.1" fill="#f0ffff" fill-rule="evenodd" stroke="none"/>
    </g>
    <g id="sprite0" transform="matrix(1.0, 0.0, 0.0, 1.0, 1.35, 1.3)">
      <use height="12.0" transform="matrix(0.2125, 0.0, 0.0, 0.2167, -1.375, -1.3)" width="12.0" xlink:href="#shape2"/>
    </g>
    <g id="shape2" transform="matrix(1.0, 0.0, 0.0, 1.0, 6.0, 6.0)">
      <path d="M-6.0 -6.0 L6.0 -6.0 6.0 6.0 -6.0 6.0 -6.0 -6.0" fill="#ffffff" fill-rule="evenodd" stroke="none"/>
    </g>
  </defs>
</svg>
