<?xml version="1.0" encoding="UTF-8" standalone="no"?>
<svg xmlns:xlink="http://www.w3.org/1999/xlink" height="191.4px" width="201.65px" xmlns="http://www.w3.org/2000/svg">
  <g transform="matrix(1.0, 0.0, 0.0, 1.0, 1.0, 1.35)">
    <use height="130.15" transform="matrix(1.0, 0.0, 0.0, 1.0, 0.0, 59.9)" width="200.0" xlink:href="#shape0"/>
    <use height="60.4" id="ground" transform="matrix(2.0, 0.0, 0.0, 2.0, -0.4, -0.8)" width="100.45" xlink:href="#sprite0"/>
  </g>
  <defs>
    <g id="shape0" transform="matrix(1.0, 0.0, 0.0, 1.0, 0.0, -59.9)">
      <path d="M100.0 115.5 L200.0 60.0 200.0 130.1 100.0 190.05 100.0 115.5" fill="#e5cda1" fill-rule="evenodd" stroke="none"/>
      <path d="M100.0 190.05 L0.0 130.2 0.0 59.9 100.0 115.5 100.0 190.05" fill="#af9c7a" fill-rule="evenodd" stroke="none"/>
    </g>
    <g id="sprite0" transform="matrix(1.0, 0.0, 0.0, 1.0, 0.2, 0.4)">
      <use height="60.4" transform="matrix(1.0, 0.0, 0.0, 1.0, -0.2, -0.4)" width="100.45" xlink:href="#shape1"/>
    </g>
    <g id="shape1" transform="matrix(1.0, 0.0, 0.0, 1.0, 0.2, 0.4)">
      <path d="M9.25 22.65 L33.75 10.0 23.5 44.1 9.25 22.65 M73.75 13.4 L83.95 40.35 45.15 29.6 73.75 13.4" fill="#cac114" fill-rule="evenodd" stroke="none"/>
      <path d="M73.75 13.4 L100.25 29.9 83.95 40.35 73.75 13.4 M60.05 54.0 L49.95 60.0 45.15 29.6 23.5 44.1 33.75 10.0 45.15 29.6 60.05 54.0" fill="#d7ce21" fill-rule="evenodd" stroke="none"/>
      <path d="M83.95 40.35 L60.05 54.0 45.15 29.6 83.95 40.35 M49.95 60.0 L23.5 44.1 -0.2 30.0 9.25 22.65 23.5 44.1 45.15 29.6 49.95 60.0 M33.75 10.0 L49.95 -0.4 45.15 29.6 33.75 10.0" fill="#d1c81b" fill-rule="evenodd" stroke="none"/>
      <path d="M49.95 -0.4 L73.75 13.4 45.15 29.6 49.95 -0.4" fill="#c4bb0e" fill-rule="evenodd" stroke="none"/>
      <path d="M49.9 -0.4 L73.75 13.45 100.0 30.0 83.95 40.35 49.95 60.0 0.0 29.95 9.2 22.55 9.35 22.6 33.65 10.0 49.9 -0.4" fill="#d7ce21" fill-opacity="0.4" fill-rule="evenodd" stroke="none"/>
    </g>
  </defs>
</svg>
