<?xml version="1.0" encoding="UTF-8" standalone="no"?>
<svg xmlns:xlink="http://www.w3.org/1999/xlink" height="151.95px" width="202.0px" xmlns="http://www.w3.org/2000/svg">
  <g transform="matrix(1.0, 0.0, 0.0, 1.0, 1.0, 0.0)">
    <use height="56.35" transform="matrix(1.0, 0.0, 0.0, 1.0, 76.6, 36.6)" width="29.7" xlink:href="#sprite0"/>
    <use height="56.35" transform="matrix(0.8427, 0.0, 0.0, 0.8427, 131.3592, 54.2847)" width="29.7" xlink:href="#sprite0"/>
    <use height="56.35" transform="matrix(1.0, 0.0, 0.0, 1.0, 13.8, 34.25)" width="29.7" xlink:href="#sprite0"/>
    <use height="56.35" transform="matrix(0.7422, 0.0, 0.0, 0.7422, 95.2145, 6.4043)" width="29.7" xlink:href="#sprite0"/>
    <use height="56.35" transform="matrix(0.884, 0.0, 0.0, 0.884, 109.5559, 22.9954)" width="29.7" xlink:href="#sprite0"/>
    <use height="56.35" transform="matrix(1.0, 0.0, 0.0, 1.0, 157.3, 49.75)" width="29.7" xlink:href="#sprite0"/>
    <use height="56.35" transform="matrix(1.0, 0.0, 0.0, 1.0, 35.8, 57.25)" width="29.7" xlink:href="#sprite0"/>
    <use height="56.35" transform="matrix(0.7422, 0.0, 0.0, 0.7422, 58.7145, 20.9043)" width="29.7" xlink:href="#sprite0"/>
    <use height="56.35" transform="matrix(0.7422, 0.0, 0.0, 0.7422, 64.7145, 88.9043)" width="29.7" xlink:href="#sprite0"/>
    <use height="56.35" transform="matrix(0.884, 0.0, 0.0, 0.884, 96.0559, 88.9954)" width="29.7" xlink:href="#sprite0"/>
    <use height="151.95" transform="matrix(1.0, 0.0, 0.0, 1.0, -1.0, 0.0)" width="202.0" xlink:href="#sprite3"/>
  </g>
  <defs>
    <g id="sprite0" transform="matrix(1.0, 0.0, 0.0, 1.0, 19.45, 46.95)">
      <use height="27.45" transform="matrix(0.7297, 0.0, 0.0, 0.7297, -19.4501, -10.6474)" width="40.7" xlink:href="#sprite1"/>
      <use height="6.35" transform="matrix(-0.5581, -0.9667, 0.9667, -0.5581, -2.6918, 1.9913)" width="7.0" xlink:href="#sprite2"/>
      <use height="42.8" transform="matrix(1.0, 0.0, 0.0, 1.0, -8.1, -46.95)" width="12.9" xlink:href="#shape2"/>
    </g>
    <g id="sprite1" transform="matrix(1.0, 0.0, 0.0, 1.0, 20.35, 13.7)">
      <use height="27.45" transform="matrix(1.0, 0.0, 0.0, 1.0, -20.35, -13.7)" width="40.7" xlink:href="#shape0"/>
    </g>
    <g id="shape0" transform="matrix(1.0, 0.0, 0.0, 1.0, 20.35, 13.7)">
      <path d="M20.35 0.0 Q20.35 5.7 14.4 9.7 8.45 13.75 0.0 13.75 -8.45 13.75 -14.4 9.7 -20.35 5.7 -20.35 0.0 -20.35 -5.65 -14.4 -9.7 -8.45 -13.7 0.0 -13.7 8.45 -13.7 14.4 -9.7 20.35 -5.65 20.35 0.0" fill="url(#gradient0)" fill-rule="evenodd" stroke="none"/>
    </g>
    <radialGradient cx="0" cy="0" gradientTransform="matrix(0.025, 0.0, 0.0, 0.0169, 0.0, 0.0)" gradientUnits="userSpaceOnUse" id="gradient0" r="819.2" spreadMethod="pad">
      <stop offset="0.0" stop-color="#000000" stop-opacity="0.5019608"/>
      <stop offset="1.0" stop-color="#000000" stop-opacity="0.0"/>
    </radialGradient>
    <g id="sprite2" transform="matrix(1.0, 0.0, 0.0, 1.0, 3.5, 3.15)">
      <use height="6.35" transform="matrix(1.0, 0.0, 0.0, 1.0, -3.5, -3.15)" width="7.0" xlink:href="#shape1"/>
    </g>
    <g id="shape1" transform="matrix(1.0, 0.0, 0.0, 1.0, 13.9, 5.15)">
      <path d="M-9.05 1.2 L-9.2 -1.2 -6.9 -2.5 -6.9 0.0 -9.05 1.2" fill="#ffcc00" fill-rule="evenodd" stroke="none"/>
      <path d="M-9.2 -1.2 L-13.9 -4.0 -11.65 -5.15 -6.9 -2.5 -9.2 -1.2" fill="#330000" fill-rule="evenodd" stroke="none"/>
      <path d="M-13.9 -4.0 L-9.2 -1.2 -9.05 1.2 -13.75 -1.85 -13.9 -4.0" fill="#663300" fill-rule="evenodd" stroke="none"/>
    </g>
    <g id="shape2" transform="matrix(1.0, 0.0, 0.0, 1.0, 8.1, 46.95)">
      <path d="M4.8 -35.15 L4.8 -13.2 -1.85 -10.3 -1.85 -30.6 4.8 -35.15" fill="#00cc00" fill-rule="evenodd" stroke="none"/>
      <path d="M4.8 -13.2 L0.9 -5.05 -1.85 -4.15 -1.85 -10.3 4.8 -13.2 M-8.1 -35.1 L-1.85 -46.95 -1.85 -30.6 -8.1 -35.1" fill="#009900" fill-rule="evenodd" stroke="none"/>
      <path d="M-8.1 -13.15 L-8.1 -35.1 -1.85 -30.6 -1.85 -10.3 -8.1 -13.15" fill="#006600" fill-rule="evenodd" stroke="none"/>
      <path d="M-1.85 -46.95 L4.8 -35.15 -1.85 -30.6 -1.85 -46.95" fill="#66ff33" fill-rule="evenodd" stroke="none"/>
      <path d="M-1.85 -4.15 L-4.15 -5.05 -8.1 -13.15 -1.85 -10.3 -1.85 -4.15" fill="#003300" fill-rule="evenodd" stroke="none"/>
    </g>
    <g id="sprite3" transform="matrix(1.0, 0.0, 0.0, 1.0, 101.0, 75.95)">
      <use height="151.95" transform="matrix(1.0, 0.0, 0.0, 1.0, -101.0, -75.95)" width="202.0" xlink:href="#shape3"/>
    </g>
    <g id="shape3" transform="matrix(1.0, 0.0, 0.0, 1.0, 101.0, 75.95)">
      <path d="M-101.0 -75.95 L101.0 -75.95 101.0 76.0 -101.0 76.0 -101.0 -75.95" fill="#00ff00" fill-opacity="0.0" fill-rule="evenodd" stroke="none"/>
    </g>
  </defs>
</svg>
