<?xml version="1.0" encoding="UTF-8" standalone="no"?>
<svg xmlns:xlink="http://www.w3.org/1999/xlink" height="151.95px" width="202.0px" xmlns="http://www.w3.org/2000/svg">
  <g transform="matrix(1.0, 0.0, 0.0, 1.0, 1.0, 0.0)">
    <use height="151.95" transform="matrix(1.0, 0.0, 0.0, 1.0, -1.0, 0.0)" width="202.0" xlink:href="#sprite0"/>
    <use height="132.5" transform="matrix(1.0, 0.0, 0.0, 1.0, 33.85, 3.35)" width="122.55" xlink:href="#shape1"/>
  </g>
  <defs>
    <g id="sprite0" transform="matrix(1.0, 0.0, 0.0, 1.0, 101.0, 75.95)">
      <use height="151.95" transform="matrix(1.0, 0.0, 0.0, 1.0, -101.0, -75.95)" width="202.0" xlink:href="#shape0"/>
    </g>
    <g id="shape0" transform="matrix(1.0, 0.0, 0.0, 1.0, 101.0, 75.95)">
      <path d="M-101.0 -75.95 L101.0 -75.95 101.0 76.0 -101.0 76.0 -101.0 -75.95" fill="#00ff00" fill-opacity="0.0" fill-rule="evenodd" stroke="none"/>
    </g>
    <g id="shape1" transform="matrix(1.0, 0.0, 0.0, 1.0, -33.85, -3.35)">
      <path d="M128.7 44.1 L125.05 49.4 115.5 58.5 103.5 65.5 103.5 53.4 117.35 46.5 125.45 42.3 128.7 44.1 M149.75 67.25 L145.3 50.9 152.3 45.75 156.4 46.35 155.95 55.45 149.75 67.25 M33.85 61.2 L38.1 55.85 47.1 53.65 43.7 67.3 33.85 61.2 M49.05 84.05 L63.9 75.65 60.4 93.0 46.65 101.4 49.05 84.05" fill="#698045" fill-rule="evenodd" stroke="none"/>
      <path d="M115.5 58.5 L125.05 49.4 128.7 44.1 126.05 50.1 117.5 58.45 124.7 71.95 117.95 84.5 121.9 103.3 120.2 106.35 116.0 84.8 122.25 72.05 115.5 58.5 M155.95 55.45 L152.0 67.25 155.95 85.35 152.5 95.8 155.95 111.6 152.0 113.1 149.5 95.8 153.15 85.35 149.75 67.25 155.95 55.45 M110.5 19.45 L115.0 19.75 118.25 29.15 110.6 30.5 110.5 19.45 M97.2 70.55 L87.4 49.05 91.05 34.55 87.65 25.4 86.7 5.35 89.55 25.4 93.0 34.55 89.85 48.3 99.95 69.75 98.35 77.7 93.65 82.85 97.2 70.55 M94.75 107.1 L88.75 87.35 97.2 107.1 93.85 116.95 97.2 133.0 94.75 135.85 91.15 117.5 92.7 113.15 94.75 107.1" fill="#71ac38" fill-rule="evenodd" stroke="none"/>
      <path d="M118.25 29.15 L112.6 39.15 100.6 42.5 108.5 32.8 110.6 30.5 118.25 29.15" fill="#546934" fill-rule="evenodd" stroke="none"/>
      <path d="M117.35 46.5 L103.5 53.4 100.6 42.5 112.6 39.15 117.35 46.5 M152.0 113.1 L138.15 104.75 134.65 87.35 149.5 95.8 152.0 113.1 M110.6 30.5 L108.5 32.8 110.5 19.45 110.6 30.5 M47.1 53.65 L49.75 40.4 48.8 55.55 45.45 73.65 49.05 84.05 46.65 101.4 42.3 99.9 46.75 83.65 42.8 70.8 33.85 61.2 43.7 67.3 47.1 53.65" fill="#32431c" fill-rule="evenodd" stroke="none"/>
      <path d="M97.2 70.55 L78.45 58.0" fill="none" stroke="#ff0000" stroke-linecap="round" stroke-linejoin="round" stroke-width="0.05"/>
      <path d="M57.45 62.7 L63.9 75.65 49.05 84.05 45.45 73.65 57.45 62.7" fill="#71ac38" fill-rule="evenodd" stroke="none"/>
      <path d="M61.15 49.95 L57.45 62.7 45.45 73.65 48.8 55.55 61.15 49.95" fill="#698045" fill-rule="evenodd" stroke="none"/>
      <path d="M61.15 49.95 L48.8 55.55 49.75 40.4 53.25 38.4 61.15 49.95" fill="#71ac38" fill-rule="evenodd" stroke="none"/>
      <path d="M141.1 74.4 L153.15 85.35 149.5 95.8 134.65 87.35 141.1 74.4" fill="#698045" fill-rule="evenodd" stroke="none"/>
      <path d="M137.45 61.65 L149.75 67.25 153.15 85.35 141.1 74.4 137.45 61.65" fill="#32431c" fill-rule="evenodd" stroke="none"/>
      <path d="M137.45 61.65 L145.3 50.9 148.85 52.1 149.75 67.25 137.45 61.65" fill="#698045" fill-rule="evenodd" stroke="none"/>
      <path d="M78.45 58.0 L72.55 43.9 87.4 49.05 97.2 70.55 78.45 58.0" fill="#32431c" fill-rule="evenodd" stroke="none"/>
      <path d="M79.0 27.7 L91.05 34.55 87.4 49.05 72.55 43.9 79.0 27.7" fill="#698045" fill-rule="evenodd" stroke="none"/>
      <path d="M75.35 14.95 L87.65 25.4 91.05 34.55 79.0 27.7 75.35 14.95" fill="#32431c" fill-rule="evenodd" stroke="none"/>
      <path d="M75.35 14.95 L81.55 3.35 86.7 5.35 87.65 25.4 75.35 14.95" fill="#698045" fill-rule="evenodd" stroke="none"/>
      <path d="M78.45 58.0 L97.2 70.55 93.65 82.85 72.8 71.05 78.45 58.0" fill="#698045" fill-rule="evenodd" stroke="none"/>
      <path d="M116.0 84.8 L101.35 88.4 107.7 77.95 122.25 72.05 116.0 84.8" fill="#698045" fill-rule="evenodd" stroke="none"/>
      <path d="M115.5 58.5 L122.25 72.05 107.7 77.95 103.5 65.5 115.5 58.5" fill="#32431c" fill-rule="evenodd" stroke="none"/>
      <path d="M116.0 84.8 L120.2 106.35 105.85 101.6 101.35 88.4 116.0 84.8" fill="#32431c" fill-rule="evenodd" stroke="none"/>
      <path d="M79.75 126.5 L76.3 109.15 91.15 117.5 94.75 135.85 79.75 126.5" fill="#32431c" fill-rule="evenodd" stroke="none"/>
      <path d="M82.7 96.15 L94.75 107.2 91.15 117.5 76.3 109.15 82.7 96.15" fill="#546934" fill-rule="evenodd" stroke="none"/>
      <path d="M81.5 82.85 L88.75 87.35 94.85 107.25 82.7 96.15 81.5 82.85" fill="#32431c" fill-rule="evenodd" stroke="none"/>
    </g>
  </defs>
</svg>
