<?xml version="1.0" encoding="UTF-8" standalone="no"?>
<svg xmlns:xlink="http://www.w3.org/1999/xlink" height="151.95px" width="202.0px" xmlns="http://www.w3.org/2000/svg">
  <g transform="matrix(1.0, 0.0, 0.0, 1.0, 1.0, 0.0)">
    <use height="27.45" transform="matrix(1.2442, 0.0, 0.0, 1.2442, 15.6799, 78.454)" width="40.7" xlink:href="#sprite0"/>
    <use height="27.45" transform="matrix(1.2442, 0.0, 0.0, 1.2442, 80.6799, 111.454)" width="40.7" xlink:href="#sprite0"/>
    <use height="27.45" transform="matrix(1.2442, 0.0, 0.0, 1.2442, 108.6799, 90.454)" width="40.7" xlink:href="#sprite0"/>
    <use height="27.45" transform="matrix(1.2442, 0.0, 0.0, 1.2442, 108.6799, 49.454)" width="40.7" xlink:href="#sprite0"/>
    <use height="27.45" transform="matrix(1.7853, 0.0, 0.0, 1.7853, 63.6687, 66.0411)" width="40.7" xlink:href="#sprite0"/>
    <use height="27.45" transform="matrix(1.2442, 0.0, 0.0, 1.2442, 37.6799, 48.454)" width="40.7" xlink:href="#sprite0"/>
    <use height="40.35" id="Buske" transform="matrix(1.2693, 0.0, 0.0, 1.2693, 85.2976, 10.9245)" width="40.55" xlink:href="#sprite1"/>
    <use height="40.35" id="Buske" transform="matrix(0.8773, 0.0, 0.0, 0.8773, 122.2855, 36.9232)" width="40.55" xlink:href="#sprite1"/>
    <use height="40.35" id="Buske" transform="matrix(0.8773, 0.0, 0.0, 0.8773, 43.3355, 40.9232)" width="40.55" xlink:href="#sprite1"/>
    <use height="40.35" id="Buske" transform="matrix(0.5347, 0.0, 0.0, 0.5347, 50.3217, 30.9252)" width="40.55" xlink:href="#sprite1"/>
    <use height="40.35" id="Buske" transform="matrix(1.4664, 0.0, 0.0, 1.4664, 71.3051, 43.0517)" width="40.55" xlink:href="#sprite1"/>
    <use height="40.35" id="Buske" transform="matrix(1.0135, 0.0, 0.0, 1.0135, 80.5759, 26.8773)" width="40.55" xlink:href="#sprite1"/>
    <use height="40.35" id="Buske" transform="matrix(0.8773, 0.0, 0.0, 0.8773, 161.2855, 63.9232)" width="40.55" xlink:href="#sprite1"/>
    <use height="40.35" id="Buske" transform="matrix(0.8773, 0.0, 0.0, 0.8773, 161.2855, 46.9232)" width="40.55" xlink:href="#sprite1"/>
    <use height="40.35" id="Buske" transform="matrix(1.219, 0.0, 0.0, 1.219, 120.3157, 71.0876)" width="40.55" xlink:href="#sprite1"/>
    <use height="40.35" id="Buske" transform="matrix(0.8773, 0.0, 0.0, 0.8773, 91.3355, 104.9232)" width="40.55" xlink:href="#sprite1"/>
    <use height="40.35" id="Buske" transform="matrix(0.5347, 0.0, 0.0, 0.5347, 98.3217, 94.9252)" width="40.55" xlink:href="#sprite1"/>
    <use height="40.35" id="Buske" transform="matrix(0.5347, 0.0, 0.0, 0.5347, 61.3217, 104.9252)" width="40.55" xlink:href="#sprite1"/>
    <use height="40.35" id="Buske" transform="matrix(0.5347, 0.0, 0.0, 0.5347, 8.3217, 72.9252)" width="40.55" xlink:href="#sprite1"/>
    <use height="40.35" id="Buske" transform="matrix(0.8773, 0.0, 0.0, 0.8773, 20.3355, 70.9232)" width="40.55" xlink:href="#sprite1"/>
    <use height="151.95" transform="matrix(1.0, 0.0, 0.0, 1.0, -1.0, 0.0)" width="202.0" xlink:href="#sprite2"/>
  </g>
  <defs>
    <g id="sprite0" transform="matrix(1.0, 0.0, 0.0, 1.0, 20.35, 13.7)">
      <use height="27.45" transform="matrix(1.0, 0.0, 0.0, 1.0, -20.35, -13.7)" width="40.7" xlink:href="#shape0"/>
    </g>
    <g id="shape0" transform="matrix(1.0, 0.0, 0.0, 1.0, 20.35, 13.7)">
      <path d="M20.35 0.0 Q20.35 5.7 14.4 9.7 8.45 13.75 0.0 13.75 -8.45 13.75 -14.4 9.7 -20.35 5.7 -20.35 0.0 -20.35 -5.65 -14.4 -9.7 -8.45 -13.7 0.0 -13.7 8.45 -13.7 14.4 -9.7 20.35 -5.65 20.35 0.0" fill="url(#gradient0)" fill-rule="evenodd" stroke="none"/>
    </g>
    <radialGradient cx="0" cy="0" gradientTransform="matrix(0.025, 0.0, 0.0, 0.0169, 0.0, 0.0)" gradientUnits="userSpaceOnUse" id="gradient0" r="819.2" spreadMethod="pad">
      <stop offset="0.0" stop-color="#000000" stop-opacity="0.5019608"/>
      <stop offset="1.0" stop-color="#000000" stop-opacity="0.0"/>
    </radialGradient>
    <g id="sprite1" transform="matrix(1.0, 0.0, 0.0, 1.0, 20.25, 20.15)">
      <use height="40.35" transform="matrix(1.0, 0.0, 0.0, 1.0, -20.25, -20.15)" width="40.55" xlink:href="#shape1"/>
    </g>
    <g id="shape1" transform="matrix(1.0, 0.0, 0.0, 1.0, 20.25, 20.15)">
      <path d="M0.0 -20.15 L16.5 -9.8 0.0 0.6 -16.45 -9.8 0.0 -20.15" fill="#c5d086" fill-rule="evenodd" stroke="none"/>
      <path d="M-16.45 -9.8 L0.0 -20.15 0.0 -13.6 -16.45 -9.8" fill="#346236" fill-rule="evenodd" stroke="none"/>
      <path d="M0.0 0.6 L0.0 -13.6 16.5 -9.8 0.0 0.6" fill="#a7ca99" fill-rule="evenodd" stroke="none"/>
      <path d="M0.0 -13.6 L0.0 0.6 -16.45 -9.8 0.0 -13.6" fill="#3d7342" fill-rule="evenodd" stroke="none"/>
      <path d="M-16.45 -9.8 L0.0 0.6 0.0 11.3 -20.25 -1.4 -16.45 -9.8" fill="#23532d" fill-rule="evenodd" stroke="none"/>
      <path d="M-20.25 -1.4 L0.0 11.3 0.05 20.2 -16.35 9.65 -20.25 -1.4" fill="#1e4326" fill-rule="evenodd" stroke="none"/>
      <path d="M16.5 -9.8 L20.3 -1.4 0.0 11.3 0.05 0.6 16.5 -9.8" fill="#88b758" fill-rule="evenodd" stroke="none"/>
      <path d="M20.3 -1.4 L17.05 10.45 0.05 20.2 0.0 11.3 20.3 -1.4" fill="#639943" fill-rule="evenodd" stroke="none"/>
    </g>
    <g id="sprite2" transform="matrix(1.0, 0.0, 0.0, 1.0, 101.0, 75.95)">
      <use height="151.95" transform="matrix(1.0, 0.0, 0.0, 1.0, -101.0, -75.95)" width="202.0" xlink:href="#shape2"/>
    </g>
    <g id="shape2" transform="matrix(1.0, 0.0, 0.0, 1.0, 101.0, 75.95)">
      <path d="M-101.0 -75.95 L101.0 -75.95 101.0 76.0 -101.0 76.0 -101.0 -75.95" fill="#00ff00" fill-opacity="0.0" fill-rule="evenodd" stroke="none"/>
    </g>
  </defs>
</svg>
