<?xml version="1.0" encoding="UTF-8" standalone="no"?>
<svg xmlns:xlink="http://www.w3.org/1999/xlink" height="151.95px" width="202.0px" xmlns="http://www.w3.org/2000/svg">
  <g transform="matrix(1.0, 0.0, 0.0, 1.0, 1.0, 0.0)">
    <use height="151.95" transform="matrix(1.0, 0.0, 0.0, 1.0, -1.0, 0.0)" width="202.0" xlink:href="#sprite0"/>
    <use height="41.05" transform="matrix(1.0, 0.0, 0.0, 1.0, 61.4, 18.9)" width="43.1" xlink:href="#sprite1"/>
    <use height="41.05" transform="matrix(0.8427, 0.0, 0.0, 0.8427, 132.5445, 45.3721)" width="43.1" xlink:href="#sprite1"/>
    <use height="41.05" transform="matrix(1.0, 0.0, 0.0, 1.0, 25.9, 41.4)" width="43.1" xlink:href="#sprite1"/>
    <use height="41.05" transform="matrix(0.7422, 0.0, 0.0, 0.7422, 96.0934, 22.7148)" width="43.1" xlink:href="#sprite1"/>
    <use height="41.05" transform="matrix(0.884, 0.0, 0.0, 0.884, 99.9561, 47.0184)" width="43.1" xlink:href="#sprite1"/>
    <use height="41.05" transform="matrix(1.0, 0.0, 0.0, 1.0, 110.9, 70.9)" width="43.1" xlink:href="#sprite1"/>
    <use height="41.05" transform="matrix(0.7422, 0.0, 0.0, 0.7422, 59.0934, 90.7148)" width="43.1" xlink:href="#sprite1"/>
    <use height="41.05" transform="matrix(1.0, 0.0, 0.0, 1.0, 22.4, 65.9)" width="43.1" xlink:href="#sprite1"/>
    <use height="41.05" transform="matrix(0.7422, 0.0, 0.0, 0.7422, 62.0934, 61.7148)" width="43.1" xlink:href="#sprite1"/>
    <use height="41.05" transform="matrix(0.7422, 0.0, 0.0, 0.7422, 151.5934, 69.7148)" width="43.1" xlink:href="#sprite1"/>
    <use height="41.05" transform="matrix(0.884, 0.0, 0.0, 0.884, 89.9561, 97.5184)" width="43.1" xlink:href="#sprite1"/>
  </g>
  <defs>
    <g id="sprite0" transform="matrix(1.0, 0.0, 0.0, 1.0, 101.0, 75.95)">
      <use height="151.95" transform="matrix(1.0, 0.0, 0.0, 1.0, -101.0, -75.95)" width="202.0" xlink:href="#shape0"/>
    </g>
    <g id="shape0" transform="matrix(1.0, 0.0, 0.0, 1.0, 101.0, 75.95)">
      <path d="M-101.0 -75.95 L101.0 -75.95 101.0 76.0 -101.0 76.0 -101.0 -75.95" fill="#00ff00" fill-opacity="0.0" fill-rule="evenodd" stroke="none"/>
    </g>
    <g id="sprite1" transform="matrix(1.0, 0.0, 0.0, 1.0, 26.35, 24.3)">
      <use height="27.45" transform="matrix(1.0, 0.0, 0.0, 1.0, -26.35, -10.7)" width="40.7" xlink:href="#sprite2"/>
      <use height="34.55" transform="matrix(1.0, 0.0, 0.0, 1.0, -17.75, -24.3)" width="34.5" xlink:href="#shape2"/>
    </g>
    <g id="sprite2" transform="matrix(1.0, 0.0, 0.0, 1.0, 20.35, 13.7)">
      <use height="27.45" transform="matrix(1.0, 0.0, 0.0, 1.0, -20.35, -13.7)" width="40.7" xlink:href="#shape1"/>
    </g>
    <g id="shape1" transform="matrix(1.0, 0.0, 0.0, 1.0, 20.35, 13.7)">
      <path d="M20.35 0.0 Q20.35 5.7 14.4 9.7 8.45 13.75 0.0 13.75 -8.45 13.75 -14.4 9.7 -20.35 5.7 -20.35 0.0 -20.35 -5.65 -14.4 -9.7 -8.45 -13.7 0.0 -13.7 8.45 -13.7 14.4 -9.7 20.35 -5.65 20.35 0.0" fill="url(#gradient0)" fill-rule="evenodd" stroke="none"/>
    </g>
    <radialGradient cx="0" cy="0" gradientTransform="matrix(0.025, 0.0, 0.0, 0.0169, 0.0, 0.0)" gradientUnits="userSpaceOnUse" id="gradient0" r="819.2" spreadMethod="pad">
      <stop offset="0.0" stop-color="#000000" stop-opacity="0.5019608"/>
      <stop offset="1.0" stop-color="#000000" stop-opacity="0.0"/>
    </radialGradient>
    <g id="shape2" transform="matrix(1.0, 0.0, 0.0, 1.0, 17.75, 24.3)">
      <path d="M0.05 -1.45 L2.1 -4.7 8.05 -11.45 2.3 -1.25 4.1 7.25 0.05 10.25 0.05 -1.45" fill="#333333" fill-rule="evenodd" stroke="none"/>
      <path d="M0.05 10.25 L-4.0 7.25 -2.0 -1.6 -10.85 -10.65 -4.0 -6.2 0.05 -1.45 0.05 10.25" fill="#000000" fill-rule="evenodd" stroke="none"/>
      <path d="M9.0 -20.8 L8.2 -15.7 2.75 -12.6 2.75 -17.25 9.0 -20.8" fill="#ff99cc" fill-rule="evenodd" stroke="none"/>
      <path d="M2.75 -12.6 L-2.75 -15.3 -3.5 -20.4 2.5 -17.4 2.75 -17.25 2.75 -12.6" fill="#cc66cc" fill-rule="evenodd" stroke="none"/>
      <path d="M2.35 -24.3 L9.0 -20.8 2.75 -17.25 2.5 -17.4 2.35 -24.3" fill="#ffccff" fill-rule="evenodd" stroke="none"/>
      <path d="M-3.5 -20.4 L2.35 -24.3 2.5 -17.4 -3.5 -20.4" fill="#ff66cc" fill-rule="evenodd" stroke="none"/>
      <path d="M3.25 -17.85 L1.95 -9.35 -7.25 -4.1 -7.25 -11.95 3.25 -17.85" fill="#ff99cc" fill-rule="evenodd" stroke="none"/>
      <path d="M-7.25 -4.1 L-16.45 -8.65 -17.75 -17.2 -7.65 -12.2 -7.25 -11.95 -7.25 -4.1" fill="#cc66cc" fill-rule="evenodd" stroke="none"/>
      <path d="M-17.75 -17.2 L-7.9 -23.75 -7.65 -12.2 -17.75 -17.2" fill="#ff66cc" fill-rule="evenodd" stroke="none"/>
      <path d="M-7.9 -23.75 L3.25 -17.85 -7.25 -11.95 -7.65 -12.2 -7.9 -23.75" fill="#ffccff" fill-rule="evenodd" stroke="none"/>
      <path d="M4.25 -13.9 L10.1 -17.8 10.25 -10.9 4.25 -13.9" fill="#ff66cc" fill-rule="evenodd" stroke="none"/>
      <path d="M16.75 -14.3 L15.95 -9.2 10.5 -6.1 10.5 -10.75 16.75 -14.3" fill="#ff99cc" fill-rule="evenodd" stroke="none"/>
      <path d="M10.5 -6.1 L5.0 -8.8 4.25 -13.9 10.25 -10.9 10.5 -10.75 10.5 -6.1" fill="#cc66cc" fill-rule="evenodd" stroke="none"/>
      <path d="M10.1 -17.8 L16.75 -14.3 10.5 -10.75 10.25 -10.9 10.1 -17.8" fill="#ffccff" fill-rule="evenodd" stroke="none"/>
      <path d="M7.75 -11.8 L6.95 -6.7 1.5 -3.6 1.5 -8.25 7.75 -11.8" fill="#ff99cc" fill-rule="evenodd" stroke="none"/>
      <path d="M1.5 -3.6 L-4.0 -6.3 -4.75 -11.4 1.25 -8.4 1.5 -8.25 1.5 -3.6" fill="#cc66cc" fill-rule="evenodd" stroke="none"/>
      <path d="M1.1 -15.3 L7.75 -11.8 1.5 -8.25 1.25 -8.4 1.1 -15.3" fill="#ffccff" fill-rule="evenodd" stroke="none"/>
      <path d="M-4.75 -11.4 L1.1 -15.3 1.25 -8.4 -4.75 -11.4" fill="#ff66cc" fill-rule="evenodd" stroke="none"/>
    </g>
  </defs>
</svg>
