<?xml version="1.0" encoding="UTF-8" standalone="no"?>
<svg xmlns:xlink="http://www.w3.org/1999/xlink" height="151.95px" width="202.0px" xmlns="http://www.w3.org/2000/svg">
  <g transform="matrix(1.0, 0.0, 0.0, 1.0, 1.0, 0.0)">
    <use height="61.2" transform="matrix(0.588, 0.0, 0.0, 0.588, 72.318, 28.8977)" width="46.55" xlink:href="#sprite0"/>
    <use height="61.2" transform="matrix(0.588, 0.0, 0.0, 0.588, 106.718, 42.8977)" width="46.55" xlink:href="#sprite0"/>
    <use height="61.2" transform="matrix(0.6566, 0.0, 0.0, 0.6566, 124.2152, 63.79)" width="46.55" xlink:href="#sprite0"/>
    <use height="25.55" transform="matrix(1.0, 0.0, 0.0, 1.0, 72.65, 63.35)" width="43.8" xlink:href="#shape3"/>
    <use height="80.85" transform="matrix(0.7349, 0.0, 0.0, 0.7349, 36.5254, 37.4251)" width="46.55" xlink:href="#sprite4"/>
    <use height="61.2" transform="matrix(0.588, 0.0, 0.0, 0.588, 69.618, 79.6477)" width="46.55" xlink:href="#sprite0"/>
    <use height="151.95" transform="matrix(1.0, 0.0, 0.0, 1.0, -1.0, 0.0)" width="202.0" xlink:href="#sprite5"/>
  </g>
  <defs>
    <g id="sprite0" transform="matrix(1.0, 0.0, 0.0, 1.0, 24.8, 48.9)">
      <use height="9.45" transform="matrix(1.6297, 0.0, 0.0, 1.6297, -8.5172, -36.3639)" width="9.55" xlink:href="#sprite1"/>
      <use height="9.45" transform="matrix(1.6297, 0.0, 0.0, 1.6297, -8.4672, -24.8639)" width="9.55" xlink:href="#sprite1"/>
      <use height="27.45" transform="matrix(1.0, 0.0, 0.0, 1.0, -21.45, -15.15)" width="40.7" xlink:href="#sprite2"/>
      <use height="9.45" transform="matrix(1.6297, 0.0, 0.0, 1.6297, -8.4672, -13.3139)" width="9.55" xlink:href="#sprite1"/>
      <use height="34.0" transform="matrix(1.0, 0.0, 0.0, 1.0, -24.8, -48.9)" width="46.55" xlink:href="#sprite3"/>
    </g>
    <g id="sprite1" transform="matrix(1.0, 0.0, 0.0, 1.0, 4.95, 9.55)">
      <use height="9.45" transform="matrix(1.0, 0.0, 0.0, 1.0, -4.95, -9.55)" width="9.55" xlink:href="#shape0"/>
    </g>
    <g id="shape0" transform="matrix(1.0, 0.0, 0.0, 1.0, 4.95, 9.55)">
      <path d="M4.6 -8.35 L3.55 -6.35 -0.05 -3.95 -0.05 -5.25 4.6 -8.35" fill="#894400" fill-rule="evenodd" stroke="none"/>
      <path d="M-0.05 -0.1 L-3.95 -2.45 -3.95 -6.35 -0.05 -3.95 -0.05 -0.1" fill="#663300" fill-rule="evenodd" stroke="none"/>
      <path d="M-3.95 -6.35 L-4.95 -8.35 -0.05 -5.25 -0.05 -3.95 -3.95 -6.35" fill="#4f0100" fill-rule="evenodd" stroke="none"/>
      <path d="M3.55 -6.35 L3.55 -2.35 -0.05 -0.1 -0.05 -3.95 3.55 -6.35" fill="#aa5500" fill-rule="evenodd" stroke="none"/>
      <path d="M-0.05 -7.2 L3.55 -9.5 4.6 -8.35 -0.05 -5.25 -0.05 -7.2" fill="#c16000" fill-rule="evenodd" stroke="none"/>
      <path d="M-4.95 -8.35 L-3.95 -9.55 -0.05 -7.2 -0.05 -5.25 -4.95 -8.35" fill="#820100" fill-rule="evenodd" stroke="none"/>
    </g>
    <g id="sprite2" transform="matrix(1.0, 0.0, 0.0, 1.0, 20.35, 13.7)">
      <use height="27.45" transform="matrix(1.0, 0.0, 0.0, 1.0, -20.35, -13.7)" width="40.7" xlink:href="#shape1"/>
    </g>
    <g id="shape1" transform="matrix(1.0, 0.0, 0.0, 1.0, 20.35, 13.7)">
      <path d="M20.35 0.0 Q20.35 5.7 14.4 9.7 8.45 13.75 0.0 13.75 -8.45 13.75 -14.4 9.7 -20.35 5.7 -20.35 0.0 -20.35 -5.65 -14.4 -9.7 -8.45 -13.7 0.0 -13.7 8.45 -13.7 14.4 -9.7 20.35 -5.65 20.35 0.0" fill="url(#gradient0)" fill-rule="evenodd" stroke="none"/>
    </g>
    <radialGradient cx="0" cy="0" gradientTransform="matrix(0.025, 0.0, 0.0, 0.0169, 0.0, 0.0)" gradientUnits="userSpaceOnUse" id="gradient0" r="819.2" spreadMethod="pad">
      <stop offset="0.0" stop-color="#000000" stop-opacity="0.5019608"/>
      <stop offset="1.0" stop-color="#000000" stop-opacity="0.0"/>
    </radialGradient>
    <g id="sprite3" transform="matrix(1.0, 0.0, 0.0, 1.0, 23.3, 17.0)">
      <use height="34.0" transform="matrix(1.0, 0.0, 0.0, 1.0, -23.3, -17.0)" width="46.55" xlink:href="#shape2"/>
    </g>
    <g id="shape2" transform="matrix(1.0, 0.0, 0.0, 1.0, 23.3, 17.0)">
      <path d="M1.0 -10.7 L10.75 -11.1 22.05 -7.05 15.1 -2.75 1.0 -10.7 8.7 2.5 1.05 17.0 1.0 -10.7" fill="#43cb1c" fill-rule="evenodd" stroke="none"/>
      <path d="M1.0 -17.0 L1.0 -10.7 1.05 17.0 -6.55 1.3 1.0 -10.7 -10.2 -9.95 1.0 -17.0" fill="#1d6600" fill-rule="evenodd" stroke="none"/>
      <path d="M10.75 -11.1 L1.0 -10.7 1.0 -17.0 10.75 -11.1 M1.0 -10.7 L15.1 -2.75 23.25 10.45 8.7 2.5 1.0 -10.7 -6.55 1.3 -23.3 8.8 -12.4 -3.7 1.0 -10.7" fill="#3ab417" fill-rule="evenodd" stroke="none"/>
      <path d="M-12.4 -3.7 L-20.45 -7.55 -10.2 -9.95 1.0 -10.7 -12.4 -3.7" fill="#309900" fill-rule="evenodd" stroke="none"/>
    </g>
    <g id="shape3" transform="matrix(1.0, 0.0, 0.0, 1.0, -72.65, -63.35)">
      <path d="M80.6 79.95 L94.6 72.2 108.5 80.7 94.9 88.9 80.6 79.95" fill="#fccc01" fill-rule="evenodd" stroke="none"/>
      <path d="M94.6 72.2 L94.7 63.35 116.45 75.9 108.5 80.7 94.6 72.2" fill="#fffb8d" fill-rule="evenodd" stroke="none"/>
      <path d="M94.7 63.35 L94.6 72.2 80.6 79.95 72.65 75.0 94.7 63.35" fill="#ffffff" fill-rule="evenodd" stroke="none"/>
      <path d="M94.95 66.15 L114.5 77.25 94.75 88.9 75.0 76.5 94.95 66.15" fill="#00ccff" fill-opacity="0.61960787" fill-rule="evenodd" stroke="none"/>
    </g>
    <g id="sprite4" transform="matrix(1.0, 0.0, 0.0, 1.0, 24.8, 68.55)">
      <use height="9.45" transform="matrix(1.6297, 0.0, 0.0, 1.6297, -8.5172, -36.3639)" width="9.55" xlink:href="#sprite1"/>
      <use height="9.45" transform="matrix(1.6297, 0.0, 0.0, 1.6297, -8.4672, -24.8639)" width="9.55" xlink:href="#sprite1"/>
      <use height="27.45" transform="matrix(1.0, 0.0, 0.0, 1.0, -21.45, -15.15)" width="40.7" xlink:href="#sprite2"/>
      <use height="9.45" transform="matrix(1.6297, 0.0, 0.0, 1.6297, -8.4672, -13.3139)" width="9.55" xlink:href="#sprite1"/>
      <use height="9.45" transform="matrix(1.6297, 0.0, 0.0, 1.6297, -8.5172, -47.9139)" width="9.55" xlink:href="#sprite1"/>
      <use height="9.45" transform="matrix(1.6297, 0.0, 0.0, 1.6297, -8.5172, -59.4639)" width="9.55" xlink:href="#sprite1"/>
      <use height="34.0" transform="matrix(1.0, 0.0, 0.0, 1.0, -24.8, -68.55)" width="46.55" xlink:href="#sprite3"/>
    </g>
    <g id="sprite5" transform="matrix(1.0, 0.0, 0.0, 1.0, 101.0, 75.95)">
      <use height="151.95" transform="matrix(1.0, 0.0, 0.0, 1.0, -101.0, -75.95)" width="202.0" xlink:href="#shape4"/>
    </g>
    <g id="shape4" transform="matrix(1.0, 0.0, 0.0, 1.0, 101.0, 75.95)">
      <path d="M-101.0 -75.95 L101.0 -75.95 101.0 76.0 -101.0 76.0 -101.0 -75.95" fill="#00ff00" fill-opacity="0.0" fill-rule="evenodd" stroke="none"/>
    </g>
  </defs>
</svg>
