<?xml version="1.0" encoding="UTF-8" standalone="no"?>
<svg xmlns:xlink="http://www.w3.org/1999/xlink" height="151.95px" width="202.0px" xmlns="http://www.w3.org/2000/svg">
  <g transform="matrix(1.0, 0.0, 0.0, 1.0, 1.0, 0.0)">
    <use height="104.6" transform="matrix(1.0, 0.0, 0.0, 1.0, 36.45, 7.0)" width="124.55" xlink:href="#shape0"/>
    <use height="151.95" transform="matrix(1.0, 0.0, 0.0, 1.0, -1.0, 0.0)" width="202.0" xlink:href="#sprite0"/>
  </g>
  <defs>
    <g id="shape0" transform="matrix(1.0, 0.0, 0.0, 1.0, -36.45, -7.0)">
      <path d="M107.85 16.5 L110.4 11.45 111.0 11.3 109.9 16.6 107.85 16.5" fill="#595958" fill-rule="evenodd" stroke="none"/>
      <path d="M103.1 24.7 L103.25 26.25 92.35 21.05 92.6 21.05 103.1 24.7" fill="#ffffff" fill-rule="evenodd" stroke="none"/>
      <path d="M116.9 33.35 L114.3 33.35 114.45 25.5 117.15 33.5 116.9 33.35" fill="#ffffff" fill-rule="evenodd" stroke="none"/>
      <path d="M115.0 35.9 L114.3 35.0 122.15 32.9 115.0 35.9" fill="#595958" fill-rule="evenodd" stroke="none"/>
      <path d="M105.65 20.35 L104.6 21.0 103.8 18.6 107.75 16.5 109.6 16.45 105.65 20.35" fill="#979797" fill-rule="evenodd" stroke="none"/>
      <path d="M104.75 65.4 L102.45 52.45 105.55 27.1 100.3 8.05 107.85 27.9 107.7 45.8 109.5 62.25 104.75 65.4" fill="#ffffff" fill-rule="evenodd" stroke="none"/>
      <path d="M99.1 61.8 L99.0 50.7 102.75 22.85 100.0 7.0 105.95 28.75 103.6 52.05 104.75 65.4 99.1 61.8" fill="#979797" fill-rule="evenodd" stroke="none"/>
      <path d="M105.15 37.2 L113.4 33.4 114.6 25.5 114.65 25.35 115.65 33.1 122.35 32.8 114.75 35.0 104.55 42.4 105.15 37.2" fill="#979797" fill-rule="evenodd" stroke="none"/>
      <path d="M104.5 47.4 L96.0 39.75 89.8 41.35 89.9 41.0 95.35 38.05 94.4 30.8 94.5 30.65 97.05 38.15 105.15 42.6 104.5 47.4" fill="#ffffff" fill-rule="evenodd" stroke="none"/>
      <path d="M105.6 22.25 L104.2 20.35 109.6 16.45 110.85 11.85 110.45 16.95 105.6 22.25" fill="#ffffff" fill-rule="evenodd" stroke="none"/>
      <path d="M103.7 47.1 L99.75 46.0 95.15 40.2 96.35 39.75 103.7 47.1" fill="#595958" fill-rule="evenodd" stroke="none"/>
      <path d="M104.55 42.4 L114.75 35.0 115.05 35.8 107.5 42.35 104.55 42.4" fill="#7c7b7b" fill-rule="evenodd" stroke="none"/>
      <path d="M89.9 41.0 L89.65 41.0 93.6 38.0 95.35 38.05 89.9 41.0" fill="#595958" fill-rule="evenodd" stroke="none"/>
      <path d="M94.6 31.5 L95.35 38.05 93.6 38.0 94.6 31.5 94.5 30.8 94.65 30.9 94.6 31.5" fill="#595958" fill-rule="evenodd" stroke="none"/>
      <path d="M102.1 28.4 L100.1 7.25 105.95 28.75 102.1 28.4" fill="#595958" fill-rule="evenodd" stroke="none"/>
      <path d="M102.0 28.35 L92.5 21.3 92.35 21.05 103.25 26.25 102.0 28.35" fill="#595958" fill-rule="evenodd" stroke="none"/>
      <path d="M97.75 61.5 L99.0 50.8 103.6 52.05 104.75 65.4 97.75 61.5" fill="#595958" fill-rule="evenodd" stroke="none"/>
      <path d="M135.05 83.9 L135.15 85.3 127.55 78.75 127.85 78.65 135.05 83.9" fill="#ffffff" fill-rule="evenodd" stroke="none"/>
      <path d="M144.3 92.75 L142.6 92.75 144.0 87.8 144.4 92.85 144.3 92.75" fill="#ffffff" fill-rule="evenodd" stroke="none"/>
      <path d="M143.05 94.35 L142.6 93.8 147.1 94.7 143.05 94.35" fill="#595958" fill-rule="evenodd" stroke="none"/>
      <path d="M137.35 79.95 L136.4 80.55 135.65 78.3 139.05 76.15 139.45 76.0 137.35 79.95" fill="#979797" fill-rule="evenodd" stroke="none"/>
      <path d="M135.9 107.75 L134.55 106.7 137.25 86.1 132.5 68.7 139.45 86.8 139.4 100.6 140.2 104.95 135.9 107.75" fill="#ffffff" fill-rule="evenodd" stroke="none"/>
      <path d="M131.45 104.95 L134.7 82.25 132.2 67.7 137.65 87.55 135.6 106.25 135.9 107.75 131.45 104.95" fill="#979797" fill-rule="evenodd" stroke="none"/>
      <path d="M136.95 93.2 L142.1 92.8 144.05 87.8 144.1 87.7 143.5 92.6 145.35 93.15 147.45 94.7 142.9 93.8 136.5 97.5 136.95 93.2" fill="#979797" fill-rule="evenodd" stroke="none"/>
      <path d="M136.45 102.0 L130.3 96.1 126.2 97.2 126.25 96.95 129.9 95.0 129.25 90.2 129.35 90.1 132.05 95.6 137.05 97.65 136.45 102.0" fill="#ffffff" fill-rule="evenodd" stroke="none"/>
      <path d="M139.45 76.0 L139.6 76.15 137.35 81.65 136.05 79.95 139.45 76.0" fill="#ffffff" fill-rule="evenodd" stroke="none"/>
      <path d="M135.75 101.75 L132.1 100.75 129.7 96.4 131.4 97.05 135.75 101.75" fill="#595958" fill-rule="evenodd" stroke="none"/>
      <path d="M136.5 97.5 L142.9 93.8 143.1 94.3 139.2 97.35 136.5 97.5" fill="#7c7b7b" fill-rule="evenodd" stroke="none"/>
      <path d="M126.25 96.95 L126.1 96.95 128.7 94.95 129.9 95.0 126.25 96.95" fill="#595958" fill-rule="evenodd" stroke="none"/>
      <path d="M129.35 90.7 L129.9 95.0 128.7 94.95 129.35 90.7 129.3 90.2 129.4 90.3 129.35 90.7" fill="#595958" fill-rule="evenodd" stroke="none"/>
      <path d="M134.15 87.3 L132.3 68.0 137.65 87.55 134.15 87.3" fill="#595958" fill-rule="evenodd" stroke="none"/>
      <path d="M134.05 87.15 L127.55 78.75 135.15 85.3 134.05 87.15" fill="#595958" fill-rule="evenodd" stroke="none"/>
      <path d="M129.55 104.2 L131.4 105.15 135.6 106.25 135.9 107.75 129.55 104.2" fill="#595958" fill-rule="evenodd" stroke="none"/>
      <path d="M49.55 68.7 L49.75 72.35 41.9 65.55 42.2 65.5 49.55 68.7" fill="#ffffff" fill-rule="evenodd" stroke="none"/>
      <path d="M59.25 80.15 L57.55 80.15 59.0 75.0 59.35 80.2 59.25 80.15" fill="#ffffff" fill-rule="evenodd" stroke="none"/>
      <path d="M58.0 81.8 L57.55 81.2 62.0 82.15 58.0 81.8" fill="#595958" fill-rule="evenodd" stroke="none"/>
      <path d="M52.05 66.85 L51.15 67.45 50.35 65.15 53.85 62.95 54.2 62.8 52.05 66.85" fill="#979797" fill-rule="evenodd" stroke="none"/>
      <path d="M50.55 95.65 L49.2 94.5 52.0 73.2 47.15 55.45 54.2 74.0 54.2 88.2 55.05 92.7 50.55 95.65" fill="#ffffff" fill-rule="evenodd" stroke="none"/>
      <path d="M46.0 92.75 L49.35 69.2 46.75 54.2 52.35 74.7 50.25 94.05 50.55 95.65 46.0 92.75" fill="#979797" fill-rule="evenodd" stroke="none"/>
      <path d="M51.65 80.55 L57.0 80.15 59.05 75.05 58.4 79.9 60.35 80.55 62.5 82.05 57.85 81.2 51.2 85.0 51.65 80.55" fill="#979797" fill-rule="evenodd" stroke="none"/>
      <path d="M54.2 62.8 L54.4 62.95 52.05 68.65 50.7 66.85 54.2 62.8" fill="#ffffff" fill-rule="evenodd" stroke="none"/>
      <path d="M51.2 85.0 L57.85 81.2 58.05 81.7 54.0 84.9 51.2 85.0" fill="#7c7b7b" fill-rule="evenodd" stroke="none"/>
      <path d="M48.7 74.5 L46.75 54.2 52.35 74.7 48.7 74.5" fill="#595958" fill-rule="evenodd" stroke="none"/>
      <path d="M48.65 74.35 L42.05 65.8 41.9 65.55 49.9 70.95 48.65 74.35" fill="#595958" fill-rule="evenodd" stroke="none"/>
      <path d="M100.75 79.2 L99.45 79.9 96.45 78.15 100.85 75.9 101.0 76.0 100.75 79.2 M106.2 82.2 L104.9 82.9 101.95 81.15 106.25 78.9 106.2 82.2" fill="#000000" fill-rule="evenodd" stroke="none"/>
      <path d="M101.0 76.0 L100.85 75.9 96.45 78.15 99.45 79.9 100.75 79.2 103.85 77.55 101.0 76.0 M94.4 78.8 L102.2 74.6 104.05 75.4 106.85 73.9 112.5 76.95 109.1 78.8 111.3 80.45 104.15 84.25 94.4 78.8 M106.25 78.9 L101.95 81.15 104.9 82.9 106.2 82.2 109.25 80.55 106.25 78.9" fill="#ffffff" fill-rule="evenodd" stroke="none"/>
      <path d="M103.65 88.8 L94.25 86.1 94.4 78.8 104.15 84.25 103.65 88.8" fill="#666666" fill-rule="evenodd" stroke="none"/>
      <path d="M100.75 79.2 L101.0 76.0 103.85 77.55 100.75 79.2 M106.2 82.2 L106.25 78.9 109.25 80.55 106.2 82.2" fill="#464646" fill-rule="evenodd" stroke="none"/>
      <path d="M112.5 76.95 L112.35 86.25 111.5 86.75 111.3 80.45 109.1 78.8 112.5 76.95" fill="#333333" fill-rule="evenodd" stroke="none"/>
      <path d="M111.5 86.75 L111.65 87.3 103.65 88.8 104.15 84.25 111.3 80.45 111.5 86.75" fill="#999999" fill-rule="evenodd" stroke="none"/>
      <path d="M106.6 77.65 L106.65 76.1 108.05 76.9 106.6 77.65" fill="#464646" fill-rule="evenodd" stroke="none"/>
      <path d="M106.6 77.65 L105.15 77.5 106.65 76.1 106.6 77.65" fill="#000000" fill-rule="evenodd" stroke="none"/>
      <path d="M121.8 32.9 Q122.45 31.45 123.55 30.1 125.65 27.4 127.65 28.05 L126.65 30.65 Q125.05 33.2 121.8 32.9" fill="#a53580" fill-rule="evenodd" stroke="none"/>
      <path d="M87.1 19.0 L92.5 20.95 92.5 21.4 90.25 21.45 Q87.85 21.15 87.1 19.0" fill="#a53580" fill-rule="evenodd" stroke="none"/>
      <path d="M36.45 63.9 L39.15 64.25 Q41.8 64.9 41.9 66.25 L39.65 66.35 Q37.2 66.0 36.45 63.9" fill="#a53580" fill-rule="evenodd" stroke="none"/>
      <path d="M139.1 76.1 Q139.55 74.6 140.35 73.05 142.0 70.05 144.0 70.35 L143.55 73.15 Q142.35 75.9 139.1 76.1" fill="#a53580" fill-rule="evenodd" stroke="none"/>
      <path d="M82.6 38.1 L85.9 38.5 Q89.2 39.25 89.5 41.25 L86.7 41.5 Q83.7 41.15 82.6 38.1" fill="#a53580" fill-rule="evenodd" stroke="none"/>
      <path d="M86.5 76.9 L88.35 73.3 88.75 73.2 87.95 76.95 86.5 76.9" fill="#595958" fill-rule="evenodd" stroke="none"/>
      <path d="M83.15 82.7 L83.25 83.8 75.55 80.1 75.7 80.1 83.15 82.7" fill="#ffffff" fill-rule="evenodd" stroke="none"/>
      <path d="M92.95 88.85 L91.1 88.85 91.25 83.25 93.15 88.95 92.95 88.85" fill="#ffffff" fill-rule="evenodd" stroke="none"/>
      <path d="M91.6 90.65 L91.1 90.0 96.7 88.5 91.6 90.65" fill="#595958" fill-rule="evenodd" stroke="none"/>
      <path d="M84.95 79.65 L84.2 80.05 83.65 78.35 86.45 76.85 87.8 76.85 84.95 79.65" fill="#979797" fill-rule="evenodd" stroke="none"/>
      <path d="M84.35 111.6 L82.7 102.4 84.9 84.4 81.2 70.9 86.55 84.95 86.4 97.7 87.7 109.35 84.35 111.6" fill="#ffffff" fill-rule="evenodd" stroke="none"/>
      <path d="M80.3 109.0 L80.25 101.15 82.9 81.4 80.95 70.15 85.2 85.55 83.5 102.1 84.35 111.6 80.3 109.0" fill="#979797" fill-rule="evenodd" stroke="none"/>
      <path d="M84.6 91.55 L90.5 88.85 91.35 83.25 91.35 83.15 92.05 88.65 96.8 88.45 91.4 90.0 84.2 95.25 84.6 91.55" fill="#979797" fill-rule="evenodd" stroke="none"/>
      <path d="M84.15 98.8 L78.1 93.35 73.75 94.5 73.8 94.25 77.65 92.15 77.0 87.0 77.05 86.9 78.85 92.25 84.6 95.4 84.15 98.8" fill="#ffffff" fill-rule="evenodd" stroke="none"/>
      <path d="M84.95 80.95 L83.95 79.65 87.8 76.85 88.65 73.6 88.4 77.2 84.95 80.95" fill="#ffffff" fill-rule="evenodd" stroke="none"/>
      <path d="M83.6 98.6 L80.8 97.8 77.5 93.7 78.35 93.35 83.6 98.6" fill="#595958" fill-rule="evenodd" stroke="none"/>
      <path d="M84.2 95.25 L91.4 90.0 91.65 90.6 86.3 95.2 84.2 95.25" fill="#7c7b7b" fill-rule="evenodd" stroke="none"/>
      <path d="M73.8 94.25 L73.6 94.25 76.45 92.15 77.65 92.15 73.8 94.25" fill="#595958" fill-rule="evenodd" stroke="none"/>
      <path d="M76.45 92.15 L77.1 87.55 77.05 87.0 77.2 87.1 77.1 87.55 77.65 92.15 76.45 92.15" fill="#595958" fill-rule="evenodd" stroke="none"/>
      <path d="M82.45 85.35 L81.05 70.3 85.2 85.55 82.45 85.35" fill="#595958" fill-rule="evenodd" stroke="none"/>
      <path d="M82.4 85.25 L75.65 80.3 75.55 80.1 83.25 83.8 82.4 85.25" fill="#595958" fill-rule="evenodd" stroke="none"/>
      <path d="M79.4 108.8 L80.25 101.2 83.5 102.1 84.35 111.6 79.4 108.8" fill="#595958" fill-rule="evenodd" stroke="none"/>
      <path d="M70.55 47.95 L70.6 48.95 65.3 44.4 65.55 44.3 70.55 47.95" fill="#ffffff" fill-rule="evenodd" stroke="none"/>
      <path d="M77.0 54.15 L75.8 54.15 76.8 50.7 77.05 54.2 77.0 54.15" fill="#ffffff" fill-rule="evenodd" stroke="none"/>
      <path d="M76.1 55.25 L75.8 54.9 78.9 55.5 76.1 55.25" fill="#595958" fill-rule="evenodd" stroke="none"/>
      <path d="M72.15 45.25 L71.5 45.65 71.0 44.1 73.3 42.6 73.6 42.5 72.15 45.25" fill="#979797" fill-rule="evenodd" stroke="none"/>
      <path d="M71.15 64.6 L70.2 63.85 72.05 49.55 68.8 37.4 73.6 50.0 73.55 59.6 74.15 62.6 71.15 64.6" fill="#ffffff" fill-rule="evenodd" stroke="none"/>
      <path d="M68.05 62.65 L70.3 46.8 68.55 36.7 72.35 50.55 70.95 63.55 71.15 64.6 68.05 62.65" fill="#979797" fill-rule="evenodd" stroke="none"/>
      <path d="M71.85 54.45 L75.45 54.2 76.8 50.7 76.85 50.6 76.45 54.05 77.7 54.45 79.2 55.5 76.0 54.9 71.55 57.45 71.85 54.45" fill="#979797" fill-rule="evenodd" stroke="none"/>
      <path d="M71.55 60.6 L67.25 56.45 64.4 57.25 64.45 57.1 66.95 55.7 66.5 52.35 66.55 52.3 68.45 56.15 71.95 57.55 71.55 60.6" fill="#ffffff" fill-rule="evenodd" stroke="none"/>
      <path d="M73.6 42.5 L73.7 42.6 72.15 46.4 71.25 45.25 73.6 42.5" fill="#ffffff" fill-rule="evenodd" stroke="none"/>
      <path d="M71.05 60.4 L68.5 59.7 66.85 56.7 68.0 57.15 71.05 60.4" fill="#595958" fill-rule="evenodd" stroke="none"/>
      <path d="M71.55 57.45 L76.0 54.9 76.15 55.2 73.45 57.35 71.55 57.45" fill="#7c7b7b" fill-rule="evenodd" stroke="none"/>
      <path d="M64.45 57.1 L64.3 57.1 66.15 55.7 66.95 55.7 64.45 57.1" fill="#595958" fill-rule="evenodd" stroke="none"/>
      <path d="M66.15 55.7 L66.6 52.7 66.55 52.35 66.6 52.4 66.6 52.7 66.95 55.7 66.15 55.7" fill="#595958" fill-rule="evenodd" stroke="none"/>
      <path d="M69.9 50.35 L68.65 36.9 72.35 50.55 69.9 50.35" fill="#595958" fill-rule="evenodd" stroke="none"/>
      <path d="M69.85 50.25 L65.3 44.4 70.6 48.95 69.85 50.25" fill="#595958" fill-rule="evenodd" stroke="none"/>
      <path d="M66.7 62.1 L68.0 62.75 70.95 63.55 71.15 64.6 66.7 62.1" fill="#595958" fill-rule="evenodd" stroke="none"/>
      <path d="M74.35 68.35 L77.65 68.75 Q80.95 69.5 81.25 71.5 L78.45 71.75 Q75.45 71.4 74.35 68.35" fill="#a53580" fill-rule="evenodd" stroke="none"/>
      <path d="M95.85 88.6 Q96.3 87.1 97.1 85.55 98.75 82.55 100.75 82.85 L100.3 85.65 Q99.1 88.4 95.85 88.6" fill="#a53580" fill-rule="evenodd" stroke="none"/>
      <path d="M151.3 57.45 L151.5 61.1 143.65 54.3 143.95 54.25 151.3 57.45" fill="#ffffff" fill-rule="evenodd" stroke="none"/>
      <path d="M153.8 55.6 L152.9 56.2 152.1 53.9 155.6 51.7 155.95 51.55 153.8 55.6" fill="#979797" fill-rule="evenodd" stroke="none"/>
      <path d="M152.3 84.4 L150.95 83.25 153.75 61.95 148.9 44.2 155.95 62.75 155.95 76.95 156.8 81.45 152.3 84.4" fill="#ffffff" fill-rule="evenodd" stroke="none"/>
      <path d="M147.75 81.5 L151.1 57.95 148.5 42.95 154.1 63.45 152.0 82.8 152.3 84.4 147.75 81.5" fill="#979797" fill-rule="evenodd" stroke="none"/>
      <path d="M155.95 51.55 L156.15 51.7 153.8 57.4 152.45 55.6 155.95 51.55" fill="#ffffff" fill-rule="evenodd" stroke="none"/>
      <path d="M150.45 63.25 L148.5 42.95 154.1 63.45 150.45 63.25" fill="#595958" fill-rule="evenodd" stroke="none"/>
      <path d="M150.4 63.1 L143.8 54.55 143.65 54.3 151.65 59.7 150.4 63.1" fill="#595958" fill-rule="evenodd" stroke="none"/>
      <path d="M156.1 51.85 Q156.55 50.35 157.35 48.8 159.0 45.8 161.0 46.1 L160.55 48.9 Q159.35 51.65 156.1 51.85" fill="#a53580" fill-rule="evenodd" stroke="none"/>
    </g>
    <g id="sprite0" transform="matrix(1.0, 0.0, 0.0, 1.0, 101.0, 75.95)">
      <use height="151.95" transform="matrix(1.0, 0.0, 0.0, 1.0, -101.0, -75.95)" width="202.0" xlink:href="#shape1"/>
    </g>
    <g id="shape1" transform="matrix(1.0, 0.0, 0.0, 1.0, 101.0, 75.95)">
      <path d="M-101.0 -75.95 L101.0 -75.95 101.0 76.0 -101.0 76.0 -101.0 -75.95" fill="#00ff00" fill-opacity="0.0" fill-rule="evenodd" stroke="none"/>
    </g>
  </defs>
</svg>
