<?xml version="1.0" encoding="UTF-8" standalone="no"?>
<svg xmlns:xlink="http://www.w3.org/1999/xlink" height="151.95px" width="202.0px" xmlns="http://www.w3.org/2000/svg">
  <g transform="matrix(1.0, 0.0, 0.0, 1.0, 1.0, 1.1)">
    <use height="27.45" transform="matrix(1.0727, 0.0, 0.0, 1.0727, 10.1701, 81.3537)" width="40.7" xlink:href="#sprite0"/>
    <use height="27.45" transform="matrix(1.0727, 0.0, 0.0, 1.0727, 143.6701, 79.3537)" width="40.7" xlink:href="#sprite0"/>
    <use height="27.45" transform="matrix(1.0727, 0.0, 0.0, 1.0727, 78.1701, 99.3537)" width="40.7" xlink:href="#sprite0"/>
    <use height="27.45" transform="matrix(3.6079, 0.0, 0.0, 3.6079, 24.279, -1.0784)" width="40.7" xlink:href="#sprite0"/>
    <use height="117.9" transform="matrix(1.0, 0.0, 0.0, 1.0, 21.2, 0.2)" width="157.6" xlink:href="#shape1"/>
    <use height="151.95" transform="matrix(1.0, 0.0, 0.0, 1.0, -1.0, 0.0)" width="202.0" xlink:href="#sprite1"/>
  </g>
  <defs>
    <g id="sprite0" transform="matrix(1.0, 0.0, 0.0, 1.0, 20.35, 13.7)">
      <use height="27.45" transform="matrix(1.0, 0.0, 0.0, 1.0, -20.35, -13.7)" width="40.7" xlink:href="#shape0"/>
    </g>
    <g id="shape0" transform="matrix(1.0, 0.0, 0.0, 1.0, 20.35, 13.7)">
      <path d="M20.35 0.0 Q20.35 5.7 14.4 9.7 8.45 13.75 0.0 13.75 -8.45 13.75 -14.4 9.7 -20.35 5.7 -20.35 0.0 -20.35 -5.65 -14.4 -9.7 -8.45 -13.7 0.0 -13.7 8.45 -13.7 14.4 -9.7 20.35 -5.65 20.35 0.0" fill="url(#gradient0)" fill-rule="evenodd" stroke="none"/>
    </g>
    <radialGradient cx="0" cy="0" gradientTransform="matrix(0.025, 0.0, 0.0, 0.0169, 0.0, 0.0)" gradientUnits="userSpaceOnUse" id="gradient0" r="819.2" spreadMethod="pad">
      <stop offset="0.0" stop-color="#000000" stop-opacity="0.5019608"/>
      <stop offset="1.0" stop-color="#000000" stop-opacity="0.0"/>
    </radialGradient>
    <g id="shape1" transform="matrix(1.0, 0.0, 0.0, 1.0, -21.2, -0.2)">
      <path d="M123.55 42.85 L135.8 35.5 139.55 37.75 155.2 47.15 128.9 62.9 119.95 57.55 119.95 45.0 123.55 42.85 M127.35 22.95 L111.3 32.6 109.7 31.65 115.35 28.25 115.35 15.95 115.5 15.85 127.35 22.95 M111.3 39.65 L114.7 41.65 119.95 44.8 105.05 53.7 84.9 41.65 93.6 36.4 95.1 42.25 99.55 44.6 99.4 43.95 99.55 44.55 104.35 41.85 102.1 37.5 102.3 36.05 103.85 35.15 111.3 39.65 M115.35 12.25 L100.55 21.1 80.5 9.1 95.25 0.2 111.45 9.9 115.35 12.25 M98.25 14.35 L101.75 12.1 102.0 9.9 98.25 6.95 94.5 9.85 94.5 12.05 98.25 14.35 M83.3 26.8 L75.6 31.4 52.0 16.95 72.25 4.85 80.5 9.9 80.5 25.1 83.3 26.8 M75.6 41.65 L75.65 41.6 84.1 46.65 84.9 47.15 90.55 50.55 70.35 62.65 55.45 53.7 61.2 50.25 61.25 50.3 71.7 44.2 71.7 43.95 75.6 41.65 M50.8 34.55 L52.0 33.85 61.25 28.45 71.7 34.7 61.25 40.8 50.8 34.55" fill="#43ca1b" fill-rule="evenodd" stroke="none"/>
      <path d="M141.15 20.7 L127.35 29.0 127.35 22.95 115.5 15.85 115.35 15.95 115.35 12.25 111.45 9.9 117.25 6.4 141.15 20.7" fill="#43cb1b" fill-rule="evenodd" stroke="none"/>
      <path d="M139.55 37.75 L135.8 35.5 123.55 42.85 123.55 36.35 114.7 41.65 111.3 39.65 111.3 32.6 127.35 22.95 127.35 29.0 141.15 20.7 141.15 36.8 139.55 37.75 M119.95 45.0 L119.95 57.55 119.95 60.85 112.65 65.25 105.85 69.35 105.05 69.8 105.05 53.7 119.95 44.8 119.95 45.0 M128.9 62.9 L155.2 47.15 155.2 59.2 128.9 74.95 128.9 62.9 M115.35 12.25 L115.35 15.95 115.35 28.25 109.7 31.65 103.85 35.15 102.3 36.05 Q101.45 36.6 100.55 37.1 L100.55 21.1 115.35 12.25 M93.95 33.15 L93.55 36.25 93.6 36.4 84.9 41.65 84.9 46.15 84.1 46.65 75.65 41.6 75.6 41.65 75.6 31.4 83.3 26.8 93.95 33.15 M90.55 50.55 L90.55 61.1 90.55 62.3 Q90.2 62.55 89.8 62.75 L89.7 62.85 83.9 66.3 70.35 74.4 70.35 62.65 90.55 50.55 M71.7 34.7 L71.7 43.95 71.7 44.2 61.25 50.3 61.25 40.8 71.7 34.7" fill="#3ab416" fill-rule="evenodd" stroke="none"/>
      <path d="M111.3 32.6 L111.3 39.65 103.85 35.15 109.7 31.65 111.3 32.6 M114.7 41.65 L123.55 36.35 123.55 42.85 119.95 45.0 119.95 44.8 114.7 41.65 M119.95 57.55 L128.9 62.9 128.9 74.95 122.45 71.1 112.65 65.25 119.95 60.85 119.95 57.55 M100.55 21.1 L100.55 37.1 98.05 35.6 93.95 33.15 83.3 26.8 80.5 25.1 80.5 9.9 80.5 9.1 100.55 21.1 M75.6 31.4 L75.6 41.65 71.7 43.95 71.7 34.7 61.25 28.45 52.0 33.85 52.0 16.95 75.6 31.4 M84.9 46.15 L84.9 41.65 105.05 53.7 105.05 69.8 102.85 68.45 100.4 67.0 90.55 61.1 90.55 50.55 84.9 47.15 84.9 46.15 M70.35 74.4 L55.45 65.5 55.45 53.7 70.35 62.65 70.35 74.4 M61.2 50.25 L50.8 44.05 50.8 34.55 61.25 40.8 61.25 50.3 61.2 50.25" fill="#1c6600" fill-rule="evenodd" stroke="none"/>
      <path d="M100.55 37.1 Q101.45 36.6 102.3 36.05 L102.1 37.5 104.35 41.85 99.55 44.55 99.4 43.95 97.75 37.75 98.05 35.6 100.55 37.1 M102.0 9.9 L101.75 12.1 98.25 14.35 98.25 12.1 102.0 9.9 M105.85 69.35 L112.65 65.25 122.45 71.1 128.95 80.45 126.5 79.8 124.05 83.9 112.45 72.8 105.85 69.35 M77.8 83.35 L96.25 81.95 95.35 85.2 73.6 97.2 65.9 97.75 62.9 101.75 59.25 104.05 64.2 92.5 71.3 93.8 77.8 83.35 M136.6 87.6 L137.65 84.1 140.7 83.6 148.65 98.2 145.65 100.3 136.6 87.6" fill="#a67641" fill-rule="evenodd" stroke="none"/>
      <path d="M94.5 9.85 L98.25 6.95 96.7 9.55 98.25 12.1 94.5 9.85 M84.1 46.65 L84.9 46.15 84.9 47.15 84.1 46.65 M119.15 92.85 L124.05 83.9 136.6 87.6 133.5 95.05 119.15 92.85" fill="#5b3a1b" fill-rule="evenodd" stroke="none"/>
      <path d="M98.25 14.35 L94.5 12.05 94.5 9.85 98.25 12.1 98.25 14.35 M93.6 36.4 L93.55 36.25 93.95 33.15 98.05 35.6 97.75 37.75 99.4 43.95 99.55 44.6 95.1 42.25 93.6 36.4 M90.55 61.1 L100.4 67.0 96.25 81.95 90.85 67.4 82.8 70.35 82.7 70.5 83.9 66.3 89.7 62.85 89.8 63.05 89.8 62.75 Q90.2 62.55 90.55 62.3 L90.55 61.1 M102.85 68.45 L105.05 69.8 105.85 69.35 112.45 72.8 124.05 83.9 119.15 92.85 101.2 82.55 102.85 68.45 M72.8 79.85 L75.55 79.5 77.8 83.35 71.3 93.8 69.4 88.55 67.15 89.0 72.8 79.85 M59.35 90.55 L62.0 90.3 64.2 92.5 59.25 104.05 56.7 102.2 59.35 90.55" fill="#3d2415" fill-rule="evenodd" stroke="none"/>
      <path d="M98.25 6.95 L102.0 9.9 98.25 12.1 96.7 9.55 98.25 6.95" fill="#cd9b64" fill-rule="evenodd" stroke="none"/>
      <path d="M100.4 67.0 L102.85 68.45 101.2 82.55 95.35 85.2 96.25 81.95 77.8 83.35 75.55 79.5 72.8 79.85 82.7 70.5 82.8 70.35 90.85 67.4 96.25 81.95 100.4 67.0 M124.05 83.9 L126.5 79.8 128.95 80.45 140.7 83.6 137.65 84.1 136.6 87.6 145.65 100.3 133.5 95.05 136.6 87.6 124.05 83.9 M67.15 89.0 L69.4 88.55 71.3 93.8 64.2 92.5 62.0 90.3 59.35 90.55 67.15 89.0" fill="#855f27" fill-rule="evenodd" stroke="none"/>
      <path d="M21.2 78.7 L31.65 85.0 31.65 94.55 25.1 90.6 21.2 88.25 21.2 78.7" fill="#1c6600" fill-rule="evenodd" stroke="none"/>
      <path d="M31.65 85.0 L21.2 78.7 31.65 72.6 42.15 78.9 31.65 85.0" fill="#43ca1b" fill-rule="evenodd" stroke="none"/>
      <path d="M25.1 90.6 L31.65 94.55 31.65 102.5 23.15 96.95 25.1 90.6" fill="#5b3a1b" fill-rule="evenodd" stroke="none"/>
      <path d="M31.65 102.5 L31.65 94.55 37.9 90.9 39.15 97.6 31.65 102.5" fill="#a67641" fill-rule="evenodd" stroke="none"/>
      <path d="M31.65 94.55 L31.65 85.0 42.15 78.9 42.15 88.4 37.9 90.9 31.65 94.55" fill="#3ab416" fill-rule="evenodd" stroke="none"/>
      <path d="M178.8 78.9 L168.35 85.0 157.9 78.75 168.35 72.6 178.8 78.9" fill="#43ca1b" fill-rule="evenodd" stroke="none"/>
      <path d="M168.35 85.0 L178.8 78.9 178.8 88.4 172.55 92.05 168.35 94.5 168.35 85.0" fill="#3ab416" fill-rule="evenodd" stroke="none"/>
      <path d="M168.35 101.95 L162.2 97.95 164.05 91.95 168.35 94.5 168.35 101.95" fill="#5b3a1b" fill-rule="evenodd" stroke="none"/>
      <path d="M157.9 78.75 L168.35 85.0 168.35 94.5 164.05 91.95 157.9 88.25 157.9 78.75" fill="#1c6600" fill-rule="evenodd" stroke="none"/>
      <path d="M168.35 94.5 L172.55 92.05 173.7 98.4 168.35 101.95 168.35 94.5" fill="#a67641" fill-rule="evenodd" stroke="none"/>
      <path d="M90.2 96.6 L100.65 90.5 111.1 96.75 100.65 102.85 90.2 96.6" fill="#43ca1b" fill-rule="evenodd" stroke="none"/>
      <path d="M111.1 96.75 L111.1 106.25 105.15 109.75 100.65 112.35 100.65 102.85 111.1 96.75" fill="#3ab416" fill-rule="evenodd" stroke="none"/>
      <path d="M105.15 109.75 L106.05 114.6 100.65 118.1 100.65 112.35 105.15 109.75" fill="#a67641" fill-rule="evenodd" stroke="none"/>
      <path d="M95.95 109.55 L90.2 106.1 90.2 96.6 100.65 102.85 100.65 112.35 95.95 109.55" fill="#1c6600" fill-rule="evenodd" stroke="none"/>
      <path d="M100.65 118.1 L94.55 114.1 95.95 109.55 100.65 112.35 100.65 118.1" fill="#5b3a1b" fill-rule="evenodd" stroke="none"/>
    </g>
    <g id="sprite1" transform="matrix(1.0, 0.0, 0.0, 1.0, 101.0, 75.95)">
      <use height="151.95" transform="matrix(1.0, 0.0, 0.0, 1.0, -101.0, -75.95)" width="202.0" xlink:href="#shape2"/>
    </g>
    <g id="shape2" transform="matrix(1.0, 0.0, 0.0, 1.0, 101.0, 75.95)">
      <path d="M-101.0 -75.95 L101.0 -75.95 101.0 76.0 -101.0 76.0 -101.0 -75.95" fill="#00ff00" fill-opacity="0.0" fill-rule="evenodd" stroke="none"/>
    </g>
  </defs>
</svg>
