<?xml version="1.0" encoding="UTF-8" standalone="no"?>
<svg xmlns:xlink="http://www.w3.org/1999/xlink" height="151.95px" width="202.0px" xmlns="http://www.w3.org/2000/svg">
  <g transform="matrix(1.0, 0.0, 0.0, 1.0, 1.0, 9.85)">
    <use height="97.25" transform="matrix(0.4796, 0.0, 0.0, 0.4796, 104.1182, 15.795)" width="83.45" xlink:href="#sprite0"/>
    <use height="97.25" transform="matrix(0.7588, 0.0, 0.0, 0.7588, 65.353, -9.8418)" width="83.45" xlink:href="#sprite0"/>
    <use height="97.25" transform="matrix(0.5612, 0.0, 0.0, 0.5612, 34.8994, 20.1218)" width="83.45" xlink:href="#sprite0"/>
    <use height="97.25" transform="matrix(0.4367, 0.0, 0.0, 0.4367, 25.8441, 48.1872)" width="83.45" xlink:href="#sprite0"/>
    <use height="97.25" transform="matrix(0.398, 0.0, 0.0, 0.398, 66.2884, 33.1704)" width="83.45" xlink:href="#sprite0"/>
    <use height="97.25" transform="matrix(0.6709, 0.0, 0.0, 0.6709, 79.1982, 24.1516)" width="83.45" xlink:href="#sprite0"/>
    <use height="97.25" transform="matrix(0.4917, 0.0, 0.0, 0.4917, 151.3382, 41.543)" width="83.45" xlink:href="#sprite0"/>
    <use height="97.25" transform="matrix(0.7588, 0.0, 0.0, 0.7588, 140.103, 38.4082)" width="83.45" xlink:href="#sprite0"/>
    <use height="97.25" transform="matrix(0.7588, 0.0, 0.0, 0.7588, 107.353, 19.6582)" width="83.45" xlink:href="#sprite0"/>
    <use height="97.25" transform="matrix(0.5612, 0.0, 0.0, 0.5612, 125.6494, 62.6218)" width="83.45" xlink:href="#sprite0"/>
    <use height="97.25" transform="matrix(0.6349, 0.0, 0.0, 0.6349, 50.2743, 43.3837)" width="83.45" xlink:href="#sprite0"/>
    <use height="97.25" transform="matrix(0.5612, 0.0, 0.0, 0.5612, 32.1494, 60.6218)" width="83.45" xlink:href="#sprite0"/>
    <use height="97.25" transform="matrix(0.9846, 0.0, 0.0, 0.9846, 69.4756, 23.5996)" width="83.45" xlink:href="#sprite0"/>
    <use height="97.25" transform="matrix(0.7588, 0.0, 0.0, 0.7588, 56.353, 69.9082)" width="83.45" xlink:href="#sprite0"/>
    <use height="97.25" transform="matrix(0.4748, 0.0, 0.0, 0.4748, 103.3778, 87.8517)" width="83.45" xlink:href="#sprite0"/>
    <use height="97.25" transform="matrix(0.5612, 0.0, 0.0, 0.5612, 7.6494, 52.3718)" width="83.45" xlink:href="#sprite0"/>
    <use height="151.95" transform="matrix(1.0, 0.0, 0.0, 1.0, -1.0, 0.0)" width="202.0" xlink:href="#sprite2"/>
  </g>
  <defs>
    <g id="sprite0" transform="matrix(1.0, 0.0, 0.0, 1.0, 43.75, 74.45)">
      <use height="27.45" transform="matrix(1.2442, 0.0, 0.0, 1.2442, -32.4701, -19.846)" width="40.7" xlink:href="#sprite1"/>
      <use height="67.65" transform="matrix(1.0, 0.0, 0.0, 1.0, -20.45, -61.45)" width="41.95" xlink:href="#shape1"/>
    </g>
    <g id="sprite1" transform="matrix(1.0, 0.0, 0.0, 1.0, 20.35, 13.7)">
      <use height="27.45" transform="matrix(1.0, 0.0, 0.0, 1.0, -20.35, -13.7)" width="40.7" xlink:href="#shape0"/>
    </g>
    <g id="shape0" transform="matrix(1.0, 0.0, 0.0, 1.0, 20.35, 13.7)">
      <path d="M20.35 0.0 Q20.35 5.7 14.4 9.7 8.45 13.75 0.0 13.75 -8.45 13.75 -14.4 9.7 -20.35 5.7 -20.35 0.0 -20.35 -5.65 -14.4 -9.7 -8.45 -13.7 0.0 -13.7 8.45 -13.7 14.4 -9.7 20.35 -5.65 20.35 0.0" fill="url(#gradient0)" fill-rule="evenodd" stroke="none"/>
    </g>
    <radialGradient cx="0" cy="0" gradientTransform="matrix(0.025, 0.0, 0.0, 0.0169, 0.0, 0.0)" gradientUnits="userSpaceOnUse" id="gradient0" r="819.2" spreadMethod="pad">
      <stop offset="0.0" stop-color="#000000" stop-opacity="0.5019608"/>
      <stop offset="1.0" stop-color="#000000" stop-opacity="0.0"/>
    </radialGradient>
    <g id="shape1" transform="matrix(1.0, 0.0, 0.0, 1.0, 20.45, 61.45)">
      <path d="M0.35 -8.35 L2.9 -12.4 10.3 -20.8 3.15 -8.1 5.4 2.45 0.35 6.2 0.35 -8.35" fill="#663300" fill-rule="evenodd" stroke="none"/>
      <path d="M0.35 6.2 L-4.7 2.45 -2.2 -8.55 -13.2 -19.8 -4.7 -14.25 0.35 -8.35 0.35 6.2" fill="#320100" fill-rule="evenodd" stroke="none"/>
      <path d="M11.3 -33.45 L10.0 -25.15 1.1 -20.05 1.1 -27.7 11.3 -33.45" fill="#00cc66" fill-rule="evenodd" stroke="none"/>
      <path d="M1.1 -20.05 L-7.85 -24.45 -9.1 -32.8 0.75 -27.95 1.1 -27.7 1.1 -20.05" fill="#009933" fill-rule="evenodd" stroke="none"/>
      <path d="M0.5 -39.15 L11.3 -33.45 1.1 -27.7 0.75 -27.95 0.5 -39.15" fill="#33ff99" fill-rule="evenodd" stroke="none"/>
      <path d="M-9.1 -32.8 L0.5 -39.15 0.75 -27.95 -9.1 -32.8" fill="#00cc33" fill-rule="evenodd" stroke="none"/>
      <path d="M2.85 -26.4 L11.6 -32.2 11.8 -22.0 2.85 -26.4" fill="#00cc33" fill-rule="evenodd" stroke="none"/>
      <path d="M21.5 -26.95 L20.35 -19.45 12.2 -14.75 12.2 -21.75 21.5 -26.95" fill="#00cc66" fill-rule="evenodd" stroke="none"/>
      <path d="M12.2 -14.75 L3.95 -18.8 2.85 -26.4 11.8 -22.0 12.2 -21.75 12.2 -14.75" fill="#009933" fill-rule="evenodd" stroke="none"/>
      <path d="M11.6 -32.2 L21.5 -26.95 12.2 -21.75 11.8 -22.0 11.6 -32.2" fill="#33ff99" fill-rule="evenodd" stroke="none"/>
      <path d="M-12.35 -32.7 L-3.25 -27.9 -11.85 -23.05 -12.15 -23.25 -12.35 -32.7" fill="#33ff99" fill-rule="evenodd" stroke="none"/>
      <path d="M-11.85 -16.6 L-19.4 -20.35 -20.45 -27.35 -12.15 -23.25 -11.85 -23.05 -11.85 -16.6" fill="#009933" fill-rule="evenodd" stroke="none"/>
      <path d="M-3.25 -27.9 L-4.3 -20.95 -11.85 -16.6 -11.85 -23.05 -3.25 -27.9" fill="#00cc66" fill-rule="evenodd" stroke="none"/>
      <path d="M-20.45 -27.35 L-12.35 -32.7 -12.15 -23.25 -20.45 -27.35" fill="#00cc33" fill-rule="evenodd" stroke="none"/>
      <path d="M9.2 -24.55 L8.0 -17.0 -0.15 -12.35 -0.15 -19.3 9.2 -24.55" fill="#00cc66" fill-rule="evenodd" stroke="none"/>
      <path d="M-9.45 -23.95 L-0.7 -29.75 -0.5 -19.55 -9.45 -23.95" fill="#00cc33" fill-rule="evenodd" stroke="none"/>
      <path d="M-0.15 -12.35 L-8.35 -16.4 -9.45 -23.95 -0.5 -19.55 -0.15 -19.3 -0.15 -12.35" fill="#009933" fill-rule="evenodd" stroke="none"/>
      <path d="M-0.7 -29.75 L9.2 -24.55 -0.15 -19.3 -0.5 -19.55 -0.7 -29.75" fill="#33ff99" fill-rule="evenodd" stroke="none"/>
      <path d="M12.15 -42.75 L10.55 -32.2 -0.9 -25.65 -0.9 -35.45 12.15 -42.75" fill="#00cc66" fill-rule="evenodd" stroke="none"/>
      <path d="M-0.9 -25.65 L-12.35 -31.3 -13.95 -41.95 -1.4 -35.75 -0.9 -35.45 -0.9 -25.65" fill="#009933" fill-rule="evenodd" stroke="none"/>
      <path d="M-1.7 -50.1 L12.15 -42.75 -0.9 -35.45 -1.4 -35.75 -1.7 -50.1" fill="#33ff99" fill-rule="evenodd" stroke="none"/>
      <path d="M-13.95 -41.95 L-1.7 -50.1 -1.4 -35.75 -13.95 -41.95" fill="#00cc33" fill-rule="evenodd" stroke="none"/>
      <path d="M7.8 -52.55 L6.7 -45.35 -1.1 -40.9 -1.1 -47.55 7.8 -52.55" fill="#00cc66" fill-rule="evenodd" stroke="none"/>
      <path d="M-10.0 -52.0 L-1.65 -57.55 -1.45 -47.75 -10.0 -52.0" fill="#00cc33" fill-rule="evenodd" stroke="none"/>
      <path d="M-1.1 -40.9 L-8.9 -44.75 -10.0 -52.0 -1.45 -47.75 -1.1 -47.55 -1.1 -40.9" fill="#009933" fill-rule="evenodd" stroke="none"/>
      <path d="M-1.65 -57.55 L7.8 -52.55 -1.1 -47.55 -1.45 -47.75 -1.65 -57.55" fill="#33ff99" fill-rule="evenodd" stroke="none"/>
      <path d="M4.2 -58.65 L3.6 -54.6 -0.75 -52.1 -0.75 -55.85 4.2 -58.65" fill="#00cc66" fill-rule="evenodd" stroke="none"/>
      <path d="M-5.75 -58.35 L-1.05 -61.45 -0.95 -55.95 -5.75 -58.35" fill="#00cc33" fill-rule="evenodd" stroke="none"/>
      <path d="M-0.75 -52.1 L-5.15 -54.25 -5.75 -58.35 -0.95 -55.95 -0.75 -55.85 -0.75 -52.1" fill="#009933" fill-rule="evenodd" stroke="none"/>
      <path d="M-1.05 -61.45 L4.2 -58.65 -0.75 -55.85 -0.95 -55.95 -1.05 -61.45" fill="#33ff99" fill-rule="evenodd" stroke="none"/>
    </g>
    <g id="sprite2" transform="matrix(1.0, 0.0, 0.0, 1.0, 101.0, 75.95)">
      <use height="151.95" transform="matrix(1.0, 0.0, 0.0, 1.0, -101.0, -75.95)" width="202.0" xlink:href="#shape2"/>
    </g>
    <g id="shape2" transform="matrix(1.0, 0.0, 0.0, 1.0, 101.0, 75.95)">
      <path d="M-101.0 -75.95 L101.0 -75.95 101.0 76.0 -101.0 76.0 -101.0 -75.95" fill="#00ff00" fill-opacity="0.0" fill-rule="evenodd" stroke="none"/>
    </g>
  </defs>
</svg>
