<?xml version="1.0" encoding="UTF-8" standalone="no"?>
<svg xmlns:xlink="http://www.w3.org/1999/xlink" height="151.95px" width="202.0px" xmlns="http://www.w3.org/2000/svg">
  <g transform="matrix(1.0, 0.0, 0.0, 1.0, 1.0, 0.0)">
    <use height="151.95" transform="matrix(1.0, 0.0, 0.0, 1.0, -1.0, 0.0)" width="202.0" xlink:href="#sprite0"/>
    <use height="43.4" transform="matrix(1.0, 0.0, 0.0, 1.0, 88.95, 12.3)" width="40.7" xlink:href="#sprite1"/>
    <use height="43.4" transform="matrix(1.0, 0.0, 0.0, 1.0, 57.95, 32.8)" width="40.7" xlink:href="#sprite1"/>
    <use height="43.4" transform="matrix(0.8427, 0.0, 0.0, 0.8427, 159.6429, 59.7878)" width="40.7" xlink:href="#sprite1"/>
    <use height="43.4" transform="matrix(0.884, 0.0, 0.0, 0.884, 125.3044, 33.93)" width="40.7" xlink:href="#sprite1"/>
    <use height="43.4" transform="matrix(1.0, 0.0, 0.0, 1.0, 19.95, 57.8)" width="40.7" xlink:href="#sprite1"/>
    <use height="43.4" transform="matrix(1.0, 0.0, 0.0, 1.0, 52.45, 73.3)" width="40.7" xlink:href="#sprite1"/>
    <use height="43.4" transform="matrix(1.0, 0.0, 0.0, 1.0, 108.95, 69.8)" width="40.7" xlink:href="#sprite1"/>
    <use height="43.4" transform="matrix(0.884, 0.0, 0.0, 0.884, 83.3044, 103.93)" width="40.7" xlink:href="#sprite1"/>
  </g>
  <defs>
    <g id="sprite0" transform="matrix(1.0, 0.0, 0.0, 1.0, 101.0, 75.95)">
      <use height="151.95" transform="matrix(1.0, 0.0, 0.0, 1.0, -101.0, -75.95)" width="202.0" xlink:href="#shape0"/>
    </g>
    <g id="shape0" transform="matrix(1.0, 0.0, 0.0, 1.0, 101.0, 75.95)">
      <path d="M-101.0 -75.95 L101.0 -75.95 101.0 76.0 -101.0 76.0 -101.0 -75.95" fill="#00ff00" fill-opacity="0.0" fill-rule="evenodd" stroke="none"/>
    </g>
    <g id="sprite1" transform="matrix(1.0, 0.0, 0.0, 1.0, 20.3, 24.4)">
      <use height="27.45" transform="matrix(1.0, 0.0, 0.0, 1.0, -20.3, -8.45)" width="40.7" xlink:href="#sprite2"/>
      <use height="37.8" transform="matrix(1.0, 0.0, 0.0, 1.0, -18.0, -24.4)" width="35.2" xlink:href="#shape2"/>
    </g>
    <g id="sprite2" transform="matrix(1.0, 0.0, 0.0, 1.0, 20.35, 13.7)">
      <use height="27.45" transform="matrix(1.0, 0.0, 0.0, 1.0, -20.35, -13.7)" width="40.7" xlink:href="#shape1"/>
    </g>
    <g id="shape1" transform="matrix(1.0, 0.0, 0.0, 1.0, 20.35, 13.7)">
      <path d="M20.35 0.0 Q20.35 5.7 14.4 9.7 8.45 13.75 0.0 13.75 -8.45 13.75 -14.4 9.7 -20.35 5.7 -20.35 0.0 -20.35 -5.65 -14.4 -9.7 -8.45 -13.7 0.0 -13.7 8.45 -13.7 14.4 -9.7 20.35 -5.65 20.35 0.0" fill="url(#gradient0)" fill-rule="evenodd" stroke="none"/>
    </g>
    <radialGradient cx="0" cy="0" gradientTransform="matrix(0.025, 0.0, 0.0, 0.0169, 0.0, 0.0)" gradientUnits="userSpaceOnUse" id="gradient0" r="819.2" spreadMethod="pad">
      <stop offset="0.0" stop-color="#000000" stop-opacity="0.5019608"/>
      <stop offset="1.0" stop-color="#000000" stop-opacity="0.0"/>
    </radialGradient>
    <g id="shape2" transform="matrix(1.0, 0.0, 0.0, 1.0, 18.0, 24.4)">
      <path d="M3.85 -12.55 L1.6 -10.85 1.6 -10.8 -0.2 -9.55 -2.05 -10.9 -4.25 -12.55 0.25 -15.25 3.85 -12.55" fill="#ffcc00" fill-rule="evenodd" stroke="none"/>
      <path d="M1.6 -10.8 L1.6 -10.85 3.85 -12.55 5.1 1.9 9.9 6.6 3.3 8.35 1.6 -10.8" fill="#464646" fill-rule="evenodd" stroke="none"/>
      <path d="M-0.2 -9.55 L1.6 -10.8 3.3 8.35 0.05 13.4 -0.2 -9.55" fill="#515151" fill-rule="evenodd" stroke="none"/>
      <path d="M-4.25 -12.55 L-2.05 -10.9 -3.25 7.9 -10.6 6.65 -5.2 1.05 -4.25 -12.55" fill="#212121" fill-rule="evenodd" stroke="none"/>
      <path d="M-2.05 -10.9 L-0.2 -9.55 0.05 13.4 -3.25 7.9 -2.05 -10.9" fill="#000000" fill-rule="evenodd" stroke="none"/>
      <path d="M7.95 -18.3 L13.55 -17.05 12.05 -11.9 -0.3 -18.9 7.95 -18.3" fill="#ff6600" fill-rule="evenodd" stroke="none"/>
      <path d="M12.05 -11.9 L17.2 -6.6 7.8 -4.65 -0.3 -18.9 12.05 -11.9" fill="#fccc01" fill-rule="evenodd" stroke="none"/>
      <path d="M7.8 -4.65 L0.1 1.1 -0.3 -18.9 7.8 -4.65 M-0.3 -24.4 L7.95 -18.3 -0.3 -18.9 -0.3 -24.4" fill="#fbfb02" fill-rule="evenodd" stroke="none"/>
      <path d="M-9.5 -18.9 L-9.8 -18.9 -0.3 -24.4 -0.3 -18.9 -9.5 -18.9" fill="#cc0000" fill-rule="evenodd" stroke="none"/>
      <path d="M0.1 1.1 L-8.6 -5.35 -0.3 -18.9 -13.35 -11.75 -16.8 -17.15 -9.5 -18.9 -0.3 -18.9 0.1 1.1" fill="#f63201" fill-rule="evenodd" stroke="none"/>
      <path d="M-8.6 -5.35 L-18.0 -8.4 -13.35 -11.75 -0.3 -18.9 -8.6 -5.35" fill="#f76501" fill-rule="evenodd" stroke="none"/>
    </g>
  </defs>
</svg>
