<?xml version="1.0" encoding="UTF-8" standalone="no"?>
<svg xmlns:xlink="http://www.w3.org/1999/xlink" height="151.95px" width="202.0px" xmlns="http://www.w3.org/2000/svg">
  <g transform="matrix(1.0, 0.0, 0.0, 1.0, 1.0, 0.0)">
    <use height="151.95" transform="matrix(1.0, 0.0, 0.0, 1.0, -1.0, 0.0)" width="202.0" xlink:href="#sprite0"/>
    <use height="48.45" transform="matrix(0.8427, 0.0, 0.0, 0.8427, 102.8086, 44.6996)" width="48.0" xlink:href="#sprite1"/>
    <use height="48.45" transform="matrix(0.884, 0.0, 0.0, 0.884, 60.2822, 30.1967)" width="48.0" xlink:href="#sprite1"/>
    <use height="48.45" transform="matrix(1.0, 0.0, 0.0, 1.0, 130.4, 63.5)" width="48.0" xlink:href="#sprite1"/>
    <use height="48.45" transform="matrix(0.884, 0.0, 0.0, 0.884, 84.2822, 76.1967)" width="48.0" xlink:href="#sprite1"/>
    <use height="48.45" transform="matrix(1.0, 0.0, 0.0, 1.0, 30.4, 63.5)" width="48.0" xlink:href="#sprite1"/>
  </g>
  <defs>
    <g id="sprite0" transform="matrix(1.0, 0.0, 0.0, 1.0, 101.0, 75.95)">
      <use height="151.95" transform="matrix(1.0, 0.0, 0.0, 1.0, -101.0, -75.95)" width="202.0" xlink:href="#shape0"/>
    </g>
    <g id="shape0" transform="matrix(1.0, 0.0, 0.0, 1.0, 101.0, 75.95)">
      <path d="M-101.0 -75.95 L101.0 -75.95 101.0 76.0 -101.0 76.0 -101.0 -75.95" fill="#00ff00" fill-opacity="0.0" fill-rule="evenodd" stroke="none"/>
    </g>
    <g id="sprite1" transform="matrix(1.0, 0.0, 0.0, 1.0, 24.85, 26.7)">
      <use height="27.45" transform="matrix(1.0, 0.0, 0.0, 1.0, -21.35, -5.7)" width="40.7" xlink:href="#sprite2"/>
      <use height="36.95" transform="matrix(1.0, 0.0, 0.0, 1.0, -24.85, -26.7)" width="48.0" xlink:href="#shape2"/>
    </g>
    <g id="sprite2" transform="matrix(1.0, 0.0, 0.0, 1.0, 20.35, 13.7)">
      <use height="27.45" transform="matrix(1.0, 0.0, 0.0, 1.0, -20.35, -13.7)" width="40.7" xlink:href="#shape1"/>
    </g>
    <g id="shape1" transform="matrix(1.0, 0.0, 0.0, 1.0, 20.35, 13.7)">
      <path d="M20.35 0.0 Q20.35 5.7 14.4 9.7 8.45 13.75 0.0 13.75 -8.45 13.75 -14.4 9.7 -20.35 5.7 -20.35 0.0 -20.35 -5.65 -14.4 -9.7 -8.45 -13.7 0.0 -13.7 8.45 -13.7 14.4 -9.7 20.35 -5.65 20.35 0.0" fill="url(#gradient0)" fill-rule="evenodd" stroke="none"/>
    </g>
    <radialGradient cx="0" cy="0" gradientTransform="matrix(0.025, 0.0, 0.0, 0.0169, 0.0, 0.0)" gradientUnits="userSpaceOnUse" id="gradient0" r="819.2" spreadMethod="pad">
      <stop offset="0.0" stop-color="#000000" stop-opacity="0.5019608"/>
      <stop offset="1.0" stop-color="#000000" stop-opacity="0.0"/>
    </radialGradient>
    <g id="shape2" transform="matrix(1.0, 0.0, 0.0, 1.0, 24.85, 26.7)">
      <path d="M0.15 -3.7 L1.15 -2.7 2.15 5.3 4.1 7.25 0.05 10.25 0.15 -3.7" fill="#663300" fill-rule="evenodd" stroke="none"/>
      <path d="M0.05 10.25 L-4.0 7.25 -1.85 4.3 -1.85 -3.7 0.15 -3.7 0.05 10.25" fill="#330000" fill-rule="evenodd" stroke="none"/>
      <path d="M-0.85 -1.7 L-17.15 -23.0 0.15 -3.7 -0.85 -1.7" fill="#663300" fill-rule="evenodd" stroke="none"/>
      <path d="M-17.15 -23.0 L-0.85 -1.7 -0.85 1.3 -17.15 -23.0" fill="#320100" fill-rule="evenodd" stroke="none"/>
      <path d="M0.15 1.3 L0.15 -2.7 17.0 -22.85 0.15 1.3" fill="#320100" fill-rule="evenodd" stroke="none"/>
      <path d="M0.15 1.3 L17.0 -22.85 1.15 2.3 0.15 1.3" fill="#663300" fill-rule="evenodd" stroke="none"/>
      <path d="M12.15 -17.7 L4.15 -6.7 -1.85 -11.7 -7.85 -9.7 -24.85 -22.7 -4.85 -13.7 8.15 -23.7 19.15 -23.7 12.15 -17.7" fill="#006600" fill-rule="evenodd" stroke="none"/>
      <path d="M11.15 -11.7 L12.15 -17.7 19.15 -23.7 23.15 -21.7 14.15 -16.7 11.15 -11.7" fill="#00b419" fill-rule="evenodd" stroke="none"/>
      <path d="M4.15 -6.7 L12.15 -17.7 11.15 -11.7 4.15 -6.7" fill="#2e9400" fill-rule="evenodd" stroke="none"/>
      <path d="M8.15 -23.7 L-4.85 -13.7 -0.85 -26.7 8.15 -23.7" fill="#00cb1c" fill-rule="evenodd" stroke="none"/>
      <path d="M-4.85 -13.7 L-24.85 -22.7 -8.85 -21.7 -0.85 -26.7 -4.85 -13.7" fill="#009900" fill-rule="evenodd" stroke="none"/>
    </g>
  </defs>
</svg>
