<?xml version="1.0" encoding="UTF-8" standalone="no"?>
<svg xmlns:xlink="http://www.w3.org/1999/xlink" height="151.95px" width="202.0px" xmlns="http://www.w3.org/2000/svg">
  <g transform="matrix(1.0, 0.0, 0.0, 1.0, 1.0, 0.0)">
    <use height="151.95" transform="matrix(1.0, 0.0, 0.0, 1.0, -1.0, 0.0)" width="202.0" xlink:href="#sprite0"/>
    <use height="122.25" transform="matrix(1.0, 0.0, 0.0, 1.0, 36.8, 5.75)" width="138.35" xlink:href="#shape1"/>
  </g>
  <defs>
    <g id="sprite0" transform="matrix(1.0, 0.0, 0.0, 1.0, 101.0, 75.95)">
      <use height="151.95" transform="matrix(1.0, 0.0, 0.0, 1.0, -101.0, -75.95)" width="202.0" xlink:href="#shape0"/>
    </g>
    <g id="shape0" transform="matrix(1.0, 0.0, 0.0, 1.0, 101.0, 75.95)">
      <path d="M-101.0 -75.95 L101.0 -75.95 101.0 76.0 -101.0 76.0 -101.0 -75.95" fill="#00ff00" fill-opacity="0.0" fill-rule="evenodd" stroke="none"/>
    </g>
    <g id="shape1" transform="matrix(1.0, 0.0, 0.0, 1.0, -36.8, -5.75)">
      <path d="M124.3 45.8 L133.95 51.8 127.5 55.75 117.85 49.9 124.3 45.8" fill="#009e80" fill-rule="evenodd" stroke="none"/>
      <path d="M125.9 44.25 L132.8 51.35 126.35 55.25 116.7 49.45 125.9 44.25" fill="#3e2839" fill-rule="evenodd" stroke="none"/>
      <path d="M117.85 52.8 L117.85 49.9 127.5 55.75 127.5 58.6 117.85 52.8" fill="#3e2839" fill-rule="evenodd" stroke="none"/>
      <path d="M133.95 54.65 L127.5 58.6 127.5 55.75 133.95 51.8 133.95 54.65" fill="#acce6e" fill-rule="evenodd" stroke="none"/>
      <path d="M124.2 43.35 L127.85 40.35 143.45 55.9 147.45 65.3 143.95 75.35 145.65 83.5 141.5 86.25 137.45 83.35 139.25 74.5 143.4 65.85 139.25 57.7 124.2 43.35" fill="#faa151" fill-rule="evenodd" stroke="none"/>
      <path d="M140.7 53.15 L154.65 40.55 158.85 43.2 140.4 56.2 140.7 53.15" fill="#8b3c19" fill-rule="evenodd" stroke="none"/>
      <path d="M130.65 49.55 L131.95 44.4 135.6 48.15 134.85 50.6 140.4 56.2 145.75 50.9 144.2 50.05 156.05 38.9 158.4 41.7 157.55 42.4 158.85 43.2 143.5 56.25 145.55 65.95 141.1 74.9 141.5 86.25 137.45 83.35 138.6 72.85 142.4 65.85 139.25 57.7 130.65 49.55" fill="#3e2839" fill-rule="evenodd" stroke="none"/>
      <path d="M157.5 41.6 L168.7 48.55 161.2 53.15 150.0 46.4 157.5 41.6" fill="#009e80" fill-rule="evenodd" stroke="none"/>
      <path d="M156.5 41.0 L167.3 47.7 159.8 52.25 149.0 45.75 156.5 41.0" fill="#3e2839" fill-rule="evenodd" stroke="none"/>
      <path d="M150.0 49.15 L150.0 46.4 161.2 53.15 161.2 55.95 150.0 49.15" fill="#3e2839" fill-rule="evenodd" stroke="none"/>
      <path d="M168.7 51.35 L161.2 55.95 161.2 53.15 168.7 48.55 168.7 51.35" fill="#acce6e" fill-rule="evenodd" stroke="none"/>
      <path d="M162.6 30.65 L175.15 38.25 156.25 49.8 143.7 42.4 162.6 30.65" fill="#009e80" fill-rule="evenodd" stroke="none"/>
      <path d="M143.75 45.75 L143.7 42.4 156.25 49.8 156.25 53.2 143.75 45.75" fill="#3e2839" fill-rule="evenodd" stroke="none"/>
      <path d="M106.6 49.4 L106.6 45.6 119.15 53.05 119.15 56.8 106.6 49.4" fill="#3e2839" fill-rule="evenodd" stroke="none"/>
      <path d="M175.15 41.7 L156.25 53.2 156.25 49.8 175.15 38.25 175.15 41.7" fill="#acce6e" fill-rule="evenodd" stroke="none"/>
      <path d="M156.5 34.25 L167.8 41.25 159.1 46.65 147.8 39.85 156.5 34.25" fill="#3e2839" fill-rule="evenodd" stroke="none"/>
      <path d="M157.0 30.25 L167.8 36.8 159.45 41.95 148.65 35.6 157.0 30.25" fill="#009e80" fill-rule="evenodd" stroke="none"/>
      <path d="M148.65 37.95 L148.65 35.6 159.45 41.9 159.45 44.25 148.65 37.95" fill="#3e2839" fill-rule="evenodd" stroke="none"/>
      <path d="M167.8 39.15 L159.45 44.25 159.45 41.9 167.8 36.8 167.8 39.15" fill="#acce6e" fill-rule="evenodd" stroke="none"/>
      <path d="M126.0 33.6 L138.55 41.35 119.15 53.05 106.6 45.5 126.0 33.6" fill="#009e80" fill-rule="evenodd" stroke="none"/>
      <path d="M121.35 36.25 L132.65 43.25 123.95 48.6 112.65 41.8 121.35 36.25" fill="#3e2839" fill-rule="evenodd" stroke="none"/>
      <path d="M138.55 45.05 L119.15 56.8 119.15 53.05 138.55 41.35 138.55 45.05" fill="#acce6e" fill-rule="evenodd" stroke="none"/>
      <path d="M121.65 32.35 L132.05 38.65 123.7 43.75 113.25 37.7 121.65 32.35" fill="#009e80" fill-rule="evenodd" stroke="none"/>
      <path d="M113.25 40.3 L113.25 37.7 123.7 43.75 123.7 46.4 113.25 40.3" fill="#3e2839" fill-rule="evenodd" stroke="none"/>
      <path d="M132.05 41.25 L123.7 46.4 123.7 43.75 132.05 38.65 132.05 41.25" fill="#acce6e" fill-rule="evenodd" stroke="none"/>
      <path d="M49.15 77.6 L51.65 61.95 53.05 61.95 53.15 75.8 57.0 84.9 53.65 94.55 55.3 102.4 51.3 105.0 47.7 99.5 49.15 93.75 53.1 85.4 49.15 77.6" fill="#faa151" fill-rule="evenodd" stroke="none"/>
      <path d="M49.15 77.6 L51.2 59.45 54.15 62.1 51.5 75.8 55.2 85.5 50.9 94.05 51.3 105.0 47.7 99.5 48.5 92.2 52.15 85.4 49.15 77.6" fill="#3e2839" fill-rule="evenodd" stroke="none"/>
      <path d="M51.75 45.25 L64.3 52.9 49.3 61.95 36.8 54.55 51.75 45.25" fill="#009e80" fill-rule="evenodd" stroke="none"/>
      <path d="M36.8 57.9 L36.8 54.55 49.3 61.95 49.35 65.35 36.8 57.9" fill="#3e2839" fill-rule="evenodd" stroke="none"/>
      <path d="M64.3 56.25 L49.3 65.35 49.3 61.95 64.3 52.9 64.3 56.25" fill="#acce6e" fill-rule="evenodd" stroke="none"/>
      <path d="M48.35 47.2 L59.65 54.15 50.95 59.55 39.65 52.75 48.35 47.2" fill="#3e2839" fill-rule="evenodd" stroke="none"/>
      <path d="M48.85 43.2 L59.65 49.75 51.3 54.85 40.5 48.55 48.85 43.2" fill="#009e80" fill-rule="evenodd" stroke="none"/>
      <path d="M40.5 50.85 L40.5 48.55 51.3 54.85 51.3 57.2 40.5 50.85" fill="#3e2839" fill-rule="evenodd" stroke="none"/>
      <path d="M59.65 52.05 L51.3 57.2 51.3 54.85 59.65 49.75 59.65 52.05" fill="#acce6e" fill-rule="evenodd" stroke="none"/>
      <path d="M90.1 7.25 L91.9 8.3 92.75 8.6 94.7 10.85 95.2 17.05 93.15 28.9 95.3 37.05 91.75 39.2 89.75 33.2 90.65 26.95 92.1 19.7 89.7 10.8 90.1 7.25" fill="#ffa43e" fill-rule="evenodd" stroke="none"/>
      <path d="M89.7 10.8 L92.85 7.25 92.3 11.05 93.2 18.95 91.35 28.4 91.75 39.3 88.75 33.3 89.7 27.2 91.1 19.75 89.7 10.8" fill="#3e2839" fill-rule="evenodd" stroke="none"/>
      <path d="M92.4 22.8 L90.3 23.9 90.85 20.4 92.75 21.2 92.4 22.8" fill="#3e2839" fill-rule="evenodd" stroke="none"/>
      <path d="M89.6 27.75 L91.35 28.5 91.75 39.2 88.75 33.3 89.6 27.75" fill="#3e2839" fill-rule="evenodd" stroke="none"/>
      <path d="M92.2 5.75 L100.95 10.95 91.0 17.05 82.25 12.05 92.2 5.75" fill="#009e80" fill-rule="evenodd" stroke="none"/>
      <path d="M82.25 17.1 L82.25 12.0 91.0 17.0 91.0 22.1 82.25 17.1" fill="#3e2839" fill-rule="evenodd" stroke="none"/>
      <path d="M101.0 16.0 L91.0 22.1 91.0 17.0 101.0 10.9 101.0 16.0" fill="#acce6e" fill-rule="evenodd" stroke="none"/>
      <path d="M91.25 95.95 L93.05 97.0 93.9 97.3 95.8 99.55 96.35 105.7 94.25 117.6 95.5 122.2 92.85 127.9 90.9 121.9 91.8 115.65 93.2 108.4 90.8 99.5 91.25 95.95" fill="#ffcb64" fill-rule="evenodd" stroke="none"/>
      <path d="M90.8 99.5 L93.95 95.95 93.4 99.75 94.3 107.65 92.45 117.1 92.85 128.0 89.9 122.0 90.8 115.9 92.2 108.45 90.8 99.5" fill="#3e2839" fill-rule="evenodd" stroke="none"/>
      <path d="M93.55 111.5 L91.4 112.6 92.0 109.1 93.85 109.9 93.55 111.5" fill="#3e2839" fill-rule="evenodd" stroke="none"/>
      <path d="M90.7 116.45 L92.45 117.2 92.85 127.9 89.9 122.0 90.7 116.45" fill="#3e2839" fill-rule="evenodd" stroke="none"/>
      <path d="M93.35 94.45 L102.1 99.65 92.1 105.75 83.35 100.75 93.35 94.45" fill="#009e80" fill-rule="evenodd" stroke="none"/>
      <path d="M83.35 105.8 L83.35 100.7 92.1 105.7 92.1 110.8 83.35 105.8" fill="#3e2839" fill-rule="evenodd" stroke="none"/>
      <path d="M102.1 104.7 L92.1 110.8 92.1 105.7 102.1 99.65 102.1 104.7" fill="#acce6e" fill-rule="evenodd" stroke="none"/>
      <path d="M94.25 117.6 L95.5 122.2 92.85 127.9 92.45 117.1 94.25 117.6" fill="#ffa43e" fill-rule="evenodd" stroke="none"/>
    </g>
  </defs>
</svg>
