<?xml version="1.0" encoding="UTF-8" standalone="no"?>
<svg xmlns:xlink="http://www.w3.org/1999/xlink" height="151.95px" width="202.0px" xmlns="http://www.w3.org/2000/svg">
  <g transform="matrix(1.0, 0.0, 0.0, 1.0, 1.0, 0.0)">
    <use height="47.7" transform="matrix(0.9124, 0.0, 0.0, 0.9124, 108.6281, 17.7465)" width="30.0" xlink:href="#sprite0"/>
    <use height="47.7" transform="matrix(0.9557, 0.0, 0.0, 0.9557, 127.6723, 41.8655)" width="30.0" xlink:href="#sprite0"/>
    <use height="47.7" transform="matrix(0.8368, 0.0, 0.0, 0.8368, 157.6108, 58.7828)" width="30.0" xlink:href="#sprite0"/>
    <use height="47.7" transform="matrix(0.9241, 0.0, 0.0, 0.9241, 133.1866, 75.4946)" width="30.0" xlink:href="#sprite0"/>
    <use height="47.7" transform="matrix(0.8386, 0.0, 0.0, 0.8386, 18.5814, 53.2212)" width="30.0" xlink:href="#sprite0"/>
    <use height="47.7" transform="matrix(0.9124, 0.0, 0.0, 0.9124, 90.3781, 35.2465)" width="30.0" xlink:href="#sprite0"/>
    <use height="47.7" transform="matrix(0.8938, 0.0, 0.0, 0.8938, 66.4313, 22.3826)" width="30.0" xlink:href="#sprite0"/>
    <use height="47.7" transform="matrix(0.961, 0.0, 0.0, 0.961, 56.0857, 50.7339)" width="30.0" xlink:href="#sprite0"/>
    <use height="47.7" transform="matrix(0.961, 0.0, 0.0, 0.961, 71.6357, 80.2339)" width="30.0" xlink:href="#sprite0"/>
    <use height="47.7" transform="matrix(0.7503, 0.0, 0.0, 0.7503, 107.02, 66.0896)" width="30.0" xlink:href="#sprite0"/>
    <use height="47.7" transform="matrix(0.9235, 0.0, 0.0, 0.9235, 100.1968, 91.516)" width="30.0" xlink:href="#sprite0"/>
    <use height="47.7" transform="matrix(0.7944, 0.0, 0.0, 0.7944, 42.8012, 72.6314)" width="30.0" xlink:href="#sprite0"/>
    <use height="151.95" transform="matrix(1.0, 0.0, 0.0, 1.0, -1.0, 0.0)" width="202.0" xlink:href="#sprite2"/>
  </g>
  <defs>
    <g id="sprite0" transform="matrix(1.0, 0.0, 0.0, 1.0, 16.3, 34.2)">
      <use height="11.0" transform="matrix(1.0, 0.0, 0.0, 1.0, -3.55, -5.0)" width="5.1" xlink:href="#shape0"/>
      <use height="27.45" transform="matrix(0.7372, 0.0, 0.0, 0.7372, -16.3026, -6.75)" width="40.7" xlink:href="#sprite1"/>
      <use height="36.0" transform="matrix(1.0, 0.0, 0.0, 1.0, -14.75, -34.2)" width="27.7" xlink:href="#shape2"/>
    </g>
    <g id="shape0" transform="matrix(1.0, 0.0, 0.0, 1.0, 3.55, 5.0)">
      <path d="M1.55 -3.3 L1.55 4.1 -1.0 6.0 -1.0 -1.35 1.55 -3.3" fill="#663300" fill-rule="evenodd" stroke="none"/>
      <path d="M-3.55 -3.3 L-0.7 -5.0 1.55 -3.3 -1.0 -1.35 -3.55 -3.3" fill="#ffcc00" fill-rule="evenodd" stroke="none"/>
      <path d="M-1.0 6.0 L-3.55 4.1 -3.55 -3.3 -1.0 -1.35 -1.0 6.0" fill="#330000" fill-rule="evenodd" stroke="none"/>
    </g>
    <g id="sprite1" transform="matrix(1.0, 0.0, 0.0, 1.0, 20.35, 13.7)">
      <use height="27.45" transform="matrix(1.0, 0.0, 0.0, 1.0, -20.35, -13.7)" width="40.7" xlink:href="#shape1"/>
    </g>
    <g id="shape1" transform="matrix(1.0, 0.0, 0.0, 1.0, 20.35, 13.7)">
      <path d="M20.35 0.0 Q20.35 5.7 14.4 9.7 8.45 13.75 0.0 13.75 -8.45 13.75 -14.4 9.7 -20.35 5.7 -20.35 0.0 -20.35 -5.65 -14.4 -9.7 -8.45 -13.7 0.0 -13.7 8.45 -13.7 14.4 -9.7 20.35 -5.65 20.35 0.0" fill="url(#gradient0)" fill-rule="evenodd" stroke="none"/>
    </g>
    <radialGradient cx="0" cy="0" gradientTransform="matrix(0.025, 0.0, 0.0, 0.0169, 0.0, 0.0)" gradientUnits="userSpaceOnUse" id="gradient0" r="819.2" spreadMethod="pad">
      <stop offset="0.0" stop-color="#000000" stop-opacity="0.35686275"/>
      <stop offset="1.0" stop-color="#000000" stop-opacity="0.0"/>
    </radialGradient>
    <g id="shape2" transform="matrix(1.0, 0.0, 0.0, 1.0, 14.75, 34.2)">
      <path d="M-0.85 1.8 L-14.75 -6.1 -0.85 -34.2 -0.85 1.8" fill="#003300" fill-rule="evenodd" stroke="none"/>
      <path d="M-0.85 -34.2 L12.95 -6.5 -0.85 1.8 -0.85 -34.2" fill="#006600" fill-rule="evenodd" stroke="none"/>
    </g>
    <g id="sprite2" transform="matrix(1.0, 0.0, 0.0, 1.0, 101.0, 75.95)">
      <use height="151.95" transform="matrix(1.0, 0.0, 0.0, 1.0, -101.0, -75.95)" width="202.0" xlink:href="#shape3"/>
    </g>
    <g id="shape3" transform="matrix(1.0, 0.0, 0.0, 1.0, 101.0, 75.95)">
      <path d="M-101.0 -75.95 L101.0 -75.95 101.0 76.0 -101.0 76.0 -101.0 -75.95" fill="#00ff00" fill-opacity="0.0" fill-rule="evenodd" stroke="none"/>
    </g>
  </defs>
</svg>
