<?xml version="1.0" encoding="UTF-8" standalone="no"?>
<svg xmlns:xlink="http://www.w3.org/1999/xlink" height="48.15px" width="55.05px" xmlns="http://www.w3.org/2000/svg">
  <g transform="matrix(1.0, 0.0, 0.0, 1.0, 2.1, -3.25)">
    <use height="22.25" transform="matrix(1.0, 0.0, 0.0, 1.0, 1.95, 13.45)" width="20.7" xlink:href="#sprite0"/>
    <use height="22.25" transform="matrix(1.0, 0.0, 0.0, 1.0, 21.95, 20.45)" width="20.7" xlink:href="#sprite0"/>
  </g>
  <defs>
    <g id="sprite0" transform="matrix(1.0, 0.0, 0.0, 1.0, 10.5, 7.75)">
      <use height="27.45" transform="matrix(0.5091, 0.0, 0.0, 0.5091, -10.5101, 0.5254)" width="40.7" xlink:href="#sprite1"/>
      <use height="7.95" transform="matrix(0.8476, 0.0, 0.0, 0.8476, -6.3403, 2.8021)" width="8.0" xlink:href="#sprite2"/>
      <use height="7.95" transform="matrix(1.0, 0.0, 0.0, 1.0, -3.5, -5.45)" width="8.0" xlink:href="#sprite2"/>
      <use height="7.55" transform="matrix(1.0, 0.0, 0.0, 1.0, -4.6, -7.75)" width="10.1" xlink:href="#shape2"/>
      <use height="7.95" transform="matrix(0.8476, 0.0, 0.0, 0.8476, 0.7597, 2.4521)" width="8.0" xlink:href="#sprite2"/>
      <use height="7.95" transform="matrix(0.8476, 0.0, 0.0, 0.8476, -2.8903, 4.6521)" width="8.0" xlink:href="#sprite2"/>
      <use height="7.95" transform="matrix(1.0, 0.0, 0.0, 1.0, -7.6, -2.8)" width="8.0" xlink:href="#sprite2"/>
      <use height="7.95" transform="matrix(1.0, 0.0, 0.0, 1.0, 0.75, -2.95)" width="8.0" xlink:href="#sprite2"/>
      <use height="7.95" transform="matrix(1.0, 0.0, 0.0, 1.0, -3.5, -0.45)" width="8.0" xlink:href="#sprite2"/>
    </g>
    <g id="sprite1" transform="matrix(1.0, 0.0, 0.0, 1.0, 20.35, 13.7)">
      <use height="27.45" transform="matrix(1.0, 0.0, 0.0, 1.0, -20.35, -13.7)" width="40.7" xlink:href="#shape0"/>
    </g>
    <g id="shape0" transform="matrix(1.0, 0.0, 0.0, 1.0, 20.35, 13.7)">
      <path d="M20.35 0.0 Q20.35 5.7 14.4 9.7 8.45 13.75 0.0 13.75 -8.45 13.75 -14.4 9.7 -20.35 5.7 -20.35 0.0 -20.35 -5.65 -14.4 -9.7 -8.45 -13.7 0.0 -13.7 8.45 -13.7 14.4 -9.7 20.35 -5.65 20.35 0.0" fill="url(#gradient0)" fill-rule="evenodd" stroke="none"/>
    </g>
    <radialGradient cx="0" cy="0" gradientTransform="matrix(0.025, 0.0, 0.0, 0.0169, 0.0, 0.0)" gradientUnits="userSpaceOnUse" id="gradient0" r="819.2" spreadMethod="pad">
      <stop offset="0.0" stop-color="#000000" stop-opacity="0.5019608"/>
      <stop offset="1.0" stop-color="#000000" stop-opacity="0.0"/>
    </radialGradient>
    <g id="sprite2" transform="matrix(1.0, 0.0, 0.0, 1.0, 4.0, 3.95)">
      <use height="7.95" transform="matrix(1.0, 0.0, 0.0, 1.0, -4.0, -3.95)" width="8.0" xlink:href="#shape1"/>
    </g>
    <g id="shape1" transform="matrix(1.0, 0.0, 0.0, 1.0, 4.0, 3.95)">
      <path d="M-0.1 -3.95 L1.95 -2.6 -0.1 1.05 -0.1 -3.95" fill="#ffffff" fill-rule="evenodd" stroke="none"/>
      <path d="M-0.05 4.0 L-4.0 1.65 -0.1 1.05 -0.05 4.0" fill="#a00000" fill-rule="evenodd" stroke="none"/>
      <path d="M-2.05 -2.55 L-0.1 -3.95 -0.1 1.05 -2.05 -2.55" fill="#cc0500" fill-rule="evenodd" stroke="none"/>
      <path d="M4.0 -1.25 L4.0 1.65 -0.1 1.05 4.0 -1.25" fill="#ff5e5e" fill-rule="evenodd" stroke="none"/>
      <path d="M1.95 -2.6 L4.0 -1.25 -0.1 1.05 1.95 -2.6" fill="#ff8484" fill-rule="evenodd" stroke="none"/>
      <path d="M4.0 1.65 L-0.05 4.0 -0.1 1.05 4.0 1.65" fill="#ff2d2d" fill-rule="evenodd" stroke="none"/>
      <path d="M-4.0 1.65 L-4.0 -1.2 -0.1 1.05 -4.0 1.65" fill="#7c0000" fill-rule="evenodd" stroke="none"/>
      <path d="M-4.0 -1.2 L-2.05 -2.55 -0.1 1.05 -4.0 -1.2" fill="#ff0600" fill-rule="evenodd" stroke="none"/>
    </g>
    <g id="shape2" transform="matrix(1.0, 0.0, 0.0, 1.0, 4.6, 7.75)">
      <path d="M0.25 -5.35 L0.25 -0.5 -4.6 -7.75 0.25 -5.35" fill="#00cc00" fill-rule="evenodd" stroke="none"/>
      <path d="M0.25 -5.35 L0.45 -5.25 5.5 -7.75 0.45 -0.2 0.25 -0.5 0.25 -5.35" fill="#006600" fill-rule="evenodd" stroke="none"/>
    </g>
  </defs>
</svg>
