<?xml version="1.0" encoding="UTF-8" standalone="no"?>
<svg xmlns:xlink="http://www.w3.org/1999/xlink" height="48.15px" width="55.05px" xmlns="http://www.w3.org/2000/svg">
  <g transform="matrix(1.0, 0.0, 0.0, 1.0, 2.1, -3.25)">
    <use height="27.45" transform="matrix(0.6905, 0.0, 0.0, 0.6905, 7.2979, 26.0399)" width="40.7" xlink:href="#sprite0"/>
    <use height="20.95" transform="matrix(1.0, 0.0, 0.0, 1.0, 18.95, 22.05)" width="14.8" xlink:href="#sprite1"/>
    <use height="20.95" transform="matrix(0.9659, 0.2588, -0.2588, 0.9659, 13.4065, 16.241)" width="14.8" xlink:href="#sprite1"/>
  </g>
  <defs>
    <g id="sprite0" transform="matrix(1.0, 0.0, 0.0, 1.0, 20.35, 13.7)">
      <use height="27.45" transform="matrix(1.0, 0.0, 0.0, 1.0, -20.35, -13.7)" width="40.7" xlink:href="#shape0"/>
    </g>
    <g id="shape0" transform="matrix(1.0, 0.0, 0.0, 1.0, 20.35, 13.7)">
      <path d="M20.35 0.0 Q20.35 5.7 14.4 9.7 8.45 13.75 0.0 13.75 -8.45 13.75 -14.4 9.7 -20.35 5.7 -20.35 0.0 -20.35 -5.65 -14.4 -9.7 -8.45 -13.7 0.0 -13.7 8.45 -13.7 14.4 -9.7 20.35 -5.65 20.35 0.0" fill="url(#gradient0)" fill-rule="evenodd" stroke="none"/>
    </g>
    <radialGradient cx="0" cy="0" gradientTransform="matrix(0.025, 0.0, 0.0, 0.0169, 0.0, 0.0)" gradientUnits="userSpaceOnUse" id="gradient0" r="819.2" spreadMethod="pad">
      <stop offset="0.0" stop-color="#000000" stop-opacity="0.5019608"/>
      <stop offset="1.0" stop-color="#000000" stop-opacity="0.0"/>
    </radialGradient>
    <g id="sprite1" transform="matrix(1.0, 0.0, 0.0, 1.0, 7.4, 10.45)">
      <use height="20.95" transform="matrix(1.0, 0.0, 0.0, 1.0, -7.4, -10.45)" width="14.8" xlink:href="#shape1"/>
    </g>
    <g id="shape1" transform="matrix(1.0, 0.0, 0.0, 1.0, 7.4, 10.45)">
      <path d="M3.1 -9.1 L5.5 -10.45 7.05 -9.4 4.65 -8.1 3.1 -9.1" fill="#990000" fill-rule="evenodd" stroke="none"/>
      <path d="M3.1 -9.1 L4.65 -8.1 5.1 -5.15 3.6 -5.8 3.1 -9.1" fill="#663300" fill-rule="evenodd" stroke="none"/>
      <path d="M6.4 -5.35 L7.4 1.2 3.05 9.0 -7.1 10.5 1.55 5.25 5.1 -5.15 6.4 -5.35" fill="#ffff00" fill-rule="evenodd" stroke="none"/>
      <path d="M4.65 -8.1 L7.05 -9.4 6.4 -5.35 5.1 -5.15 4.65 -8.1" fill="#000000" fill-rule="evenodd" stroke="none"/>
      <path d="M-1.6 3.7 L3.6 -5.8 5.1 -5.15 1.55 5.25 -1.6 3.7" fill="#cccc33" fill-rule="evenodd" stroke="none"/>
      <path d="M-7.1 10.5 L-7.4 8.55 -1.6 3.7 1.55 5.25 -7.1 10.5" fill="#ffcc33" fill-rule="evenodd" stroke="none"/>
    </g>
  </defs>
</svg>
