<?xml version="1.0" encoding="UTF-8" standalone="no"?>
<svg xmlns:xlink="http://www.w3.org/1999/xlink" height="48.15px" width="55.05px" xmlns="http://www.w3.org/2000/svg">
  <g transform="matrix(1.0, 0.0, 0.0, 1.0, 2.1, -3.25)">
    <use height="29.85" transform="matrix(1.0, 0.0, 0.0, 1.0, 6.6, 14.25)" width="38.4" xlink:href="#shape0"/>
  </g>
  <defs>
    <g id="shape0" transform="matrix(1.0, 0.0, 0.0, 1.0, -6.6, -14.25)">
      <path d="M21.65 44.1 L19.7 43.2 20.5 33.0 21.9 33.85 21.65 44.1" fill="#b65391" fill-rule="evenodd" stroke="none"/>
      <path d="M21.65 44.1 L21.9 33.9 23.4 33.05 23.65 43.35 21.65 44.1" fill="#ef9ac0" fill-rule="evenodd" stroke="none"/>
      <path d="M21.7 41.2 L19.15 39.95 19.2 38.25 21.75 39.5 21.7 41.2" fill="#742073" fill-rule="evenodd" stroke="none"/>
      <path d="M21.75 38.4 L21.8 39.6 19.15 38.25 20.35 37.75 21.75 38.4" fill="#ae448f" fill-rule="evenodd" stroke="none"/>
      <path d="M21.7 41.3 L21.75 39.6 24.55 38.3 24.45 40.0 21.7 41.3" fill="#e75596" fill-rule="evenodd" stroke="none"/>
      <path d="M21.75 38.5 L23.25 37.75 24.5 38.3 21.85 39.55 21.75 38.5" fill="#ffffff" fill-rule="evenodd" stroke="none"/>
      <path d="M19.75 32.35 L22.05 31.05 24.15 32.35 21.85 33.6 19.75 32.35" fill="#b9b9b9" fill-rule="evenodd" stroke="none"/>
      <path d="M21.95 36.2 L15.85 33.15 21.8 18.75 21.9 18.75 21.95 36.2" fill="#881c72" fill-rule="evenodd" stroke="none"/>
      <path d="M21.95 36.25 L21.9 18.8 22.0 18.8 27.45 33.15 21.95 36.25" fill="#b5619f" fill-rule="evenodd" stroke="none"/>
      <path d="M20.25 31.9 L20.0 32.6 19.3 32.85 18.65 32.6 Q18.35 32.3 18.35 31.9 18.35 31.55 18.65 31.25 18.95 30.95 19.3 30.95 19.7 30.95 20.0 31.25 L20.25 31.9" fill="#f5c1d9" fill-rule="evenodd" stroke="none"/>
      <path d="M25.05 30.4 L24.8 30.95 Q24.6 31.15 24.25 31.15 23.95 31.15 23.75 30.95 L23.5 30.4 23.75 29.85 24.25 29.65 Q24.6 29.65 24.8 29.85 L25.05 30.4" fill="#ffffff" fill-rule="evenodd" stroke="none"/>
      <path d="M10.6 23.55 L6.6 21.55 10.5 16.85 10.55 16.85 10.6 23.55" fill="#881c72" fill-rule="evenodd" stroke="none"/>
      <path d="M10.6 23.6 L10.6 16.85 10.65 16.85 14.25 21.55 10.6 23.6" fill="#b677ad" fill-rule="evenodd" stroke="none"/>
      <path d="M37.75 27.6 L36.25 26.9 36.85 18.85 37.95 19.5 37.75 27.6" fill="#b65391" fill-rule="evenodd" stroke="none"/>
      <path d="M37.75 27.6 L37.95 19.5 39.15 18.85 39.35 27.0 37.75 27.6" fill="#ef9ac0" fill-rule="evenodd" stroke="none"/>
      <path d="M37.8 25.3 L35.75 24.35 35.8 23.0 37.85 23.95 37.8 25.3" fill="#742073" fill-rule="evenodd" stroke="none"/>
      <path d="M37.85 23.1 L37.85 24.05 35.8 23.0 36.7 22.55 37.85 23.1" fill="#ae448f" fill-rule="evenodd" stroke="none"/>
      <path d="M37.8 25.4 L37.85 24.05 40.05 23.0 40.0 24.4 37.8 25.4" fill="#e75596" fill-rule="evenodd" stroke="none"/>
      <path d="M37.85 23.2 L39.05 22.6 40.0 23.0 37.9 24.05 37.85 23.2" fill="#ffffff" fill-rule="evenodd" stroke="none"/>
      <path d="M36.25 18.3 L38.05 17.3 39.75 18.3 37.9 19.3 36.25 18.3" fill="#b9b9b9" fill-rule="evenodd" stroke="none"/>
      <path d="M34.85 20.1 L30.6 17.9 37.75 14.25 34.85 20.1" fill="#881c72" fill-rule="evenodd" stroke="none"/>
      <path d="M40.75 19.8 L37.75 14.25 45.0 17.9 40.75 19.8" fill="#b45c9c" fill-rule="evenodd" stroke="none"/>
      <path d="M37.75 14.25 L40.75 19.85 34.85 20.1 37.75 14.25" fill="#9e3778" fill-rule="evenodd" stroke="none"/>
      <path d="M42.3 17.9 L42.15 18.3 41.7 18.5 Q41.45 18.5 41.3 18.3 L41.1 17.9 41.3 17.45 Q41.45 17.3 41.7 17.3 L42.15 17.45 42.3 17.9" fill="#ffffff" fill-rule="evenodd" stroke="none"/>
      <path d="M37.95 17.25 L37.85 17.55 37.55 17.65 37.3 17.55 37.2 17.25 37.3 17.0 37.55 16.85 37.85 17.0 37.95 17.25" fill="#ffffff" fill-rule="evenodd" stroke="none"/>
      <path d="M34.7 17.9 L34.55 18.3 Q34.35 18.5 34.1 18.5 33.85 18.5 33.7 18.3 L33.5 17.9 33.7 17.45 Q33.85 17.3 34.1 17.3 L34.55 17.45 34.7 17.9" fill="#ffffff" fill-rule="evenodd" stroke="none"/>
    </g>
  </defs>
</svg>
