<?xml version="1.0" encoding="UTF-8" standalone="no"?>
<svg xmlns:xlink="http://www.w3.org/1999/xlink" height="48.15px" width="55.05px" xmlns="http://www.w3.org/2000/svg">
  <g transform="matrix(1.0, 0.0, 0.0, 1.0, 2.1, -3.25)">
    <use height="15.75" transform="matrix(1.0, 0.0, 0.0, 1.0, 34.7, 22.4)" width="17.2" xlink:href="#sprite0"/>
    <use height="15.75" transform="matrix(1.0, 0.0, 0.0, 1.0, 17.45, 31.4)" width="17.2" xlink:href="#sprite0"/>
    <use height="15.75" transform="matrix(1.0, 0.0, 0.0, 1.0, 0.2, 20.65)" width="17.2" xlink:href="#sprite0"/>
  </g>
  <defs>
    <g id="sprite0" transform="matrix(1.0, 0.0, 0.0, 1.0, 9.25, 6.2)">
      <use height="27.45" transform="matrix(0.4226, 0.0, 0.0, 0.4226, -9.2494, -2.0393)" width="40.7" xlink:href="#sprite1"/>
      <use height="31.5" transform="matrix(0.3603, 0.0, 0.0, 0.3374, -4.6474, -4.4141)" width="25.8" xlink:href="#sprite2"/>
      <use height="5.0" transform="matrix(1.0, 0.0, 0.0, 1.0, -3.25, -6.2)" width="6.7" xlink:href="#shape2"/>
    </g>
    <g id="sprite1" transform="matrix(1.0, 0.0, 0.0, 1.0, 20.35, 13.7)">
      <use height="27.45" transform="matrix(1.0, 0.0, 0.0, 1.0, -20.35, -13.7)" width="40.7" xlink:href="#shape0"/>
    </g>
    <g id="shape0" transform="matrix(1.0, 0.0, 0.0, 1.0, 20.35, 13.7)">
      <path d="M20.35 0.0 Q20.35 5.7 14.4 9.7 8.45 13.75 0.0 13.75 -8.45 13.75 -14.4 9.7 -20.35 5.7 -20.35 0.0 -20.35 -5.65 -14.4 -9.7 -8.45 -13.7 0.0 -13.7 8.45 -13.7 14.4 -9.7 20.35 -5.65 20.35 0.0" fill="url(#gradient0)" fill-rule="evenodd" stroke="none"/>
    </g>
    <radialGradient cx="0" cy="0" gradientTransform="matrix(0.025, 0.0, 0.0, 0.0169, 0.0, 0.0)" gradientUnits="userSpaceOnUse" id="gradient0" r="819.2" spreadMethod="pad">
      <stop offset="0.0" stop-color="#000000" stop-opacity="0.5019608"/>
      <stop offset="1.0" stop-color="#000000" stop-opacity="0.0"/>
    </radialGradient>
    <g id="sprite2" transform="matrix(1.0, 0.0, 0.0, 1.0, 12.9, 15.75)">
      <use height="31.5" transform="matrix(1.0, 0.0, 0.0, 1.0, -12.9, -15.75)" width="25.8" xlink:href="#shape1"/>
    </g>
    <g id="shape1" transform="matrix(1.0, 0.0, 0.0, 1.0, 12.9, 15.75)">
      <path d="M-0.1 15.75 L-12.9 7.6 -12.9 -6.3 -0.1 1.75 -0.1 15.75" fill="#00398f" fill-rule="evenodd" stroke="none"/>
      <path d="M-11.75 -8.3 L-0.1 -15.75 11.5 -8.35 -0.15 -1.0 -11.75 -8.3" fill="#427bd1" fill-rule="evenodd" stroke="none"/>
      <path d="M12.9 -6.55 L12.9 7.6 -0.1 15.75 -0.1 1.75 12.9 -6.55" fill="#5992e8" fill-rule="evenodd" stroke="none"/>
      <path d="M-12.9 -6.3 L-11.75 -8.3 -0.15 -1.0 -0.1 1.75 -12.9 -6.3" fill="#1e57ad" fill-rule="evenodd" stroke="none"/>
      <path d="M11.5 -8.35 L12.9 -6.55 -0.1 1.75 -0.15 -1.0 11.5 -8.35" fill="#6fa8fe" fill-rule="evenodd" stroke="none"/>
    </g>
    <g id="shape2" transform="matrix(1.0, 0.0, 0.0, 1.0, 3.25, 6.2)">
      <path d="M-0.05 -4.6 L0.1 -4.55 3.45 -6.2 0.1 -1.2 -0.05 -1.4 -0.05 -4.6" fill="#000000" fill-rule="evenodd" stroke="none"/>
      <path d="M-0.05 -1.4 L-3.25 -6.2 -0.05 -4.6 -0.05 -1.4" fill="#339900" fill-rule="evenodd" stroke="none"/>
    </g>
  </defs>
</svg>
