<?xml version="1.0" encoding="UTF-8" standalone="no"?>
<svg xmlns:xlink="http://www.w3.org/1999/xlink" height="48.15px" width="55.05px" xmlns="http://www.w3.org/2000/svg">
  <g transform="matrix(1.0, 0.0, 0.0, 1.0, 2.1, -3.25)">
    <use height="41.95" transform="matrix(1.0, 0.0, 0.0, 1.0, 3.35, 3.25)" width="41.5" xlink:href="#shape0"/>
  </g>
  <defs>
    <g id="shape0" transform="matrix(1.0, 0.0, 0.0, 1.0, -3.35, -3.25)">
      <path d="M6.65 38.15 L11.75 33.9 6.45 25.15 9.55 23.4 38.4 28.4 40.45 29.95 37.9 42.35 34.5 44.35 24.15 39.15 14.75 42.25 6.65 38.15" fill="#347647" fill-rule="evenodd" stroke="none"/>
      <path d="M20.3 40.4 L11.75 33.9 9.05 29.45 14.55 25.85 33.9 25.1 40.45 29.95 34.5 39.7 29.15 41.55 24.15 39.15 20.3 40.4" fill="#234d32" fill-rule="evenodd" stroke="none"/>
      <path d="M6.45 12.55 L13.2 14.85 21.25 30.8 15.75 31.2 11.8 28.05 11.2 23.35 6.45 12.55" fill="#7e1f4d" fill-rule="evenodd" stroke="none"/>
      <path d="M5.9 43.15 L12.9 30.8 25.6 34.2 25.6 37.15 5.9 43.15" fill="#b22e6e" fill-rule="evenodd" stroke="none"/>
      <path d="M22.95 32.8 L34.85 23.35 44.85 23.5 32.6 32.7 22.95 32.8" fill="#b22e6e" fill-rule="evenodd" stroke="none"/>
      <path d="M25.4 32.05 L22.45 32.7 14.55 25.85 12.55 18.9 6.45 12.55 9.3 11.2 17.95 14.55 24.15 20.0 26.6 26.0 25.4 32.05" fill="url(#gradient0)" fill-rule="evenodd" stroke="none"/>
      <path d="M27.55 31.8 L24.15 32.95 26.35 24.25 28.5 22.35 40.95 21.7 44.85 23.5 32.75 26.4 27.55 31.8" fill="url(#gradient1)" fill-rule="evenodd" stroke="none"/>
      <path d="M27.55 35.85 L25.0 34.2 29.15 29.95 37.25 30.25 42.25 43.5 39.75 45.2 27.55 35.85" fill="url(#gradient2)" fill-rule="evenodd" stroke="none"/>
      <path d="M25.2 37.15 L25.0 34.2 31.2 34.55 39.75 45.2 29.15 38.15 25.2 37.15" fill="#7e1f4d" fill-rule="evenodd" stroke="none"/>
      <path d="M25.0 34.2 L18.0 34.6 5.9 43.15 3.35 41.6 10.3 30.4 13.8 29.65 21.0 30.6 25.0 34.2" fill="url(#gradient3)" fill-rule="evenodd" stroke="none"/>
      <path d="M13.8 29.65 L21.0 30.6 25.0 34.2 18.0 34.6 13.8 29.65" fill="url(#gradient4)" fill-rule="evenodd" stroke="none"/>
      <path d="M29.15 29.95 L37.25 30.25 31.2 34.55 25.0 34.2 25.95 32.05 29.15 29.95" fill="url(#gradient5)" fill-rule="evenodd" stroke="none"/>
      <path d="M21.0 30.6 L22.5 28.05 26.6 27.3 29.15 29.95 25.0 34.2 21.0 30.6" fill="#f8e956" fill-rule="evenodd" stroke="none"/>
      <path d="M23.9 18.25 L24.75 28.95" fill="none" stroke="#1c0b0c" stroke-linecap="butt" stroke-linejoin="miter" stroke-width="0.9"/>
      <path d="M23.6 31.6 L20.05 24.45 19.8 18.2" fill="none" stroke="#1c0b0c" stroke-linecap="butt" stroke-linejoin="miter" stroke-width="0.9"/>
      <path d="M22.5 22.0 L22.35 4.5 23.9 3.25 25.6 3.9 25.85 21.55 24.35 22.85 22.5 22.0" fill="url(#gradient6)" fill-rule="evenodd" stroke="none"/>
      <path d="M22.5 22.0 L22.35 4.5 23.9 3.25 25.6 3.9 25.85 21.55 24.35 22.85 22.5 22.0" fill="url(#gradient7)" fill-rule="evenodd" stroke="none"/>
      <path d="M26.35 30.85 L28.9 21.55" fill="none" stroke="#1c0b0c" stroke-linecap="butt" stroke-linejoin="miter" stroke-width="0.9"/>
      <path d="M27.0 24.2 L26.85 10.4 28.4 9.15 30.1 9.8 30.35 23.75 28.8 25.1 27.0 24.2" fill="url(#gradient8)" fill-rule="evenodd" stroke="none"/>
      <path d="M27.0 24.2 L26.85 10.4 28.4 9.15 30.1 9.8 30.35 23.75 28.8 25.1 27.0 24.2" fill="url(#gradient9)" fill-rule="evenodd" stroke="none"/>
      <path d="M18.1 24.15 L18.0 11.35 19.55 10.1 21.25 10.75 21.45 23.7 19.95 25.05 18.1 24.15" fill="url(#gradient10)" fill-rule="evenodd" stroke="none"/>
      <path d="M18.1 24.15 L18.0 11.35 19.55 10.1 21.25 10.75 21.45 23.7 19.95 25.05 18.1 24.15" fill="url(#gradient11)" fill-rule="evenodd" stroke="none"/>
      <path d="M21.9 30.55 L24.35 31.35 25.6 30.95 27.75 29.9 27.05 31.95 24.15 33.35 21.9 30.55" fill="#f8e956" fill-rule="evenodd" stroke="none"/>
      <path d="M22.75 31.7 L23.85 30.25 25.85 29.9 27.25 31.35 22.75 31.7" fill="#f8e956" fill-rule="evenodd" stroke="none"/>
    </g>
    <linearGradient gradientTransform="matrix(0.0141, 0.0013, 0.0037, -0.0155, 16.0, 21.95)" gradientUnits="userSpaceOnUse" id="gradient0" spreadMethod="pad" x1="-819.2" x2="819.2">
      <stop offset="0.0" stop-color="#eeb386"/>
      <stop offset="0.0784313725490196" stop-color="#eaa488"/>
      <stop offset="0.3803921568627451" stop-color="#dd6a83"/>
      <stop offset="0.5176470588235295" stop-color="#d84e7d"/>
      <stop offset="0.7607843137254902" stop-color="#b93d7d"/>
      <stop offset="1.0" stop-color="#952b7d"/>
    </linearGradient>
    <linearGradient gradientTransform="matrix(-0.0048, -0.0029, 0.0036, -0.0041, 34.2, 26.5)" gradientUnits="userSpaceOnUse" id="gradient1" spreadMethod="pad" x1="-819.2" x2="819.2">
      <stop offset="0.0" stop-color="#e79888"/>
      <stop offset="0.03529411764705882" stop-color="#e6958b"/>
      <stop offset="0.36470588235294116" stop-color="#e07d9e"/>
      <stop offset="0.5176470588235295" stop-color="#de73a3"/>
      <stop offset="0.796078431372549" stop-color="#ba488b"/>
      <stop offset="1.0" stop-color="#9e2a7d"/>
    </linearGradient>
    <linearGradient gradientTransform="matrix(-0.0115, -0.0111, -0.0128, 0.0092, 37.0, 39.7)" gradientUnits="userSpaceOnUse" id="gradient2" spreadMethod="pad" x1="-819.2" x2="819.2">
      <stop offset="0.0" stop-color="#f2c185"/>
      <stop offset="0.1450980392156863" stop-color="#ebac97"/>
      <stop offset="0.4" stop-color="#e185a3"/>
      <stop offset="0.5176470588235295" stop-color="#de73a3"/>
      <stop offset="0.8588235294117647" stop-color="#b9407e"/>
      <stop offset="1.0" stop-color="#aa2c71"/>
    </linearGradient>
    <linearGradient gradientTransform="matrix(0.0106, 3.0E-4, 0.0022, -0.0102, 13.75, 36.55)" gradientUnits="userSpaceOnUse" id="gradient3" spreadMethod="pad" x1="-819.2" x2="819.2">
      <stop offset="0.0" stop-color="#e79989"/>
      <stop offset="0.32941176470588235" stop-color="#dd6a83"/>
      <stop offset="0.5176470588235295" stop-color="#d84e7d"/>
      <stop offset="0.7607843137254902" stop-color="#b93d7d"/>
      <stop offset="1.0" stop-color="#952b7d"/>
    </linearGradient>
    <linearGradient gradientTransform="matrix(-0.0085, 0.0012, 0.0012, 0.0085, 20.1, 31.85)" gradientUnits="userSpaceOnUse" id="gradient4" spreadMethod="pad" x1="-819.2" x2="819.2">
      <stop offset="0.0" stop-color="#f2c185"/>
      <stop offset="0.1450980392156863" stop-color="#ebac97"/>
      <stop offset="0.4" stop-color="#e185a3"/>
      <stop offset="0.5176470588235295" stop-color="#de73a3"/>
      <stop offset="0.8588235294117647" stop-color="#b9407e"/>
      <stop offset="1.0" stop-color="#aa2c71"/>
    </linearGradient>
    <linearGradient gradientTransform="matrix(0.0055, 0.001, 0.001, -0.0055, 30.75, 32.15)" gradientUnits="userSpaceOnUse" id="gradient5" spreadMethod="pad" x1="-819.2" x2="819.2">
      <stop offset="0.0" stop-color="#922b7d"/>
      <stop offset="0.5176470588235295" stop-color="#bb548d"/>
      <stop offset="1.0" stop-color="#e07ea0"/>
    </linearGradient>
    <linearGradient gradientTransform="matrix(-0.0015, -0.0231, -0.0226, -0.0026, 24.1, 13.25)" gradientUnits="userSpaceOnUse" id="gradient6" spreadMethod="pad" x1="-819.2" x2="819.2">
      <stop offset="0.0" stop-color="#413283"/>
      <stop offset="0.16470588235294117" stop-color="#395da2"/>
      <stop offset="0.2901960784313726" stop-color="#5296a1"/>
      <stop offset="0.3686274509803922" stop-color="#69b390"/>
      <stop offset="0.3764705882352941" stop-color="#79b890"/>
      <stop offset="0.41568627450980394" stop-color="#adcc91"/>
      <stop offset="0.45098039215686275" stop-color="#d0dc92"/>
      <stop offset="0.48627450980392156" stop-color="#e6e692"/>
      <stop offset="0.5137254901960784" stop-color="#f3ec92"/>
      <stop offset="0.5372549019607843" stop-color="#f8ee92"/>
      <stop offset="0.596078431372549" stop-color="#f6e18f"/>
      <stop offset="0.7137254901960784" stop-color="#f2c185"/>
      <stop offset="0.7568627450980392" stop-color="#ebac97"/>
      <stop offset="0.7568627450980392" stop-color="#ebac97" stop-opacity="0.0"/>
      <stop offset="1.0" stop-color="#000000" stop-opacity="0.0"/>
    </linearGradient>
    <linearGradient gradientTransform="matrix(-0.0015, -0.0231, -0.0226, -0.0026, 24.1, 13.25)" gradientUnits="userSpaceOnUse" id="gradient7" spreadMethod="pad" x1="-819.2" x2="819.2">
      <stop offset="0.0" stop-color="#000000" stop-opacity="0.0"/>
      <stop offset="0.7568627450980392" stop-color="#ebac97" stop-opacity="0.0"/>
      <stop offset="0.7568627450980392" stop-color="#ebac97"/>
      <stop offset="0.8274509803921568" stop-color="#e185a3"/>
      <stop offset="0.8627450980392157" stop-color="#de73a3"/>
      <stop offset="0.9411764705882353" stop-color="#bd5f99"/>
      <stop offset="1.0" stop-color="#a25192"/>
    </linearGradient>
    <linearGradient gradientTransform="matrix(-0.0012, -0.0188, -0.0184, -0.0021, 28.6, 17.25)" gradientUnits="userSpaceOnUse" id="gradient8" spreadMethod="pad" x1="-819.2" x2="819.2">
      <stop offset="0.0" stop-color="#413283"/>
      <stop offset="0.16470588235294117" stop-color="#395da2"/>
      <stop offset="0.2901960784313726" stop-color="#5296a1"/>
      <stop offset="0.3686274509803922" stop-color="#69b390"/>
      <stop offset="0.3764705882352941" stop-color="#79b890"/>
      <stop offset="0.41568627450980394" stop-color="#adcc91"/>
      <stop offset="0.45098039215686275" stop-color="#d0dc92"/>
      <stop offset="0.48627450980392156" stop-color="#e6e692"/>
      <stop offset="0.5137254901960784" stop-color="#f3ec92"/>
      <stop offset="0.5372549019607843" stop-color="#f8ee92"/>
      <stop offset="0.596078431372549" stop-color="#f6e18f"/>
      <stop offset="0.7137254901960784" stop-color="#f2c185"/>
      <stop offset="0.7568627450980392" stop-color="#ebac97"/>
      <stop offset="0.7568627450980392" stop-color="#ebac97" stop-opacity="0.0"/>
      <stop offset="1.0" stop-color="#000000" stop-opacity="0.0"/>
    </linearGradient>
    <linearGradient gradientTransform="matrix(-0.0012, -0.0188, -0.0184, -0.0021, 28.6, 17.25)" gradientUnits="userSpaceOnUse" id="gradient9" spreadMethod="pad" x1="-819.2" x2="819.2">
      <stop offset="0.0" stop-color="#000000" stop-opacity="0.0"/>
      <stop offset="0.7568627450980392" stop-color="#ebac97" stop-opacity="0.0"/>
      <stop offset="0.7568627450980392" stop-color="#ebac97"/>
      <stop offset="0.8274509803921568" stop-color="#e185a3"/>
      <stop offset="0.8627450980392157" stop-color="#de73a3"/>
      <stop offset="0.9411764705882353" stop-color="#bd5f99"/>
      <stop offset="1.0" stop-color="#a25192"/>
    </linearGradient>
    <linearGradient gradientTransform="matrix(-0.0012, -0.0176, -0.0172, -0.002, 19.7, 17.7)" gradientUnits="userSpaceOnUse" id="gradient10" spreadMethod="pad" x1="-819.2" x2="819.2">
      <stop offset="0.0" stop-color="#413283"/>
      <stop offset="0.16470588235294117" stop-color="#395da2"/>
      <stop offset="0.2901960784313726" stop-color="#5296a1"/>
      <stop offset="0.3686274509803922" stop-color="#69b390"/>
      <stop offset="0.3764705882352941" stop-color="#79b890"/>
      <stop offset="0.41568627450980394" stop-color="#adcc91"/>
      <stop offset="0.45098039215686275" stop-color="#d0dc92"/>
      <stop offset="0.48627450980392156" stop-color="#e6e692"/>
      <stop offset="0.5137254901960784" stop-color="#f3ec92"/>
      <stop offset="0.5372549019607843" stop-color="#f8ee92"/>
      <stop offset="0.596078431372549" stop-color="#f6e18f"/>
      <stop offset="0.7137254901960784" stop-color="#f2c185"/>
      <stop offset="0.7568627450980392" stop-color="#ebac97"/>
      <stop offset="0.7568627450980392" stop-color="#ebac97" stop-opacity="0.0"/>
      <stop offset="1.0" stop-color="#000000" stop-opacity="0.0"/>
    </linearGradient>
    <linearGradient gradientTransform="matrix(-0.0012, -0.0176, -0.0172, -0.002, 19.7, 17.7)" gradientUnits="userSpaceOnUse" id="gradient11" spreadMethod="pad" x1="-819.2" x2="819.2">
      <stop offset="0.0" stop-color="#000000" stop-opacity="0.0"/>
      <stop offset="0.7568627450980392" stop-color="#ebac97" stop-opacity="0.0"/>
      <stop offset="0.7568627450980392" stop-color="#ebac97"/>
      <stop offset="0.8274509803921568" stop-color="#e185a3"/>
      <stop offset="0.8627450980392157" stop-color="#de73a3"/>
      <stop offset="0.9411764705882353" stop-color="#bd5f99"/>
      <stop offset="1.0" stop-color="#a25192"/>
    </linearGradient>
  </defs>
</svg>
