<?xml version="1.0" encoding="UTF-8" standalone="no"?>
<svg xmlns:xlink="http://www.w3.org/1999/xlink" height="48.15px" width="55.05px" xmlns="http://www.w3.org/2000/svg">
  <g transform="matrix(1.0, 0.0, 0.0, 1.0, 2.1, -3.25)">
    <use height="22.0" transform="matrix(1.0, 0.0, 0.0, 1.0, -1.0, 18.4)" width="20.7" xlink:href="#sprite0"/>
    <use height="22.0" transform="matrix(1.0, 0.0, 0.0, 1.0, 28.5, 20.4)" width="20.7" xlink:href="#sprite0"/>
  </g>
  <defs>
    <g id="sprite0" transform="matrix(1.0, 0.0, 0.0, 1.0, 10.75, 10.75)">
      <use height="27.45" transform="matrix(0.5091, 0.0, 0.0, 0.5091, -10.7601, -2.7246)" width="40.7" xlink:href="#sprite1"/>
      <use height="31.5" transform="matrix(0.5432, 0.0, 0.0, 0.5087, -7.0074, -8.0125)" width="25.8" xlink:href="#sprite2"/>
      <use height="7.55" transform="matrix(1.0, 0.0, 0.0, 1.0, -5.1, -10.75)" width="10.1" xlink:href="#shape2"/>
    </g>
    <g id="sprite1" transform="matrix(1.0, 0.0, 0.0, 1.0, 20.35, 13.7)">
      <use height="27.45" transform="matrix(1.0, 0.0, 0.0, 1.0, -20.35, -13.7)" width="40.7" xlink:href="#shape0"/>
    </g>
    <g id="shape0" transform="matrix(1.0, 0.0, 0.0, 1.0, 20.35, 13.7)">
      <path d="M20.35 0.0 Q20.35 5.7 14.4 9.7 8.45 13.75 0.0 13.75 -8.45 13.75 -14.4 9.7 -20.35 5.7 -20.35 0.0 -20.35 -5.65 -14.4 -9.7 -8.45 -13.7 0.0 -13.7 8.45 -13.7 14.4 -9.7 20.35 -5.65 20.35 0.0" fill="url(#gradient0)" fill-rule="evenodd" stroke="none"/>
    </g>
    <radialGradient cx="0" cy="0" gradientTransform="matrix(0.025, 0.0, 0.0, 0.0169, 0.0, 0.0)" gradientUnits="userSpaceOnUse" id="gradient0" r="819.2" spreadMethod="pad">
      <stop offset="0.0" stop-color="#000000" stop-opacity="0.5019608"/>
      <stop offset="1.0" stop-color="#000000" stop-opacity="0.0"/>
    </radialGradient>
    <g id="sprite2" transform="matrix(1.0, 0.0, 0.0, 1.0, 12.9, 15.75)">
      <use height="31.5" transform="matrix(1.0, 0.0, 0.0, 1.0, -12.9, -15.75)" width="25.8" xlink:href="#shape1"/>
    </g>
    <g id="shape1" transform="matrix(1.0, 0.0, 0.0, 1.0, 12.9, 15.75)">
      <path d="M-0.1 15.75 L-12.9 7.6 -12.9 -6.3 -0.1 1.75 -0.1 15.75" fill="#8f0000" fill-rule="evenodd" stroke="none"/>
      <path d="M-11.75 -8.3 L-0.1 -15.75 11.5 -8.35 -0.15 -1.0 -11.75 -8.3" fill="#d14242" fill-rule="evenodd" stroke="none"/>
      <path d="M12.9 -6.55 L12.9 7.6 -0.1 15.75 -0.1 1.75 12.9 -6.55" fill="#e85959" fill-rule="evenodd" stroke="none"/>
      <path d="M-12.9 -6.3 L-11.75 -8.3 -0.15 -1.0 -0.1 1.75 -12.9 -6.3" fill="#ad1e1e" fill-rule="evenodd" stroke="none"/>
      <path d="M11.5 -8.35 L12.9 -6.55 -0.1 1.75 -0.15 -1.0 11.5 -8.35" fill="#fe6f6f" fill-rule="evenodd" stroke="none"/>
    </g>
    <g id="shape2" transform="matrix(1.0, 0.0, 0.0, 1.0, 4.6, 7.75)">
      <path d="M0.25 -5.35 L0.25 -0.5 -4.6 -7.75 0.25 -5.35" fill="#00cc00" fill-rule="evenodd" stroke="none"/>
      <path d="M0.25 -5.35 L0.45 -5.25 5.5 -7.75 0.45 -0.2 0.25 -0.5 0.25 -5.35" fill="#006600" fill-rule="evenodd" stroke="none"/>
    </g>
  </defs>
</svg>
