<?xml version="1.0" encoding="UTF-8" standalone="no"?>
<svg xmlns:xlink="http://www.w3.org/1999/xlink" height="48.15px" width="55.05px" xmlns="http://www.w3.org/2000/svg">
  <g transform="matrix(1.0, 0.0, 0.0, 1.0, 2.1, -3.25)">
    <use height="23.8" transform="matrix(1.0, 0.0, 0.0, 1.0, -2.1, 18.95)" width="20.7" xlink:href="#sprite0"/>
    <use height="23.8" transform="matrix(1.0, 0.0, 0.0, 1.0, 25.8, 16.7)" width="20.7" xlink:href="#sprite0"/>
  </g>
  <defs>
    <g id="sprite0" transform="matrix(1.0, 0.0, 0.0, 1.0, 10.75, 10.3)">
      <use height="27.45" transform="matrix(0.5091, 0.0, 0.0, 0.5091, -10.7601, -0.4746)" width="40.7" xlink:href="#sprite1"/>
      <use height="20.95" transform="matrix(1.0, 0.0, 0.0, 1.0, -6.95, -10.3)" width="13.95" xlink:href="#shape1"/>
    </g>
    <g id="sprite1" transform="matrix(1.0, 0.0, 0.0, 1.0, 20.35, 13.7)">
      <use height="27.45" transform="matrix(1.0, 0.0, 0.0, 1.0, -20.35, -13.7)" width="40.7" xlink:href="#shape0"/>
    </g>
    <g id="shape0" transform="matrix(1.0, 0.0, 0.0, 1.0, 20.35, 13.7)">
      <path d="M20.35 0.0 Q20.35 5.7 14.4 9.7 8.45 13.75 0.0 13.75 -8.45 13.75 -14.4 9.7 -20.35 5.7 -20.35 0.0 -20.35 -5.65 -14.4 -9.7 -8.45 -13.7 0.0 -13.7 8.45 -13.7 14.4 -9.7 20.35 -5.65 20.35 0.0" fill="url(#gradient0)" fill-rule="evenodd" stroke="none"/>
    </g>
    <radialGradient cx="0" cy="0" gradientTransform="matrix(0.025, 0.0, 0.0, 0.0169, 0.0, 0.0)" gradientUnits="userSpaceOnUse" id="gradient0" r="819.2" spreadMethod="pad">
      <stop offset="0.0" stop-color="#000000" stop-opacity="0.5019608"/>
      <stop offset="1.0" stop-color="#000000" stop-opacity="0.0"/>
    </radialGradient>
    <g id="shape1" transform="matrix(1.0, 0.0, 0.0, 1.0, 6.95, 10.3)">
      <path d="M7.0 -6.2 L0.0 -2.1 -6.95 -6.45 0.0 -10.3 7.0 -6.2" fill="#bfff00" fill-rule="evenodd" stroke="none"/>
      <path d="M0.0 -2.1 L7.0 -6.2 6.5 6.25 0.0 10.65 0.0 -2.1" fill="url(#gradient1)" fill-rule="evenodd" stroke="none"/>
      <path d="M-6.95 -6.45 L0.0 -2.1 0.0 10.65 -6.95 6.15 -6.95 -6.45" fill="url(#gradient2)" fill-rule="evenodd" stroke="none"/>
      <path d="M2.05 -0.1 L3.0 -0.7 3.0 0.3 2.05 0.9 2.05 -0.1" fill="#000000" fill-rule="evenodd" stroke="none"/>
      <path d="M-3.35 -6.6 L-2.4 -7.2 -1.45 -6.55 -2.4 -6.0 -3.35 -6.6" fill="#000000" fill-rule="evenodd" stroke="none"/>
      <path d="M1.45 -6.6 L2.4 -7.1 3.35 -6.55 2.4 -6.0 1.45 -6.6" fill="#000000" fill-rule="evenodd" stroke="none"/>
      <path d="M4.7 1.9 L5.65 1.3 5.65 2.3 4.7 2.9 4.7 1.9" fill="#000000" fill-rule="evenodd" stroke="none"/>
      <path d="M1.9 6.05 L2.85 5.45 2.85 6.45 1.9 7.05 1.9 6.05" fill="#000000" fill-rule="evenodd" stroke="none"/>
      <path d="M5.1 -4.05 L6.05 -4.65 6.05 -3.65 5.1 -3.05 5.1 -4.05" fill="#000000" fill-rule="evenodd" stroke="none"/>
      <path d="M-4.7 -2.3 L-5.65 -2.9 -5.65 -1.9 -4.7 -1.3 -4.7 -2.3" fill="#000000" fill-rule="evenodd" stroke="none"/>
      <path d="M-1.2 2.7 L-2.15 2.1 -2.15 3.1 -1.2 3.7 -1.2 2.7" fill="#000000" fill-rule="evenodd" stroke="none"/>
      <path d="M-5.25 5.15 L-6.2 4.55 -6.2 5.55 -5.25 6.15 -5.25 5.15" fill="#000000" fill-rule="evenodd" stroke="none"/>
    </g>
    <linearGradient gradientTransform="matrix(-2.0E-4, -0.0053, 0.0047, -2.0E-4, 3.55, 3.1)" gradientUnits="userSpaceOnUse" id="gradient1" spreadMethod="pad" x1="-819.2" x2="819.2">
      <stop offset="0.0" stop-color="#00ff00"/>
      <stop offset="1.0" stop-color="#a3ed00"/>
    </linearGradient>
    <linearGradient gradientTransform="matrix(6.0E-4, -0.0057, 0.0053, 6.0E-4, -3.55, 2.65)" gradientUnits="userSpaceOnUse" id="gradient2" spreadMethod="pad" x1="-819.2" x2="819.2">
      <stop offset="0.0" stop-color="#008c00"/>
      <stop offset="1.0" stop-color="#9ed300"/>
    </linearGradient>
  </defs>
</svg>
