<?xml version="1.0" encoding="UTF-8" standalone="no"?>
<svg xmlns:xlink="http://www.w3.org/1999/xlink" height="48.15px" width="55.05px" xmlns="http://www.w3.org/2000/svg">
  <g transform="matrix(1.0, 0.0, 0.0, 1.0, 2.1, -3.25)">
    <use height="19.25" transform="matrix(1.0, 0.0, 0.0, 1.0, 26.6, 14.45)" width="20.35" xlink:href="#sprite0"/>
    <use height="19.25" transform="matrix(1.0, 0.0, 0.0, 1.0, 2.6, 17.45)" width="20.35" xlink:href="#sprite0"/>
  </g>
  <defs>
    <g id="sprite0" transform="matrix(1.0, 0.0, 0.0, 1.0, 9.75, 7.4)">
      <use height="19.25" transform="matrix(1.0, 0.0, 0.0, 1.0, -9.75, -7.4)" width="20.35" xlink:href="#shape0"/>
    </g>
    <g id="shape0" transform="matrix(1.0, 0.0, 0.0, 1.0, 9.75, 7.4)">
      <path d="M-6.95 -4.95 Q-4.35 -6.65 -1.1 -6.35 2.3 -6.05 5.25 -3.7 8.2 -1.3 9.05 1.85 9.9 4.95 8.95 7.8 5.4 10.25 1.6 10.6 -2.2 11.0 -5.1 8.6 -8.05 6.2 -8.4 2.55 -8.75 -1.1 -8.05 -2.65 L-6.95 -4.95 M8.2 7.1 Q9.05 4.55 8.3 1.75 7.55 -1.1 4.85 -3.3 2.15 -5.5 -0.85 -5.7 -3.85 -5.9 -6.3 -4.3 -7.9 -0.95 -7.55 2.4 -7.25 5.85 -4.6 8.05 -1.9 10.2 1.5 9.85 4.95 9.55 8.2 7.1" fill="#ffffff" fill-rule="evenodd" stroke="none"/>
      <path d="M8.2 7.1 Q4.95 9.55 1.5 9.85 -1.9 10.2 -4.6 8.05 -7.25 5.85 -7.55 2.4 -7.9 -0.95 -6.3 -4.3 L8.2 7.1" fill="#ff0000" fill-rule="evenodd" stroke="none"/>
      <path d="M9.75 8.5 Q6.3 11.35 1.95 11.8 -2.45 12.25 -5.9 9.5 -9.25 6.7 -9.7 2.3 -10.1 -2.05 -7.85 -5.65 L-6.95 -4.95 -8.05 -2.65 Q-8.75 -1.1 -8.4 2.55 -8.05 6.2 -5.1 8.6 -2.2 11.0 1.6 10.6 5.4 10.25 8.95 7.8 L9.75 8.5" fill="#007a00" fill-rule="evenodd" stroke="none"/>
      <path d="M-6.3 -4.3 Q-3.85 -5.9 -0.85 -5.7 2.15 -5.5 4.85 -3.3 7.55 -1.1 8.3 1.75 9.05 4.55 8.2 7.1 L-6.3 -4.3" fill="#ff6b6b" fill-rule="evenodd" stroke="none"/>
      <path d="M-7.85 -5.65 Q-5.3 -7.65 -1.5 -7.35 2.4 -7.0 5.8 -4.3 9.25 -1.45 10.2 2.15 11.2 5.75 9.75 8.5 L8.95 7.8 Q9.9 4.95 9.05 1.85 8.2 -1.3 5.25 -3.7 2.3 -6.05 -1.1 -6.35 -4.35 -6.65 -6.95 -4.95 L-7.85 -5.65" fill="#0ec10e" fill-rule="evenodd" stroke="none"/>
      <path d="M-3.9 0.0 L-3.9 1.05 -5.7 1.05 -5.7 0.0 -3.9 0.0" fill="#000000" fill-rule="evenodd" stroke="none"/>
      <path d="M-3.2 3.3 L-2.7 4.2 -4.25 5.05 -4.75 4.15 -3.2 3.3" fill="#000000" fill-rule="evenodd" stroke="none"/>
      <path d="M-1.0 5.7 L0.0 5.95 -0.45 7.65 -1.45 7.4 -1.0 5.7" fill="#000000" fill-rule="evenodd" stroke="none"/>
      <path d="M2.3 5.75 L3.25 5.5 3.75 7.2 2.8 7.45 2.3 5.75" fill="#000000" fill-rule="evenodd" stroke="none"/>
      <path d="M5.55 3.55 L5.95 2.7 7.45 2.85 7.05 3.7 5.55 3.55" fill="#383838" fill-rule="evenodd" stroke="none"/>
      <path d="M3.95 0.85 L3.85 -0.1 5.2 -0.7 5.3 0.25 3.95 0.85" fill="#383838" fill-rule="evenodd" stroke="none"/>
      <path d="M1.8 -1.45 L1.1 -2.05 1.6 -3.4 2.3 -2.8 1.8 -1.45" fill="#383838" fill-rule="evenodd" stroke="none"/>
      <path d="M-1.15 -2.4 L-2.05 -2.6 -2.25 -4.05 -1.35 -3.85 -1.15 -2.4" fill="#444444" fill-rule="evenodd" stroke="none"/>
    </g>
  </defs>
</svg>
