<?xml version="1.0" encoding="UTF-8" standalone="no"?>
<svg xmlns:xlink="http://www.w3.org/1999/xlink" height="48.15px" width="55.05px" xmlns="http://www.w3.org/2000/svg">
  <g transform="matrix(1.0, 0.0, 0.0, 1.0, 2.1, -3.25)">
    <use height="23.35" transform="matrix(1.0, 0.0, 0.0, 1.0, 5.8, 6.85)" width="23.05" xlink:href="#sprite0"/>
    <use height="23.35" transform="matrix(1.0, 0.0, 0.0, 1.0, 16.8, 13.35)" width="23.05" xlink:href="#sprite0"/>
  </g>
  <defs>
    <g id="sprite0" transform="matrix(1.0, 0.0, 0.0, 1.0, 18.25, 11.15)">
      <use height="23.35" transform="matrix(1.0, 0.0, 0.0, 1.0, -18.25, -11.15)" width="23.05" xlink:href="#shape0"/>
    </g>
    <g id="shape0" transform="matrix(1.0, 0.0, 0.0, 1.0, 18.25, 11.15)">
      <path d="M-8.4 3.9 L-4.4 -3.55 -2.55 -0.8 -7.6 7.2 -8.4 3.9" fill="#9d1c20" fill-rule="evenodd" stroke="none"/>
      <path d="M-1.85 -5.6 L0.35 -6.95 2.8 -5.15 0.6 -3.95 -1.85 -5.6 M4.8 -1.9 L-3.6 8.35 -5.9 8.35 0.6 0.35 -2.55 -0.8 0.6 -3.95 0.6 0.35 4.8 -1.9" fill="#f56548" fill-rule="evenodd" stroke="none"/>
      <path d="M-1.85 -5.6 L0.6 -3.95 -2.55 -0.8 0.6 0.35 -5.9 8.35 -7.6 7.2 -2.55 -0.8 -4.4 -3.55 -1.85 -5.6" fill="#ee321f" fill-rule="evenodd" stroke="none"/>
      <path d="M-18.25 12.2 L-8.4 3.9 -7.6 7.2 -18.25 12.2" fill="#84171b" fill-rule="evenodd" stroke="none"/>
      <path d="M-18.25 12.2 L-7.6 7.2 -5.9 8.35 -18.25 12.2" fill="#d62d1b" fill-rule="evenodd" stroke="none"/>
      <path d="M-3.6 8.35 L-18.25 12.2 -5.9 8.35 -3.6 8.35" fill="#d6583e" fill-rule="evenodd" stroke="none"/>
      <path d="M0.6 -3.95 L2.8 -5.15 4.8 -1.9 0.6 0.35 0.6 -3.95" fill="#ffffff" fill-rule="evenodd" stroke="none"/>
      <path d="M0.05 -9.75 L1.5 -9.5 0.95 -5.95 1.05 -6.45 0.55 -3.95 0.1 -5.25 0.05 -9.75" fill="#00694b" fill-rule="evenodd" stroke="none"/>
      <path d="M0.55 -3.95 L1.05 -6.45 0.95 -5.95 1.5 -9.5 0.05 -9.75 -1.0 -10.55 -0.25 -11.1 1.35 -11.15 2.2 -10.35 1.4 -6.75 2.7 -5.15 0.55 -3.95" fill="#acce6e" fill-rule="evenodd" stroke="none"/>
      <path d="M0.05 -9.75 L0.1 -5.25 0.55 -3.95 -1.75 -5.65 -0.25 -6.55 -1.0 -10.55 0.05 -9.75" fill="#004832" fill-rule="evenodd" stroke="none"/>
    </g>
  </defs>
</svg>
