<?xml version="1.0" encoding="UTF-8" standalone="no"?>
<svg xmlns:xlink="http://www.w3.org/1999/xlink" height="48.15px" width="55.05px" xmlns="http://www.w3.org/2000/svg">
  <g transform="matrix(1.0, 0.0, 0.0, 1.0, 2.1, -3.25)">
    <use height="18.75" transform="matrix(1.0, 0.0, 0.0, 1.0, 27.4, 20.2)" width="20.7" xlink:href="#sprite0"/>
    <use height="18.75" transform="matrix(1.0, 0.0, 0.0, 1.0, -0.6, 20.2)" width="20.7" xlink:href="#sprite0"/>
  </g>
  <defs>
    <g id="sprite0" transform="matrix(1.0, 0.0, 0.0, 1.0, 10.85, 8.0)">
      <use height="27.45" transform="matrix(0.5091, 0.0, 0.0, 0.5091, -10.8601, -3.2246)" width="40.7" xlink:href="#sprite1"/>
      <use height="16.0" transform="matrix(1.0, 0.0, 0.0, 1.0, -7.0, -8.0)" width="14.0" xlink:href="#shape1"/>
    </g>
    <g id="sprite1" transform="matrix(1.0, 0.0, 0.0, 1.0, 20.35, 13.7)">
      <use height="27.45" transform="matrix(1.0, 0.0, 0.0, 1.0, -20.35, -13.7)" width="40.7" xlink:href="#shape0"/>
    </g>
    <g id="shape0" transform="matrix(1.0, 0.0, 0.0, 1.0, 20.35, 13.7)">
      <path d="M20.35 0.0 Q20.35 5.7 14.4 9.7 8.45 13.75 0.0 13.75 -8.45 13.75 -14.4 9.7 -20.35 5.7 -20.35 0.0 -20.35 -5.65 -14.4 -9.7 -8.45 -13.7 0.0 -13.7 8.45 -13.7 14.4 -9.7 20.35 -5.65 20.35 0.0" fill="url(#gradient0)" fill-rule="evenodd" stroke="none"/>
    </g>
    <radialGradient cx="0" cy="0" gradientTransform="matrix(0.025, 0.0, 0.0, 0.0169, 0.0, 0.0)" gradientUnits="userSpaceOnUse" id="gradient0" r="819.2" spreadMethod="pad">
      <stop offset="0.0" stop-color="#000000" stop-opacity="0.5019608"/>
      <stop offset="1.0" stop-color="#000000" stop-opacity="0.0"/>
    </radialGradient>
    <g id="shape1" transform="matrix(1.0, 0.0, 0.0, 1.0, 7.0, 8.0)">
      <path d="M-7.0 -3.85 L-0.05 -8.0 6.9 -3.85 -0.05 0.3 -7.0 -3.85" fill="#ff6600" fill-rule="evenodd" stroke="none"/>
      <path d="M6.9 -3.85 L7.0 3.85 -0.05 8.0 -0.05 0.3 6.9 -3.85" fill="#ffcc00" fill-rule="evenodd" stroke="none"/>
      <path d="M-0.05 8.0 L-7.0 3.85 -7.0 -3.85 -0.05 0.3 -0.05 8.0" fill="#ff3300" fill-rule="evenodd" stroke="none"/>
      <path d="M-0.1 -5.9 L0.0 -5.9 1.9 -6.5 0.0 -4.6 -0.1 -4.7 -0.1 -5.9" fill="#006600" fill-rule="evenodd" stroke="none"/>
      <path d="M-0.1 -5.9 L-0.1 -4.7 -1.95 -6.5 -0.1 -5.9" fill="#00cc00" fill-rule="evenodd" stroke="none"/>
      <path d="M0.1 -3.7 L0.0 -3.75 -1.9 -3.15 0.0 -4.9 0.1 -4.85 0.1 -3.7" fill="#006600" fill-rule="evenodd" stroke="none"/>
      <path d="M0.1 -4.85 L1.95 -3.15 0.1 -3.7 0.1 -4.85" fill="#00cc00" fill-rule="evenodd" stroke="none"/>
      <path d="M4.5 -1.15 L5.45 -1.75 5.45 -0.75 4.5 -0.15 4.5 -1.15" fill="#ffffff" fill-rule="evenodd" stroke="none"/>
      <path d="M-4.8 -0.55 L-4.8 0.45 -5.75 -0.15 -5.75 -1.15 -4.8 -0.55" fill="#cc0000" fill-rule="evenodd" stroke="none"/>
      <path d="M1.9 1.5 L2.85 0.9 2.85 1.9 1.9 2.5 1.9 1.5" fill="#ffffff" fill-rule="evenodd" stroke="none"/>
      <path d="M4.9 3.25 L5.85 2.65 5.85 3.65 4.9 4.25 4.9 3.25" fill="#ffffff" fill-rule="evenodd" stroke="none"/>
      <path d="M1.35 5.1 L2.3 4.5 2.3 5.5 1.35 6.1 1.35 5.1" fill="#ffffff" fill-rule="evenodd" stroke="none"/>
      <path d="M-2.0 1.6 L-2.0 2.6 -2.95 2.0 -2.95 1.0 -2.0 1.6" fill="#cc0000" fill-rule="evenodd" stroke="none"/>
      <path d="M-4.15 3.15 L-4.15 4.15 -5.1 3.55 -5.1 2.55 -4.15 3.15" fill="#cc0000" fill-rule="evenodd" stroke="none"/>
      <path d="M-1.65 4.65 L-1.65 5.65 -2.6 5.05 -2.6 4.05 -1.65 4.65" fill="#cc0000" fill-rule="evenodd" stroke="none"/>
    </g>
  </defs>
</svg>
