<?xml version="1.0" encoding="UTF-8" standalone="no"?>
<svg xmlns:xlink="http://www.w3.org/1999/xlink" height="48.15px" width="55.05px" xmlns="http://www.w3.org/2000/svg">
  <g transform="matrix(1.0, 0.0, 0.0, 1.0, 2.1, -3.25)">
    <use height="21.9" transform="matrix(1.0, 0.0, 0.0, 1.0, 0.75, 12.25)" width="20.7" xlink:href="#sprite0"/>
    <use height="21.9" transform="matrix(1.0, 0.0, 0.0, 1.0, 32.25, 17.75)" width="20.7" xlink:href="#sprite0"/>
    <use height="21.9" transform="matrix(1.0, 0.0, 0.0, 1.0, 13.25, 29.5)" width="20.7" xlink:href="#sprite0"/>
  </g>
  <defs>
    <g id="sprite0" transform="matrix(1.0, 0.0, 0.0, 1.0, 10.85, 11.15)">
      <use height="27.45" transform="matrix(0.5091, 0.0, 0.0, 0.5091, -10.8601, -3.2246)" width="40.7" xlink:href="#sprite1"/>
      <use height="19.15" transform="matrix(1.0, 0.0, 0.0, 1.0, -8.25, -11.15)" width="16.25" xlink:href="#shape1"/>
      <use height="16.35" transform="matrix(1.0, 0.0, 0.0, 1.0, -8.3, -8.35)" width="16.25" xlink:href="#sprite2"/>
    </g>
    <g id="sprite1" transform="matrix(1.0, 0.0, 0.0, 1.0, 20.35, 13.7)">
      <use height="27.45" transform="matrix(1.0, 0.0, 0.0, 1.0, -20.35, -13.7)" width="40.7" xlink:href="#shape0"/>
    </g>
    <g id="shape0" transform="matrix(1.0, 0.0, 0.0, 1.0, 20.35, 13.7)">
      <path d="M20.35 0.0 Q20.35 5.7 14.4 9.7 8.45 13.75 0.0 13.75 -8.45 13.75 -14.4 9.7 -20.35 5.7 -20.35 0.0 -20.35 -5.65 -14.4 -9.7 -8.45 -13.7 0.0 -13.7 8.45 -13.7 14.4 -9.7 20.35 -5.65 20.35 0.0" fill="url(#gradient0)" fill-rule="evenodd" stroke="none"/>
    </g>
    <radialGradient cx="0" cy="0" gradientTransform="matrix(0.025, 0.0, 0.0, 0.0169, 0.0, 0.0)" gradientUnits="userSpaceOnUse" id="gradient0" r="819.2" spreadMethod="pad">
      <stop offset="0.0" stop-color="#000000" stop-opacity="0.5019608"/>
      <stop offset="1.0" stop-color="#000000" stop-opacity="0.0"/>
    </radialGradient>
    <g id="shape1" transform="matrix(1.0, 0.0, 0.0, 1.0, 8.25, 11.15)">
      <path d="M-5.6 -8.35 L-0.05 -11.15 5.75 -7.95 0.05 -4.8 -5.6 -8.35" fill="#9fff00" fill-rule="evenodd" stroke="none"/>
      <path d="M5.75 -7.95 L8.0 -1.1 7.95 -1.05 0.0 3.1 0.05 -4.8 5.75 -7.95" fill="#ffffff" fill-rule="evenodd" stroke="none"/>
      <path d="M7.95 -1.05 L5.1 5.0 -0.05 8.0 0.0 3.1 7.95 -1.05" fill="#848484" fill-rule="evenodd" stroke="none"/>
      <path d="M-8.25 -1.65 L-5.6 -8.35 0.05 -4.8 0.0 3.1 -8.25 -1.65" fill="#595959" fill-rule="evenodd" stroke="none"/>
      <path d="M-0.05 8.0 L-6.25 4.75 -8.25 -1.65 0.0 3.1 -0.05 8.0" fill="#000000" fill-rule="evenodd" stroke="none"/>
      <path d="M-0.35 -9.5 L-0.25 -9.45 2.85 -10.45 -0.25 -7.4 -0.35 -7.5 -0.35 -9.5" fill="#006600" fill-rule="evenodd" stroke="none"/>
      <path d="M-0.35 -9.5 L-0.35 -7.5 -3.35 -10.45 -0.35 -9.5" fill="#00cc00" fill-rule="evenodd" stroke="none"/>
    </g>
    <g id="sprite2" transform="matrix(1.0, 0.0, 0.0, 1.0, 8.15, 8.2)">
      <use height="16.35" transform="matrix(1.0, 0.0, 0.0, 1.0, -8.15, -8.2)" width="16.25" xlink:href="#shape2"/>
    </g>
    <g id="shape2" transform="matrix(1.0, 0.0, 0.0, 1.0, 8.15, 8.2)">
      <path d="M8.05 -0.9 L5.2 5.15 0.05 8.15 0.1 3.25 8.05 -0.9" fill="url(#gradient1)" fill-rule="evenodd" stroke="none"/>
      <path d="M0.05 8.15 L-6.15 4.9 -8.15 -1.5 0.1 3.25 0.05 8.15" fill="url(#gradient2)" fill-rule="evenodd" stroke="none"/>
      <path d="M0.15 -4.65 L5.85 -7.8 8.1 -0.95 8.05 -0.9 0.1 3.25 0.15 -4.65" fill="url(#gradient3)" fill-rule="evenodd" stroke="none"/>
      <path d="M-8.15 -1.5 L-5.5 -8.2 0.15 -4.65 0.1 3.25 -8.15 -1.5" fill="url(#gradient4)" fill-rule="evenodd" stroke="none"/>
    </g>
    <linearGradient gradientTransform="matrix(-0.0011, -0.0017, 0.0059, -0.004, 4.0, 3.55)" gradientUnits="userSpaceOnUse" id="gradient1" spreadMethod="pad" x1="-819.2" x2="819.2">
      <stop offset="0.0" stop-color="#ff7b15" stop-opacity="0.81960785"/>
      <stop offset="1.0" stop-color="#ffff00" stop-opacity="0.81960785"/>
    </linearGradient>
    <linearGradient gradientTransform="matrix(7.0E-4, -0.0016, 0.0064, 0.0031, -4.3, 3.75)" gradientUnits="userSpaceOnUse" id="gradient2" spreadMethod="pad" x1="-819.2" x2="819.2">
      <stop offset="0.0" stop-color="#ff8000" stop-opacity="0.81960785"/>
      <stop offset="1.0" stop-color="#ffff00" stop-opacity="0.81960785"/>
    </linearGradient>
    <linearGradient gradientTransform="matrix(0.0014, 0.003, -0.0055, 0.0026, 3.15, -1.95)" gradientUnits="userSpaceOnUse" id="gradient3" spreadMethod="pad" x1="-819.2" x2="819.2">
      <stop offset="0.0" stop-color="#00ff00" stop-opacity="0.81960785"/>
      <stop offset="1.0" stop-color="#ffff00" stop-opacity="0.81960785"/>
    </linearGradient>
    <linearGradient gradientTransform="matrix(-0.001, 0.0031, -0.0054, -0.0018, -2.95, -2.35)" gradientUnits="userSpaceOnUse" id="gradient4" spreadMethod="pad" x1="-819.2" x2="819.2">
      <stop offset="0.0" stop-color="#00ff00" stop-opacity="0.81960785"/>
      <stop offset="1.0" stop-color="#ffff00" stop-opacity="0.81960785"/>
    </linearGradient>
  </defs>
</svg>
