<?xml version="1.0" encoding="UTF-8" standalone="no"?>
<svg xmlns:xlink="http://www.w3.org/1999/xlink" height="48.15px" width="55.05px" xmlns="http://www.w3.org/2000/svg">
  <g transform="matrix(1.0, 0.0, 0.0, 1.0, 2.1, -3.25)">
    <use height="34.15" transform="matrix(0.7883, 0.0, 0.0, 0.7883, 5.7823, 15.2454)" width="50.85" xlink:href="#sprite0"/>
  </g>
  <defs>
    <g id="sprite0" transform="matrix(1.0, 0.0, 0.0, 1.0, 27.55, 7.3)">
      <use height="25.15" transform="matrix(1.0, 0.0, 0.0, 1.0, 2.45, 1.7)" width="20.85" xlink:href="#sprite1"/>
      <use height="25.15" transform="matrix(1.0, 0.0, 0.0, 1.0, -27.55, -7.3)" width="20.85" xlink:href="#sprite1"/>
    </g>
    <g id="sprite1" transform="matrix(1.0, 0.0, 0.0, 1.0, 10.4, 12.55)">
      <use height="25.15" transform="matrix(1.0, 0.0, 0.0, 1.0, -10.4, -12.55)" width="20.85" xlink:href="#shape0"/>
    </g>
    <g id="shape0" transform="matrix(1.0, 0.0, 0.0, 1.0, 10.4, 12.55)">
      <path d="M2.25 -9.9 L1.7 -7.2 0.75 -3.65 0.7 -3.65 0.4 -3.85 -0.4 -8.55 2.25 -9.9" fill="#f9ccc1" fill-rule="evenodd" stroke="none"/>
      <path d="M-3.1 -6.55 L-4.7 -9.9 -2.3 -9.0 -0.4 -8.55 0.4 -3.85 0.45 -3.75 -2.55 -5.6 -3.1 -6.55" fill="#f38581" fill-rule="evenodd" stroke="none"/>
      <path d="M-5.5 -4.2 L-3.1 -6.55 -2.55 -5.6 0.45 -3.75 0.4 -3.85 0.7 -3.65 2.1 -2.5 -2.0 -1.9 -5.5 -4.2 M-5.0 5.65 Q-5.0 6.05 -5.25 6.3 L-5.85 6.55 -6.5 6.3 -6.75 5.65 -6.5 5.05 -5.85 4.8 Q-5.5 4.8 -5.25 5.05 -5.0 5.3 -5.0 5.65" fill="#348226" fill-rule="evenodd" stroke="none"/>
      <path d="M1.7 -7.2 L5.2 -4.5 5.25 -4.45 2.1 -2.5 0.7 -3.65 0.75 -3.65 1.7 -7.2 M5.35 1.0 L5.1 1.65 4.5 1.9 3.85 1.65 3.6 1.0 Q3.6 0.65 3.85 0.4 4.1 0.15 4.5 0.15 L5.1 0.4 5.35 1.0 M-1.55 10.4 L-3.2 10.35 -3.2 10.3 -3.2 10.25 -2.0 -1.9 2.1 -2.5 3.55 10.4 3.5 10.4 3.5 10.35 -1.55 10.4 M0.0 4.65 L-0.25 4.05 Q-0.5 3.8 -0.85 3.8 L-1.5 4.05 -1.75 4.65 -1.5 5.3 -0.85 5.55 -0.25 5.3 0.0 4.65" fill="#7bb608" fill-rule="evenodd" stroke="none"/>
      <path d="M5.25 -4.45 L7.6 5.1 8.05 7.75 3.55 10.4 2.1 -2.5 5.25 -4.45 M5.35 1.0 L5.1 0.4 4.5 0.15 Q4.1 0.15 3.85 0.4 3.6 0.65 3.6 1.0 L3.85 1.65 4.5 1.9 5.1 1.65 5.35 1.0" fill="#adff33" fill-rule="evenodd" stroke="none"/>
      <path d="M7.6 5.1 L10.45 7.55 9.5 9.4 4.1 12.6 -4.2 12.35 -10.4 8.3 -9.9 6.0 -7.55 4.75 -7.95 6.95 -8.0 7.2 -3.35 10.35 -3.2 10.35 -1.55 10.4 3.4 10.45 3.5 10.4 3.55 10.4 8.05 7.75 7.6 5.1" fill="#ffffff" fill-opacity="0.4" fill-rule="evenodd" stroke="none"/>
      <path d="M-7.95 6.95 L-5.5 -4.2 -2.0 -1.9 -3.2 10.25 -3.9 9.8 -7.95 6.95 M0.0 4.65 L-0.25 5.3 -0.85 5.55 -1.5 5.3 -1.75 4.65 -1.5 4.05 -0.85 3.8 Q-0.5 3.8 -0.25 4.05 L0.0 4.65 M-5.0 5.65 Q-5.0 5.3 -5.25 5.05 -5.5 4.8 -5.85 4.8 L-6.5 5.05 -6.75 5.65 -6.5 6.3 -5.85 6.55 -5.25 6.3 Q-5.0 6.05 -5.0 5.65" fill="#35a016" fill-rule="evenodd" stroke="none"/>
      <path d="M-4.7 -9.9 L-3.0 -12.55 -0.25 -12.55 2.25 -9.9 -0.4 -8.55 -2.3 -9.0 -4.7 -9.9" fill="#c06c69" fill-rule="evenodd" stroke="none"/>
      <path d="M-3.9 9.8 L-3.2 10.25 -3.2 10.3 -3.9 9.8" fill="#60686c" fill-rule="evenodd" stroke="none"/>
    </g>
  </defs>
</svg>
