<?xml version="1.0" encoding="UTF-8" standalone="no"?>
<svg xmlns:xlink="http://www.w3.org/1999/xlink" height="253.8px" width="253.8px" xmlns="http://www.w3.org/2000/svg">
  <g transform="matrix(1.0, 0.0, 0.0, 1.0, 0.25, 1.0)">
    <use height="253.8" transform="matrix(1.0, 0.0, 0.0, 1.0, -0.25, -1.0)" width="253.8" xlink:href="#shape0"/>
    <use height="149.4" id="face" transform="matrix(1.0, 0.0, 0.0, 1.0, 67.3, 51.1)" width="122.5" xlink:href="#sprite0"/>
    <use height="72.2" transform="matrix(2.4149, 0.0, 0.0, 2.4149, 41.7354, 23.5283)" width="62.1" xlink:href="#sprite3"/>
  </g>
  <defs>
    <g id="shape0" transform="matrix(1.0, 0.0, 0.0, 1.0, 0.25, 1.0)">
      <path d="M-0.25 -1.0 L253.55 -1.0 253.55 252.8 -0.25 252.8 -0.25 -1.0" fill="#0099ff" fill-opacity="0.0" fill-rule="evenodd" stroke="none"/>
    </g>
    <g id="sprite0" transform="matrix(1.0, 0.0, 0.0, 1.0, 64.5, 70.7)">
      <use height="69.1" transform="matrix(2.1622, 0.0, 0.0, 2.1622, -64.489, -70.7025)" width="56.65" xlink:href="#sprite1"/>
    </g>
    <g id="sprite1" transform="matrix(1.0, 0.0, 0.0, 1.0, 28.3, 34.55)">
      <use height="69.1" transform="matrix(1.0, 0.0, 0.0, 1.0, -28.3, -34.55)" width="56.65" xlink:href="#shape1"/>
      <use height="20.1" transform="matrix(1.0, 0.0, 0.0, 1.0, 2.4, -0.3)" width="8.7" xlink:href="#sprite2"/>
      <use height="20.1" transform="matrix(1.0, 0.0, 0.0, 1.0, 17.85, -10.3)" width="8.7" xlink:href="#sprite2"/>
    </g>
    <g id="shape1" transform="matrix(1.0, 0.0, 0.0, 1.0, 28.3, 34.55)">
      <path d="M-28.3 -16.6 L-0.15 -34.55 28.0 -16.6 -0.15 1.3 -28.3 -16.6" fill="#663300" fill-rule="evenodd" stroke="none"/>
      <path d="M-0.15 34.55 L-28.3 16.65 -28.3 -16.6 -0.15 1.3 -0.15 34.55" fill="#966300" fill-rule="evenodd" stroke="none"/>
      <path d="M28.0 -16.6 L28.35 16.65 -0.15 34.55 -0.15 1.3 28.0 -16.6" fill="#c68300" fill-rule="evenodd" stroke="none"/>
    </g>
    <g id="sprite2" transform="matrix(1.0, 0.0, 0.0, 1.0, 3.6, 11.95)">
      <use height="20.1" transform="matrix(1.0, 0.0, 0.0, 1.0, -3.6, -11.95)" width="8.7" xlink:href="#shape2"/>
    </g>
    <g id="shape2" transform="matrix(1.0, 0.0, 0.0, 1.0, 3.6, 11.95)">
      <path d="M5.1 -11.95 L5.05 2.55 -3.6 8.15 -3.6 -6.55 5.1 -11.95" fill="#ffffff" fill-rule="evenodd" stroke="none"/>
      <path d="M5.05 -5.65 L5.0 2.6 -0.25 5.85 -0.25 -2.4 5.05 -5.65" fill="#000000" fill-rule="evenodd" stroke="none"/>
    </g>
    <g id="sprite3" transform="matrix(1.0, 0.0, 0.0, 1.0, 34.5, 42.35)">
      <use height="72.2" transform="matrix(1.0, 0.0, 0.0, 1.0, -34.5, -42.35)" width="62.1" xlink:href="#shape3"/>
    </g>
    <g id="shape3" transform="matrix(1.0, 0.0, 0.0, 1.0, 34.5, 42.35)">
      <path d="M20.55 -10.4 L27.6 -11.8 25.8 3.5 20.55 -10.4 M9.05 -4.4 L16.1 -5.8 13.0 8.25 9.05 -4.4 M-3.9 -4.6 L4.35 -4.65 0.5 8.9 -3.9 -4.6" fill="#000000" fill-opacity="0.2" fill-rule="evenodd" stroke="none"/>
      <path d="M14.55 7.15 L10.9 -6.4 13.4 -9.05 14.55 7.15" fill="#adadad" fill-rule="evenodd" stroke="none"/>
      <path d="M13.4 -9.05 L18.95 -6.35 14.55 7.15 13.4 -9.05" fill="#ffffff" fill-rule="evenodd" stroke="none"/>
      <path d="M26.45 0.3 L20.3 -12.3 22.25 -15.35 26.45 0.3" fill="#adadad" fill-rule="evenodd" stroke="none"/>
      <path d="M22.25 -15.35 L27.35 -13.65 26.45 0.3 22.25 -15.35" fill="#ffffff" fill-rule="evenodd" stroke="none"/>
      <path d="M0.75 -8.4 L6.3 -5.7 1.9 7.8 0.75 -8.4" fill="#ffffff" fill-rule="evenodd" stroke="none"/>
      <path d="M1.9 7.8 L-1.75 -5.75 0.75 -8.4 1.9 7.8" fill="#adadad" fill-rule="evenodd" stroke="none"/>
      <path d="M27.25 -18.6 L27.5 -10.75 13.9 -3.6 13.9 -11.35 27.25 -18.6" fill="#000000" fill-rule="evenodd" stroke="none"/>
      <path d="M13.9 -3.6 L-1.25 -3.6 -7.6 14.3 -7.8 14.3 -7.8 29.85 -34.5 7.6 -26.25 -20.15 -17.0 -17.25 -12.65 -27.1 -12.4 -27.6 -12.2 -28.15 -10.05 -32.95 13.9 -11.35 13.9 -3.6" fill="#cc6600" fill-rule="evenodd" stroke="none"/>
      <path d="M-10.05 -32.95 L-1.6 -32.95 6.85 -32.95 11.3 -37.05 17.0 -42.35 27.25 -18.6 13.9 -11.35 -10.05 -32.95" fill="#fccc01" fill-rule="evenodd" stroke="none"/>
      <path d="M-26.25 -20.15 L-12.2 -28.15 -12.4 -27.6 -12.65 -27.1 -17.0 -17.25 -26.25 -20.15 M-1.6 -32.95 L11.9 -37.65 11.3 -37.05 6.85 -32.95 -1.6 -32.95" fill="#ff9900" fill-rule="evenodd" stroke="none"/>
      <path d="M-9.2 -15.65 L-4.25 -12.25 -4.25 -6.1 -9.2 -9.35 -9.2 -15.65" fill="#000000" fill-rule="evenodd" stroke="none"/>
      <path d="M-16.35 -1.35 L-11.4 2.05 -11.4 8.2 -16.35 4.95 -16.35 -1.35" fill="#000000" fill-rule="evenodd" stroke="none"/>
      <path d="M-16.35 11.5 L-11.4 14.9 -11.4 21.05 -16.35 17.8 -16.35 11.5" fill="#000000" fill-rule="evenodd" stroke="none"/>
      <path d="M-5.4 -26.3 L-5.4 -20.15 -8.0 -21.85 -8.0 -28.15 -5.4 -26.3" fill="#ffffff" fill-rule="evenodd" stroke="none"/>
      <path d="M-5.4 -20.15 L-5.4 -26.3 -3.0 -24.75 -3.0 -18.6 -5.4 -20.15" fill="#000000" fill-rule="evenodd" stroke="none"/>
      <path d="M-26.25 -1.35 L-21.3 2.05 -21.3 8.2 -26.25 4.95 -26.25 -1.35" fill="#000000" fill-rule="evenodd" stroke="none"/>
      <path d="M-21.7 -15.4 L-16.75 -12.0 -16.75 -5.85 -21.7 -9.1 -21.7 -15.4" fill="#000000" fill-rule="evenodd" stroke="none"/>
      <path d="M12.55 -21.55 L17.25 -24.4 20.9 -19.5 16.35 -16.95 12.55 -21.55" fill="#000000" fill-rule="evenodd" stroke="none"/>
      <path d="M-3.65 -30.55 L4.75 -30.4 8.4 -25.5 3.85 -22.95 -3.65 -30.55" fill="#000000" fill-rule="evenodd" stroke="none"/>
      <path d="M11.25 -33.25 L16.75 -38.7 20.4 -30.9 15.2 -28.15 11.25 -33.25" fill="#000000" fill-rule="evenodd" stroke="none"/>
    </g>
  </defs>
</svg>
