<?xml version="1.0" encoding="UTF-8" standalone="no"?>
<svg xmlns:xlink="http://www.w3.org/1999/xlink" height="253.8px" width="253.8px" xmlns="http://www.w3.org/2000/svg">
  <g transform="matrix(1.0, 0.0, 0.0, 1.0, 0.25, 1.0)">
    <use height="253.8" transform="matrix(1.0, 0.0, 0.0, 1.0, -0.25, -1.0)" width="253.8" xlink:href="#shape0"/>
    <use height="62.2" transform="matrix(2.4146, 0.0, 0.0, 2.4146, 66.0974, 50.8546)" width="51.35" xlink:href="#sprite0"/>
  </g>
  <defs>
    <g id="shape0" transform="matrix(1.0, 0.0, 0.0, 1.0, 0.25, 1.0)">
      <path d="M-0.25 -1.0 L253.55 -1.0 253.55 252.8 -0.25 252.8 -0.25 -1.0" fill="#0099ff" fill-opacity="0.0" fill-rule="evenodd" stroke="none"/>
    </g>
    <g id="sprite0" transform="matrix(1.0, 0.0, 0.0, 1.0, 25.45, 31.1)">
      <use height="62.2" transform="matrix(1.0, 0.0, 0.0, 1.0, -25.45, -31.1)" width="51.35" xlink:href="#shape1"/>
    </g>
    <g id="shape1" transform="matrix(1.0, 0.0, 0.0, 1.0, 25.45, 31.1)">
      <path d="M25.2 -14.95 L25.5 15.0 -0.15 31.1 -0.15 1.15 25.2 -14.95" fill="#bfbfbf" fill-rule="evenodd" stroke="none"/>
      <path d="M-0.15 31.1 L-25.45 15.0 -25.45 -14.95 -0.15 1.15 -0.15 31.1" fill="#727272" fill-rule="evenodd" stroke="none"/>
      <path d="M-25.45 -14.95 L-0.15 -31.1 25.2 -14.95 -0.15 1.15 -25.45 -14.95" fill="#a5a5a5" fill-rule="evenodd" stroke="none"/>
      <path d="M19.9 -2.9 L24.65 -5.95 24.7 -0.35 19.9 2.7 19.9 -2.9" fill="#ff0000" fill-rule="evenodd" stroke="none"/>
      <path d="M25.8 -8.2 L25.9 0.3 18.6 4.9 18.6 -3.6 25.8 -8.2 M19.9 -2.9 L19.9 2.7 24.7 -0.35 24.65 -5.95 19.9 -2.9" fill="#000000" fill-rule="evenodd" stroke="none"/>
      <path d="M15.25 -5.7 L22.45 -10.3 25.8 -8.2 18.6 -3.6 15.25 -5.7" fill="#666666" fill-rule="evenodd" stroke="none"/>
      <path d="M18.6 4.9 L15.25 2.8 15.25 -5.7 18.6 -3.6 18.6 4.9" fill="#464646" fill-rule="evenodd" stroke="none"/>
      <path d="M6.9 5.35 L11.65 2.3 11.7 7.9 6.9 10.95 6.9 5.35" fill="#ff0000" fill-rule="evenodd" stroke="none"/>
      <path d="M12.8 0.05 L12.9 8.55 5.6 13.15 5.6 4.65 12.8 0.05 M6.9 5.35 L6.9 10.95 11.7 7.9 11.65 2.3 6.9 5.35" fill="#000000" fill-rule="evenodd" stroke="none"/>
      <path d="M12.8 0.05 L5.6 4.65 2.25 2.55 9.45 -2.05 12.8 0.05" fill="#666666" fill-rule="evenodd" stroke="none"/>
      <path d="M5.6 4.65 L5.6 13.15 2.25 11.05 2.25 2.55 5.6 4.65" fill="#464646" fill-rule="evenodd" stroke="none"/>
      <path d="M21.25 11.15 L21.25 13.95 7.1 22.85 7.15 20.0 21.25 11.15" fill="#000000" fill-rule="evenodd" stroke="none"/>
    </g>
  </defs>
</svg>
