<?xml version="1.0" encoding="UTF-8" standalone="no"?>
<svg xmlns:xlink="http://www.w3.org/1999/xlink" height="253.8px" width="253.8px" xmlns="http://www.w3.org/2000/svg">
  <g transform="matrix(1.0, 0.0, 0.0, 1.0, 0.25, 1.0)">
    <use height="253.8" transform="matrix(1.0, 0.0, 0.0, 1.0, -0.25, -1.0)" width="253.8" xlink:href="#shape0"/>
    <use height="149.4" id="face" transform="matrix(1.0, 0.0, 0.0, 1.0, 67.3, 51.1)" width="122.5" xlink:href="#sprite0"/>
    <use height="183.65" transform="matrix(1.0, 0.0, 0.0, 1.0, 38.55, 12.45)" width="166.55" xlink:href="#sprite3"/>
  </g>
  <defs>
    <g id="shape0" transform="matrix(1.0, 0.0, 0.0, 1.0, 0.25, 1.0)">
      <path d="M-0.25 -1.0 L253.55 -1.0 253.55 252.8 -0.25 252.8 -0.25 -1.0" fill="#0099ff" fill-opacity="0.0" fill-rule="evenodd" stroke="none"/>
    </g>
    <g id="sprite0" transform="matrix(1.0, 0.0, 0.0, 1.0, 64.5, 70.7)">
      <use height="69.1" transform="matrix(2.1622, 0.0, 0.0, 2.1622, -64.489, -70.7025)" width="56.65" xlink:href="#sprite1"/>
    </g>
    <g id="sprite1" transform="matrix(1.0, 0.0, 0.0, 1.0, 28.3, 34.55)">
      <use height="69.1" transform="matrix(1.0, 0.0, 0.0, 1.0, -28.3, -34.55)" width="56.65" xlink:href="#shape1"/>
      <use height="20.1" transform="matrix(1.0, 0.0, 0.0, 1.0, 2.4, -0.3)" width="8.7" xlink:href="#sprite2"/>
      <use height="20.1" transform="matrix(1.0, 0.0, 0.0, 1.0, 17.85, -10.3)" width="8.7" xlink:href="#sprite2"/>
    </g>
    <g id="shape1" transform="matrix(1.0, 0.0, 0.0, 1.0, 28.3, 34.55)">
      <path d="M-28.3 -16.6 L-0.15 -34.55 28.0 -16.6 -0.15 1.3 -28.3 -16.6" fill="#663300" fill-rule="evenodd" stroke="none"/>
      <path d="M-0.15 34.55 L-28.3 16.65 -28.3 -16.6 -0.15 1.3 -0.15 34.55" fill="#966300" fill-rule="evenodd" stroke="none"/>
      <path d="M28.0 -16.6 L28.35 16.65 -0.15 34.55 -0.15 1.3 28.0 -16.6" fill="#c68300" fill-rule="evenodd" stroke="none"/>
    </g>
    <g id="sprite2" transform="matrix(1.0, 0.0, 0.0, 1.0, 3.6, 11.95)">
      <use height="20.1" transform="matrix(1.0, 0.0, 0.0, 1.0, -3.6, -11.95)" width="8.7" xlink:href="#shape2"/>
    </g>
    <g id="shape2" transform="matrix(1.0, 0.0, 0.0, 1.0, 3.6, 11.95)">
      <path d="M5.1 -11.95 L5.05 2.55 -3.6 8.15 -3.6 -6.55 5.1 -11.95" fill="#ffffff" fill-rule="evenodd" stroke="none"/>
      <path d="M5.05 -5.65 L5.0 2.6 -0.25 5.85 -0.25 -2.4 5.05 -5.65" fill="#000000" fill-rule="evenodd" stroke="none"/>
    </g>
    <g id="sprite3" transform="matrix(1.0, 0.0, 0.0, 1.0, 77.15, 93.6)">
      <use height="183.65" transform="matrix(1.0, 0.0, 0.0, 1.0, -77.15, -93.6)" width="166.55" xlink:href="#shape3"/>
    </g>
    <g id="shape3" transform="matrix(1.0, 0.0, 0.0, 1.0, 77.15, 93.6)">
      <path d="M18.7 -93.6 L62.2 -20.3 43.5 -12.35 45.95 -26.4 36.55 -42.5 18.7 -93.6" fill="#bd8531" fill-rule="evenodd" stroke="none"/>
      <path d="M43.5 -12.35 L43.45 -12.35 18.7 -29.15 18.7 -93.6 36.55 -42.5 45.95 -26.4 43.5 -12.35" fill="#96522a" fill-rule="evenodd" stroke="none"/>
      <path d="M-64.3 39.1 L-55.8 -26.05 -35.85 -8.2 -46.15 25.5 -64.3 39.1" fill="#026cdb" fill-rule="evenodd" stroke="none"/>
      <path d="M-46.15 25.5 L-35.85 -8.2 -12.85 4.15 -12.85 14.65 -22.55 41.3 -22.5 41.45 -46.15 25.5" fill="#43bcf8" fill-rule="evenodd" stroke="none"/>
      <path d="M-64.3 39.1 L-46.15 25.5 -35.65 90.05 -64.3 39.1" fill="#025cba" fill-rule="evenodd" stroke="none"/>
      <path d="M-22.5 41.45 L-35.65 90.05 -46.15 25.5 -22.5 41.45" fill="#c1effd" fill-rule="evenodd" stroke="none"/>
      <path d="M74.9 2.5 L75.15 2.15 75.3 2.55 74.9 2.5" fill="url(#gradient0)" fill-rule="evenodd" stroke="none"/>
      <path d="M12.8 25.75 L38.5 -17.6 72.75 -11.3 12.8 25.75" fill="#bd8531" fill-rule="evenodd" stroke="none"/>
      <path d="M11.8 41.9 L1.35 41.5 -9.35 4.15 -3.65 17.65 11.8 28.65 11.8 41.9" fill="#43bcf8" fill-rule="evenodd" stroke="none"/>
      <path d="M1.35 41.5 L11.8 41.9 21.35 70.6 1.35 41.5" fill="#c3ffff" fill-rule="evenodd" stroke="none"/>
      <path d="M1.35 41.5 L21.35 70.6 -1.2 53.85 1.35 41.5" fill="#025cba" fill-rule="evenodd" stroke="none"/>
      <path d="M-9.35 4.15 L1.35 41.5 -1.2 53.85 -14.85 14.65 -9.35 4.15" fill="#026cdb" fill-rule="evenodd" stroke="none"/>
      <path d="M40.35 -16.2 L17.55 -13.4 -38.25 -53.25 -16.4 -55.75 40.35 -16.2" fill="#44c1ff" fill-rule="evenodd" stroke="none"/>
      <path d="M17.55 -13.4 L40.35 -16.2 11.8 28.65 17.55 -13.4" fill="#c4ffff" fill-rule="evenodd" stroke="none"/>
      <path d="M17.55 -13.4 L11.8 28.65 -18.65 28.65 -12.85 4.15 17.55 -13.4" fill="#026cdb" fill-rule="evenodd" stroke="none"/>
      <path d="M-38.25 -53.25 L17.55 -13.4 -12.85 4.15 -35.85 -8.2 -55.8 -26.05 -38.25 -53.25" fill="#0379f4" fill-rule="evenodd" stroke="none"/>
      <path d="M73.65 14.9 L73.65 -10.4 79.85 15.1 73.65 14.9" fill="#43bcf8" fill-rule="evenodd" stroke="none"/>
      <path d="M89.4 43.8 L73.65 21.9 73.65 14.9 79.85 15.1 89.4 43.8" fill="#b9fffd" fill-rule="evenodd" stroke="none"/>
      <path d="M89.4 43.8 L73.65 33.1 73.65 21.9 89.4 43.8" fill="#025cba" fill-rule="evenodd" stroke="none"/>
      <path d="M74.3 -28.7 L58.85 -28.45 -1.35 -70.45 23.85 -64.45 74.3 -28.7" fill="#43bcf8" fill-rule="evenodd" stroke="none"/>
      <path d="M58.85 -28.45 L74.3 -28.7 75.3 2.55 75.15 2.15 58.85 -28.45" fill="#baffff" fill-rule="evenodd" stroke="none"/>
      <path d="M-1.35 -70.45 L58.85 -28.45 40.35 -16.2 -16.4 -55.75 -1.35 -70.45" fill="#0379f4" fill-rule="evenodd" stroke="none"/>
      <path d="M58.85 -28.45 L75.15 2.15 74.9 2.5 40.35 -16.2 58.85 -28.45" fill="#026fe0" fill-rule="evenodd" stroke="none"/>
      <path d="M39.1 4.1 L45.3 11.85 37.4 7.2 24.75 -8.2 32.8 -3.6 39.1 4.1" fill="#ff9933" fill-rule="evenodd" stroke="none"/>
      <path d="M24.75 -8.2 L37.95 -38.65 45.45 -34.2 32.8 -3.6 24.75 -8.2" fill="#ffcc33" fill-rule="evenodd" stroke="none"/>
      <path d="M45.45 -34.2 L58.05 -18.3 45.45 11.7 39.1 4.1 32.8 -3.6 45.45 -34.2" fill="#ffff00" fill-rule="evenodd" stroke="none"/>
      <path d="M-44.95 -6.15 L-77.15 -44.8 -17.35 8.2 -4.85 42.9 -17.75 66.5 -20.6 47.85 -26.2 16.2 -44.95 -6.15" fill="#bd8531" fill-rule="evenodd" stroke="none"/>
      <path d="M-77.15 -44.8 L-44.95 -6.15 -37.2 35.2 -20.6 47.85 -17.75 66.5 -32.45 57.05 -50.25 32.4 -77.15 -44.8" fill="#96522a" fill-rule="evenodd" stroke="none"/>
      <path d="M-44.95 -6.15 L-26.2 16.2 -20.6 47.85 -37.2 35.2 -44.95 -6.15" fill="#77421f" fill-rule="evenodd" stroke="none"/>
    </g>
    <linearGradient gradientTransform="matrix(0.045, -0.0259, -0.0259, -0.045, 65.45, 79.25)" gradientUnits="userSpaceOnUse" id="gradient0" spreadMethod="pad" x1="-819.2" x2="819.2">
      <stop offset="0.25882352941176473" stop-color="#592c79"/>
      <stop offset="0.7333333333333333" stop-color="#9f2f59"/>
      <stop offset="1.0" stop-color="#d04f46"/>
    </linearGradient>
  </defs>
</svg>
