<?xml version="1.0" encoding="UTF-8" standalone="no"?>
<svg xmlns:xlink="http://www.w3.org/1999/xlink" height="253.8px" width="253.8px" xmlns="http://www.w3.org/2000/svg">
  <g transform="matrix(1.0, 0.0, 0.0, 1.0, 0.25, 1.0)">
    <use height="253.8" transform="matrix(1.0, 0.0, 0.0, 1.0, -0.25, -1.0)" width="253.8" xlink:href="#shape0"/>
    <use height="149.4" id="face" transform="matrix(1.0, 0.0, 0.0, 1.0, 67.3, 51.1)" width="122.5" xlink:href="#sprite0"/>
    <use height="103.75" transform="matrix(2.1935, 0.0, 0.0, 2.1935, 58.5728, 6.9681)" width="59.7" xlink:href="#sprite3"/>
  </g>
  <defs>
    <g id="shape0" transform="matrix(1.0, 0.0, 0.0, 1.0, 0.25, 1.0)">
      <path d="M-0.25 -1.0 L253.55 -1.0 253.55 252.8 -0.25 252.8 -0.25 -1.0" fill="#0099ff" fill-opacity="0.0" fill-rule="evenodd" stroke="none"/>
    </g>
    <g id="sprite0" transform="matrix(1.0, 0.0, 0.0, 1.0, 64.5, 70.7)">
      <use height="69.1" transform="matrix(2.1622, 0.0, 0.0, 2.1622, -64.489, -70.7025)" width="56.65" xlink:href="#sprite1"/>
    </g>
    <g id="sprite1" transform="matrix(1.0, 0.0, 0.0, 1.0, 28.3, 34.55)">
      <use height="69.1" transform="matrix(1.0, 0.0, 0.0, 1.0, -28.3, -34.55)" width="56.65" xlink:href="#shape1"/>
      <use height="20.1" transform="matrix(1.0, 0.0, 0.0, 1.0, 2.4, -0.3)" width="8.7" xlink:href="#sprite2"/>
      <use height="20.1" transform="matrix(1.0, 0.0, 0.0, 1.0, 17.85, -10.3)" width="8.7" xlink:href="#sprite2"/>
    </g>
    <g id="shape1" transform="matrix(1.0, 0.0, 0.0, 1.0, 28.3, 34.55)">
      <path d="M-28.3 -16.6 L-0.15 -34.55 28.0 -16.6 -0.15 1.3 -28.3 -16.6" fill="#663300" fill-rule="evenodd" stroke="none"/>
      <path d="M-0.15 34.55 L-28.3 16.65 -28.3 -16.6 -0.15 1.3 -0.15 34.55" fill="#966300" fill-rule="evenodd" stroke="none"/>
      <path d="M28.0 -16.6 L28.35 16.65 -0.15 34.55 -0.15 1.3 28.0 -16.6" fill="#c68300" fill-rule="evenodd" stroke="none"/>
    </g>
    <g id="sprite2" transform="matrix(1.0, 0.0, 0.0, 1.0, 3.6, 11.95)">
      <use height="20.1" transform="matrix(1.0, 0.0, 0.0, 1.0, -3.6, -11.95)" width="8.7" xlink:href="#shape2"/>
    </g>
    <g id="shape2" transform="matrix(1.0, 0.0, 0.0, 1.0, 3.6, 11.95)">
      <path d="M5.1 -11.95 L5.05 2.55 -3.6 8.15 -3.6 -6.55 5.1 -11.95" fill="#ffffff" fill-rule="evenodd" stroke="none"/>
      <path d="M5.05 -5.65 L5.0 2.6 -0.25 5.85 -0.25 -2.4 5.05 -5.65" fill="#000000" fill-rule="evenodd" stroke="none"/>
    </g>
    <g id="sprite3" transform="matrix(1.0, 0.0, 0.0, 1.0, 29.85, 52.35)">
      <use height="88.9" transform="matrix(1.0, 0.0, 0.0, 1.0, -26.25, -37.5)" width="55.95" xlink:href="#shape3"/>
      <use height="81.15" transform="matrix(0.8073, -0.1973, 0.1973, 0.8073, -28.0473, -49.1655)" width="16.2" xlink:href="#sprite4"/>
      <use height="81.15" transform="matrix(0.5282, -0.1291, 0.1291, 0.5282, -29.8531, -31.2215)" width="16.2" xlink:href="#sprite4"/>
      <use height="81.15" transform="matrix(0.5436, 0.0141, -0.0141, 0.5436, -7.9554, -31.6785)" width="16.2" xlink:href="#sprite4"/>
      <use height="24.3" transform="matrix(1.0, 0.0, 0.0, 1.0, -26.7, -19.55)" width="56.55" xlink:href="#shape5"/>
    </g>
    <g id="shape3" transform="matrix(1.0, 0.0, 0.0, 1.0, 26.25, 37.5)">
      <path d="M-12.35 -28.85 L15.6 -10.45 1.5 -1.35 1.5 -2.75 -21.0 -16.35 -26.25 -20.2 -12.35 -28.85" fill="#333333" fill-rule="evenodd" stroke="none"/>
      <path d="M1.5 -1.35 L1.5 51.4 Q-12.35 42.5 -26.25 33.55 L-26.25 -20.2 -21.0 -16.35 1.5 -2.75 1.5 -1.35" fill="#000000" fill-rule="evenodd" stroke="none"/>
      <path d="M-12.35 -28.85 L1.55 -37.5 29.7 -19.55 15.6 -10.45 -12.35 -28.85" fill="#666666" fill-rule="evenodd" stroke="none"/>
    </g>
    <g id="sprite4" transform="matrix(1.0, 0.0, 0.0, 1.0, 8.1, 81.15)">
      <use height="81.15" transform="matrix(1.0, 0.0, 0.0, 1.0, -8.1, -81.15)" width="16.2" xlink:href="#shape4"/>
    </g>
    <g id="shape4" transform="matrix(1.0, 0.0, 0.0, 1.0, 8.1, 81.15)">
      <path d="M8.1 -49.55 Q8.1 -36.45 5.7 -27.25 3.35 -18.0 0.0 -18.0 -3.35 -18.0 -5.75 -27.25 -8.1 -36.45 -8.1 -49.6 -8.1 -62.7 -5.75 -71.95 -3.35 -81.15 0.0 -81.15 3.35 -81.15 5.7 -71.95 8.1 -62.7 8.1 -49.55" fill="url(#gradient0)" fill-rule="evenodd" stroke="none"/>
      <path d="M-1.25 -79.4 L0.85 -79.4 0.85 0.0 -1.25 0.0 -1.25 -79.4" fill="#ffffff" fill-rule="evenodd" stroke="none"/>
    </g>
    <linearGradient gradientTransform="matrix(5.0E-4, 0.0247, -0.0099, 2.0E-4, -0.05, -52.8)" gradientUnits="userSpaceOnUse" id="gradient0" spreadMethod="pad" x1="-819.2" x2="819.2">
      <stop offset="0.0" stop-color="#00b332"/>
      <stop offset="1.0" stop-color="#ffe225"/>
    </linearGradient>
    <g id="shape5" transform="matrix(1.0, 0.0, 0.0, 1.0, 26.7, 19.55)">
      <path d="M2.25 -2.25 L29.85 -19.55 29.85 -12.65 2.25 4.75 2.25 -2.25" fill="#ff3300" fill-rule="evenodd" stroke="none"/>
      <path d="M2.25 4.75 L-26.7 -13.25 -26.7 -19.45 2.25 -2.25 2.25 4.75 M1.35 4.7 L1.35 4.65 1.35 4.7" fill="#990000" fill-rule="evenodd" stroke="none"/>
    </g>
  </defs>
</svg>
