<?xml version="1.0" encoding="UTF-8" standalone="no"?>
<svg xmlns:xlink="http://www.w3.org/1999/xlink" height="253.8px" width="253.8px" xmlns="http://www.w3.org/2000/svg">
  <g transform="matrix(1.0, 0.0, 0.0, 1.0, 0.25, 1.0)">
    <use height="253.8" transform="matrix(1.0, 0.0, 0.0, 1.0, -0.25, -1.0)" width="253.8" xlink:href="#shape0"/>
    <use height="149.4" id="face" transform="matrix(1.0, 0.0, 0.0, 1.0, 67.3, 51.1)" width="122.5" xlink:href="#sprite0"/>
    <use height="81.3" transform="matrix(2.1935, 0.0, 0.0, 2.1935, 53.2067, 33.6083)" width="73.0" xlink:href="#sprite3"/>
  </g>
  <defs>
    <g id="shape0" transform="matrix(1.0, 0.0, 0.0, 1.0, 0.25, 1.0)">
      <path d="M-0.25 -1.0 L253.55 -1.0 253.55 252.8 -0.25 252.8 -0.25 -1.0" fill="#0099ff" fill-opacity="0.0" fill-rule="evenodd" stroke="none"/>
    </g>
    <g id="sprite0" transform="matrix(1.0, 0.0, 0.0, 1.0, 64.5, 70.7)">
      <use height="69.1" transform="matrix(2.1622, 0.0, 0.0, 2.1622, -64.489, -70.7025)" width="56.65" xlink:href="#sprite1"/>
    </g>
    <g id="sprite1" transform="matrix(1.0, 0.0, 0.0, 1.0, 28.3, 34.55)">
      <use height="69.1" transform="matrix(1.0, 0.0, 0.0, 1.0, -28.3, -34.55)" width="56.65" xlink:href="#shape1"/>
      <use height="20.1" transform="matrix(1.0, 0.0, 0.0, 1.0, 2.4, -0.3)" width="8.7" xlink:href="#sprite2"/>
      <use height="20.1" transform="matrix(1.0, 0.0, 0.0, 1.0, 17.85, -10.3)" width="8.7" xlink:href="#sprite2"/>
    </g>
    <g id="shape1" transform="matrix(1.0, 0.0, 0.0, 1.0, 28.3, 34.55)">
      <path d="M-28.3 -16.6 L-0.15 -34.55 28.0 -16.6 -0.15 1.3 -28.3 -16.6" fill="#663300" fill-rule="evenodd" stroke="none"/>
      <path d="M-0.15 34.55 L-28.3 16.65 -28.3 -16.6 -0.15 1.3 -0.15 34.55" fill="#966300" fill-rule="evenodd" stroke="none"/>
      <path d="M28.0 -16.6 L28.35 16.65 -0.15 34.55 -0.15 1.3 28.0 -16.6" fill="#c68300" fill-rule="evenodd" stroke="none"/>
    </g>
    <g id="sprite2" transform="matrix(1.0, 0.0, 0.0, 1.0, 3.6, 11.95)">
      <use height="20.1" transform="matrix(1.0, 0.0, 0.0, 1.0, -3.6, -11.95)" width="8.7" xlink:href="#shape2"/>
    </g>
    <g id="shape2" transform="matrix(1.0, 0.0, 0.0, 1.0, 3.6, 11.95)">
      <path d="M5.1 -11.95 L5.05 2.55 -3.6 8.15 -3.6 -6.55 5.1 -11.95" fill="#ffffff" fill-rule="evenodd" stroke="none"/>
      <path d="M5.05 -5.65 L5.0 2.6 -0.25 5.85 -0.25 -2.4 5.05 -5.65" fill="#000000" fill-rule="evenodd" stroke="none"/>
    </g>
    <g id="sprite3" transform="matrix(1.0, 0.0, 0.0, 1.0, 38.2, 38.45)">
      <use height="81.3" transform="matrix(1.0, 0.0, 0.0, 1.0, -38.2, -38.45)" width="73.0" xlink:href="#shape3"/>
    </g>
    <g id="shape3" transform="matrix(1.0, 0.0, 0.0, 1.0, 38.2, 38.45)">
      <path d="M-25.25 -23.6 L-2.35 -30.5 25.25 -12.65 17.05 -3.35 -13.05 -23.6 -25.25 -23.6" fill="#ffffff" fill-rule="evenodd" stroke="none"/>
      <path d="M17.05 -3.35 L-3.95 5.1 -36.9 -14.8 -25.25 -23.6 -13.05 -23.6 17.05 -3.35" fill="#ffe83d" fill-rule="evenodd" stroke="none"/>
      <path d="M-8.05 19.35 L3.3 42.85 -38.2 21.05 -37.75 2.65 -8.05 19.35" fill="#ffa611" fill-rule="evenodd" stroke="none"/>
      <path d="M-3.95 5.1 L-8.15 19.15 -8.05 19.35 -37.75 2.65 -36.9 -14.8 -3.95 5.1" fill="#fec53b" fill-rule="evenodd" stroke="none"/>
      <path d="M23.9 0.8 L34.8 25.8 23.9 18.15 23.9 0.8" fill="#fee949" fill-rule="evenodd" stroke="none"/>
      <path d="M11.65 -26.15 L8.75 -17.85 -0.95 -12.2 1.55 -21.2 11.65 -26.15" fill="#ff4635" fill-rule="evenodd" stroke="none"/>
      <path d="M-9.25 -38.45 L11.65 -26.15 1.55 -21.2 -19.6 -33.4 -9.25 -38.45" fill="#cc1200" fill-rule="evenodd" stroke="none"/>
      <path d="M8.75 -17.85 L8.75 -13.85 4.35 -11.95 -0.95 -7.5 -0.95 -12.2 8.75 -17.85" fill="#2b2b2b" fill-rule="evenodd" stroke="none"/>
      <path d="M-31.55 -29.65 L-21.05 -35.25 -9.25 -38.45 -19.6 -33.4 -31.55 -29.65" fill="#a00d00" fill-rule="evenodd" stroke="none"/>
      <path d="M-0.95 -7.5 L-26.25 -22.4 -33.85 -16.6 -25.4 -26.15 -0.95 -12.2 -0.95 -7.5" fill="#000800" fill-rule="evenodd" stroke="none"/>
      <path d="M-33.85 -16.6 L-31.55 -29.65 -19.6 -33.4 1.55 -21.2 -0.95 -12.2 -25.4 -26.15 -33.85 -16.6" fill="#660800" fill-rule="evenodd" stroke="none"/>
    </g>
  </defs>
</svg>
