<?xml version="1.0" encoding="UTF-8" standalone="no"?>
<svg xmlns:xlink="http://www.w3.org/1999/xlink" height="253.8px" width="253.8px" xmlns="http://www.w3.org/2000/svg">
  <g transform="matrix(1.0, 0.0, 0.0, 1.0, 0.25, 1.0)">
    <use height="253.8" transform="matrix(1.0, 0.0, 0.0, 1.0, -0.25, -1.0)" width="253.8" xlink:href="#shape0"/>
    <use height="149.4" id="face" transform="matrix(1.0, 0.0, 0.0, 1.0, 67.3, 51.1)" width="122.5" xlink:href="#sprite0"/>
    <use height="182.6" transform="matrix(1.0, 0.0, 0.0, 1.0, 13.5, 1.95)" width="176.8" xlink:href="#sprite3"/>
  </g>
  <defs>
    <g id="shape0" transform="matrix(1.0, 0.0, 0.0, 1.0, 0.25, 1.0)">
      <path d="M-0.25 -1.0 L253.55 -1.0 253.55 252.8 -0.25 252.8 -0.25 -1.0" fill="#0099ff" fill-opacity="0.0" fill-rule="evenodd" stroke="none"/>
    </g>
    <g id="sprite0" transform="matrix(1.0, 0.0, 0.0, 1.0, 64.5, 70.7)">
      <use height="69.1" transform="matrix(2.1622, 0.0, 0.0, 2.1622, -64.489, -70.7025)" width="56.65" xlink:href="#sprite1"/>
    </g>
    <g id="sprite1" transform="matrix(1.0, 0.0, 0.0, 1.0, 28.3, 34.55)">
      <use height="69.1" transform="matrix(1.0, 0.0, 0.0, 1.0, -28.3, -34.55)" width="56.65" xlink:href="#shape1"/>
      <use height="20.1" transform="matrix(1.0, 0.0, 0.0, 1.0, 2.4, -0.3)" width="8.7" xlink:href="#sprite2"/>
      <use height="20.1" transform="matrix(1.0, 0.0, 0.0, 1.0, 17.85, -10.3)" width="8.7" xlink:href="#sprite2"/>
    </g>
    <g id="shape1" transform="matrix(1.0, 0.0, 0.0, 1.0, 28.3, 34.55)">
      <path d="M-28.3 -16.6 L-0.15 -34.55 28.0 -16.6 -0.15 1.3 -28.3 -16.6" fill="#663300" fill-rule="evenodd" stroke="none"/>
      <path d="M-0.15 34.55 L-28.3 16.65 -28.3 -16.6 -0.15 1.3 -0.15 34.55" fill="#966300" fill-rule="evenodd" stroke="none"/>
      <path d="M28.0 -16.6 L28.35 16.65 -0.15 34.55 -0.15 1.3 28.0 -16.6" fill="#c68300" fill-rule="evenodd" stroke="none"/>
    </g>
    <g id="sprite2" transform="matrix(1.0, 0.0, 0.0, 1.0, 3.6, 11.95)">
      <use height="20.1" transform="matrix(1.0, 0.0, 0.0, 1.0, -3.6, -11.95)" width="8.7" xlink:href="#shape2"/>
    </g>
    <g id="shape2" transform="matrix(1.0, 0.0, 0.0, 1.0, 3.6, 11.95)">
      <path d="M5.1 -11.95 L5.05 2.55 -3.6 8.15 -3.6 -6.55 5.1 -11.95" fill="#ffffff" fill-rule="evenodd" stroke="none"/>
      <path d="M5.05 -5.65 L5.0 2.6 -0.25 5.85 -0.25 -2.4 5.05 -5.65" fill="#000000" fill-rule="evenodd" stroke="none"/>
    </g>
    <g id="sprite3" transform="matrix(1.0, 0.0, 0.0, 1.0, 110.3, 83.0)">
      <use height="182.6" transform="matrix(1.0, 0.0, 0.0, 1.0, -87.25, -83.0)" width="147.65" xlink:href="#shape3"/>
      <use height="74.15" transform="matrix(1.1613, 0.0, 0.0, 1.1613, -87.25, -36.45)" width="132.4" xlink:href="#sprite4"/>
      <use height="81.15" transform="matrix(0.6368, -1.2356, 1.2356, 0.6368, -110.3245, -14.1716)" width="16.2" xlink:href="#sprite5"/>
      <use height="23.5" transform="matrix(1.0, 0.0, 0.0, 1.0, -27.65, 10.2)" width="21.75" xlink:href="#shape6"/>
    </g>
    <g id="shape3" transform="matrix(1.0, 0.0, 0.0, 1.0, 87.25, 83.0)">
      <path d="M-55.45 21.9 L-69.2 13.3 -40.3 9.4 -55.45 21.9" fill="#464646" fill-rule="evenodd" stroke="none"/>
      <path d="M-69.2 13.3 L-55.45 21.9 -54.35 77.65 -69.2 13.3" fill="#000000" fill-rule="evenodd" stroke="none"/>
      <path d="M-55.45 21.9 L-40.3 9.4 -54.35 77.65 -55.45 21.9" fill="#666666" fill-rule="evenodd" stroke="none"/>
      <path d="M-20.3 23.35 L-35.45 35.85 -49.2 27.25 -20.3 23.35" fill="#464646" fill-rule="evenodd" stroke="none"/>
      <path d="M-35.45 35.85 L-20.3 23.35 -34.35 91.6 -35.45 35.85" fill="#666666" fill-rule="evenodd" stroke="none"/>
      <path d="M-49.2 27.25 L-35.45 35.85 -34.35 91.6 -49.2 27.25" fill="#000000" fill-rule="evenodd" stroke="none"/>
      <path d="M-29.2 35.25 L-0.3 31.35 -15.45 43.85 -29.2 35.25" fill="#464646" fill-rule="evenodd" stroke="none"/>
      <path d="M-0.3 31.35 L-14.35 99.6 -15.45 43.85 -0.3 31.35" fill="#666666" fill-rule="evenodd" stroke="none"/>
      <path d="M-14.35 99.6 L-29.2 35.25 -15.45 43.85 -14.35 99.6" fill="#000000" fill-rule="evenodd" stroke="none"/>
      <path d="M15.9 -43.5 L15.9 -18.0 -30.1 -83.0 15.9 -43.5" fill="#00e238" fill-rule="evenodd" stroke="none"/>
      <path d="M15.9 -18.0 L15.9 -43.5 60.4 -2.2 48.8 31.95 15.9 -18.0" fill="#00cc33" fill-rule="evenodd" stroke="none"/>
      <path d="M-44.4 -49.3 L-63.0 -12.7 -87.25 -22.75 -44.4 -49.3 M15.9 -43.5 L40.7 -36.15 60.4 -2.2 15.9 -43.5" fill="#003300" fill-rule="evenodd" stroke="none"/>
      <path d="M-44.4 -49.3 L15.9 -18.0 48.8 31.95 -63.0 -12.7 -44.4 -49.3" fill="#339900" fill-rule="evenodd" stroke="none"/>
      <path d="M-30.1 -83.0 L15.9 -18.0 -44.4 -49.3 -30.1 -83.0" fill="#277700" fill-rule="evenodd" stroke="none"/>
    </g>
    <g id="sprite4" transform="matrix(1.0, 0.0, 0.0, 1.0, 0.0, 0.0)">
      <use height="74.15" transform="matrix(1.0, 0.0, 0.0, 1.0, 0.0, 0.0)" width="132.4" xlink:href="#shape4"/>
    </g>
    <g id="shape4" transform="matrix(1.0, 0.0, 0.0, 1.0, 0.0, 0.0)">
      <path d="M117.15 58.65 L78.05 74.15 14.5 48.6 0.0 11.55 117.15 58.65 117.15 29.25 110.15 0.0 132.4 37.8 117.15 58.65" fill="#006600" fill-rule="evenodd" stroke="none"/>
    </g>
    <g id="sprite5" transform="matrix(1.0, 0.0, 0.0, 1.0, 8.1, 81.15)">
      <use height="81.15" transform="matrix(1.0, 0.0, 0.0, 1.0, -8.1, -81.15)" width="16.2" xlink:href="#shape5"/>
    </g>
    <g id="shape5" transform="matrix(1.0, 0.0, 0.0, 1.0, 8.1, 81.15)">
      <path d="M8.1 -49.55 Q8.1 -36.45 5.7 -27.25 3.35 -18.0 0.0 -18.0 -3.35 -18.0 -5.75 -27.25 -8.1 -36.45 -8.1 -49.6 -8.1 -62.7 -5.75 -71.95 -3.35 -81.15 0.0 -81.15 3.35 -81.15 5.7 -71.95 8.1 -62.7 8.1 -49.55" fill="#cc0000" fill-rule="evenodd" stroke="none"/>
      <path d="M5.95 -69.45 L0.45 -64.5 0.45 -66.3 5.95 -69.45 M-6.15 -69.65 L-1.35 -66.4 -1.25 -63.6 -6.15 -69.65" fill="#000000" fill-rule="evenodd" stroke="none"/>
      <path d="M-1.25 -79.4 L0.85 -79.4 0.85 0.0 -1.25 0.0 -1.25 -79.4" fill="#ffffff" fill-rule="evenodd" stroke="none"/>
      <path d="M7.55 -36.3 L0.85 -30.25 0.85 -32.45 7.55 -36.3 M-7.2 -36.5 L-1.35 -32.55 -1.25 -29.15 -7.2 -36.5" fill="#000000" fill-rule="evenodd" stroke="none"/>
      <path d="M7.55 -46.95 L0.85 -40.9 0.85 -43.1 7.55 -46.95 M-7.2 -47.15 L-1.35 -43.2 -1.25 -39.8 -7.2 -47.15" fill="#000000" fill-rule="evenodd" stroke="none"/>
      <path d="M7.5 -58.55 L0.8 -52.5 0.8 -54.7 7.5 -58.55 M-7.25 -58.75 L-1.4 -54.8 -1.3 -51.4 -7.25 -58.75" fill="#000000" fill-rule="evenodd" stroke="none"/>
    </g>
    <g id="shape6" transform="matrix(1.0, 0.0, 0.0, 1.0, 27.65, -10.2)">
      <path d="M-20.65 10.2 L-15.9 13.2 -23.15 28.95 -27.65 26.45 -20.65 10.2" fill="#270000" fill-rule="evenodd" stroke="none"/>
      <path d="M-10.65 14.95 L-5.9 17.95 -13.15 33.7 -17.65 31.2 -10.65 14.95" fill="#270000" fill-rule="evenodd" stroke="none"/>
    </g>
  </defs>
</svg>
