<?xml version="1.0" encoding="UTF-8" standalone="no"?>
<svg xmlns:xlink="http://www.w3.org/1999/xlink" height="253.8px" width="253.8px" xmlns="http://www.w3.org/2000/svg">
  <g transform="matrix(1.0, 0.0, 0.0, 1.0, 0.25, 1.0)">
    <use height="253.8" transform="matrix(1.0, 0.0, 0.0, 1.0, -0.25, -1.0)" width="253.8" xlink:href="#shape0"/>
    <use height="149.4" id="face" transform="matrix(1.0, 0.0, 0.0, 1.0, 67.3, 51.1)" width="122.5" xlink:href="#sprite0"/>
  </g>
  <defs>
    <g id="shape0" transform="matrix(1.0, 0.0, 0.0, 1.0, 0.25, 1.0)">
      <path d="M-0.25 -1.0 L253.55 -1.0 253.55 252.8 -0.25 252.8 -0.25 -1.0" fill="#0099ff" fill-opacity="0.0" fill-rule="evenodd" stroke="none"/>
    </g>
    <g id="sprite0" transform="matrix(1.0, 0.0, 0.0, 1.0, 64.5, 70.7)">
      <use height="69.1" transform="matrix(2.1622, 0.0, 0.0, 2.1622, -64.489, -70.7025)" width="56.65" xlink:href="#sprite1"/>
    </g>
    <g id="sprite1" transform="matrix(1.0, 0.0, 0.0, 1.0, 28.3, 34.55)">
      <use height="69.1" transform="matrix(1.0, 0.0, 0.0, 1.0, -28.3, -34.55)" width="56.65" xlink:href="#shape1"/>
      <use height="20.1" transform="matrix(1.0, 0.0, 0.0, 1.0, 2.4, -0.3)" width="8.7" xlink:href="#sprite2"/>
      <use height="20.1" transform="matrix(1.0, 0.0, 0.0, 1.0, 17.85, -10.3)" width="8.7" xlink:href="#sprite2"/>
    </g>
    <g id="shape1" transform="matrix(1.0, 0.0, 0.0, 1.0, 28.3, 34.55)">
      <path d="M-28.3 -16.6 L-0.15 -34.55 28.0 -16.6 -0.15 1.3 -28.3 -16.6" fill="#663300" fill-rule="evenodd" stroke="none"/>
      <path d="M-0.15 34.55 L-28.3 16.65 -28.3 -16.6 -0.15 1.3 -0.15 34.55" fill="#966300" fill-rule="evenodd" stroke="none"/>
      <path d="M28.0 -16.6 L28.35 16.65 -0.15 34.55 -0.15 1.3 28.0 -16.6" fill="#c68300" fill-rule="evenodd" stroke="none"/>
    </g>
    <g id="sprite2" transform="matrix(1.0, 0.0, 0.0, 1.0, 3.6, 11.95)">
      <use height="20.1" transform="matrix(1.0, 0.0, 0.0, 1.0, -3.6, -11.95)" width="8.7" xlink:href="#shape2"/>
    </g>
    <g id="shape2" transform="matrix(1.0, 0.0, 0.0, 1.0, 3.6, 11.95)">
      <path d="M5.1 -11.95 L5.05 2.55 -3.6 8.15 -3.6 -6.55 5.1 -11.95" fill="#ffffff" fill-rule="evenodd" stroke="none"/>
      <path d="M5.05 -5.65 L5.0 2.6 -0.25 5.85 -0.25 -2.4 5.05 -5.65" fill="#000000" fill-rule="evenodd" stroke="none"/>
    </g>
  </defs>
</svg>
