<?xml version="1.0" encoding="UTF-8" standalone="no"?>
<svg xmlns:xlink="http://www.w3.org/1999/xlink" height="253.8px" width="253.8px" xmlns="http://www.w3.org/2000/svg">
  <g transform="matrix(1.0, 0.0, 0.0, 1.0, 0.25, 1.0)">
    <use height="253.8" transform="matrix(1.0, 0.0, 0.0, 1.0, -0.25, -1.0)" width="253.8" xlink:href="#shape0"/>
    <use height="149.4" id="face" transform="matrix(1.0, 0.0, 0.0, 1.0, 67.3, 51.1)" width="122.5" xlink:href="#sprite0"/>
    <use height="76.25" transform="matrix(2.1935, 0.0, 0.0, 2.1935, 13.0697, 36.5244)" width="89.0" xlink:href="#sprite3"/>
  </g>
  <defs>
    <g id="shape0" transform="matrix(1.0, 0.0, 0.0, 1.0, 0.25, 1.0)">
      <path d="M-0.25 -1.0 L253.55 -1.0 253.55 252.8 -0.25 252.8 -0.25 -1.0" fill="#0099ff" fill-opacity="0.0" fill-rule="evenodd" stroke="none"/>
    </g>
    <g id="sprite0" transform="matrix(1.0, 0.0, 0.0, 1.0, 64.5, 70.7)">
      <use height="69.1" transform="matrix(2.1622, 0.0, 0.0, 2.1622, -64.489, -70.7025)" width="56.65" xlink:href="#sprite1"/>
    </g>
    <g id="sprite1" transform="matrix(1.0, 0.0, 0.0, 1.0, 28.3, 34.55)">
      <use height="69.1" transform="matrix(1.0, 0.0, 0.0, 1.0, -28.3, -34.55)" width="56.65" xlink:href="#shape1"/>
      <use height="20.1" transform="matrix(1.0, 0.0, 0.0, 1.0, 2.4, -0.3)" width="8.7" xlink:href="#sprite2"/>
      <use height="20.1" transform="matrix(1.0, 0.0, 0.0, 1.0, 17.85, -10.3)" width="8.7" xlink:href="#sprite2"/>
    </g>
    <g id="shape1" transform="matrix(1.0, 0.0, 0.0, 1.0, 28.3, 34.55)">
      <path d="M-28.3 -16.6 L-0.15 -34.55 28.0 -16.6 -0.15 1.3 -28.3 -16.6" fill="#663300" fill-rule="evenodd" stroke="none"/>
      <path d="M-0.15 34.55 L-28.3 16.65 -28.3 -16.6 -0.15 1.3 -0.15 34.55" fill="#966300" fill-rule="evenodd" stroke="none"/>
      <path d="M28.0 -16.6 L28.35 16.65 -0.15 34.55 -0.15 1.3 28.0 -16.6" fill="#c68300" fill-rule="evenodd" stroke="none"/>
    </g>
    <g id="sprite2" transform="matrix(1.0, 0.0, 0.0, 1.0, 3.6, 11.95)">
      <use height="20.1" transform="matrix(1.0, 0.0, 0.0, 1.0, -3.6, -11.95)" width="8.7" xlink:href="#shape2"/>
    </g>
    <g id="shape2" transform="matrix(1.0, 0.0, 0.0, 1.0, 3.6, 11.95)">
      <path d="M5.1 -11.95 L5.05 2.55 -3.6 8.15 -3.6 -6.55 5.1 -11.95" fill="#ffffff" fill-rule="evenodd" stroke="none"/>
      <path d="M5.05 -5.65 L5.0 2.6 -0.25 5.85 -0.25 -2.4 5.05 -5.65" fill="#000000" fill-rule="evenodd" stroke="none"/>
    </g>
    <g id="sprite3" transform="matrix(1.0, 0.0, 0.0, 1.0, 51.05, 30.1)">
      <use height="76.25" transform="matrix(1.0, 0.0, 0.0, 1.0, -51.05, -30.1)" width="89.0" xlink:href="#shape3"/>
    </g>
    <g id="shape3" transform="matrix(1.0, 0.0, 0.0, 1.0, 51.05, 30.1)">
      <path d="M21.8 -21.0 L29.75 -11.1 5.8 2.55 4.6 -11.6 21.8 -21.0" fill="#8e8c89" fill-rule="evenodd" stroke="none"/>
      <path d="M29.75 -11.1 L37.95 -3.9 14.65 9.2 5.8 2.55 29.75 -11.1" fill="#636363" fill-rule="evenodd" stroke="none"/>
      <path d="M-14.95 -20.35 L3.4 -30.1 21.8 -21.0 4.6 -11.6 -14.95 -20.35" fill="#666666" fill-rule="evenodd" stroke="none"/>
      <path d="M-1.45 13.2 L-6.7 29.45 -23.65 38.3 -17.3 21.85 -6.7 29.45 -7.4 10.35 -1.45 13.2 M-51.05 26.6 L-37.5 11.3 -29.3 16.0 -51.05 26.6 M-23.55 -10.75 L-14.95 -20.35 4.6 -11.6 5.8 2.55 -23.55 -10.75 M-29.3 16.0 L-17.3 21.85 -36.35 32.15 -29.3 16.0 -29.3 -1.35 -17.3 5.5 -7.55 10.3 -17.3 21.85 -17.3 5.5 -29.3 16.0 M-39.85 15.75 L-39.45 15.9 -40.1 15.65 -39.85 15.75" fill="#484a4c" fill-rule="evenodd" stroke="none"/>
      <path d="M14.65 9.2 L-1.45 13.2 -7.4 10.35 -6.7 29.45 -17.3 21.85 -23.65 38.3 -6.7 29.45 -3.85 46.15 -23.65 38.3 -36.35 32.15 -51.05 26.6 -29.3 16.0 -37.5 11.3 -29.3 -1.35 -23.55 -10.75 5.8 2.55 14.65 9.2 M-17.3 5.5 L-17.3 21.85 -7.55 10.3 -17.3 5.5 -29.3 -1.35 -29.3 16.0 -17.3 5.5 M-39.85 15.75 L-40.1 15.65 -39.45 15.9 -39.85 15.75 M-29.3 16.0 L-36.35 32.15 -17.3 21.85 -29.3 16.0" fill="#262728" fill-rule="evenodd" stroke="none"/>
      <path d="M-7.1 -9.5 L10.25 -14.4 11.8 -1.75 -7.1 -9.5" fill="#cc0000" fill-rule="evenodd" stroke="none"/>
      <path d="M-7.1 -9.5 L3.55 -18.25 10.25 -14.4 -7.1 -9.5" fill="#ff6633" fill-rule="evenodd" stroke="none"/>
      <path d="M23.3 -21.0 L18.75 -5.1 17.85 -24.95 23.3 -21.0" fill="#ff3300" fill-rule="evenodd" stroke="none"/>
      <path d="M23.3 -21.0 L30.35 -26.75 18.75 -5.1 23.3 -21.0" fill="#cc0000" fill-rule="evenodd" stroke="none"/>
      <path d="M30.35 -26.75 L23.3 -21.0 17.85 -24.95 30.35 -26.75" fill="#ff6633" fill-rule="evenodd" stroke="none"/>
    </g>
  </defs>
</svg>
