<?xml version="1.0" encoding="UTF-8" standalone="no"?>
<svg xmlns:xlink="http://www.w3.org/1999/xlink" height="253.8px" width="253.8px" xmlns="http://www.w3.org/2000/svg">
  <g transform="matrix(1.0, 0.0, 0.0, 1.0, 0.25, 1.0)">
    <use height="253.8" transform="matrix(1.0, 0.0, 0.0, 1.0, -0.25, -1.0)" width="253.8" xlink:href="#shape0"/>
    <use height="149.4" id="face" transform="matrix(1.0, 0.0, 0.0, 1.0, 67.3, 51.1)" width="122.5" xlink:href="#sprite0"/>
    <use height="68.35" transform="matrix(2.1935, 0.0, 0.0, 2.1935, 57.4712, 3.4762)" width="66.6" xlink:href="#sprite3"/>
  </g>
  <defs>
    <g id="shape0" transform="matrix(1.0, 0.0, 0.0, 1.0, 0.25, 1.0)">
      <path d="M-0.25 -1.0 L253.55 -1.0 253.55 252.8 -0.25 252.8 -0.25 -1.0" fill="#0099ff" fill-opacity="0.0" fill-rule="evenodd" stroke="none"/>
    </g>
    <g id="sprite0" transform="matrix(1.0, 0.0, 0.0, 1.0, 64.5, 70.7)">
      <use height="69.1" transform="matrix(2.1622, 0.0, 0.0, 2.1622, -64.489, -70.7025)" width="56.65" xlink:href="#sprite1"/>
    </g>
    <g id="sprite1" transform="matrix(1.0, 0.0, 0.0, 1.0, 28.3, 34.55)">
      <use height="69.1" transform="matrix(1.0, 0.0, 0.0, 1.0, -28.3, -34.55)" width="56.65" xlink:href="#shape1"/>
      <use height="20.1" transform="matrix(1.0, 0.0, 0.0, 1.0, 2.4, -0.3)" width="8.7" xlink:href="#sprite2"/>
      <use height="20.1" transform="matrix(1.0, 0.0, 0.0, 1.0, 17.85, -10.3)" width="8.7" xlink:href="#sprite2"/>
    </g>
    <g id="shape1" transform="matrix(1.0, 0.0, 0.0, 1.0, 28.3, 34.55)">
      <path d="M-28.3 -16.6 L-0.15 -34.55 28.0 -16.6 -0.15 1.3 -28.3 -16.6" fill="#663300" fill-rule="evenodd" stroke="none"/>
      <path d="M-0.15 34.55 L-28.3 16.65 -28.3 -16.6 -0.15 1.3 -0.15 34.55" fill="#966300" fill-rule="evenodd" stroke="none"/>
      <path d="M28.0 -16.6 L28.35 16.65 -0.15 34.55 -0.15 1.3 28.0 -16.6" fill="#c68300" fill-rule="evenodd" stroke="none"/>
    </g>
    <g id="sprite2" transform="matrix(1.0, 0.0, 0.0, 1.0, 3.6, 11.95)">
      <use height="20.1" transform="matrix(1.0, 0.0, 0.0, 1.0, -3.6, -11.95)" width="8.7" xlink:href="#shape2"/>
    </g>
    <g id="shape2" transform="matrix(1.0, 0.0, 0.0, 1.0, 3.6, 11.95)">
      <path d="M5.1 -11.95 L5.05 2.55 -3.6 8.15 -3.6 -6.55 5.1 -11.95" fill="#ffffff" fill-rule="evenodd" stroke="none"/>
      <path d="M5.05 -5.65 L5.0 2.6 -0.25 5.85 -0.25 -2.4 5.05 -5.65" fill="#000000" fill-rule="evenodd" stroke="none"/>
    </g>
    <g id="sprite3" transform="matrix(1.0, 0.0, 0.0, 1.0, 35.8, 58.25)">
      <use height="36.45" transform="matrix(0.8023, -0.4042, 0.4042, 0.8023, -2.8844, -48.6941)" width="23.65" xlink:href="#sprite4"/>
      <use height="57.9" transform="matrix(1.0, 0.0, 0.0, 1.0, -33.0, -47.8)" width="59.15" xlink:href="#shape4"/>
      <use height="36.45" transform="matrix(-0.8984, 0.0, 0.0, 0.8984, -14.55, -40.9969)" width="23.65" xlink:href="#sprite4"/>
    </g>
    <g id="sprite4" transform="matrix(1.0, 0.0, 0.0, 1.0, 0.0, 36.45)">
      <use height="36.45" transform="matrix(1.0, 0.0, 0.0, 1.0, 0.0, -36.45)" width="23.65" xlink:href="#shape3"/>
    </g>
    <g id="shape3" transform="matrix(1.0, 0.0, 0.0, 1.0, 0.0, 36.45)">
      <path d="M11.7 -14.5 L23.65 -36.45 21.2 -14.7 11.7 -14.5" fill="#ffffff" fill-rule="evenodd" stroke="none"/>
      <path d="M0.0 0.0 L11.7 -14.5 21.2 -14.7 21.2 -14.65 14.55 -8.2 0.0 0.0" fill="#eaeaea" fill-rule="evenodd" stroke="none"/>
      <path d="M9.95 -19.8 L11.7 -14.5 0.0 0.0 0.0 -17.8 9.9 -19.75 9.95 -19.8" fill="#c9c9c9" fill-rule="evenodd" stroke="none"/>
      <path d="M11.7 -14.5 L9.95 -19.8 23.65 -36.45 11.7 -14.5" fill="#adadad" fill-rule="evenodd" stroke="none"/>
    </g>
    <g id="shape4" transform="matrix(1.0, 0.0, 0.0, 1.0, 33.0, 47.8)">
      <path d="M12.6 -10.6 L9.3 -27.25 18.0 -36.2 26.15 -22.15 12.6 -10.6" fill="#707070" fill-rule="evenodd" stroke="none"/>
      <path d="M18.0 -36.2 L9.3 -27.25 -4.25 -47.8 18.0 -36.2" fill="#8e8e8e" fill-rule="evenodd" stroke="none"/>
      <path d="M12.6 -10.6 L26.15 -22.15 26.15 -14.7 13.75 -6.55 13.75 6.5 7.65 10.1 7.65 -3.4 -4.25 3.6 -4.25 -3.7 -19.95 -11.4 -18.95 -27.95 -4.25 -21.4 -4.25 -3.7 12.6 -10.6" fill="#383838" fill-rule="evenodd" stroke="none"/>
      <path d="M9.3 -27.25 L12.6 -10.6 -4.25 -3.7 -4.25 -21.4 9.3 -27.25" fill="#515151" fill-rule="evenodd" stroke="none"/>
      <path d="M-4.25 -47.8 L-4.25 -21.4 -18.95 -27.95 -4.25 -47.8" fill="#494949" fill-rule="evenodd" stroke="none"/>
      <path d="M-25.9 -34.8 L-4.25 -47.8 -18.95 -27.95 -25.9 -34.8" fill="#2d2d2d" fill-rule="evenodd" stroke="none"/>
      <path d="M-4.25 3.6 L-33.0 -9.7 -33.0 -18.45 -19.95 -11.4 -4.25 -3.7 -4.25 3.6" fill="#000000" fill-rule="evenodd" stroke="none"/>
      <path d="M-33.0 -18.45 L-25.9 -34.8 -18.95 -27.95 -19.95 -11.4 -33.0 -18.45" fill="#212121" fill-rule="evenodd" stroke="none"/>
      <path d="M-4.25 -47.8 L9.3 -27.25 -4.25 -21.4 -4.25 -47.8" fill="#666666" fill-rule="evenodd" stroke="none"/>
    </g>
  </defs>
</svg>
