<?xml version="1.0" encoding="UTF-8" standalone="no"?>
<svg xmlns:xlink="http://www.w3.org/1999/xlink" height="253.8px" width="253.8px" xmlns="http://www.w3.org/2000/svg">
  <g transform="matrix(1.0, 0.0, 0.0, 1.0, 0.25, 1.0)">
    <use height="253.8" transform="matrix(1.0, 0.0, 0.0, 1.0, -0.25, -1.0)" width="253.8" xlink:href="#shape0"/>
    <use height="149.4" id="face" transform="matrix(1.0, 0.0, 0.0, 1.0, 67.3, 51.1)" width="122.5" xlink:href="#sprite0"/>
    <use height="164.85" transform="matrix(1.0, 0.0, 0.0, 1.0, 67.0, 35.4)" width="122.0" xlink:href="#shape3"/>
  </g>
  <defs>
    <g id="shape0" transform="matrix(1.0, 0.0, 0.0, 1.0, 0.25, 1.0)">
      <path d="M-0.25 -1.0 L253.55 -1.0 253.55 252.8 -0.25 252.8 -0.25 -1.0" fill="#0099ff" fill-opacity="0.0" fill-rule="evenodd" stroke="none"/>
    </g>
    <g id="sprite0" transform="matrix(1.0, 0.0, 0.0, 1.0, 64.5, 70.7)">
      <use height="69.1" transform="matrix(2.1622, 0.0, 0.0, 2.1622, -64.489, -70.7025)" width="56.65" xlink:href="#sprite1"/>
    </g>
    <g id="sprite1" transform="matrix(1.0, 0.0, 0.0, 1.0, 28.3, 34.55)">
      <use height="69.1" transform="matrix(1.0, 0.0, 0.0, 1.0, -28.3, -34.55)" width="56.65" xlink:href="#shape1"/>
      <use height="20.1" transform="matrix(1.0, 0.0, 0.0, 1.0, 2.4, -0.3)" width="8.7" xlink:href="#sprite2"/>
      <use height="20.1" transform="matrix(1.0, 0.0, 0.0, 1.0, 17.85, -10.3)" width="8.7" xlink:href="#sprite2"/>
    </g>
    <g id="shape1" transform="matrix(1.0, 0.0, 0.0, 1.0, 28.3, 34.55)">
      <path d="M-28.3 -16.6 L-0.15 -34.55 28.0 -16.6 -0.15 1.3 -28.3 -16.6" fill="#663300" fill-rule="evenodd" stroke="none"/>
      <path d="M-0.15 34.55 L-28.3 16.65 -28.3 -16.6 -0.15 1.3 -0.15 34.55" fill="#966300" fill-rule="evenodd" stroke="none"/>
      <path d="M28.0 -16.6 L28.35 16.65 -0.15 34.55 -0.15 1.3 28.0 -16.6" fill="#c68300" fill-rule="evenodd" stroke="none"/>
    </g>
    <g id="sprite2" transform="matrix(1.0, 0.0, 0.0, 1.0, 3.6, 11.95)">
      <use height="20.1" transform="matrix(1.0, 0.0, 0.0, 1.0, -3.6, -11.95)" width="8.7" xlink:href="#shape2"/>
    </g>
    <g id="shape2" transform="matrix(1.0, 0.0, 0.0, 1.0, 3.6, 11.95)">
      <path d="M5.1 -11.95 L5.05 2.55 -3.6 8.15 -3.6 -6.55 5.1 -11.95" fill="#ffffff" fill-rule="evenodd" stroke="none"/>
      <path d="M5.05 -5.65 L5.0 2.6 -0.25 5.85 -0.25 -2.4 5.05 -5.65" fill="#000000" fill-rule="evenodd" stroke="none"/>
    </g>
    <g id="shape3" transform="matrix(1.0, 0.0, 0.0, 1.0, -67.0, -35.4)">
      <path d="M80.1 55.75 L93.2 72.8 74.2 85.8 80.1 55.75" fill="#c26d6a" fill-rule="evenodd" stroke="none"/>
      <path d="M128.0 128.2 L67.0 89.45 128.0 50.6 189.0 89.45 128.0 128.2" fill="#c8c7c8" fill-rule="evenodd" stroke="none"/>
      <path d="M128.0 128.2 L128.0 200.25 67.0 161.5 67.0 89.45 128.0 128.2" fill="#728285" fill-rule="evenodd" stroke="none"/>
      <path d="M161.25 107.2 L97.45 108.8 67.0 89.45 92.95 72.65 161.25 107.2" fill="#969995" fill-rule="evenodd" stroke="none"/>
      <path d="M128.0 128.2 L189.0 89.45 168.55 129.55 128.0 128.2" fill="#e7e6e6" fill-rule="evenodd" stroke="none"/>
      <path d="M109.95 35.4 L146.65 56.75 132.35 61.45 94.4 41.8 109.95 35.4" fill="#fac6bf" fill-rule="evenodd" stroke="none"/>
      <path d="M161.25 107.2 L133.2 62.2 133.05 61.3 146.65 56.75 161.25 107.2" fill="#fcdccb" fill-rule="evenodd" stroke="none"/>
      <path d="M133.05 61.3 L161.25 107.2 86.2 77.05 80.1 55.75 94.4 41.8 133.05 61.3" fill="#f38581" fill-rule="evenodd" stroke="none"/>
      <path d="M94.4 41.8 L111.4 87.2 105.35 84.75 94.4 41.8" fill="#c26d6a" fill-rule="evenodd" stroke="none"/>
      <path d="M115.1 51.55 L138.45 98.05 132.35 95.6 115.1 51.55" fill="#c26d6a" fill-rule="evenodd" stroke="none"/>
      <path d="M98.05 128.75 L101.75 153.2 109.25 172.6 122.25 191.7 105.2 175.2 96.7 154.65 98.05 128.75" fill="#596668" fill-rule="evenodd" stroke="none"/>
      <path d="M88.05 153.0 L101.1 172.15 84.05 155.65 75.55 135.05 76.8 110.45 80.6 134.85 88.05 153.0" fill="#596668" fill-rule="evenodd" stroke="none"/>
      <path d="M76.55 108.45 L84.55 133.55 91.35 150.8 101.1 172.15 88.05 153.0 80.6 134.85 76.55 108.45" fill="#c8c7c8" fill-rule="evenodd" stroke="none"/>
      <path d="M98.05 127.75 L106.7 152.4 122.25 191.7 109.25 172.6 101.5 153.45 98.05 127.75" fill="#c8c7c8" fill-rule="evenodd" stroke="none"/>
    </g>
  </defs>
</svg>
