<?xml version="1.0" encoding="UTF-8" standalone="no"?>
<svg xmlns:xlink="http://www.w3.org/1999/xlink" height="253.8px" width="253.8px" xmlns="http://www.w3.org/2000/svg">
  <g transform="matrix(1.0, 0.0, 0.0, 1.0, 0.25, 1.0)">
    <use height="253.8" transform="matrix(1.0, 0.0, 0.0, 1.0, -0.25, -1.0)" width="253.8" xlink:href="#shape0"/>
    <use height="149.4" id="face" transform="matrix(1.0, 0.0, 0.0, 1.0, 67.3, 51.1)" width="122.5" xlink:href="#sprite0"/>
    <use height="93.35" transform="matrix(2.1935, 0.0, 0.0, 2.1935, 33.1277, -0.1674)" width="81.9" xlink:href="#sprite3"/>
  </g>
  <defs>
    <g id="shape0" transform="matrix(1.0, 0.0, 0.0, 1.0, 0.25, 1.0)">
      <path d="M-0.25 -1.0 L253.55 -1.0 253.55 252.8 -0.25 252.8 -0.25 -1.0" fill="#0099ff" fill-opacity="0.0" fill-rule="evenodd" stroke="none"/>
    </g>
    <g id="sprite0" transform="matrix(1.0, 0.0, 0.0, 1.0, 64.5, 70.7)">
      <use height="69.1" transform="matrix(2.1622, 0.0, 0.0, 2.1622, -64.489, -70.7025)" width="56.65" xlink:href="#sprite1"/>
    </g>
    <g id="sprite1" transform="matrix(1.0, 0.0, 0.0, 1.0, 28.3, 34.55)">
      <use height="69.1" transform="matrix(1.0, 0.0, 0.0, 1.0, -28.3, -34.55)" width="56.65" xlink:href="#shape1"/>
      <use height="20.1" transform="matrix(1.0, 0.0, 0.0, 1.0, 2.4, -0.3)" width="8.7" xlink:href="#sprite2"/>
      <use height="20.1" transform="matrix(1.0, 0.0, 0.0, 1.0, 17.85, -10.3)" width="8.7" xlink:href="#sprite2"/>
    </g>
    <g id="shape1" transform="matrix(1.0, 0.0, 0.0, 1.0, 28.3, 34.55)">
      <path d="M-28.3 -16.6 L-0.15 -34.55 28.0 -16.6 -0.15 1.3 -28.3 -16.6" fill="#663300" fill-rule="evenodd" stroke="none"/>
      <path d="M-0.15 34.55 L-28.3 16.65 -28.3 -16.6 -0.15 1.3 -0.15 34.55" fill="#966300" fill-rule="evenodd" stroke="none"/>
      <path d="M28.0 -16.6 L28.35 16.65 -0.15 34.55 -0.15 1.3 28.0 -16.6" fill="#c68300" fill-rule="evenodd" stroke="none"/>
    </g>
    <g id="sprite2" transform="matrix(1.0, 0.0, 0.0, 1.0, 3.6, 11.95)">
      <use height="20.1" transform="matrix(1.0, 0.0, 0.0, 1.0, -3.6, -11.95)" width="8.7" xlink:href="#shape2"/>
    </g>
    <g id="shape2" transform="matrix(1.0, 0.0, 0.0, 1.0, 3.6, 11.95)">
      <path d="M5.1 -11.95 L5.05 2.55 -3.6 8.15 -3.6 -6.55 5.1 -11.95" fill="#ffffff" fill-rule="evenodd" stroke="none"/>
      <path d="M5.05 -5.65 L5.0 2.6 -0.25 5.85 -0.25 -2.4 5.05 -5.65" fill="#000000" fill-rule="evenodd" stroke="none"/>
    </g>
    <g id="sprite3" transform="matrix(1.0, 0.0, 0.0, 1.0, 41.45, 59.25)">
      <use height="93.35" transform="matrix(1.0, 0.0, 0.0, 1.0, -41.45, -59.25)" width="81.9" xlink:href="#shape3"/>
    </g>
    <g id="shape3" transform="matrix(1.0, 0.0, 0.0, 1.0, 41.45, 59.25)">
      <path d="M11.35 -33.95 L-3.0 -26.65 -6.5 -59.25 11.35 -33.95" fill="#e1e1e1" fill-rule="evenodd" stroke="none"/>
      <path d="M-3.0 -26.65 L11.35 -33.95 30.6 -25.3 22.35 -21.2 7.7 -14.1 -1.25 -10.45 -1.25 -10.5 -1.3 -10.45 -3.0 -26.65 M-1.35 -10.45 L-1.3 -10.45 -1.3 -10.4 -1.35 -10.4 -1.35 -10.45 M-10.9 0.2 L-9.9 17.15 -31.35 15.3 -41.45 14.0 -10.9 0.2 M-1.05 -9.9 L-1.1 -9.9 -1.1 -10.05 -1.1 -10.0 -1.05 -9.9" fill="#ffffff" fill-rule="evenodd" stroke="none"/>
      <path d="M7.7 -14.1 L9.25 -14.7 5.75 -1.65 0.5 17.65 -1.25 -10.45 7.7 -14.1 M-1.1 -9.9 L-1.1 -9.85 -1.05 -9.85 -1.05 -9.9 -1.1 -10.0 -1.1 -10.05 -1.1 -9.9" fill="#80807f" fill-rule="evenodd" stroke="none"/>
      <path d="M5.75 -1.65 L9.25 -14.7 7.7 -14.1 22.35 -21.2 16.6 -18.35 17.7 12.65 5.75 -1.65 M-1.35 -10.45 L-1.35 -10.4 -1.35 -10.35 -1.35 -10.45 M-1.3 -10.4 L-1.3 -10.45 -1.25 -10.45 -1.3 -10.4" fill="#525251" fill-rule="evenodd" stroke="none"/>
      <path d="M30.5 -16.2 L30.55 -19.05 40.45 -17.15 30.5 -16.2" fill="#cbcbcb" fill-rule="evenodd" stroke="none"/>
      <path d="M30.5 -16.2 L40.45 -17.15 30.35 -6.35 30.5 -16.2" fill="#f0f0f0" fill-rule="evenodd" stroke="none"/>
      <path d="M30.55 -19.05 L30.5 -16.2 30.35 -6.35 30.25 -0.45 26.0 -11.65 22.35 -21.2 30.6 -25.3 30.55 -19.05" fill="#b1b1b1" fill-rule="evenodd" stroke="none"/>
      <path d="M17.7 12.65 L16.6 -18.35 22.35 -21.2 26.0 -11.65 17.7 12.65" fill="#777776" fill-rule="evenodd" stroke="none"/>
      <path d="M-17.55 -30.5 L-3.0 -26.65 -1.3 -10.45 -33.1 -17.35 -33.2 -17.4 -33.15 -17.45 -33.1 -17.45 -33.1 -17.5 -33.05 -17.5 -17.55 -30.5" fill="#cfcfcf" fill-rule="evenodd" stroke="none"/>
      <path d="M-6.5 -59.25 L-3.0 -26.65 -17.55 -30.5 -6.5 -59.25" fill="#9a9a99" fill-rule="evenodd" stroke="none"/>
      <path d="M-33.1 -17.5 L-33.1 -17.45 -33.1 -17.5 M-33.15 -17.5 L-33.15 -17.45 -33.15 -17.5 M-32.15 2.75 L-33.1 -17.35 -26.15 -4.55 -32.15 2.75" fill="#4f4f4e" fill-rule="evenodd" stroke="none"/>
      <path d="M-33.1 -17.45 L-33.15 -17.45 -33.2 -17.4 -33.15 -17.5 -33.1 -17.5 -33.1 -17.45 M-33.1 -17.35 L-1.3 -10.45 -1.35 -10.45 -1.35 -10.35 -10.9 0.2 -26.15 -4.55 -33.1 -17.35 M-33.15 -17.5 L-33.15 -17.45 -33.15 -17.5 -33.15 -17.55 -33.15 -17.5" fill="#929191" fill-rule="evenodd" stroke="none"/>
      <path d="M-33.05 -17.5 L-33.1 -17.5 -33.15 -17.5 -33.05 -17.5 M-1.25 -10.45 L0.5 17.65 1.45 34.1 -9.9 17.15 -10.9 0.2 -1.35 -10.35 -1.35 -10.4 -1.3 -10.4 -1.25 -10.45 M-1.05 -9.9 L-1.05 -9.85 -1.1 -9.85 -1.1 -9.9 -1.05 -9.9" fill="#a7a6a6" fill-rule="evenodd" stroke="none"/>
      <path d="M-9.9 17.15 L1.45 34.1 -31.1 19.2 -31.35 15.3 -9.9 17.15" fill="#616160" fill-rule="evenodd" stroke="none"/>
      <path d="M-32.15 2.75 L-26.15 -4.55 -10.9 0.2 -41.45 14.0 -32.15 2.75" fill="#c6c6c5" fill-rule="evenodd" stroke="none"/>
      <path d="M28.2 12.35 L19.2 17.15 19.2 12.2 28.2 7.4 28.2 12.35 M13.75 19.85 L4.75 24.65 4.75 19.65 13.75 14.85 13.75 19.85" fill="#796264" fill-rule="evenodd" stroke="none"/>
    </g>
  </defs>
</svg>
