<?xml version="1.0" encoding="UTF-8" standalone="no"?>
<svg xmlns:xlink="http://www.w3.org/1999/xlink" height="253.8px" width="253.8px" xmlns="http://www.w3.org/2000/svg">
  <g transform="matrix(1.0, 0.0, 0.0, 1.0, 0.25, 1.0)">
    <use height="253.8" transform="matrix(1.0, 0.0, 0.0, 1.0, -0.25, -1.0)" width="253.8" xlink:href="#shape0"/>
    <use height="149.4" id="face" transform="matrix(1.0, 0.0, 0.0, 1.0, 67.3, 51.1)" width="122.5" xlink:href="#sprite0"/>
    <use height="157.5" transform="matrix(1.0, 0.0, 0.0, 1.0, 8.3, 5.15)" width="208.1" xlink:href="#shape3"/>
  </g>
  <defs>
    <g id="shape0" transform="matrix(1.0, 0.0, 0.0, 1.0, 0.25, 1.0)">
      <path d="M-0.25 -1.0 L253.55 -1.0 253.55 252.8 -0.25 252.8 -0.25 -1.0" fill="#0099ff" fill-opacity="0.0" fill-rule="evenodd" stroke="none"/>
    </g>
    <g id="sprite0" transform="matrix(1.0, 0.0, 0.0, 1.0, 64.5, 70.7)">
      <use height="69.1" transform="matrix(2.1622, 0.0, 0.0, 2.1622, -64.489, -70.7025)" width="56.65" xlink:href="#sprite1"/>
    </g>
    <g id="sprite1" transform="matrix(1.0, 0.0, 0.0, 1.0, 28.3, 34.55)">
      <use height="69.1" transform="matrix(1.0, 0.0, 0.0, 1.0, -28.3, -34.55)" width="56.65" xlink:href="#shape1"/>
      <use height="20.1" transform="matrix(1.0, 0.0, 0.0, 1.0, 2.4, -0.3)" width="8.7" xlink:href="#sprite2"/>
      <use height="20.1" transform="matrix(1.0, 0.0, 0.0, 1.0, 17.85, -10.3)" width="8.7" xlink:href="#sprite2"/>
    </g>
    <g id="shape1" transform="matrix(1.0, 0.0, 0.0, 1.0, 28.3, 34.55)">
      <path d="M-28.3 -16.6 L-0.15 -34.55 28.0 -16.6 -0.15 1.3 -28.3 -16.6" fill="#663300" fill-rule="evenodd" stroke="none"/>
      <path d="M-0.15 34.55 L-28.3 16.65 -28.3 -16.6 -0.15 1.3 -0.15 34.55" fill="#966300" fill-rule="evenodd" stroke="none"/>
      <path d="M28.0 -16.6 L28.35 16.65 -0.15 34.55 -0.15 1.3 28.0 -16.6" fill="#c68300" fill-rule="evenodd" stroke="none"/>
    </g>
    <g id="sprite2" transform="matrix(1.0, 0.0, 0.0, 1.0, 3.6, 11.95)">
      <use height="20.1" transform="matrix(1.0, 0.0, 0.0, 1.0, -3.6, -11.95)" width="8.7" xlink:href="#shape2"/>
    </g>
    <g id="shape2" transform="matrix(1.0, 0.0, 0.0, 1.0, 3.6, 11.95)">
      <path d="M5.1 -11.95 L5.05 2.55 -3.6 8.15 -3.6 -6.55 5.1 -11.95" fill="#ffffff" fill-rule="evenodd" stroke="none"/>
      <path d="M5.05 -5.65 L5.0 2.6 -0.25 5.85 -0.25 -2.4 5.05 -5.65" fill="#000000" fill-rule="evenodd" stroke="none"/>
    </g>
    <g id="shape3" transform="matrix(1.0, 0.0, 0.0, 1.0, -8.3, -5.15)">
      <path d="M184.85 14.35 L164.85 67.9 153.8 63.95 153.8 45.95 144.4 40.45 184.85 14.35 M65.5 120.25 L25.7 116.9 83.0 80.0 65.75 119.9 65.5 120.2 65.5 120.25 M183.55 13.7 L183.65 13.6 183.6 13.7 183.55 13.7" fill="#e58f89" fill-rule="evenodd" stroke="none"/>
      <path d="M183.6 13.7 L184.85 14.35 144.4 40.45 126.9 31.1 167.55 5.15 183.55 13.7 183.6 13.7 M25.7 116.9 L8.3 106.75 70.0 67.4 84.9 75.75 83.0 80.0 25.7 116.9" fill="#c0504b" fill-rule="evenodd" stroke="none"/>
      <path d="M164.85 67.9 L182.9 73.8 129.45 102.0 129.2 102.15 129.15 102.15 128.75 102.35 129.05 102.1 129.2 101.95 129.25 101.9 129.35 101.85 129.45 101.45 131.15 89.9 133.55 75.1 Q143.7 69.55 153.8 63.95 L164.85 67.9" fill="#457858" fill-rule="evenodd" stroke="none"/>
      <path d="M215.35 156.8 L216.4 157.45 128.7 133.1 128.7 117.6 128.8 115.2 129.2 102.2 129.2 102.15 129.45 102.0 215.35 156.8 M129.25 101.9 L129.2 101.95 129.2 101.9 129.25 101.9" fill="#dc6f2e" fill-rule="evenodd" stroke="none"/>
      <path d="M182.9 73.8 L215.35 156.8 129.45 102.0 182.9 73.8 M70.2 19.4 L88.35 8.45 126.9 31.1 144.4 40.45 153.8 45.95 133.55 55.85 70.2 19.4 M129.2 101.9 L129.2 101.95 129.05 102.1 128.95 102.05 129.2 101.9 M129.15 102.15 L129.2 102.15 129.2 102.2 129.15 102.15" fill="#f9d53a" fill-rule="evenodd" stroke="none"/>
      <path d="M83.0 80.0 L84.9 75.75 121.9 96.6 123.15 97.45 129.15 101.5 129.25 101.55 128.45 102.2 121.85 97.9 121.85 98.0 117.35 95.1 117.35 109.9 65.75 119.9 83.0 80.0" fill="#285b50" fill-rule="evenodd" stroke="none"/>
      <path d="M153.8 45.95 L153.8 63.95 Q143.7 69.55 133.55 75.1 L133.55 55.85 153.8 45.95" fill="#fff083" fill-rule="evenodd" stroke="none"/>
      <path d="M70.2 66.35 L70.2 19.4 133.55 55.85 133.55 75.1 89.9 49.55 70.2 66.35" fill="#ca6943" fill-rule="evenodd" stroke="none"/>
      <path d="M70.0 67.4 L69.35 67.0 70.2 66.35 89.9 49.55 133.55 75.1 131.15 89.9 129.35 100.8 129.3 100.75 123.3 97.35 123.15 97.45 121.9 96.6 84.9 75.75 70.0 67.4" fill="#0e2f27" fill-rule="evenodd" stroke="none"/>
      <path d="M121.85 98.0 L121.85 97.9 128.45 102.2 128.75 102.35 128.8 109.55 121.85 105.25 121.85 98.0" fill="#000000" fill-rule="evenodd" stroke="none"/>
      <path d="M123.15 97.45 L123.3 97.35 129.3 100.75 129.15 101.5 123.15 97.45 M128.8 109.55 L128.75 102.35 128.45 102.2 129.25 101.55 129.45 101.45 129.35 101.85 129.25 101.9 129.2 101.9 128.95 102.05 129.05 102.1 128.75 102.35 129.15 102.15 129.2 102.2 128.8 115.2 128.8 109.55 M117.35 109.9 L117.35 110.5 128.7 117.6 128.7 133.1 65.75 119.9 117.35 109.9" fill="#0a2a22" fill-rule="evenodd" stroke="none"/>
      <path d="M121.85 98.0 L121.85 105.25 128.8 109.55 128.8 115.2 128.7 117.6 117.35 110.5 117.35 109.9 117.35 95.1 121.85 98.0" fill="#68af70" fill-rule="evenodd" stroke="none"/>
      <path d="M128.7 133.1 L63.1 162.65 65.5 120.25 65.5 120.2 65.75 119.9 128.7 133.1" fill="#1d473e" fill-rule="evenodd" stroke="none"/>
      <path d="M129.15 101.5 L129.3 100.75 129.35 100.8 131.15 89.9 129.45 101.45 129.25 101.55 129.15 101.5" fill="#207d65" fill-rule="evenodd" stroke="none"/>
    </g>
  </defs>
</svg>
