<?xml version="1.0" encoding="UTF-8" standalone="no"?>
<svg xmlns:xlink="http://www.w3.org/1999/xlink" height="253.8px" width="253.8px" xmlns="http://www.w3.org/2000/svg">
  <g transform="matrix(1.0, 0.0, 0.0, 1.0, 0.25, 1.0)">
    <use height="253.8" transform="matrix(1.0, 0.0, 0.0, 1.0, -0.25, -1.0)" width="253.8" xlink:href="#shape0"/>
    <use height="149.4" id="face" transform="matrix(1.0, 0.0, 0.0, 1.0, 67.3, 51.1)" width="122.5" xlink:href="#sprite0"/>
    <use height="66.8" transform="matrix(2.1935, 0.0, 0.0, 2.1935, 35.4309, 6.0906)" width="76.25" xlink:href="#sprite3"/>
  </g>
  <defs>
    <g id="shape0" transform="matrix(1.0, 0.0, 0.0, 1.0, 0.25, 1.0)">
      <path d="M-0.25 -1.0 L253.55 -1.0 253.55 252.8 -0.25 252.8 -0.25 -1.0" fill="#0099ff" fill-opacity="0.0" fill-rule="evenodd" stroke="none"/>
    </g>
    <g id="sprite0" transform="matrix(1.0, 0.0, 0.0, 1.0, 64.5, 70.7)">
      <use height="69.1" transform="matrix(2.1622, 0.0, 0.0, 2.1622, -64.489, -70.7025)" width="56.65" xlink:href="#sprite1"/>
    </g>
    <g id="sprite1" transform="matrix(1.0, 0.0, 0.0, 1.0, 28.3, 34.55)">
      <use height="69.1" transform="matrix(1.0, 0.0, 0.0, 1.0, -28.3, -34.55)" width="56.65" xlink:href="#shape1"/>
      <use height="20.1" transform="matrix(1.0, 0.0, 0.0, 1.0, 2.4, -0.3)" width="8.7" xlink:href="#sprite2"/>
      <use height="20.1" transform="matrix(1.0, 0.0, 0.0, 1.0, 17.85, -10.3)" width="8.7" xlink:href="#sprite2"/>
    </g>
    <g id="shape1" transform="matrix(1.0, 0.0, 0.0, 1.0, 28.3, 34.55)">
      <path d="M-28.3 -16.6 L-0.15 -34.55 28.0 -16.6 -0.15 1.3 -28.3 -16.6" fill="#663300" fill-rule="evenodd" stroke="none"/>
      <path d="M-0.15 34.55 L-28.3 16.65 -28.3 -16.6 -0.15 1.3 -0.15 34.55" fill="#966300" fill-rule="evenodd" stroke="none"/>
      <path d="M28.0 -16.6 L28.35 16.65 -0.15 34.55 -0.15 1.3 28.0 -16.6" fill="#c68300" fill-rule="evenodd" stroke="none"/>
    </g>
    <g id="sprite2" transform="matrix(1.0, 0.0, 0.0, 1.0, 3.6, 11.95)">
      <use height="20.1" transform="matrix(1.0, 0.0, 0.0, 1.0, -3.6, -11.95)" width="8.7" xlink:href="#shape2"/>
    </g>
    <g id="shape2" transform="matrix(1.0, 0.0, 0.0, 1.0, 3.6, 11.95)">
      <path d="M5.1 -11.95 L5.05 2.55 -3.6 8.15 -3.6 -6.55 5.1 -11.95" fill="#ffffff" fill-rule="evenodd" stroke="none"/>
      <path d="M5.05 -5.65 L5.0 2.6 -0.25 5.85 -0.25 -2.4 5.05 -5.65" fill="#000000" fill-rule="evenodd" stroke="none"/>
    </g>
    <g id="sprite3" transform="matrix(1.0, 0.0, 0.0, 1.0, 40.4, 52.75)">
      <use height="66.8" transform="matrix(1.0, 0.0, 0.0, 1.0, -40.4, -52.75)" width="76.25" xlink:href="#shape3"/>
      <use height="13.95" transform="matrix(1.6954, 0.0, 0.0, 1.6954, 3.4195, -29.6173)" width="10.5" xlink:href="#sprite4"/>
    </g>
    <g id="shape3" transform="matrix(1.0, 0.0, 0.0, 1.0, 40.4, 52.75)">
      <path d="M-18.25 -14.1 L4.85 -28.95 28.45 -22.2 5.35 -8.5 -18.25 -14.1" fill="#bfcece" fill-rule="evenodd" stroke="none"/>
      <path d="M28.45 -22.2 L31.4 -14.4 1.7 3.7 5.35 -8.5 28.45 -22.2" fill="#ab3bd6" fill-rule="evenodd" stroke="none"/>
      <path d="M1.7 3.7 L-18.25 -5.75 -18.25 -14.1 5.35 -8.5 1.7 3.7" fill="#a1b5b5" fill-rule="evenodd" stroke="none"/>
      <path d="M-12.0 -52.75 L24.7 -50.25 35.85 -19.3 7.05 -31.4 -12.0 -52.75" fill="#d9eaea" fill-rule="evenodd" stroke="none"/>
      <path d="M29.05 -13.05 L-1.5 -24.45 7.05 -31.4 35.85 -19.3 29.05 -13.05" fill="#efefef" fill-rule="evenodd" stroke="none"/>
      <path d="M35.85 -19.3 L29.65 -4.8 29.05 -13.05 35.85 -19.3" fill="#ffffff" fill-rule="evenodd" stroke="none"/>
      <path d="M-1.5 -24.45 L-21.1 -33.7 -12.0 -52.75 7.05 -31.4 -1.5 -24.45" fill="#a1b5b5" fill-rule="evenodd" stroke="none"/>
      <path d="M-12.85 -52.75 L24.3 -50.05 14.7 -27.9 -12.85 -52.75" fill="#ecffff" fill-rule="evenodd" stroke="none"/>
      <path d="M-12.85 -52.75 L14.7 -27.9 1.75 3.65 -21.25 -8.75 -32.95 -43.45 -12.85 -52.75" fill="#ffffff" fill-rule="evenodd" stroke="none"/>
      <path d="M-26.35 14.05 L-40.4 -11.35 -32.95 -43.45 -21.25 -8.75 -26.35 14.05" fill="#d7e8e8" fill-rule="evenodd" stroke="none"/>
      <path d="M1.75 3.65 L-26.35 14.05 -21.25 -8.75 1.75 3.65" fill="#b3c9c9" fill-rule="evenodd" stroke="none"/>
    </g>
    <g id="sprite4" transform="matrix(1.0, 0.0, 0.0, 1.0, -0.1, 0.6)">
      <use height="13.95" transform="matrix(1.0, 0.0, 0.0, 1.0, 0.1, -0.6)" width="10.5" xlink:href="#shape4"/>
    </g>
    <g id="shape4" transform="matrix(1.0, 0.0, 0.0, 1.0, -0.1, 0.6)">
      <path d="M10.6 7.45 L6.1 13.35 8.1 9.15 10.6 7.45" fill="#66ff00" fill-rule="evenodd" stroke="none"/>
      <path d="M8.95 3.9 L10.6 7.45 8.1 9.15 8.95 3.9 M1.05 3.75 L4.8 2.7 6.0 4.75 5.45 8.1 1.05 3.75" fill="#00cc00" fill-rule="evenodd" stroke="none"/>
      <path d="M2.45 1.15 L3.55 -0.6 5.9 1.3 4.8 2.7 2.45 1.15" fill="#43cc00" fill-rule="evenodd" stroke="none"/>
      <path d="M4.8 2.7 L8.95 3.9 6.0 4.75 4.8 2.7 M2.55 9.3 L1.05 3.75 5.45 8.1 2.55 9.3" fill="#009900" fill-rule="evenodd" stroke="none"/>
      <path d="M1.05 3.75 L2.45 1.15 4.8 2.7 1.05 3.75" fill="#33ff00" fill-rule="evenodd" stroke="none"/>
      <path d="M5.9 1.3 L8.95 3.9 4.8 2.7 5.9 1.3 M8.95 3.9 L8.1 9.15 5.45 8.1 6.0 4.75 8.95 3.9" fill="#ffffff" fill-rule="evenodd" stroke="none"/>
      <path d="M6.1 13.35 L2.15 11.6 0.1 8.45 1.05 3.75 2.55 9.3 6.1 13.35" fill="#003300" fill-rule="evenodd" stroke="none"/>
      <path d="M5.45 8.1 L8.1 9.15 6.1 13.35 5.45 8.1" fill="#33cc00" fill-rule="evenodd" stroke="none"/>
      <path d="M6.1 13.35 L2.55 9.3 5.45 8.1 6.1 13.35" fill="#006600" fill-rule="evenodd" stroke="none"/>
    </g>
  </defs>
</svg>
