<?xml version="1.0" encoding="UTF-8" standalone="no"?>
<svg xmlns:xlink="http://www.w3.org/1999/xlink" height="151.95px" width="202.0px" xmlns="http://www.w3.org/2000/svg">
  <g transform="matrix(1.0, 0.0, 0.0, 1.0, 0.0, 12.0)">
    <use height="146.0" id="bound" transform="matrix(1.0, 0.0, 0.0, 1.0, 0.0, 0.0)" width="201.0" xlink:href="#sprite0"/>
    <use height="77.9" transform="matrix(1.0, 0.0, 0.0, 1.0, 66.5, 36.4)" width="62.0" xlink:href="#shape1"/>
  </g>
  <defs>
    <g id="sprite0" transform="matrix(1.0, 0.0, 0.0, 1.0, 0.0, 0.0)">
      <use height="146.0" transform="matrix(1.0, 0.0, 0.0, 1.0, 0.0, 0.0)" width="201.0" xlink:href="#shape0"/>
    </g>
    <g id="shape0" transform="matrix(1.0, 0.0, 0.0, 1.0, 0.0, 0.0)">
      <path d="M0.0 0.0 L201.0 0.0 201.0 146.0 0.0 146.0 0.0 0.0" fill="#000000" fill-opacity="0.0" fill-rule="evenodd" stroke="none"/>
    </g>
    <g id="shape1" transform="matrix(1.0, 0.0, 0.0, 1.0, -66.5, -36.4)">
      <path d="M107.6 60.6 L94.8 67.8 90.5 56.3 82.0 42.1 89.1 36.4 99.1 42.1 90.5 56.3 107.6 60.6" fill="#ffff00" fill-rule="evenodd" stroke="none"/>
      <path d="M99.1 42.1 L107.6 49.2 107.6 60.6 90.5 56.3 99.1 42.1" fill="#ffffff" fill-rule="evenodd" stroke="none"/>
      <path d="M94.8 67.8 L82.0 62.0 76.2 52.1 90.5 56.3 94.8 67.8" fill="#cc6600" fill-rule="evenodd" stroke="none"/>
      <path d="M76.2 52.1 L82.0 42.1 90.5 56.3 76.2 52.1" fill="#ff9900" fill-rule="evenodd" stroke="none"/>
      <path d="M116.5 96.3 L102.5 90.3 102.5 78.3 116.5 86.3 116.5 96.3" fill="#cc6600" fill-rule="evenodd" stroke="none"/>
      <path d="M102.5 78.3 L108.5 72.3 116.5 86.3 102.5 78.3" fill="#ff9900" fill-rule="evenodd" stroke="none"/>
      <path d="M108.5 72.3 L115.1 66.4 125.1 72.1 116.5 86.3 108.5 72.3 M128.5 86.3 L116.5 96.3 116.5 86.3 128.5 86.3" fill="#ffff00" fill-rule="evenodd" stroke="none"/>
      <path d="M125.1 72.1 L128.5 78.3 128.5 86.3 116.5 86.3 125.1 72.1" fill="#ffffff" fill-rule="evenodd" stroke="none"/>
      <path d="M89.1 90.1 L92.5 96.3 92.5 104.3 80.5 104.3 89.1 90.1" fill="#ffffff" fill-rule="evenodd" stroke="none"/>
      <path d="M92.5 104.3 L80.5 114.3 80.5 104.3 72.5 90.3 79.1 84.4 89.1 90.1 80.5 104.3 92.5 104.3" fill="#ffff00" fill-rule="evenodd" stroke="none"/>
      <path d="M66.5 96.3 L72.5 90.3 80.5 104.3 66.5 96.3" fill="#ff9900" fill-rule="evenodd" stroke="none"/>
      <path d="M80.5 114.3 L66.5 108.3 66.5 96.3 80.5 104.3 80.5 114.3" fill="#cc6600" fill-rule="evenodd" stroke="none"/>
    </g>
  </defs>
</svg>
