<?xml version="1.0" encoding="UTF-8" standalone="no"?>
<svg xmlns:xlink="http://www.w3.org/1999/xlink" height="113.2px" width="104.05px" xmlns="http://www.w3.org/2000/svg">
  <g transform="matrix(1.0, 0.0, 0.0, 1.0, 31.75, 22.1)">
    <use height="84.15" transform="matrix(1.0, 0.0, 0.0, 1.0, -27.85, -19.05)" width="99.95" xlink:href="#shape0"/>
  </g>
  <defs>
    <g id="shape0" transform="matrix(1.0, 0.0, 0.0, 1.0, 27.85, 19.05)">
      <path d="M22.1 4.1 L72.1 35.05 22.1 65.1 -27.85 35.05 22.1 4.1" fill="#bacedc" fill-rule="evenodd" stroke="none"/>
      <path d="M22.1 4.1 L52.8 23.1 22.1 41.55 -8.55 23.1 22.1 4.1" fill="#96b8cc" fill-rule="evenodd" stroke="none"/>
      <path d="M72.1 35.05 L49.3 48.75 45.25 33.25 40.7 26.45 39.85 12.35 46.6 18.1 72.1 35.05" fill="#8c8591" fill-rule="evenodd" stroke="none"/>
      <path d="M39.0 4.1 L39.85 6.05 39.85 12.35 40.7 26.45 31.3 23.8 23.85 12.95 26.35 5.65 29.35 -9.7 34.3 1.2 39.0 4.1" fill="#bacedc" fill-rule="evenodd" stroke="none"/>
      <path d="M22.1 65.1 L22.1 39.85 34.65 24.8 40.7 26.45 39.25 29.6 34.15 43.75 31.55 59.4 22.1 65.1" fill="#534c6d" fill-rule="evenodd" stroke="none"/>
      <path d="M31.3 23.8 L14.65 34.2 10.65 24.8 22.0 18.0 31.3 23.8" fill="#8c8591" fill-rule="evenodd" stroke="none"/>
      <path d="M15.0 36.3 L22.1 39.85 22.5 51.3 22.1 65.1 -0.35 51.6 7.5 42.0 15.0 36.3" fill="#8c8591" fill-rule="evenodd" stroke="none"/>
      <path d="M29.35 -9.7 L26.35 5.65 23.85 12.95 22.0 18.0 10.65 24.8 8.45 10.65 16.65 -7.9 24.85 -9.75 29.35 -9.7" fill="#8c8591" fill-rule="evenodd" stroke="none"/>
      <path d="M13.05 23.3 L17.55 32.35 12.5 38.2 7.5 42.0 0.3 28.95 -4.15 16.2 -2.05 14.85 1.65 16.5 13.05 23.3" fill="#534c6d" fill-rule="evenodd" stroke="none"/>
      <path d="M48.45 21.45 L45.7 16.4 45.55 15.0 57.9 21.7 45.0 29.45 40.7 26.45 48.45 21.45" fill="#96b8cc" fill-rule="evenodd" stroke="none"/>
      <path d="M45.25 33.25 L46.75 39.1 31.55 59.4 34.15 40.5 40.7 26.45 45.0 29.45 45.25 33.25" fill="#8c8591" fill-rule="evenodd" stroke="none"/>
      <path d="M57.9 21.7 L60.05 25.55 67.25 29.9 72.1 35.05 53.25 29.35 45.0 29.45 57.9 21.7" fill="#8c8591" fill-rule="evenodd" stroke="none"/>
      <path d="M16.45 -3.95 L19.9 4.1 23.85 12.95 22.0 18.0 10.65 10.95 16.45 -3.95" fill="#534c6d" fill-rule="evenodd" stroke="none"/>
      <path d="M1.65 16.5 L-2.05 14.85 9.25 3.65 10.65 10.95 1.65 16.5" fill="#96b8cc" fill-rule="evenodd" stroke="none"/>
      <path d="M31.3 23.8 L22.0 18.0 23.85 12.95 31.3 23.8" fill="#534c6d" fill-rule="evenodd" stroke="none"/>
      <path d="M19.9 4.1 L23.85 12.95 10.45 -1.25 12.05 -2.1 19.9 4.1" fill="#96b8cc" fill-rule="evenodd" stroke="none"/>
      <path d="M10.45 -1.25 L14.1 2.6 10.65 10.95 7.35 8.65 10.45 -1.25" fill="#534c6d" fill-rule="evenodd" stroke="none"/>
      <path d="M34.65 24.8 L40.05 15.2 40.7 26.45 34.65 24.8" fill="#8c8591" fill-rule="evenodd" stroke="none"/>
      <path d="M45.05 9.25 L45.55 15.0 48.45 21.45 39.85 12.35 45.05 9.25" fill="#8c8591" fill-rule="evenodd" stroke="none"/>
      <path d="M40.25 18.35 L34.7 9.25 39.85 12.35 40.25 18.35" fill="#534c6d" fill-rule="evenodd" stroke="none"/>
      <path d="M39.85 6.05 L45.05 9.25 39.85 12.35 34.7 9.25 38.45 7.0 39.85 6.05" fill="#96b8cc" fill-rule="evenodd" stroke="none"/>
      <path d="M10.65 10.95 L22.0 18.0 13.05 23.3 1.65 16.5 10.65 10.95" fill="#96b8cc" fill-rule="evenodd" stroke="none"/>
      <path d="M-11.3 22.05 L0.3 28.95 -7.15 33.4 -18.55 26.55 -11.3 22.05" fill="#96b8cc" fill-rule="evenodd" stroke="none"/>
      <path d="M39.25 29.6 L45.25 33.25 34.15 40.5 28.2 37.0 39.25 29.6" fill="#bacedc" fill-rule="evenodd" stroke="none"/>
      <path d="M20.7 -6.8 L19.9 4.1 12.05 -2.1 14.5 -5.05 14.5 -7.9 20.7 -6.8" fill="#534c6d" fill-rule="evenodd" stroke="none"/>
      <path d="M17.55 32.35 L22.1 39.85 3.8 28.8 5.75 27.6 17.55 32.35" fill="#96b8cc" fill-rule="evenodd" stroke="none"/>
      <path d="M3.8 28.8 L22.1 39.85 22.5 51.3 3.8 28.8" fill="#534c6d" fill-rule="evenodd" stroke="none"/>
      <path d="M-0.35 51.6 L-27.85 35.05 -18.55 26.55 -7.15 33.4 -0.35 51.6" fill="#534c6d" fill-rule="evenodd" stroke="none"/>
      <path d="M23.25 -13.4 L29.25 -9.8 20.5 -4.4 14.5 -7.9 23.25 -13.4" fill="#96b8cc" fill-rule="evenodd" stroke="none"/>
      <path d="M17.75 -9.95 L18.5 -14.7 22.85 -18.25 26.0 -14.45 26.65 -11.4 21.2 -8.05 17.75 -9.95" fill="#534c6d" fill-rule="evenodd" stroke="none"/>
      <path d="M-4.15 16.2 L0.3 28.95 -9.65 23.05 -4.15 16.2" fill="#534c6d" fill-rule="evenodd" stroke="none"/>
      <path d="M26.0 -14.45 L22.3 -12.4 18.5 -14.7 20.45 -17.75 22.85 -18.25 26.0 -14.45" fill="#ffcb64" fill-rule="evenodd" stroke="none"/>
      <path d="M60.05 25.55 L67.25 29.9 63.1 32.35 53.25 29.35 60.05 25.55" fill="#bacedc" fill-rule="evenodd" stroke="none"/>
      <path d="M53.25 29.35 L63.1 32.35 53.25 33.4 45.0 29.45 53.25 29.35" fill="#96b8cc" fill-rule="evenodd" stroke="none"/>
      <path d="M-9.65 23.05 L-11.3 22.05 -8.05 21.1 -9.65 23.05" fill="#96b8cc" fill-rule="evenodd" stroke="none"/>
      <path d="M20.45 -17.75 L22.85 -19.05 26.0 -14.45 22.3 -12.4 20.45 -17.75" fill="#ffffff" fill-rule="evenodd" stroke="none"/>
      <path d="M21.2 -8.05 L22.3 -12.4 26.0 -14.45 26.65 -11.4 21.2 -8.05" fill="#96b8cc" fill-rule="evenodd" stroke="none"/>
      <path d="M20.5 -4.4 L21.2 -8.05 26.65 -11.4 29.25 -9.8 20.5 -4.4" fill="#bacedc" fill-rule="evenodd" stroke="none"/>
      <path d="M26.35 5.65 L27.35 0.55 31.75 -4.35 34.3 1.2 26.35 5.65" fill="#bacedc" fill-rule="evenodd" stroke="none"/>
      <path d="M39.0 4.1 L23.85 12.95 18.5 3.8 26.35 5.65 34.3 1.2 39.0 4.1" fill="#96b8cc" fill-rule="evenodd" stroke="none"/>
    </g>
  </defs>
</svg>
