<?xml version="1.0" encoding="UTF-8" standalone="no"?>
<svg xmlns:xlink="http://www.w3.org/1999/xlink" height="113.2px" width="104.05px" xmlns="http://www.w3.org/2000/svg">
  <g transform="matrix(1.0, 0.0, 0.0, 1.0, 31.75, 22.1)">
    <use height="86.7" transform="matrix(1.0, 0.0, 0.0, 1.0, -28.0, -22.1)" width="99.8" xlink:href="#shape0"/>
  </g>
  <defs>
    <g id="shape0" transform="matrix(1.0, 0.0, 0.0, 1.0, 28.0, 22.1)">
      <path d="M25.45 23.3 L42.95 27.35 52.6 46.6 44.0 51.45 10.85 41.3 8.35 34.7 12.7 32.35 25.45 23.3" fill="#ffff94" fill-rule="evenodd" stroke="none"/>
      <path d="M4.35 -16.55 L4.8 -9.65 -2.65 -6.15 4.35 -16.55 M21.6 -3.15 L30.7 -5.1 30.85 -5.15 22.0 15.15 19.5 23.35 16.0 17.05 9.45 0.8 8.95 -0.45 21.6 -3.15 M0.25 27.55 L-8.95 22.05 -7.4 7.9 1.1 28.05 0.25 27.55" fill="#7a99a5" fill-rule="evenodd" stroke="none"/>
      <path d="M4.8 -9.65 L4.35 -16.55 13.8 -22.1 25.3 -22.1 34.65 -16.55 34.25 -7.25 30.7 -5.1 21.6 -3.15 4.8 -9.65" fill="#cae2da" fill-rule="evenodd" stroke="none"/>
      <path d="M30.7 -5.1 L34.25 -7.25 41.75 -8.1 44.9 7.15 38.75 9.0 29.65 35.4 19.5 39.65 19.5 23.35 22.0 15.15 30.85 -5.15 30.7 -5.1" fill="#d4e7df" fill-rule="evenodd" stroke="none"/>
      <path d="M34.25 -7.25 L34.65 -16.55 41.75 -8.1 34.25 -7.25" fill="#ecf5f2" fill-rule="evenodd" stroke="none"/>
      <path d="M4.8 -9.65 L21.6 -3.15 8.95 -0.45 9.45 0.8 4.8 -9.65 M29.65 35.4 L38.75 9.0 44.9 7.15 49.2 31.8 29.65 35.4" fill="#afd4c7" fill-rule="evenodd" stroke="none"/>
      <path d="M-2.65 -6.15 L4.8 -9.65 9.45 0.8 16.0 17.05 19.5 23.35 19.5 39.65 0.25 27.55 1.1 28.05 -7.4 7.9 -2.65 -6.15" fill="#6583a8" fill-rule="evenodd" stroke="none"/>
      <path d="M-7.5 18.0 L3.05 11.65 8.5 12.75 13.0 34.55 -7.5 46.85 -7.5 18.0" fill="#d4e7df" fill-rule="evenodd" stroke="none"/>
      <path d="M3.45 6.7 L8.5 12.75 3.05 11.65 3.45 6.7" fill="#ecf5f2" fill-rule="evenodd" stroke="none"/>
      <path d="M-7.5 18.0 L-7.5 46.85 -28.0 34.55 -23.5 14.2 -18.15 11.65 -7.5 18.0" fill="#6583a8" fill-rule="evenodd" stroke="none"/>
      <path d="M-18.45 6.7 L-18.15 11.65 -23.5 14.2 -18.45 6.7" fill="#7a99a5" fill-rule="evenodd" stroke="none"/>
      <path d="M-3.35 2.7 L3.45 6.7 3.05 11.65 -7.5 18.0 -18.15 11.65 -18.45 6.7 -11.65 2.7 -3.35 2.7" fill="#cae2da" fill-rule="evenodd" stroke="none"/>
      <path d="M-18.15 11.65 L-3.45 15.55 -7.5 35.5 -18.15 11.65" fill="#7a99a5" fill-rule="evenodd" stroke="none"/>
      <path d="M-24.65 19.15 L-20.85 38.85 -28.0 34.55 -24.65 19.15" fill="#7a99a5" fill-rule="evenodd" stroke="none"/>
      <path d="M9.95 19.75 L13.0 34.55 -1.55 43.3 9.95 19.75" fill="#cae2da" fill-rule="evenodd" stroke="none"/>
      <path d="M62.55 8.5 L67.15 14.05 62.25 13.0 62.55 8.5" fill="#ecf5f2" fill-rule="evenodd" stroke="none"/>
      <path d="M42.5 8.5 L48.75 4.75 56.3 4.75 62.55 8.5 62.25 13.0 56.2 16.65 42.75 13.0 42.5 8.5" fill="#cae2da" fill-rule="evenodd" stroke="none"/>
      <path d="M67.15 14.05 L68.85 22.2 Q70.05 28.1 71.8 34.5 L52.5 46.65 52.5 34.85 56.25 16.65 56.2 16.65 62.25 13.0 67.15 14.05" fill="#d4e7df" fill-rule="evenodd" stroke="none"/>
      <path d="M37.8 15.35 L42.5 8.5 42.75 13.0 56.2 16.65 56.25 16.65 52.5 34.85 42.75 13.0 37.8 15.35" fill="#7a99a5" fill-rule="evenodd" stroke="none"/>
      <path d="M52.5 46.65 L33.75 36.25 36.8 19.85 36.8 19.9 37.8 15.35 42.75 13.0 52.5 34.85 52.5 46.65" fill="#6583a8" fill-rule="evenodd" stroke="none"/>
      <path d="M24.25 18.55 L24.25 16.0 28.55 18.6 28.55 22.5 27.7 22.0 24.25 19.95 24.25 18.55 M21.75 28.8 L17.6 26.35 17.6 21.25 23.25 24.6 23.25 29.75 26.05 28.15 29.6 30.3 29.6 35.25 26.3 33.25 22.5 30.95 22.5 29.3 21.75 28.8" fill="#1c6600" fill-rule="evenodd" stroke="none"/>
      <path d="M24.25 16.0 L28.55 13.45 32.9 16.05 28.55 18.6 24.25 16.0 M28.9 23.65 L34.9 27.2 29.6 30.3 26.05 28.15 28.9 26.45 28.9 23.65 M17.6 21.25 L23.25 17.95 24.25 18.55 24.25 19.95 27.7 22.0 23.25 24.6 17.6 21.25" fill="#44ca1c" fill-rule="evenodd" stroke="none"/>
      <path d="M32.9 16.05 L32.9 20.0 28.9 22.3 28.9 23.65 28.9 26.45 26.05 28.15 23.25 29.75 23.25 24.6 27.7 22.0 28.55 22.5 28.55 18.6 32.9 16.05 M34.9 27.2 L34.9 32.05 29.75 35.2 29.6 35.25 29.6 30.3 34.9 27.2" fill="#3ab316" fill-rule="evenodd" stroke="none"/>
      <path d="M27.5 41.8 L22.4 38.7 21.75 28.8 22.5 29.3 22.5 30.95 26.3 33.25 27.5 41.8" fill="#63401d" fill-rule="evenodd" stroke="none"/>
      <path d="M29.75 35.2 L31.4 38.95 27.5 41.8 26.3 33.25 29.6 35.25 29.75 35.2" fill="#a67641" fill-rule="evenodd" stroke="none"/>
      <path d="M30.35 37.2 L29.85 35.55 34.45 32.85 52.6 46.6 44.0 51.45 14.6 40.55 8.35 34.7 12.7 32.35 19.5 37.05 22.65 36.85 27.1 39.2 30.35 37.2" fill="#4ac2ff" fill-opacity="0.80784315" fill-rule="evenodd" stroke="none"/>
      <path d="M-5.4 25.65 L-5.5 25.55 4.8 30.3 14.45 40.5 43.85 51.55 22.2 50.2 9.1 46.05 -3.6 28.2 -4.05 27.55 -5.4 25.65" fill="#cae2da" fill-rule="evenodd" stroke="none"/>
      <path d="M43.85 51.55 L21.8 64.6 22.2 50.2 43.85 51.55" fill="#afd4c7" fill-rule="evenodd" stroke="none"/>
      <path d="M21.8 64.6 L14.2 59.95 9.1 46.05 22.2 50.2 21.8 64.6 M-7.5 35.5 L-7.6 30.7 -5.4 25.65 -4.05 27.55 -3.6 28.2 9.1 46.05 -7.5 35.5" fill="#7a99a5" fill-rule="evenodd" stroke="none"/>
      <path d="M14.2 59.95 L-7.5 46.85 -7.5 35.5 9.1 46.05 14.2 59.95" fill="#6583a8" fill-rule="evenodd" stroke="none"/>
    </g>
  </defs>
</svg>
