<?xml version="1.0" encoding="UTF-8" standalone="no"?>
<svg xmlns:xlink="http://www.w3.org/1999/xlink" height="113.2px" width="104.05px" xmlns="http://www.w3.org/2000/svg">
  <g transform="matrix(1.0, 0.0, 0.0, 1.0, 31.75, 22.1)">
    <use height="69.2" transform="matrix(1.0, 0.0, 0.0, 1.0, -28.9, -4.7)" width="101.1" xlink:href="#shape0"/>
  </g>
  <defs>
    <g id="shape0" transform="matrix(1.0, 0.0, 0.0, 1.0, 28.9, 4.7)">
      <path d="M72.1 34.7 L50.9 47.55 49.9 48.05 25.3 39.4 42.1 27.5 72.1 34.7" fill="#a4c680" fill-rule="evenodd" stroke="none"/>
      <path d="M37.7 13.7 L72.1 34.7 42.1 27.5 37.7 13.7" fill="#9ac3b2" fill-rule="evenodd" stroke="none"/>
      <path d="M42.1 27.5 L25.3 39.4 21.8 15.2 42.1 27.5" fill="#95c2c7" fill-rule="evenodd" stroke="none"/>
      <path d="M7.55 23.9 L17.8 9.05 21.8 15.2 25.3 39.4 7.55 23.9" fill="#6b7a6d" fill-rule="evenodd" stroke="none"/>
      <path d="M21.5 64.5 L10.95 58.3 7.55 23.9 25.3 39.4 21.5 64.5" fill="#94a53f" fill-rule="evenodd" stroke="none"/>
      <path d="M20.4 -4.7 L37.7 13.7 42.1 27.5 21.8 15.2 17.8 9.05 20.4 -4.7" fill="#a0d5ef" fill-rule="evenodd" stroke="none"/>
      <path d="M2.9 13.9 L20.4 -4.7 17.8 9.05 7.55 23.9 2.9 13.9" fill="#6676ad" fill-rule="evenodd" stroke="none"/>
      <path d="M-11.6 22.0 L2.9 13.9 7.55 23.9 10.95 58.3 -11.6 22.0" fill="#819353" fill-rule="evenodd" stroke="none"/>
      <path d="M49.9 48.05 L21.5 64.5 25.3 39.4 49.9 48.05" fill="#b2ca42" fill-rule="evenodd" stroke="none"/>
      <path d="M10.95 58.3 L-28.9 34.6 -11.6 22.0 10.95 58.3" fill="#93a43f" fill-rule="evenodd" stroke="none"/>
      <path d="M36.0 4.5 L46.4 18.9 42.2 27.5 36.0 4.5" fill="#a9d6c3" fill-rule="evenodd" stroke="none"/>
      <path d="M46.4 18.9 L72.2 34.7 42.2 27.5 46.4 18.9" fill="#9ac3b2" fill-rule="evenodd" stroke="none"/>
      <path d="M72.2 34.7 L51.0 47.55 50.0 48.05 25.4 39.4 42.2 27.5 72.2 34.7" fill="#a4c680" fill-rule="evenodd" stroke="none"/>
      <path d="M20.5 -4.7 L36.0 4.5 21.9 15.2 17.9 9.05 20.5 -4.7" fill="#8dbcd3" fill-rule="evenodd" stroke="none"/>
      <path d="M21.9 15.2 L36.0 4.5 42.2 27.5 21.9 15.2" fill="#a0d5ef" fill-rule="evenodd" stroke="none"/>
      <path d="M42.2 27.5 L25.4 39.4 21.9 15.2 42.2 27.5" fill="#95c2c7" fill-rule="evenodd" stroke="none"/>
      <path d="M17.9 9.05 L21.9 15.2 25.4 39.4 7.65 23.9 17.9 9.05" fill="#6b7a6d" fill-rule="evenodd" stroke="none"/>
      <path d="M0.6 6.5 L17.9 9.05 7.65 23.9 0.6 6.5" fill="#586696" fill-rule="evenodd" stroke="none"/>
      <path d="M-11.5 22.0 L0.6 6.5 7.65 23.9 11.05 58.3 -11.5 22.0" fill="#819353" fill-rule="evenodd" stroke="none"/>
      <path d="M0.6 6.5 L20.5 -4.7 17.9 9.05 0.6 6.5" fill="#6676ad" fill-rule="evenodd" stroke="none"/>
      <path d="M21.6 64.5 L11.05 58.3 7.65 23.9 25.4 39.4 21.6 64.5" fill="#94a53f" fill-rule="evenodd" stroke="none"/>
      <path d="M50.0 48.05 L21.6 64.5 25.4 39.4 50.0 48.05" fill="#b2ca42" fill-rule="evenodd" stroke="none"/>
      <path d="M11.05 58.3 L-28.8 34.6 -11.5 22.0 11.05 58.3" fill="#93a43f" fill-rule="evenodd" stroke="none"/>
    </g>
  </defs>
</svg>
