<?xml version="1.0" encoding="UTF-8" standalone="no"?>
<svg xmlns:xlink="http://www.w3.org/1999/xlink" height="113.2px" width="104.05px" xmlns="http://www.w3.org/2000/svg">
  <g transform="matrix(1.0, 0.0, 0.0, 1.0, 31.75, 22.1)">
    <use height="77.25" transform="matrix(1.0, 0.0, 0.0, 1.0, -28.9, -12.75)" width="101.0" xlink:href="#shape0"/>
    <use height="2.6" transform="matrix(0.5, 0.0, 0.0, 0.5, 15.875, -3.4)" width="2.5" xlink:href="#sprite0"/>
    <use height="2.6" transform="matrix(0.5, 0.0, 0.0, 0.5, 14.125, 5.1)" width="2.5" xlink:href="#sprite0"/>
    <use height="2.6" transform="matrix(0.5, 0.0, 0.0, 0.5, 1.375, 12.6)" width="2.5" xlink:href="#sprite0"/>
    <use height="2.6" transform="matrix(0.5, 0.0, 0.0, 0.5, 10.125, 13.75)" width="2.5" xlink:href="#sprite0"/>
    <use height="2.6" transform="matrix(0.5, 0.0, 0.0, 0.5, 17.525, 18.95)" width="2.5" xlink:href="#sprite0"/>
    <use height="2.6" transform="matrix(0.5, 0.0, 0.0, 0.5, 17.375, 30.6)" width="2.5" xlink:href="#sprite0"/>
    <use height="2.6" transform="matrix(0.5, 0.0, 0.0, 0.5, -5.525, 19.35)" width="2.5" xlink:href="#sprite0"/>
    <use height="2.6" transform="matrix(0.5, 0.0, 0.0, 0.5, 29.375, 7.6)" width="2.5" xlink:href="#sprite0"/>
    <use height="2.6" transform="matrix(0.5, 0.0, 0.0, 0.5, 23.875, -0.4)" width="2.5" xlink:href="#sprite0"/>
    <use height="2.6" transform="matrix(0.5, 0.0, 0.0, 0.5, 38.625, 12.35)" width="2.5" xlink:href="#sprite0"/>
    <use height="2.6" transform="matrix(0.5, 0.0, 0.0, 0.5, 40.875, 18.1)" width="2.5" xlink:href="#sprite0"/>
    <use height="2.6" transform="matrix(0.5, 0.0, 0.0, 0.5, 28.375, 32.6)" width="2.5" xlink:href="#sprite0"/>
  </g>
  <defs>
    <g id="shape0" transform="matrix(1.0, 0.0, 0.0, 1.0, 28.9, 12.75)">
      <path d="M49.9 48.05 L21.5 64.5 35.7 32.7 49.9 48.05" fill="#7ccc00" fill-rule="evenodd" stroke="none"/>
      <path d="M31.95 10.95 L36.1 17.5 32.55 29.2 22.3 32.65 22.3 10.95 31.95 10.95" fill="#ffffff" fill-rule="evenodd" stroke="none"/>
      <path d="M72.1 34.7 L50.9 47.55 49.9 48.05 35.7 32.7 37.7 20.9 72.1 34.7 M10.95 58.3 L-28.9 34.6 -11.6 22.0 10.95 58.3" fill="#4aad4a" fill-rule="evenodd" stroke="none"/>
      <path d="M37.7 20.9 L51.05 20.5 72.1 34.7 37.7 20.9 M21.5 64.5 L10.95 58.3 21.65 37.3 35.7 32.7 21.5 64.5" fill="#7ccc02" fill-rule="evenodd" stroke="none"/>
      <path d="M50.15 17.65 L51.05 20.5 37.7 20.9 36.1 17.5 50.15 17.65 M32.55 29.2 L35.7 32.7 21.65 37.3 22.3 32.65 32.55 29.2" fill="#c2ffff" fill-rule="evenodd" stroke="none"/>
      <path d="M36.1 17.5 L37.7 20.9 35.7 32.7 32.55 29.2 36.1 17.5 M20.8 -12.75 L35.45 6.55 31.95 10.95 22.3 10.95 20.8 -12.75" fill="#e8ffff" fill-rule="evenodd" stroke="none"/>
      <path d="M-11.6 19.7 L6.45 7.55 9.1 10.95 5.25 16.95 -11.6 19.7" fill="#b2ffff" fill-rule="evenodd" stroke="none"/>
      <path d="M3.9 20.25 L21.65 37.3 10.95 58.3 -11.6 22.0 3.9 20.25" fill="#4aad4b" fill-rule="evenodd" stroke="none"/>
      <path d="M5.25 16.95 L22.3 32.65 21.65 37.3 3.9 20.25 5.25 16.95" fill="#28faff" fill-rule="evenodd" stroke="none"/>
      <path d="M-11.6 22.0 L-11.6 19.7 5.25 16.95 3.9 20.25 -11.6 22.0" fill="#72fbff" fill-rule="evenodd" stroke="none"/>
      <path d="M50.15 17.65 L36.1 17.5 31.95 10.95 35.45 6.55 50.15 17.65" fill="#e0ffff" fill-rule="evenodd" stroke="none"/>
      <path d="M6.45 7.55 L20.8 -12.75 22.3 10.95 9.1 10.95 6.45 7.55" fill="#97ffff" fill-rule="evenodd" stroke="none"/>
      <path d="M22.3 10.95 L22.3 32.65 5.25 16.95 9.1 10.95 22.3 10.95" fill="#8dffff" fill-rule="evenodd" stroke="none"/>
    </g>
    <g id="sprite0" transform="matrix(1.0, 0.0, 0.0, 1.0, 1.35, 1.3)">
      <use height="12.0" transform="matrix(0.2125, 0.0, 0.0, 0.2167, -1.375, -1.3)" width="12.0" xlink:href="#shape1"/>
    </g>
    <g id="shape1" transform="matrix(1.0, 0.0, 0.0, 1.0, 6.0, 6.0)">
      <path d="M-6.0 -6.0 L6.0 -6.0 6.0 6.0 -6.0 6.0 -6.0 -6.0" fill="#ffffff" fill-rule="evenodd" stroke="none"/>
    </g>
  </defs>
</svg>
