<?xml version="1.0" encoding="UTF-8" standalone="no"?>
<svg xmlns:xlink="http://www.w3.org/1999/xlink" height="113.2px" width="104.05px" xmlns="http://www.w3.org/2000/svg">
  <g transform="matrix(1.0, 0.0, 0.0, 1.0, 31.75, 22.1)">
    <use height="78.1" transform="matrix(1.0, 0.0, 0.0, 1.0, -28.1, -13.25)" width="100.0" xlink:href="#shape0"/>
  </g>
  <defs>
    <g id="shape0" transform="matrix(1.0, 0.0, 0.0, 1.0, 28.1, 13.25)">
      <path d="M-11.35 9.2 L-8.35 0.0 -5.4 11.85 -11.35 9.2 M14.3 -3.5 L19.9 -13.25 20.95 0.3 14.3 -3.5 M11.45 32.95 L15.7 24.2 17.75 35.65 17.7 35.65 11.45 32.95" fill="#cde7f5" fill-rule="evenodd" stroke="none"/>
      <path d="M19.9 -13.25 L26.55 -2.85 20.95 0.3 19.9 -13.25 M-8.35 0.0 L0.9 9.2 -5.4 11.9 -5.4 11.85 -8.35 0.0 M17.75 35.65 L17.7 35.65 17.75 35.65 15.7 24.2 22.7 31.85 22.95 32.2 23.75 32.95 17.75 35.65" fill="#ffffff" fill-rule="evenodd" stroke="none"/>
      <path d="M34.0 10.05 L71.9 34.25 46.6 22.05 34.0 10.05" fill="#bf8f6d" fill-rule="evenodd" stroke="none"/>
      <path d="M71.9 34.25 L61.8 41.35 46.6 22.05 71.9 34.25" fill="#deb08b" fill-rule="evenodd" stroke="none"/>
      <path d="M30.6 6.7 L30.7 6.85 34.0 10.05 29.5 34.7 28.55 34.7 27.6 31.95 27.45 31.55 20.55 11.7 20.7 11.65 30.6 6.7 M48.35 49.05 L21.7 64.85 18.9 44.75 18.95 44.75 19.0 44.75 19.0 44.7 29.2 36.65 48.35 49.05 M46.6 22.05 L61.8 41.35 36.3 34.7 46.6 22.05 M2.1 19.25 L2.65 18.7 6.35 14.85 15.7 24.2 11.45 32.95 -3.15 37.35 -4.45 26.0 2.1 19.25" fill="#ad7643" fill-rule="evenodd" stroke="none"/>
      <path d="M61.8 41.35 L48.35 49.05 29.2 36.65 23.75 32.95 23.0 32.15 22.7 31.85 15.7 24.2 6.35 14.85 3.5 11.9 8.45 6.9 20.55 11.7 27.45 31.55 27.6 31.95 26.8 34.7 28.55 34.7 29.5 34.7 36.3 34.7 61.8 41.35 M21.7 64.85 L-28.1 34.75 -15.85 17.65 -4.5 26.0 -4.45 26.0 -3.15 37.35 6.05 38.6 17.1 43.85 18.9 44.75 21.7 64.85" fill="#422817" fill-rule="evenodd" stroke="none"/>
      <path d="M-15.85 17.65 L-11.35 9.2 -5.4 11.85 -5.4 11.9 -4.5 26.0 -15.85 17.65 M8.45 6.9 L14.3 -3.5 20.95 0.3 20.7 11.65 20.55 11.7 8.45 6.9 M17.7 35.65 L17.75 35.65 19.0 44.7 19.0 44.75 18.95 44.75 18.9 44.7 17.1 43.85 6.05 38.6 11.45 32.95 17.7 35.65 M-4.45 25.95 L-4.45 26.0 -4.45 25.95" fill="#92b6ca" fill-rule="evenodd" stroke="none"/>
      <path d="M26.55 -2.85 L30.6 6.7 20.7 11.65 20.95 0.3 26.55 -2.85 M0.9 9.2 L3.5 11.9 6.35 14.85 2.65 18.7 2.1 19.25 -4.45 25.95 -4.45 26.0 -4.5 26.0 -5.4 11.9 0.9 9.2 M18.9 44.7 L18.95 44.75 18.9 44.75 18.9 44.7 M19.0 44.7 L17.75 35.65 23.75 32.95 29.2 36.65 19.0 44.7" fill="#eef4ee" fill-rule="evenodd" stroke="none"/>
      <path d="M2.1 19.25 L-4.45 26.0 -4.45 25.95 2.1 19.25" fill="#533c26" fill-rule="evenodd" stroke="none"/>
      <path d="M36.3 34.7 L29.5 34.7 34.0 10.05 46.6 22.05 36.3 34.7 M28.55 34.7 L26.8 34.7 27.6 31.95 28.55 34.7 M-3.15 37.35 L11.45 32.95 6.05 38.6 -3.15 37.35" fill="#60331a" fill-rule="evenodd" stroke="none"/>
      <path d="M22.95 32.2 L23.0 32.15 23.75 32.95 22.95 32.2" fill="#c1bca3" fill-rule="evenodd" stroke="none"/>
      <path d="M27.6 31.95 L27.45 31.55 27.6 31.95" fill="#8a5738" fill-rule="evenodd" stroke="none"/>
    </g>
  </defs>
</svg>
