<?xml version="1.0" encoding="UTF-8" standalone="no"?>
<svg xmlns:xlink="http://www.w3.org/1999/xlink" height="113.2px" width="104.05px" xmlns="http://www.w3.org/2000/svg">
  <g transform="matrix(1.0, 0.0, 0.0, 1.0, 31.75, 22.1)">
    <use height="76.75" transform="matrix(1.0, 0.0, 0.0, 1.0, -28.65, -12.25)" width="100.55" xlink:href="#shape0"/>
  </g>
  <defs>
    <g id="shape0" transform="matrix(1.0, 0.0, 0.0, 1.0, 28.65, 12.25)">
      <path d="M38.6 -2.0 L44.7 14.75 35.5 21.65 71.9 34.75 35.45 41.8 -16.1 41.8 21.35 32.2 35.45 41.8 35.45 21.7 21.35 32.2 21.35 7.15 38.6 -2.0" fill="#fccc32" fill-rule="evenodd" stroke="none"/>
      <path d="M49.3 48.05 L21.5 64.5 35.45 41.8 49.3 48.05" fill="#fccc01" fill-rule="evenodd" stroke="none"/>
      <path d="M71.9 34.75 L50.3 47.55 49.3 48.05 35.45 41.8 21.5 64.5 -16.1 41.8 35.45 41.8 71.9 34.75 M-1.7 14.95 L4.65 -2.75 21.35 7.15 21.35 32.2 -16.1 41.8 -1.7 14.95" fill="#cc9900" fill-rule="evenodd" stroke="none"/>
      <path d="M4.65 -2.75 L21.65 -12.25 38.6 -2.0 21.35 7.15 4.65 -2.75 M44.7 14.75 L71.9 34.75 35.5 21.65 44.7 14.75 M21.35 32.2 L35.45 21.7 35.45 41.8 21.35 32.2" fill="#ffff00" fill-rule="evenodd" stroke="none"/>
      <path d="M-16.1 41.8 L-28.65 34.6 -1.7 14.95 -16.1 41.8" fill="#996600" fill-rule="evenodd" stroke="none"/>
    </g>
  </defs>
</svg>
