<?xml version="1.0" encoding="UTF-8" standalone="no"?>
<svg xmlns:xlink="http://www.w3.org/1999/xlink" height="113.2px" width="104.05px" xmlns="http://www.w3.org/2000/svg">
  <g transform="matrix(1.0, 0.0, 0.0, 1.0, 31.75, 22.1)">
    <use height="69.85" transform="matrix(1.0, 0.0, 0.0, 1.0, -19.95, -10.5)" width="83.75" xlink:href="#shape0"/>
  </g>
  <defs>
    <g id="shape0" transform="matrix(1.0, 0.0, 0.0, 1.0, 19.95, 10.5)">
      <path d="M14.35 -6.95 L21.0 -10.5 27.75 -6.75 Q24.25 -4.95 20.75 -3.2 L14.35 -6.95" fill="#ffffff" fill-rule="evenodd" stroke="none"/>
      <path d="M14.35 -2.5 L14.35 -6.95 20.75 -3.2 20.75 4.35 14.35 0.75 14.35 -2.5" fill="#7b8e8d" fill-rule="evenodd" stroke="none"/>
      <path d="M27.75 -6.75 L27.75 -2.75 27.75 0.55 20.75 4.35 20.75 -3.2 Q24.25 -4.95 27.75 -6.75" fill="#ccead5" fill-rule="evenodd" stroke="none"/>
      <path d="M46.4 10.2 L46.5 10.15 46.5 13.75 46.5 17.9 20.6 32.3 20.6 24.6 20.6 24.55 35.75 16.15 39.55 17.7 41.65 13.15 46.4 10.2 M10.85 21.9 L13.9 16.7 14.2 20.5 10.85 21.9" fill="#9fc6ba" fill-rule="evenodd" stroke="none"/>
      <path d="M46.5 13.75 L54.75 18.75 37.15 28.65 30.35 28.9 29.1 33.0 20.2 37.95 2.65 26.95 1.65 22.65 -4.35 22.65 -11.45 18.2 -2.95 13.65 -2.95 17.6 20.55 32.15 20.55 24.6 20.6 24.6 20.6 32.3 46.5 17.9 46.5 13.75" fill="#809b93" fill-rule="evenodd" stroke="none"/>
      <path d="M54.75 18.75 L54.95 18.6 54.95 22.0 54.95 27.3 20.2 46.65 20.2 46.5 20.2 37.95 29.1 33.0 33.8 34.95 37.15 28.65 54.75 18.75" fill="#87b1a0" fill-rule="evenodd" stroke="none"/>
      <path d="M36.15 4.05 L46.4 10.2 41.65 13.15 35.75 12.15 35.75 16.15 20.6 24.55 20.6 24.6 20.55 24.6 14.2 20.5 13.9 16.7 8.1 16.7 -2.95 9.85 6.05 4.95 6.05 9.85 20.65 18.25 20.7 15.4 20.7 18.35 36.15 9.4 36.15 4.05" fill="#dfe2dc" fill-rule="evenodd" stroke="none"/>
      <path d="M50.4 31.6 L53.05 36.55 49.15 34.95 50.4 31.6" fill="#99afa0" fill-rule="evenodd" stroke="none"/>
      <path d="M63.35 27.1 L63.45 27.0 63.45 27.15 63.45 27.25 63.8 34.1 21.85 59.35 21.5 51.3 49.15 34.95 53.05 36.55 55.95 31.2 63.35 27.1" fill="#79a091" fill-rule="evenodd" stroke="none"/>
      <path d="M54.95 22.0 L63.35 27.1 55.95 31.2 50.4 31.6 49.15 34.95 21.5 51.3 -19.95 26.5 -11.45 21.9 -11.45 26.9 20.2 46.5 20.2 46.65 54.95 27.3 54.95 22.0 M63.45 27.15 L63.55 27.2 63.45 27.25 63.45 27.15" fill="#417665" fill-rule="evenodd" stroke="none"/>
      <path d="M50.4 31.6 L55.95 31.2 53.05 36.55 50.4 31.6" fill="#3a6d5c" fill-rule="evenodd" stroke="none"/>
      <path d="M36.15 2.15 L36.15 4.05 36.15 9.4 20.7 18.35 20.7 15.4 20.7 10.9 36.15 2.15 M35.75 12.15 L41.65 13.15 39.55 17.7 35.75 12.15 M13.9 16.7 L10.85 21.9 8.1 16.7 13.9 16.7 M29.1 33.0 L30.35 28.9 33.8 34.95 29.1 33.0" fill="#bcd8c5" fill-rule="evenodd" stroke="none"/>
      <path d="M27.75 -2.75 L36.15 2.15 20.7 10.9 6.05 2.35 14.35 -2.5 14.35 0.75 20.75 4.35 27.75 0.55 27.75 -2.75" fill="#f6f9f3" fill-rule="evenodd" stroke="none"/>
      <path d="M6.05 4.95 L6.05 2.35 20.7 10.9 20.7 15.4 20.65 18.25 6.05 9.85 6.05 4.95" fill="#6e7b7c" fill-rule="evenodd" stroke="none"/>
      <path d="M35.75 16.15 L35.75 12.15 39.55 17.7 35.75 16.15" fill="#e7eae4" fill-rule="evenodd" stroke="none"/>
      <path d="M-2.95 13.65 L-2.95 9.85 8.1 16.7 10.85 21.9 14.2 20.5 20.55 24.6 20.55 32.15 -2.95 17.6 -2.95 13.65 M1.65 22.65 L2.65 26.95 -1.2 28.55 1.65 22.65" fill="#556962" fill-rule="evenodd" stroke="none"/>
      <path d="M-11.45 21.9 L-11.45 18.2 -4.35 22.65 -1.2 28.55 2.65 26.95 20.2 37.95 20.2 46.5 -11.45 26.9 -11.45 21.9" fill="#2a4f43" fill-rule="evenodd" stroke="none"/>
      <path d="M30.35 28.9 L37.15 28.65 33.8 34.95 30.35 28.9" fill="#718c82" fill-rule="evenodd" stroke="none"/>
      <path d="M21.85 59.35 L-19.95 34.1 -19.95 26.5 21.5 51.3 21.85 59.35" fill="#1a392f" fill-rule="evenodd" stroke="none"/>
      <path d="M-1.2 28.55 L-4.35 22.65 1.65 22.65 -1.2 28.55" fill="#8bada2" fill-rule="evenodd" stroke="none"/>
    </g>
  </defs>
</svg>
