<?xml version="1.0" encoding="UTF-8" standalone="no"?>
<svg xmlns:xlink="http://www.w3.org/1999/xlink" height="113.2px" width="104.05px" xmlns="http://www.w3.org/2000/svg">
  <g transform="matrix(1.0, 0.0, 0.0, 1.0, 31.75, 22.1)">
    <use height="78.4" transform="matrix(1.0, 0.0, 0.0, 1.0, -27.9, -17.15)" width="99.6" xlink:href="#shape0"/>
    <use height="118.3" transform="matrix(0.4992, 0.0, 0.0, 0.4992, 21.7, -16.7)" width="42.2" xlink:href="#sprite0"/>
    <use height="125.7" transform="matrix(0.4992, 0.0, 0.0, 0.4992, 7.1, -7.45)" width="31.8" xlink:href="#sprite1"/>
    <use height="49.15" transform="matrix(1.0, 0.0, 0.0, 1.0, 7.9, 14.15)" width="50.15" xlink:href="#shape3"/>
  </g>
  <defs>
    <g id="shape0" transform="matrix(1.0, 0.0, 0.0, 1.0, 27.9, 17.15)">
      <path d="M71.7 35.5 L21.55 61.25 -26.45 34.55 23.15 6.4 71.7 35.5" fill="#242422" fill-rule="evenodd" stroke="none"/>
      <path d="M40.25 33.95 L25.5 26.2 39.1 -6.1 40.25 33.95" fill="#1d1d1b" fill-rule="evenodd" stroke="none"/>
      <path d="M39.1 -6.1 L54.65 27.15 40.25 33.95 39.1 -6.1" fill="#6d6d6c" fill-rule="evenodd" stroke="none"/>
      <path d="M23.05 42.55 L2.05 31.95 21.8 -17.15 23.05 42.55" fill="#1e1e1e" fill-rule="evenodd" stroke="none"/>
      <path d="M21.8 -17.15 L42.85 33.05 23.05 42.55 21.8 -17.15" fill="#888887" fill-rule="evenodd" stroke="none"/>
      <path d="M-8.7 1.9 L-10.3 44.7 -27.9 34.0 -8.7 1.9" fill="#1e1e1e" fill-rule="evenodd" stroke="none"/>
      <path d="M-10.3 44.7 L-8.7 1.9 4.0 35.25 -10.3 44.7" fill="#5c5c5b" fill-rule="evenodd" stroke="none"/>
      <path d="M7.0 -6.85 L23.85 43.0 7.9 55.2 7.0 -6.85" fill="#6f6f6e" fill-rule="evenodd" stroke="none"/>
      <path d="M7.0 -6.85 L7.9 55.2 -10.2 44.65 7.0 -6.85" fill="#1e1e1e" fill-rule="evenodd" stroke="none"/>
      <path d="M56.2 13.65 L71.7 35.6 57.95 42.55 56.2 13.65" fill="#939393" fill-rule="evenodd" stroke="none"/>
      <path d="M57.95 42.55 L43.35 34.35 56.2 13.65 57.95 42.55" fill="#1e1e1e" fill-rule="evenodd" stroke="none"/>
    </g>
    <g id="sprite0" transform="matrix(1.0, 0.0, 0.0, 1.0, 0.0, 0.0)">
      <use height="118.3" transform="matrix(1.0, 0.0, 0.0, 1.0, 0.0, 0.0)" width="42.2" xlink:href="#shape1"/>
    </g>
    <g id="shape1" transform="matrix(1.0, 0.0, 0.0, 1.0, 0.0, 0.0)">
      <path d="M42.2 99.5 L2.7 118.3 0.0 0.0 42.2 99.5" fill="url(#gradient0)" fill-rule="evenodd" stroke="none"/>
    </g>
    <linearGradient gradientTransform="matrix(0.0327, 0.0567, 0.0567, -0.0327, 2.2, 60.65)" gradientUnits="userSpaceOnUse" id="gradient0" spreadMethod="pad" x1="-819.2" x2="819.2">
      <stop offset="0.4392156862745098" stop-color="#1d1d1b" stop-opacity="0.0"/>
      <stop offset="1.0" stop-color="#61287e"/>
    </linearGradient>
    <g id="sprite1" transform="matrix(1.0, 0.0, 0.0, 1.0, 0.0, 0.0)">
      <use height="125.7" transform="matrix(1.0, 0.0, 0.0, 1.0, 0.0, 0.0)" width="31.8" xlink:href="#shape2"/>
    </g>
    <g id="shape2" transform="matrix(1.0, 0.0, 0.0, 1.0, 0.0, 0.0)">
      <path d="M31.8 100.15 L1.5 125.7 0.0 0.0 31.8 100.15" fill="url(#gradient1)" fill-rule="evenodd" stroke="none"/>
    </g>
    <linearGradient gradientTransform="matrix(0.0334, 0.0579, 0.0579, -0.0334, 0.75, 62.85)" gradientUnits="userSpaceOnUse" id="gradient1" spreadMethod="pad" x1="-819.2" x2="819.2">
      <stop offset="0.6862745098039216" stop-color="#1d1d1b" stop-opacity="0.0"/>
      <stop offset="1.0" stop-color="#61287e"/>
    </linearGradient>
    <g id="shape3" transform="matrix(1.0, 0.0, 0.0, 1.0, -7.9, -14.15)">
      <path d="M39.95 53.8 L26.45 42.4 39.95 14.15 39.95 53.8" fill="#1e1e1e" fill-rule="evenodd" stroke="none"/>
      <path d="M39.95 14.15 L58.05 42.75 39.95 53.8 39.95 14.15" fill="#828281" fill-rule="evenodd" stroke="none"/>
      <path d="M23.45 28.95 L22.3 63.3 7.9 55.2 23.45 28.95" fill="#1e1e1e" fill-rule="evenodd" stroke="none"/>
      <path d="M23.45 28.95 L40.3 53.8 22.3 63.3 23.45 28.95" fill="#747473" fill-rule="evenodd" stroke="none"/>
    </g>
  </defs>
</svg>
