<?xml version="1.0" encoding="UTF-8" standalone="no"?>
<svg xmlns:xlink="http://www.w3.org/1999/xlink" height="113.2px" width="104.05px" xmlns="http://www.w3.org/2000/svg">
  <g transform="matrix(1.0, 0.0, 0.0, 1.0, 31.75, 22.1)">
    <use height="29.8" transform="matrix(2.5936, 0.0, 0.0, 2.5906, -28.6336, -12.7407)" width="38.75" xlink:href="#shape0"/>
    <use height="2.6" transform="matrix(0.5, 0.0, 0.0, 0.5, 15.375, -0.15)" width="2.5" xlink:href="#sprite0"/>
    <use height="2.6" transform="matrix(0.5, 0.0, 0.0, 0.5, 18.875, 6.8)" width="2.5" xlink:href="#sprite0"/>
    <use height="2.6" transform="matrix(0.5, 0.0, 0.0, 0.5, 18.125, -7.9)" width="2.5" xlink:href="#sprite0"/>
    <use height="2.6" transform="matrix(0.5, 0.0, 0.0, 0.5, 23.375, -1.4)" width="2.5" xlink:href="#sprite0"/>
    <use height="2.6" transform="matrix(0.5, 0.0, 0.0, 0.5, 28.875, 1.85)" width="2.5" xlink:href="#sprite0"/>
    <use height="2.6" transform="matrix(0.5, 0.0, 0.0, 0.5, 24.375, 6.35)" width="2.5" xlink:href="#sprite0"/>
    <use height="2.6" transform="matrix(0.5, 0.0, 0.0, 0.5, 6.875, 18.85)" width="2.5" xlink:href="#sprite0"/>
    <use height="2.6" transform="matrix(0.5, 0.0, 0.0, 0.5, -1.375, 26.1)" width="2.5" xlink:href="#sprite0"/>
    <use height="2.6" transform="matrix(0.5, 0.0, 0.0, 0.5, 9.125, 22.1)" width="2.5" xlink:href="#sprite0"/>
    <use height="2.6" transform="matrix(0.5, 0.0, 0.0, 0.5, 23.875, 10.6)" width="2.5" xlink:href="#sprite0"/>
    <use height="2.6" transform="matrix(0.5, 0.0, 0.0, 0.5, -4.975, 13.5)" width="2.5" xlink:href="#sprite0"/>
    <use height="2.6" transform="matrix(0.5, 0.0, 0.0, 0.5, -6.475, 18.95)" width="2.5" xlink:href="#sprite0"/>
    <use height="2.6" transform="matrix(0.5, 0.0, 0.0, 0.5, -13.125, 20.25)" width="2.5" xlink:href="#sprite0"/>
  </g>
  <defs>
    <g id="shape0" transform="matrix(1.0, 0.0, 0.0, 1.0, 19.6, 30.8)">
      <path d="M-0.15 -21.45 L5.3 -24.7 5.35 -23.55 -0.15 -20.15 -0.15 -21.45 M-3.3 -18.3 L-3.3 -17.25 -9.15 -13.75 -9.15 -14.85 -3.3 -18.3" fill="#c2feff" fill-rule="evenodd" stroke="none"/>
      <path d="M-0.55 -30.8 L5.3 -24.7 -0.15 -21.45 -0.55 -30.8 M-8.9 -22.4 L-7.75 -21.55 -3.3 -18.3 -9.15 -14.85 -8.9 -22.4" fill="#e8ffff" fill-rule="evenodd" stroke="none"/>
      <path d="M-14.7 -16.75 L-14.95 -17.7 -9.15 -14.85 -9.15 -13.75 -14.7 -16.75 M-6.25 -23.9 L-6.15 -24.95 -0.15 -21.45 -0.15 -20.15 -6.25 -23.9" fill="#4ffaff" fill-rule="evenodd" stroke="none"/>
      <path d="M19.15 -12.45 L11.1 -7.55 10.7 -7.35 4.1 -15.1 -0.2 -1.0 -10.3 -6.95 -19.6 -12.5 -14.7 -16.75 -9.15 -13.75 -10.3 -6.95 -3.3 -17.25 -3.3 -18.3 -7.75 -21.55 -6.25 -23.9 -0.15 -20.15 -0.15 -10.65 4.1 -15.1 19.15 -12.45" fill="#666666" fill-rule="evenodd" stroke="none"/>
      <path d="M5.35 -23.55 L10.9 -18.15 4.1 -15.1 -0.15 -10.65 -0.15 -20.15 5.35 -23.55 M10.7 -7.35 L-0.2 -1.0 4.1 -15.1 10.7 -7.35 M-9.15 -13.75 L-3.3 -17.25 -10.3 -6.95 -9.15 -13.75" fill="#999999" fill-rule="evenodd" stroke="none"/>
      <path d="M10.9 -18.15 L19.15 -12.45 4.1 -15.1 10.9 -18.15" fill="#cccccc" fill-rule="evenodd" stroke="none"/>
      <path d="M-0.55 -30.8 L-0.15 -21.45 -6.15 -24.95 -0.55 -30.8 M-14.95 -17.7 L-8.9 -22.4 -9.15 -14.85 -14.95 -17.7" fill="#8dfeff" fill-rule="evenodd" stroke="none"/>
    </g>
    <g id="sprite0" transform="matrix(1.0, 0.0, 0.0, 1.0, 1.35, 1.3)">
      <use height="12.0" transform="matrix(0.2125, 0.0, 0.0, 0.2167, -1.375, -1.3)" width="12.0" xlink:href="#shape1"/>
    </g>
    <g id="shape1" transform="matrix(1.0, 0.0, 0.0, 1.0, 6.0, 6.0)">
      <path d="M-6.0 -6.0 L6.0 -6.0 6.0 6.0 -6.0 6.0 -6.0 -6.0" fill="#ffffff" fill-rule="evenodd" stroke="none"/>
    </g>
  </defs>
</svg>
