<?xml version="1.0" encoding="UTF-8" standalone="no"?>
<svg xmlns:xlink="http://www.w3.org/1999/xlink" height="113.2px" width="104.05px" xmlns="http://www.w3.org/2000/svg">
  <g transform="matrix(1.0, 0.0, 0.0, 1.0, 31.75, 22.1)">
    <use height="83.95" transform="matrix(1.0, 0.0, 0.0, 1.0, -28.6, -19.3)" width="100.5" xlink:href="#shape0"/>
    <use height="2.6" transform="matrix(0.4953, 0.0, 0.0, 0.5, 14.4813, 4.6)" width="2.5" xlink:href="#sprite0"/>
    <use height="2.6" transform="matrix(0.4953, 0.0, 0.0, 0.5, 16.3313, -4.75)" width="2.5" xlink:href="#sprite0"/>
    <use height="2.6" transform="matrix(0.4953, 0.0, 0.0, 0.5, 19.1813, -12.15)" width="2.5" xlink:href="#sprite0"/>
    <use height="2.6" transform="matrix(0.4953, 0.0, 0.0, 0.5, 25.1313, -4.4)" width="2.5" xlink:href="#sprite0"/>
    <use height="2.6" transform="matrix(0.4953, 0.0, 0.0, 0.5, 26.8813, 4.35)" width="2.5" xlink:href="#sprite0"/>
    <use height="2.6" transform="matrix(0.4953, 0.0, 0.0, 0.5, 23.3813, -10.9)" width="2.5" xlink:href="#sprite0"/>
  </g>
  <defs>
    <g id="shape0" transform="matrix(1.0, 0.0, 0.0, 1.0, 28.6, 19.3)">
      <path d="M56.05 44.0 L52.6 46.1 51.6 46.7 51.2 46.95 50.95 47.1 50.6 47.3 Q50.4 47.4 50.35 47.45 L49.65 47.9 42.7 52.15 34.9 34.65 38.75 27.75 56.05 44.0 M34.15 57.35 L30.45 59.7 30.2 59.85 21.7 64.65 21.45 41.75 25.75 35.15 34.15 57.35 M51.75 21.45 L71.9 34.65 Q69.15 35.95 67.0 37.3 L64.35 38.95 64.3 38.95 45.75 27.6 51.75 21.45 M-9.3 46.5 L-9.2 46.6 -9.85 46.2 -9.3 46.5" fill="#999999" fill-rule="evenodd" stroke="none"/>
      <path d="M30.0 4.3 L31.15 16.45 27.65 -0.25 30.0 4.3 M24.35 6.75 L21.45 17.3 23.75 2.1 24.35 6.75 M25.75 35.15 L25.75 18.15 34.9 34.65 25.75 35.15 M38.75 27.75 L35.4 15.9 45.75 27.6 38.75 27.75" fill="#ffffff" fill-rule="evenodd" stroke="none"/>
      <path d="M-5.95 19.45 L5.9 9.2 5.95 9.2 14.2 1.95 12.35 13.3 18.95 5.05 21.45 17.3 21.45 41.75 16.85 35.75 18.45 13.05 8.65 34.05 6.35 26.75 10.95 11.3 -1.7 25.95 -5.95 19.45" fill="#666666" fill-rule="evenodd" stroke="none"/>
      <path d="M50.95 47.1 L49.65 47.9 50.35 47.45 Q50.4 47.4 50.6 47.3 L50.95 47.1 M42.7 52.15 L34.15 57.35 25.75 35.15 21.45 41.75 21.45 17.3 24.35 6.75 31.15 16.45 30.0 4.3 36.3 8.05 51.75 21.45 45.75 27.6 64.3 38.95 56.05 44.0 38.75 27.75 34.9 34.65 42.7 52.15 M25.75 35.15 L34.9 34.65 25.75 18.15 25.75 35.15 M38.75 27.75 L45.75 27.6 35.4 15.9 38.75 27.75" fill="#cccccc" fill-rule="evenodd" stroke="none"/>
      <path d="M21.7 64.65 L9.4 57.85 16.85 35.75 8.65 34.05 0.2 52.25 Q-5.5 48.85 -11.25 45.4 L-10.0 46.1 -11.8 45.05 6.35 26.75 -1.7 25.95 -18.9 40.8 -28.6 34.65 -5.95 19.45 -1.7 25.95 10.95 11.3 6.35 26.75 8.65 34.05 18.45 13.05 16.85 35.75 21.45 41.75 21.7 64.65 M-4.55 29.95 L-4.6 29.85 -4.55 29.85 -4.55 29.95 M-9.3 46.5 L-9.85 46.2 -9.2 46.6 -9.3 46.5" fill="#464646" fill-rule="evenodd" stroke="none"/>
      <path d="M9.4 57.85 L0.2 52.25 8.65 34.05 16.85 35.75 9.4 57.85 M-11.8 45.05 L-18.9 40.8 -1.7 25.95 6.35 26.75 -11.8 45.05 M-4.55 29.95 L-4.55 29.85 -4.6 29.85 -4.55 29.95" fill="#333333" fill-rule="evenodd" stroke="none"/>
      <path d="M21.45 -19.3 L36.3 8.05 27.65 -0.25 31.15 16.45 23.75 2.1 21.45 17.3 21.45 -19.3" fill="#e8ffff" fill-rule="evenodd" stroke="none"/>
      <path d="M5.95 9.2 L21.45 -19.3 21.45 17.3 19.7 1.55 12.35 13.3 15.5 -0.75 5.95 9.2" fill="#97feff" fill-rule="evenodd" stroke="none"/>
      <path d="M36.3 8.05 L30.0 4.3 27.65 -0.25 36.3 8.05 M31.15 16.45 L24.35 6.75 23.75 2.1 31.15 16.45 M18.95 5.05 L12.35 13.3 19.7 1.55 18.95 5.05 M14.2 1.95 L5.95 9.2 15.5 -0.75 14.2 1.95" fill="#c2feff" fill-rule="evenodd" stroke="none"/>
      <path d="M21.45 17.3 L18.95 5.05 19.7 1.55 21.45 17.3 M12.35 13.3 L14.2 1.95 15.5 -0.75 12.35 13.3" fill="#4ffaff" fill-rule="evenodd" stroke="none"/>
    </g>
    <g id="sprite0" transform="matrix(1.0, 0.0, 0.0, 1.0, 1.35, 1.3)">
      <use height="12.0" transform="matrix(0.2125, 0.0, 0.0, 0.2167, -1.375, -1.3)" width="12.0" xlink:href="#shape1"/>
    </g>
    <g id="shape1" transform="matrix(1.0, 0.0, 0.0, 1.0, 6.0, 6.0)">
      <path d="M-6.0 -6.0 L6.0 -6.0 6.0 6.0 -6.0 6.0 -6.0 -6.0" fill="#ffffff" fill-rule="evenodd" stroke="none"/>
    </g>
  </defs>
</svg>
