<?xml version="1.0" encoding="UTF-8" standalone="no"?>
<svg xmlns:xlink="http://www.w3.org/1999/xlink" height="113.2px" width="104.05px" xmlns="http://www.w3.org/2000/svg">
  <g transform="matrix(1.0, 0.0, 0.0, 1.0, 31.75, 22.1)">
    <use height="101.9" transform="matrix(1.0, 0.0, 0.0, 1.0, -31.75, -10.8)" width="103.7" xlink:href="#shape0"/>
  </g>
  <defs>
    <g id="shape0" transform="matrix(1.0, 0.0, 0.0, 1.0, 31.75, 10.8)">
      <path d="M11.35 -1.4 L17.25 -4.35 20.7 -0.5 11.35 -1.4" fill="#d8d8d8" fill-rule="evenodd" stroke="none"/>
      <path d="M17.25 -4.35 L20.95 -5.95 26.05 -3.9 20.75 -0.5 20.7 -0.5 17.25 -4.35" fill="#c6c6c6" fill-rule="evenodd" stroke="none"/>
      <path d="M26.05 -3.9 L31.9 -0.75 20.75 -0.5 26.05 -3.9" fill="#b5b5b5" fill-rule="evenodd" stroke="none"/>
      <path d="M11.35 -1.4 L20.7 -0.5 20.75 -0.5 31.9 -0.75 22.85 1.6 20.7 -0.45 16.8 0.5 11.35 -1.4" fill="#999999" fill-rule="evenodd" stroke="none"/>
      <path d="M22.85 1.6 L20.7 2.95 16.8 0.5 20.7 -0.45 22.85 1.6" fill="#919191" fill-rule="evenodd" stroke="none"/>
      <path d="M31.9 -0.75 L25.95 3.75 20.7 2.95 22.85 1.6 31.9 -0.75" fill="#c1c1c1" fill-rule="evenodd" stroke="none"/>
      <path d="M20.7 2.95 L25.95 3.75 21.45 35.5 20.7 2.95" fill="#939393" fill-rule="evenodd" stroke="none"/>
      <path d="M16.8 0.5 L20.7 2.95 14.9 24.35 11.35 -1.4 16.8 0.5 M5.75 28.4 L5.7 28.3 5.75 28.3 5.75 28.4" fill="#464646" fill-rule="evenodd" stroke="none"/>
      <path d="M34.15 26.7 L21.45 35.5 25.95 3.75 34.15 26.7" fill="#848484" fill-rule="evenodd" stroke="none"/>
      <path d="M21.45 35.5 L14.9 24.35 20.7 2.95 21.45 35.5" fill="#353535" fill-rule="evenodd" stroke="none"/>
      <path d="M21.45 35.5 L8.75 26.95 11.35 -1.4 14.9 24.35 21.45 35.5" fill="#3f3f3f" fill-rule="evenodd" stroke="none"/>
      <path d="M31.9 -0.75 L34.15 26.7 25.95 3.75 31.9 -0.75" fill="#8c8c8c" fill-rule="evenodd" stroke="none"/>
      <path d="M29.0 -1.55 L34.3 -4.95 40.15 -1.8 29.0 -1.55" fill="#b5b5b5" fill-rule="evenodd" stroke="none"/>
      <path d="M28.95 -1.55 L29.0 -1.55 40.15 -1.8 31.1 0.55 28.95 -1.5 24.55 3.45 19.1 0.1 28.95 -1.55" fill="#999999" fill-rule="evenodd" stroke="none"/>
      <path d="M29.0 -1.55 L28.95 -1.55 25.5 -5.4 29.2 -7.0 34.3 -4.95 29.0 -1.55" fill="#c6c6c6" fill-rule="evenodd" stroke="none"/>
      <path d="M25.5 -5.4 L28.95 -1.55 19.1 0.1 25.5 -5.4" fill="#d8d8d8" fill-rule="evenodd" stroke="none"/>
      <path d="M24.55 3.45 L28.95 -1.5 31.1 0.55 28.95 5.4 24.55 3.45" fill="#919191" fill-rule="evenodd" stroke="none"/>
      <path d="M19.1 0.1 L24.55 3.45 28.95 5.4 23.9 25.55 19.1 0.1 M14.0 27.35 L13.95 27.25 14.0 27.25 14.0 27.35" fill="#464646" fill-rule="evenodd" stroke="none"/>
      <path d="M31.1 0.55 L40.15 -1.8 34.2 2.7 28.95 5.4 31.1 0.55" fill="#c1c1c1" fill-rule="evenodd" stroke="none"/>
      <path d="M28.95 5.4 L34.2 2.7 28.95 48.0 28.95 5.4" fill="#939393" fill-rule="evenodd" stroke="none"/>
      <path d="M28.95 48.0 L23.9 25.55 28.95 5.4 28.95 48.0" fill="#353535" fill-rule="evenodd" stroke="none"/>
      <path d="M28.95 48.0 L17.25 40.75 19.1 0.1 23.9 25.55 28.95 48.0" fill="#3f3f3f" fill-rule="evenodd" stroke="none"/>
      <path d="M39.4 41.25 L28.95 48.0 34.2 2.7 39.4 41.25" fill="#848484" fill-rule="evenodd" stroke="none"/>
      <path d="M40.15 -1.8 L39.4 41.25 34.2 2.7 40.15 -1.8" fill="#8c8c8c" fill-rule="evenodd" stroke="none"/>
      <path d="M7.0 4.55 L9.25 32.0 1.05 9.05 7.0 4.55" fill="#8c8c8c" fill-rule="evenodd" stroke="none"/>
      <path d="M9.25 32.0 L-3.45 40.8 1.05 9.05 9.25 32.0" fill="#848484" fill-rule="evenodd" stroke="none"/>
      <path d="M7.0 4.55 L1.05 9.05 -2.4 10.9 -2.05 6.9 7.0 4.55" fill="#c1c1c1" fill-rule="evenodd" stroke="none"/>
      <path d="M1.15 1.4 L7.0 4.55 -4.15 4.8 1.15 1.4" fill="#b5b5b5" fill-rule="evenodd" stroke="none"/>
      <path d="M-7.65 0.95 L-3.95 -0.65 1.15 1.4 -4.15 4.8 -4.2 4.8 -7.65 0.95" fill="#c6c6c6" fill-rule="evenodd" stroke="none"/>
      <path d="M-13.55 3.9 L-7.65 0.95 -4.2 4.8 -13.55 3.9" fill="#d8d8d8" fill-rule="evenodd" stroke="none"/>
      <path d="M-4.15 4.8 L7.0 4.55 -2.05 6.9 -4.2 4.85 -8.1 5.8 -13.55 3.9 -4.2 4.8 -4.15 4.8" fill="#999999" fill-rule="evenodd" stroke="none"/>
      <path d="M-2.05 6.9 L-2.4 10.9 -8.1 5.8 -4.2 4.85 -2.05 6.9" fill="#919191" fill-rule="evenodd" stroke="none"/>
      <path d="M-8.1 5.8 L-2.4 10.9 -10.0 29.65 -13.55 3.9 -8.1 5.8 M-19.15 33.7 L-19.2 33.6 -19.15 33.6 -19.15 33.7" fill="#464646" fill-rule="evenodd" stroke="none"/>
      <path d="M-3.45 40.8 L-16.15 32.25 -13.55 3.9 -10.0 29.65 -3.45 40.8" fill="#3f3f3f" fill-rule="evenodd" stroke="none"/>
      <path d="M-3.45 40.8 L-10.0 29.65 -2.4 10.9 -3.45 40.8" fill="#353535" fill-rule="evenodd" stroke="none"/>
      <path d="M-2.4 10.9 L1.05 9.05 -3.45 40.8 -2.4 10.9" fill="#939393" fill-rule="evenodd" stroke="none"/>
      <path d="M-14.6 18.95 L-5.55 16.6 -11.5 21.1 -16.75 20.3 -14.6 18.95" fill="#c1c1c1" fill-rule="evenodd" stroke="none"/>
      <path d="M-16.75 20.3 L-11.5 21.1 -14.0 68.2 -16.75 20.3" fill="#939393" fill-rule="evenodd" stroke="none"/>
      <path d="M-22.2 16.05 L-16.5 13.2 -12.65 14.2 -16.7 16.85 -16.75 16.85 -22.2 16.05" fill="#c6c6c6" fill-rule="evenodd" stroke="none"/>
      <path d="M-16.75 16.85 L-16.7 16.85 -5.55 16.6 -14.6 18.95 -16.75 16.9 -21.95 20.85 -29.35 18.2 -16.75 16.85" fill="#999999" fill-rule="evenodd" stroke="none"/>
      <path d="M-21.95 20.85 L-16.75 16.9 -14.6 18.95 -16.75 20.3 -21.95 20.85" fill="#919191" fill-rule="evenodd" stroke="none"/>
      <path d="M-12.65 14.2 L-5.55 16.6 -16.7 16.85 -12.65 14.2" fill="#b5b5b5" fill-rule="evenodd" stroke="none"/>
      <path d="M-5.55 16.6 L-3.55 36.5 -11.5 21.1 -5.55 16.6" fill="#8c8c8c" fill-rule="evenodd" stroke="none"/>
      <path d="M-19.75 67.55 L-24.6 68.85 -29.35 18.2 -21.95 20.85 -16.75 20.3 -19.75 67.55 M-31.7 45.75 L-31.75 45.65 -31.7 45.65 -31.7 45.75" fill="#464646" fill-rule="evenodd" stroke="none"/>
      <path d="M-29.35 18.2 L-22.2 16.05 -16.75 16.85 -29.35 18.2" fill="#d8d8d8" fill-rule="evenodd" stroke="none"/>
      <path d="M-3.55 36.5 L-14.0 68.2 -11.5 21.1 -3.55 36.5" fill="#848484" fill-rule="evenodd" stroke="none"/>
      <path d="M-24.6 68.85 L-28.7 61.65 -29.35 18.2 -24.6 68.85" fill="#3f3f3f" fill-rule="evenodd" stroke="none"/>
      <path d="M-14.0 68.2 L-19.75 67.55 -16.75 20.3 -14.0 68.2" fill="#353535" fill-rule="evenodd" stroke="none"/>
      <path d="M8.9 -3.85 L8.85 -5.3 8.85 -4.35 5.4 -9.2 9.1 -10.8 14.2 -8.75 8.9 -3.85" fill="#c6c6c6" fill-rule="evenodd" stroke="none"/>
      <path d="M8.25 -4.4 L-2.1 -5.45 5.4 -9.2 8.85 -4.35 8.25 -4.4" fill="#d8d8d8" fill-rule="evenodd" stroke="none"/>
      <path d="M4.45 -1.3 L8.25 -4.4 8.85 -4.35 8.85 -5.3 8.9 -3.85 10.2 -4.05 11.0 -3.25 8.85 2.45 4.45 -1.3" fill="#919191" fill-rule="evenodd" stroke="none"/>
      <path d="M8.25 -4.4 L4.45 -1.3 -2.1 -5.45 8.25 -4.4 M11.0 -3.25 L10.2 -4.05 20.05 -5.6 11.0 -3.25" fill="#999999" fill-rule="evenodd" stroke="none"/>
      <path d="M10.2 -4.05 L8.9 -3.85 14.2 -8.75 20.05 -5.6 10.2 -4.05" fill="#b5b5b5" fill-rule="evenodd" stroke="none"/>
      <path d="M8.85 2.45 L11.0 -3.25 20.05 -5.6 15.1 0.4 8.85 2.45" fill="#c1c1c1" fill-rule="evenodd" stroke="none"/>
      <path d="M8.85 44.2 L3.8 21.75 8.85 2.45 8.85 44.2" fill="#353535" fill-rule="evenodd" stroke="none"/>
      <path d="M8.85 44.2 L-3.5 35.7 -2.1 -5.45 3.8 21.75 8.85 44.2" fill="#3f3f3f" fill-rule="evenodd" stroke="none"/>
      <path d="M19.3 37.45 L8.85 44.2 15.1 0.4 19.3 37.45" fill="#848484" fill-rule="evenodd" stroke="none"/>
      <path d="M-2.1 -5.45 L4.45 -1.3 8.85 2.45 3.8 21.75 -2.1 -5.45 M-6.1 23.55 L-6.15 23.45 -6.1 23.45 -6.1 23.55" fill="#464646" fill-rule="evenodd" stroke="none"/>
      <path d="M8.85 2.45 L15.1 0.4 8.85 44.2 8.85 2.45" fill="#939393" fill-rule="evenodd" stroke="none"/>
      <path d="M20.05 -5.6 L19.3 37.45 15.1 0.4 20.05 -5.6" fill="#8c8c8c" fill-rule="evenodd" stroke="none"/>
      <path d="M68.7 13.7 L62.75 18.2 58.0 20.9 59.65 16.05 68.7 13.7" fill="#c1c1c1" fill-rule="evenodd" stroke="none"/>
      <path d="M62.75 18.2 L68.7 13.7 71.95 34.65 71.95 62.3 62.75 18.2" fill="#8c8c8c" fill-rule="evenodd" stroke="none"/>
      <path d="M62.85 10.55 L68.7 13.7 57.55 13.95 62.85 10.55" fill="#b5b5b5" fill-rule="evenodd" stroke="none"/>
      <path d="M62.85 10.55 L57.55 13.95 57.5 13.95 54.05 10.1 57.75 8.5 62.85 10.55" fill="#c6c6c6" fill-rule="evenodd" stroke="none"/>
      <path d="M68.7 13.7 L59.65 16.05 57.5 14.0 53.6 17.95 48.15 13.05 57.5 13.95 57.55 13.95 68.7 13.7" fill="#999999" fill-rule="evenodd" stroke="none"/>
      <path d="M59.65 16.05 L58.0 20.9 53.6 17.95 57.5 14.0 59.65 16.05" fill="#919191" fill-rule="evenodd" stroke="none"/>
      <path d="M53.6 17.95 L58.0 20.9 51.7 38.8 48.15 13.05 53.6 17.95 M42.55 42.85 L42.5 42.75 42.55 42.75 42.55 42.85" fill="#464646" fill-rule="evenodd" stroke="none"/>
      <path d="M54.05 10.1 L57.5 13.95 48.15 13.05 54.05 10.1" fill="#d8d8d8" fill-rule="evenodd" stroke="none"/>
      <path d="M51.7 38.8 L59.25 70.85 45.8 63.5 48.15 13.05 51.7 38.8" fill="#3f3f3f" fill-rule="evenodd" stroke="none"/>
      <path d="M58.0 20.9 L59.25 70.85 51.7 38.8 58.0 20.9" fill="#353535" fill-rule="evenodd" stroke="none"/>
      <path d="M58.0 20.9 L62.75 18.2 59.25 70.85 58.0 20.9" fill="#939393" fill-rule="evenodd" stroke="none"/>
      <path d="M62.75 18.2 L71.95 62.3 59.25 70.85 62.75 18.2" fill="#848484" fill-rule="evenodd" stroke="none"/>
      <path d="M48.15 10.3 L43.35 11.4 41.2 9.35 37.3 13.3 31.85 9.4 41.2 9.3 41.25 9.3 48.15 10.3" fill="#999999" fill-rule="evenodd" stroke="none"/>
      <path d="M43.35 11.4 L48.15 10.3 46.45 13.55 40.2 16.25 43.35 11.4" fill="#c1c1c1" fill-rule="evenodd" stroke="none"/>
      <path d="M48.15 10.3 L41.25 9.3 46.55 5.9 48.15 10.3" fill="#b5b5b5" fill-rule="evenodd" stroke="none"/>
      <path d="M41.25 9.3 L41.2 9.3 37.75 5.45 46.55 5.9 41.25 9.3" fill="#c6c6c6" fill-rule="evenodd" stroke="none"/>
      <path d="M37.3 13.3 L41.2 9.35 43.35 11.4 40.2 16.25 37.3 13.3" fill="#919191" fill-rule="evenodd" stroke="none"/>
      <path d="M46.45 13.55 L48.15 10.3 49.1 44.55 46.45 13.55" fill="#8c8c8c" fill-rule="evenodd" stroke="none"/>
      <path d="M49.1 44.55 L39.7 49.05 46.45 13.55 49.1 44.55" fill="#848484" fill-rule="evenodd" stroke="none"/>
      <path d="M41.2 9.3 L31.85 9.4 37.75 5.45 41.2 9.3" fill="#d8d8d8" fill-rule="evenodd" stroke="none"/>
      <path d="M31.85 9.4 L37.3 13.3 40.2 16.25 36.15 36.4 31.85 9.4 M26.25 38.2 L26.2 38.1 26.25 38.1 26.25 38.2" fill="#464646" fill-rule="evenodd" stroke="none"/>
      <path d="M40.2 16.25 L39.7 49.05 36.15 36.4 40.2 16.25" fill="#353535" fill-rule="evenodd" stroke="none"/>
      <path d="M39.7 49.05 L33.0 44.8 31.85 9.4 36.15 36.4 39.7 49.05" fill="#3f3f3f" fill-rule="evenodd" stroke="none"/>
      <path d="M40.2 16.25 L46.45 13.55 39.7 49.05 40.2 16.25" fill="#939393" fill-rule="evenodd" stroke="none"/>
      <path d="M25.75 5.05 L20.45 8.45 20.4 8.45 16.95 4.6 20.65 3.0 25.75 5.05" fill="#c6c6c6" fill-rule="evenodd" stroke="none"/>
      <path d="M20.4 8.45 L20.45 8.45 31.6 8.2 22.55 10.55 20.4 8.5 16.5 12.95 8.8 7.05 20.4 8.45" fill="#999999" fill-rule="evenodd" stroke="none"/>
      <path d="M16.5 12.95 L20.4 8.5 22.55 10.55 20.9 15.4 16.5 12.95" fill="#919191" fill-rule="evenodd" stroke="none"/>
      <path d="M20.45 8.45 L25.75 5.05 31.6 8.2 20.45 8.45" fill="#b5b5b5" fill-rule="evenodd" stroke="none"/>
      <path d="M22.55 10.55 L31.6 8.2 25.65 12.7 20.9 15.4 22.55 10.55" fill="#c1c1c1" fill-rule="evenodd" stroke="none"/>
      <path d="M20.9 15.4 L25.65 12.7 21.15 44.45 20.9 15.4" fill="#939393" fill-rule="evenodd" stroke="none"/>
      <path d="M31.6 8.2 L33.85 35.65 25.65 12.7 31.6 8.2" fill="#8c8c8c" fill-rule="evenodd" stroke="none"/>
      <path d="M16.95 4.6 L20.4 8.45 8.8 7.05 16.95 4.6" fill="#d8d8d8" fill-rule="evenodd" stroke="none"/>
      <path d="M8.8 7.05 L16.5 12.95 20.9 15.4 14.6 33.3 8.8 7.05 M5.45 37.35 L5.4 37.25 5.45 37.25 5.45 37.35" fill="#464646" fill-rule="evenodd" stroke="none"/>
      <path d="M33.85 35.65 L21.15 44.45 25.65 12.7 33.85 35.65" fill="#848484" fill-rule="evenodd" stroke="none"/>
      <path d="M20.9 15.4 L21.15 44.45 14.6 33.3 20.9 15.4" fill="#353535" fill-rule="evenodd" stroke="none"/>
      <path d="M21.15 44.45 L8.45 35.9 8.8 7.05 14.6 33.3 21.15 44.45" fill="#3f3f3f" fill-rule="evenodd" stroke="none"/>
      <path d="M14.75 26.5 L10.8 32.5 3.55 34.2 5.7 28.85 14.75 26.5" fill="#c1c1c1" fill-rule="evenodd" stroke="none"/>
      <path d="M10.8 32.5 L14.75 26.5 20.75 45.4 10.8 32.5" fill="#8c8c8c" fill-rule="evenodd" stroke="none"/>
      <path d="M8.9 23.35 L3.6 26.75 3.55 26.75 -2.4 23.65 -2.25 22.85 8.9 23.35" fill="#c6c6c6" fill-rule="evenodd" stroke="none"/>
      <path d="M14.75 26.5 L5.7 28.85 3.55 26.8 0.15 29.8 -5.8 25.85 3.55 26.75 3.6 26.75 14.75 26.5" fill="#999999" fill-rule="evenodd" stroke="none"/>
      <path d="M5.7 28.85 L3.55 34.2 0.15 29.8 3.55 26.8 5.7 28.85" fill="#919191" fill-rule="evenodd" stroke="none"/>
      <path d="M0.15 29.8 L3.55 34.2 -5.5 74.4 -5.8 25.85 0.15 29.8" fill="#464646" fill-rule="evenodd" stroke="none"/>
      <path d="M8.9 23.35 L14.75 26.5 3.6 26.75 8.9 23.35" fill="#b5b5b5" fill-rule="evenodd" stroke="none"/>
      <path d="M3.55 34.2 L10.8 32.5 6.85 81.3 3.55 34.2" fill="#939393" fill-rule="evenodd" stroke="none"/>
      <path d="M10.8 32.5 L20.75 45.4 6.85 81.3 10.8 32.5" fill="#848484" fill-rule="evenodd" stroke="none"/>
      <path d="M3.55 34.2 L6.85 81.3 -5.5 74.4 3.55 34.2" fill="#353535" fill-rule="evenodd" stroke="none"/>
      <path d="M-5.8 25.85 L-2.4 23.65 3.55 26.75 -5.8 25.85" fill="#d8d8d8" fill-rule="evenodd" stroke="none"/>
      <path d="M-5.5 74.4 L-13.15 70.5 -5.8 25.85 -5.5 74.4" fill="#3f3f3f" fill-rule="evenodd" stroke="none"/>
      <path d="M37.2 25.6 L41.6 22.25 47.65 24.65 41.35 28.7 41.3 28.7 37.2 25.6" fill="#c6c6c6" fill-rule="evenodd" stroke="none"/>
      <path d="M41.3 28.7 L41.35 28.7 54.6 28.4 43.85 31.2 41.3 28.75 36.65 29.9 30.15 27.65 41.3 28.7" fill="#999999" fill-rule="evenodd" stroke="none"/>
      <path d="M43.85 31.2 L54.6 28.4 47.55 33.75 41.3 32.8 43.85 31.2" fill="#c1c1c1" fill-rule="evenodd" stroke="none"/>
      <path d="M47.65 24.65 L54.6 28.4 41.35 28.7 47.65 24.65" fill="#b5b5b5" fill-rule="evenodd" stroke="none"/>
      <path d="M43.85 31.2 L41.3 32.8 36.65 29.9 41.3 28.75 43.85 31.2" fill="#919191" fill-rule="evenodd" stroke="none"/>
      <path d="M41.3 32.8 L47.55 33.75 40.3 80.25 41.3 32.8" fill="#939393" fill-rule="evenodd" stroke="none"/>
      <path d="M54.6 28.4 L57.2 71.05 47.55 33.75 54.6 28.4" fill="#8c8c8c" fill-rule="evenodd" stroke="none"/>
      <path d="M36.65 29.9 L41.3 32.8 36.9 41.6 35.9 50.55 30.15 27.65 36.65 29.9 M23.5 63.1 L23.45 62.95 23.5 62.95 23.5 63.1" fill="#464646" fill-rule="evenodd" stroke="none"/>
      <path d="M30.15 27.65 L37.2 25.6 41.3 28.7 30.15 27.65" fill="#d8d8d8" fill-rule="evenodd" stroke="none"/>
      <path d="M40.3 80.25 L35.9 50.55 36.9 41.6 41.3 32.8 40.3 80.25" fill="#353535" fill-rule="evenodd" stroke="none"/>
      <path d="M40.3 80.25 L28.0 74.65 30.15 27.65 35.9 50.55 40.3 80.25" fill="#3f3f3f" fill-rule="evenodd" stroke="none"/>
      <path d="M57.2 71.05 L40.3 80.25 47.55 33.75 57.2 71.05" fill="#848484" fill-rule="evenodd" stroke="none"/>
      <path d="M11.15 35.4 L16.8 32.9 22.0 39.55 11.15 35.4" fill="#d8d8d8" fill-rule="evenodd" stroke="none"/>
      <path d="M11.15 35.4 L22.0 39.55 22.05 39.55 36.15 39.55 24.15 41.65 22.0 39.6 18.1 40.55 11.15 35.4" fill="#999999" fill-rule="evenodd" stroke="none"/>
      <path d="M11.15 35.4 L18.1 40.55 22.0 43.0 17.45 57.9 11.15 35.4 M7.05 68.45 L7.0 68.35 7.05 68.35 7.05 68.45" fill="#464646" fill-rule="evenodd" stroke="none"/>
      <path d="M20.45 35.65 L20.8 35.65 23.8 34.55 36.15 39.55 22.05 39.55 20.45 35.65" fill="#b5b5b5" fill-rule="evenodd" stroke="none"/>
      <path d="M18.1 40.55 L22.0 39.6 24.15 41.65 22.0 43.0 18.1 40.55" fill="#919191" fill-rule="evenodd" stroke="none"/>
      <path d="M24.15 41.65 L36.15 39.55 27.25 43.8 22.0 43.0 24.15 41.65" fill="#c1c1c1" fill-rule="evenodd" stroke="none"/>
      <path d="M16.8 32.9 L20.45 35.65 22.05 39.55 22.0 39.55 16.8 32.9" fill="#c6c6c6" fill-rule="evenodd" stroke="none"/>
      <path d="M22.0 43.0 L27.25 43.8 21.75 91.1 22.0 43.0" fill="#939393" fill-rule="evenodd" stroke="none"/>
      <path d="M36.15 39.55 L37.45 82.25 27.25 43.8 36.15 39.55" fill="#8c8c8c" fill-rule="evenodd" stroke="none"/>
      <path d="M22.0 43.0 L21.75 91.1 17.45 57.9 22.0 43.0" fill="#353535" fill-rule="evenodd" stroke="none"/>
      <path d="M21.75 91.1 L8.8 83.05 11.15 35.4 17.45 57.9 21.75 91.1" fill="#3f3f3f" fill-rule="evenodd" stroke="none"/>
      <path d="M37.45 82.25 L21.75 91.1 27.25 43.8 37.45 82.25" fill="#848484" fill-rule="evenodd" stroke="none"/>
    </g>
  </defs>
</svg>
