<?xml version="1.0" encoding="UTF-8" standalone="no"?>
<svg xmlns:xlink="http://www.w3.org/1999/xlink" height="113.2px" width="104.05px" xmlns="http://www.w3.org/2000/svg">
  <g transform="matrix(1.0, 0.0, 0.0, 1.0, 31.75, 22.1)">
    <use height="56.0" transform="matrix(1.0, 0.0, 0.0, 1.0, -22.85, 7.6)" width="75.9" xlink:href="#shape0"/>
  </g>
  <defs>
    <g id="shape0" transform="matrix(1.0, 0.0, 0.0, 1.0, 22.85, -7.6)">
      <path d="M-9.35 34.35 L-6.65 35.35 -3.4 37.2 -6.0 44.35 -16.4 46.2 -22.85 42.05 -22.85 37.6 -20.3 35.3 -18.0 34.6 -19.75 37.0 -20.3 39.45 -19.65 41.15 -15.55 44.1 -10.05 43.2 -8.4 42.4 -7.1 41.0 -6.4 38.7 -7.55 36.75 -9.05 35.35 -9.35 34.35" fill="#ffffff" fill-opacity="0.49803922" fill-rule="evenodd" stroke="none"/>
      <path d="M-9.05 35.35 L-7.55 36.75 -10.55 38.9 -9.05 35.35 M-6.4 38.7 L-7.1 41.0 -8.4 42.4 -6.4 38.7" fill="#ffd1d1" fill-rule="evenodd" stroke="none"/>
      <path d="M-7.55 36.75 L-6.4 38.7 -8.4 42.4 -10.05 43.2 -10.55 38.9 -7.55 36.75 M-14.6 29.7 L-12.75 29.15 -11.1 29.95 -10.05 32.15 -10.0 32.2 -10.0 32.25 -12.95 35.0 -11.1 29.95 -14.6 30.9 -14.6 29.7" fill="#ffddd8" fill-rule="evenodd" stroke="none"/>
      <path d="M-9.35 34.35 L-9.05 35.35 -10.55 38.9 -12.95 40.05 -12.95 35.0 -10.0 32.25 -9.35 34.35 M-14.6 30.9 L-11.1 29.95 -12.95 35.0 -14.6 30.9" fill="#ffefef" fill-rule="evenodd" stroke="none"/>
      <path d="M-16.2 32.25 L-14.6 29.7 -14.6 30.9 -17.3 35.65 -16.2 32.25" fill="#e8807c" fill-rule="evenodd" stroke="none"/>
      <path d="M-10.05 43.2 L-15.55 44.1 -12.95 40.05 -10.05 43.2 M-19.65 41.15 L-20.3 39.45 -19.75 37.0 -18.0 34.6 -16.2 32.25 -17.3 35.65 -17.25 35.7 -19.65 41.15" fill="#f28682" fill-rule="evenodd" stroke="none"/>
      <path d="M-12.95 35.0 L-12.95 40.05 -17.25 35.7 -17.3 35.65 -17.25 35.65 -12.95 35.0" fill="#f2a7a7" fill-rule="evenodd" stroke="none"/>
      <path d="M-14.6 30.9 L-12.95 35.0 -17.25 35.65 -17.3 35.65 -14.6 30.9" fill="#ffb7b7" fill-rule="evenodd" stroke="none"/>
      <path d="M-15.55 44.1 L-19.65 41.15 -17.25 35.7 -12.95 40.05 -15.55 44.1" fill="#f99595" fill-rule="evenodd" stroke="none"/>
      <path d="M-12.95 40.05 L-10.55 38.9 -10.05 43.2 -12.95 40.05" fill="#ffe6e2" fill-rule="evenodd" stroke="none"/>
      <path d="M46.4 22.95 L42.9 23.9 42.9 22.7 44.75 22.15 46.4 22.95 47.45 25.15 47.5 25.2 47.5 25.25 44.55 28.0 46.4 22.95 M46.95 31.9 L49.95 29.75 51.1 31.7 49.1 35.4 47.45 36.2 46.95 31.9" fill="#ffddd8" fill-rule="evenodd" stroke="none"/>
      <path d="M42.9 23.9 L46.4 22.95 44.55 28.0 42.9 23.9 M47.5 25.25 L48.15 27.35 48.45 28.35 46.95 31.9 44.55 33.05 44.55 28.0 47.5 25.25" fill="#ffefef" fill-rule="evenodd" stroke="none"/>
      <path d="M42.9 22.7 L42.9 23.9 40.2 28.65 41.3 25.25 42.9 22.7" fill="#e8807c" fill-rule="evenodd" stroke="none"/>
      <path d="M48.15 27.35 L50.85 28.35 53.05 32.15 50.1 38.1 41.1 39.2 34.65 35.05 34.65 30.6 37.2 28.3 39.5 27.6 37.75 30.0 37.2 32.45 37.85 34.15 41.95 37.1 47.45 36.2 49.1 35.4 50.4 34.0 51.1 31.7 49.95 29.75 48.45 28.35 48.15 27.35" fill="#ffffff" fill-opacity="0.49803922" fill-rule="evenodd" stroke="none"/>
      <path d="M48.45 28.35 L49.95 29.75 46.95 31.9 48.45 28.35 M51.1 31.7 L50.4 34.0 49.1 35.4 51.1 31.7" fill="#ffd1d1" fill-rule="evenodd" stroke="none"/>
      <path d="M39.5 27.6 L41.3 25.25 40.2 28.65 40.25 28.7 37.85 34.15 37.2 32.45 37.75 30.0 39.5 27.6 M47.45 36.2 L41.95 37.1 44.55 33.05 47.45 36.2" fill="#f28682" fill-rule="evenodd" stroke="none"/>
      <path d="M41.95 37.1 L37.85 34.15 40.25 28.7 44.55 33.05 41.95 37.1" fill="#f99595" fill-rule="evenodd" stroke="none"/>
      <path d="M46.95 31.9 L47.45 36.2 44.55 33.05 46.95 31.9" fill="#ffe6e2" fill-rule="evenodd" stroke="none"/>
      <path d="M44.55 33.05 L40.25 28.7 40.2 28.65 40.25 28.65 44.55 28.0 44.55 33.05" fill="#f2a7a7" fill-rule="evenodd" stroke="none"/>
      <path d="M42.9 23.9 L44.55 28.0 40.25 28.65 40.2 28.65 42.9 23.9" fill="#ffb7b7" fill-rule="evenodd" stroke="none"/>
      <path d="M46.35 41.3 L44.95 38.75 50.25 38.05 46.35 50.45 41.3 56.2 24.3 63.6 12.9 62.35 -2.5 52.0 -6.05 44.4 -3.35 37.1 0.65 34.0 -2.6 43.85 -0.35 49.95 14.2 60.2 23.45 61.1 33.5 57.15 39.35 54.25 43.9 49.3 46.35 41.3" fill="#ffffff" fill-opacity="0.49803922" fill-rule="evenodd" stroke="none"/>
      <path d="M42.25 44.0 L46.35 41.3 43.9 49.3 42.25 44.0 M29.85 10.4 L33.7 18.5 33.65 18.45 29.85 14.4 24.45 23.6 23.7 16.85 29.85 14.4 29.85 10.4 M34.0 19.65 L37.65 31.75 31.8 42.0 18.75 44.25 23.35 28.3 33.65 18.45 33.7 18.55 33.7 18.6 34.0 19.65" fill="#ffefef" fill-rule="evenodd" stroke="none"/>
      <path d="M42.25 34.4 L44.9 38.75 44.95 38.75 46.35 41.3 42.25 44.0 42.25 34.4 M31.8 42.0 L33.5 57.15 23.45 61.1 18.75 44.25 31.8 42.0" fill="#ffe6e2" fill-rule="evenodd" stroke="none"/>
      <path d="M37.65 31.75 L42.25 34.4 31.8 42.0 37.65 31.75 M39.35 54.25 L42.25 44.0 43.9 49.3 39.35 54.25" fill="#ffd1d1" fill-rule="evenodd" stroke="none"/>
      <path d="M42.25 34.4 L42.25 44.0 39.35 54.25 33.5 57.15 31.8 42.0 42.25 34.4 M17.5 9.55 L24.0 7.6 29.85 10.4 29.85 14.4 23.7 16.85 17.5 13.8 17.5 9.55 M24.45 23.6 L29.85 14.4 33.65 18.45 23.35 28.3 24.45 23.6" fill="#ffddd8" fill-rule="evenodd" stroke="none"/>
      <path d="M23.7 16.85 L24.45 23.6 23.35 28.3 15.6 23.35 23.7 16.85" fill="#ffb7b7" fill-rule="evenodd" stroke="none"/>
      <path d="M33.7 18.5 L34.0 19.65 33.7 18.6 33.7 18.55 33.7 18.5" fill="#fac6bf" fill-rule="evenodd" stroke="none"/>
      <path d="M33.65 18.45 L33.7 18.5 33.7 18.55 33.65 18.45" fill="#f49d98" fill-rule="evenodd" stroke="none"/>
      <path d="M6.5 20.55 L8.35 20.85 10.5 22.65 10.75 23.85 8.85 28.75 7.6 23.4 7.6 23.45 6.5 20.55" fill="#ffaaa5" fill-rule="evenodd" stroke="none"/>
      <path d="M3.35 28.75 L3.35 23.85 6.5 20.55 7.6 23.45 7.6 23.4 8.85 28.75 3.35 28.75" fill="#e07773" fill-rule="evenodd" stroke="none"/>
      <path d="M11.9 18.6 L17.5 9.55 17.5 13.8 15.6 23.35 11.9 18.6" fill="#e8807c" fill-rule="evenodd" stroke="none"/>
      <path d="M23.7 16.85 L15.6 23.35 17.5 13.8 23.7 16.85" fill="#f29996" fill-rule="evenodd" stroke="none"/>
      <path d="M10.75 23.85 L10.9 23.35 15.6 23.35 18.75 44.25 14.2 60.2 -0.35 49.95 8.85 28.75 10.75 23.85" fill="#f99595" fill-rule="evenodd" stroke="none"/>
      <path d="M10.9 23.35 L11.9 18.6 15.6 23.35 10.9 23.35" fill="#d87f7f" fill-rule="evenodd" stroke="none"/>
      <path d="M0.65 34.0 L3.35 28.75 8.85 28.75 -0.35 49.95 -2.6 43.85 0.65 34.0 M14.2 60.2 L18.75 44.25 23.45 61.1 14.2 60.2" fill="#f28682" fill-rule="evenodd" stroke="none"/>
      <path d="M15.6 23.35 L23.35 28.3 18.75 44.25 15.6 23.35" fill="#f2a7a7" fill-rule="evenodd" stroke="none"/>
    </g>
  </defs>
</svg>
