<?xml version="1.0" encoding="UTF-8" standalone="no"?>
<svg xmlns:xlink="http://www.w3.org/1999/xlink" height="191.4px" width="201.65px" xmlns="http://www.w3.org/2000/svg">
  <g transform="matrix(1.0, 0.0, 0.0, 1.0, 0.4, 1.5)">
    <use height="60.05" transform="matrix(2.0, 0.0, 0.0, 2.0, 0.0, 70.05)" width="100.0" xlink:href="#sprite0"/>
    <use height="60.05" transform="matrix(2.0, 0.0, 0.0, 2.0, 0.0, 12.85)" width="100.0" xlink:href="#sprite0"/>
  </g>
  <defs>
    <g id="sprite0" transform="matrix(1.0, 0.0, 0.0, 1.0, 0.0, 0.0)">
      <use height="60.05" transform="matrix(1.0, 0.0, 0.0, 1.0, 0.0, 0.0)" width="100.0" xlink:href="#shape0"/>
    </g>
    <g id="shape0" transform="matrix(1.0, 0.0, 0.0, 1.0, 0.0, 0.0)">
      <path d="M83.8 39.75 L59.65 52.45 50.0 60.05 23.45 42.2 0.0 30.05 9.65 22.45 50.05 0.0 73.45 12.2 100.0 30.05 83.8 39.75" fill="#4b93ff" fill-opacity="0.30588236" fill-rule="evenodd" stroke="none"/>
    </g>
    <g id="sprite1" transform="matrix(1.0, 0.0, 0.0, 1.0, 0.0, -1.65)">
      <use height="116.95" transform="matrix(1.0, 0.0, 0.0, 1.0, 0.0, 1.65)" width="100.05" xlink:href="#shape1"/>
    </g>
    <g id="shape1" transform="matrix(1.0, 0.0, 0.0, 1.0, 0.0, -1.65)">
      <path d="M0.0 61.5 L19.45 46.4 67.75 21.05 99.9 1.65 100.05 58.85 0.1 118.6 0.0 61.5" fill="#66ffff" fill-opacity="0.5568628" fill-rule="evenodd" stroke="none"/>
    </g>
    <g id="sprite2" transform="matrix(1.0, 0.0, 0.0, 1.0, 0.0, 0.0)">
      <use height="117.3" transform="matrix(1.0, 0.0, 0.0, 1.0, 0.0, 0.0)" width="100.0" xlink:href="#shape2"/>
    </g>
    <g id="shape2" transform="matrix(1.0, 0.0, 0.0, 1.0, 0.0, 0.0)">
      <path d="M0.0 0.0 L47.55 24.85 100.0 60.05 100.0 117.3 0.0 56.55 0.0 0.0" fill="#00cccc" fill-opacity="0.49803922" fill-rule="evenodd" stroke="none"/>
    </g>
  </defs>
</svg>
