<?xml version="1.0" encoding="UTF-8" standalone="no"?>
<svg xmlns:xlink="http://www.w3.org/1999/xlink" height="118.3px" width="133.8px" xmlns="http://www.w3.org/2000/svg">
  <g transform="matrix(1.0, 0.0, 0.0, 1.0, -33.6, 18.85)">
    <use height="47.25" transform="matrix(1.0, 0.0, 0.0, 1.0, 97.45, -11.05)" width="16.55" xlink:href="#sprite0"/>
    <use height="47.25" transform="matrix(1.0, 0.0, 0.0, 1.0, 119.95, 2.7)" width="16.55" xlink:href="#sprite0"/>
    <use height="47.25" transform="matrix(1.0, 0.0, 0.0, 1.0, 142.2, 17.7)" width="16.55" xlink:href="#sprite0"/>
    <use height="40.5" transform="matrix(1.0, 0.0, 0.0, 1.0, 49.9, 21.45)" width="31.65" xlink:href="#shape1"/>
    <use height="15.7" transform="matrix(1.0, 0.0, 0.0, 1.0, 67.65, 46.15)" width="15.7" xlink:href="#sprite1"/>
    <use height="47.25" transform="matrix(1.0, 0.0, 0.0, 1.0, 40.95, 20.45)" width="16.55" xlink:href="#sprite0"/>
    <use height="14.5" transform="matrix(1.0, 0.0, 0.0, 1.0, 87.95, 35.2)" width="20.3" xlink:href="#shape3"/>
    <use height="15.7" transform="matrix(1.0, 0.0, 0.0, 1.0, 80.65, 39.15)" width="15.7" xlink:href="#sprite1"/>
    <use height="15.7" transform="matrix(1.0, 0.0, 0.0, 1.0, 96.4, 46.15)" width="15.7" xlink:href="#sprite1"/>
    <use height="15.7" transform="matrix(1.0, 0.0, 0.0, 1.0, 81.15, 51.65)" width="15.7" xlink:href="#sprite1"/>
    <use height="15.7" transform="matrix(1.0, 0.0, 0.0, 1.0, 58.9, 38.4)" width="15.7" xlink:href="#sprite1"/>
    <use height="52.5" transform="matrix(1.0, 0.0, 0.0, 1.0, 50.7, 42.95)" width="68.05" xlink:href="#shape4"/>
    <use height="47.25" transform="matrix(0.6951, 0.0, 0.0, 0.6951, 42.9152, -4.1186)" width="16.55" xlink:href="#sprite0"/>
    <use height="40.5" transform="matrix(1.0, 0.0, 0.0, 1.0, 76.7, 58.95)" width="31.65" xlink:href="#shape5"/>
    <use height="47.25" transform="matrix(1.0, 0.0, 0.0, 1.0, 92.7, 51.7)" width="16.55" xlink:href="#sprite0"/>
    <use height="15.05" transform="matrix(1.9049, -0.6093, 0.6093, 1.9049, 134.6037, 36.5058)" width="12.4" xlink:href="#sprite2"/>
    <use height="15.05" transform="matrix(1.9049, -0.6093, 0.6093, 1.9049, 33.6037, 36.0058)" width="12.4" xlink:href="#sprite2"/>
    <use height="15.05" transform="matrix(1.3242, -0.4235, 0.4235, 1.3242, 37.1306, 8.6211)" width="12.4" xlink:href="#sprite2"/>
    <use height="15.05" transform="matrix(1.9049, -0.6093, 0.6093, 1.9049, 84.6037, 70.0058)" width="12.4" xlink:href="#sprite2"/>
    <use height="27.25" transform="matrix(1.0, 0.0, 0.0, 1.0, 98.2, -16.3)" width="37.8" xlink:href="#shape8"/>
    <use height="15.05" transform="matrix(1.9049, -0.6093, 0.6093, 1.9049, 89.8537, 6.5058)" width="12.4" xlink:href="#sprite2"/>
    <use height="95.05" transform="matrix(1.0, 0.0, 0.0, 1.0, 38.25, -18.85)" width="120.95" xlink:href="#shape9"/>
  </g>
  <defs>
    <g id="sprite0" transform="matrix(1.0, 0.0, 0.0, 1.0, 8.25, 47.5)">
      <use height="47.25" transform="matrix(1.0, 0.0, 0.0, 1.0, -8.25, -47.5)" width="16.55" xlink:href="#shape0"/>
    </g>
    <g id="shape0" transform="matrix(1.0, 0.0, 0.0, 1.0, 8.25, 47.5)">
      <path d="M-6.0 -37.4 L-0.5 -43.5 5.8 -39.6 0.25 -35.75 -6.0 -37.4" fill="#ffffff" fill-rule="evenodd" stroke="none"/>
      <path d="M5.8 -39.6 L7.5 -4.55 0.95 -0.25 0.25 -35.75 5.8 -39.6" fill="url(#gradient0)" fill-rule="evenodd" stroke="none"/>
      <path d="M0.95 -0.25 L-6.7 -5.3 -6.0 -37.4 0.25 -35.75 0.95 -0.25" fill="url(#gradient1)" fill-rule="evenodd" stroke="none"/>
      <path d="M0.05 -37.9 L7.9 -42.8 8.3 -36.65 0.05 -32.0 0.05 -37.9" fill="#999999" fill-rule="evenodd" stroke="none"/>
      <path d="M-8.25 -42.55 L0.05 -37.9 0.05 -32.0 -8.0 -35.9 -8.25 -42.55" fill="#666666" fill-rule="evenodd" stroke="none"/>
      <path d="M7.9 -42.8 L0.05 -37.9 -8.25 -42.55 -1.2 -47.5 7.9 -42.8" fill="#ffffff" fill-rule="evenodd" stroke="none"/>
    </g>
    <linearGradient gradientTransform="matrix(9.0E-4, 0.0114, -0.0048, 4.0E-4, 3.05, -24.5)" gradientUnits="userSpaceOnUse" id="gradient0" spreadMethod="pad" x1="-819.2" x2="819.2">
      <stop offset="0.0" stop-color="#666666"/>
      <stop offset="1.0" stop-color="#999999"/>
    </linearGradient>
    <linearGradient gradientTransform="matrix(-3.0E-4, 0.0099, -0.0049, -2.0E-4, -2.35, -25.05)" gradientUnits="userSpaceOnUse" id="gradient1" spreadMethod="pad" x1="-819.2" x2="819.2">
      <stop offset="0.0" stop-color="#464646"/>
      <stop offset="1.0" stop-color="#666666"/>
    </linearGradient>
    <g id="shape1" transform="matrix(1.0, 0.0, 0.0, 1.0, -49.9, -21.45)">
      <path d="M64.35 32.4 L74.75 21.45 80.3 24.65 70.7 36.3 64.35 32.4 M49.9 38.65 L54.25 32.4 61.05 36.3 56.25 43.05 49.9 38.65" fill="#ffffff" fill-rule="evenodd" stroke="none"/>
      <path d="M64.35 32.4 L70.7 36.3 61.05 36.3 54.25 32.4 64.35 32.4 M56.25 61.95 L50.25 57.8 49.9 38.65 56.25 43.05 56.25 61.95" fill="#666666" fill-rule="evenodd" stroke="none"/>
      <path d="M70.7 36.3 L80.3 24.65 81.55 46.3 56.25 61.95 56.25 43.05 61.05 36.3 70.7 36.3" fill="#999999" fill-rule="evenodd" stroke="none"/>
    </g>
    <g id="sprite1" transform="matrix(1.0, 0.0, 0.0, 1.0, 7.85, 7.85)">
      <use height="15.7" transform="matrix(1.0, 0.0, 0.0, 1.0, -7.85, -7.85)" width="15.7" xlink:href="#shape2"/>
    </g>
    <g id="shape2" transform="matrix(1.0, 0.0, 0.0, 1.0, 7.85, 7.85)">
      <path d="M3.6 -5.0 L7.85 -1.45 7.85 4.25 -0.7 2.1 3.6 -5.0" fill="#ffffff" fill-rule="evenodd" stroke="none"/>
      <path d="M7.85 4.25 L1.45 7.85 -0.7 2.1 7.85 4.25 M-4.95 -5.0 L-1.4 -7.85 3.6 -5.0 -0.7 2.1 -4.95 -5.0" fill="#ffff00" fill-rule="evenodd" stroke="none"/>
      <path d="M-7.85 0.0 L-4.95 -5.0 -0.7 2.1 -7.85 0.0" fill="#ff9900" fill-rule="evenodd" stroke="none"/>
      <path d="M1.45 7.85 L-4.95 4.95 -7.85 0.0 -0.7 2.1 1.45 7.85" fill="#cc6600" fill-rule="evenodd" stroke="none"/>
    </g>
    <g id="shape3" transform="matrix(1.0, 0.0, 0.0, 1.0, -87.95, -35.2)">
      <path d="M97.75 41.55 L103.6 38.4 108.25 44.55 97.25 49.7 97.75 41.55" fill="#999999" fill-rule="evenodd" stroke="none"/>
      <path d="M103.6 38.4 L97.75 41.55 90.95 38.4 96.75 35.2 103.6 38.4" fill="#ffffff" fill-rule="evenodd" stroke="none"/>
      <path d="M90.95 38.4 L97.75 41.55 97.25 49.7 87.95 44.55 90.95 38.4" fill="#666666" fill-rule="evenodd" stroke="none"/>
    </g>
    <g id="shape4" transform="matrix(1.0, 0.0, 0.0, 1.0, -50.7, -42.95)">
      <path d="M82.35 60.15 L82.0 79.3 76.0 83.45 76.0 64.55 82.35 60.15 M67.9 53.9 L78.0 53.9 71.2 57.8 61.55 57.8 67.9 53.9" fill="#999999" fill-rule="evenodd" stroke="none"/>
      <path d="M51.95 46.15 L57.5 42.95 67.9 53.9 61.55 57.8 51.95 46.15 M78.0 53.9 L82.35 60.15 76.0 64.55 71.2 57.8 78.0 53.9" fill="#ffffff" fill-rule="evenodd" stroke="none"/>
      <path d="M76.0 83.45 L50.7 67.8 51.95 46.15 61.55 57.8 71.2 57.8 76.0 64.55 76.0 83.45" fill="#666666" fill-rule="evenodd" stroke="none"/>
      <path d="M114.1 84.15 L118.75 90.3 107.75 95.45 108.25 87.3 114.1 84.15" fill="#999999" fill-rule="evenodd" stroke="none"/>
      <path d="M107.75 95.45 L98.45 90.3 101.45 84.15 108.25 87.3 107.75 95.45" fill="#666666" fill-rule="evenodd" stroke="none"/>
      <path d="M101.45 84.15 L107.25 80.95 114.1 84.15 108.25 87.3 101.45 84.15" fill="#ffffff" fill-rule="evenodd" stroke="none"/>
    </g>
    <g id="shape5" transform="matrix(1.0, 0.0, 0.0, 1.0, -76.7, -58.95)">
      <path d="M77.95 62.15 L83.5 58.95 93.9 69.9 87.55 73.8 77.95 62.15 M104.0 69.9 L108.35 76.15 102.0 80.55 97.2 73.8 104.0 69.9" fill="#ffffff" fill-rule="evenodd" stroke="none"/>
      <path d="M93.9 69.9 L104.0 69.9 97.2 73.8 87.55 73.8 93.9 69.9 M108.35 76.15 L108.0 95.3 102.0 99.45 102.0 80.55 108.35 76.15" fill="#999999" fill-rule="evenodd" stroke="none"/>
      <path d="M102.0 99.45 L76.7 83.8 77.95 62.15 87.55 73.8 97.2 73.8 102.0 80.55 102.0 99.45" fill="#666666" fill-rule="evenodd" stroke="none"/>
    </g>
    <g id="sprite2" transform="matrix(1.0, 0.0, 0.0, 1.0, -0.1, -0.35)">
      <use height="13.75" transform="matrix(1.0, 0.0, 0.0, 1.0, 0.1, 0.35)" width="11.3" xlink:href="#shape6"/>
      <use height="8.7" transform="matrix(-0.395, 0.0, 0.0, 0.395, 3.65, 11.95)" width="4.95" xlink:href="#sprite3"/>
      <use height="8.7" transform="matrix(0.0, -0.3551, -0.3551, 0.0, 7.95, 9.35)" width="4.95" xlink:href="#sprite3"/>
      <use height="8.7" transform="matrix(0.4247, 0.0, 0.0, 0.4247, 10.4, 2.7)" width="4.95" xlink:href="#sprite3"/>
    </g>
    <g id="shape6" transform="matrix(1.0, 0.0, 0.0, 1.0, -0.1, -0.35)">
      <path d="M9.2 7.1 L11.4 0.35 11.4 3.3 10.1 7.35 9.2 7.1" fill="#61f424" fill-rule="evenodd" stroke="none"/>
      <path d="M9.2 7.1 L10.1 7.35 7.15 10.95 5.7 11.15 9.2 7.1" fill="#49c41e" fill-rule="evenodd" stroke="none"/>
      <path d="M7.15 10.95 L0.1 14.1 0.1 13.05 5.7 11.15 7.15 10.95" fill="#008900" fill-rule="evenodd" stroke="none"/>
    </g>
    <g id="sprite3" transform="matrix(1.0, 0.0, 0.0, 1.0, 0.0, 0.0)">
      <use height="8.7" transform="matrix(1.0, 0.0, 0.0, 1.0, 0.0, 0.0)" width="4.95" xlink:href="#shape7"/>
    </g>
    <g id="shape7" transform="matrix(1.0, 0.0, 0.0, 1.0, 0.0, 0.0)">
      <path d="M4.95 2.25 L4.85 2.55 4.2 8.7 3.0 3.0 4.95 2.25" fill="#51db20" fill-rule="evenodd" stroke="none"/>
      <path d="M0.0 0.0 L4.95 2.25 3.0 3.0 0.0 0.0" fill="#61f424" fill-rule="evenodd" stroke="none"/>
      <path d="M0.3 3.55 L0.0 0.0 3.0 3.0 0.3 3.55" fill="#49c41e" fill-rule="evenodd" stroke="none"/>
      <path d="M4.2 8.7 L0.3 3.55 3.0 3.0 4.2 8.7" fill="#008900" fill-rule="evenodd" stroke="none"/>
    </g>
    <g id="shape8" transform="matrix(1.0, 0.0, 0.0, 1.0, -98.2, 16.3)">
      <path d="M128.5 10.95 L98.2 -6.95 100.95 -13.1 128.0 3.3 128.5 10.95" fill="#666666" fill-rule="evenodd" stroke="none"/>
      <path d="M100.95 -13.1 L106.75 -16.3 132.6 0.15 128.0 3.3 100.95 -13.1" fill="#ffffff" fill-rule="evenodd" stroke="none"/>
      <path d="M132.6 0.15 L136.0 6.05 128.5 10.95 128.0 3.3 132.6 0.15" fill="#999999" fill-rule="evenodd" stroke="none"/>
    </g>
    <g id="shape9" transform="matrix(1.0, 0.0, 0.0, 1.0, -38.25, 18.85)">
      <path d="M128.85 37.75 L135.2 29.2 133.9 23.2 137.55 29.05 132.9 39.5 132.25 46.75 137.15 50.55 131.2 49.4 129.1 53.3 128.85 37.75" fill="#663300" fill-rule="evenodd" stroke="none"/>
      <path d="M129.1 53.3 L126.7 48.4 116.3 49.55 125.5 45.5 127.05 38.55 118.3 26.55 122.05 21.95 122.05 28.1 128.85 37.75 129.1 53.3" fill="#320100" fill-rule="evenodd" stroke="none"/>
      <path d="M48.25 -2.25 L53.2 -5.05 52.6 -1.0 48.25 1.5 48.25 -2.25" fill="#00cc66" fill-rule="evenodd" stroke="none"/>
      <path d="M53.2 -5.05 L48.25 -2.25 48.05 -2.35 47.95 -7.85 53.2 -5.05" fill="#33ff99" fill-rule="evenodd" stroke="none"/>
      <path d="M47.95 -7.85 L48.05 -2.35 43.25 -4.75 47.95 -7.85" fill="#00cc33" fill-rule="evenodd" stroke="none"/>
      <path d="M48.05 -2.35 L48.25 -2.25 48.25 1.5 43.85 -0.65 43.25 -4.75 48.05 -2.35" fill="#009933" fill-rule="evenodd" stroke="none"/>
      <path d="M145.55 22.4 L145.45 16.9 150.7 19.7 145.75 22.5 145.55 22.4" fill="#33ff99" fill-rule="evenodd" stroke="none"/>
      <path d="M145.45 16.9 L145.55 22.4 140.75 20.0 145.45 16.9" fill="#00cc33" fill-rule="evenodd" stroke="none"/>
      <path d="M145.75 22.5 L150.7 19.7 150.1 23.75 145.75 26.25 145.75 22.5" fill="#00cc66" fill-rule="evenodd" stroke="none"/>
      <path d="M145.55 22.4 L145.75 22.5 145.75 26.25 141.35 24.1 140.75 20.0 145.55 22.4" fill="#009933" fill-rule="evenodd" stroke="none"/>
      <path d="M159.2 19.7 L154.25 22.5 154.05 22.4 153.95 16.9 159.2 19.7" fill="#33ff99" fill-rule="evenodd" stroke="none"/>
      <path d="M154.25 22.5 L159.2 19.7 158.6 23.75 154.25 26.25 154.25 22.5" fill="#00cc66" fill-rule="evenodd" stroke="none"/>
      <path d="M154.05 22.4 L154.25 22.5 154.25 26.25 Q152.05 25.2 149.85 24.1 L149.25 20.0 154.05 22.4" fill="#009933" fill-rule="evenodd" stroke="none"/>
      <path d="M153.95 16.9 L154.05 22.4 149.25 20.0 153.95 16.9" fill="#00cc33" fill-rule="evenodd" stroke="none"/>
      <path d="M149.2 10.65 L154.45 13.45 149.5 16.25 149.3 16.15 149.2 10.65" fill="#33ff99" fill-rule="evenodd" stroke="none"/>
      <path d="M149.5 20.0 L145.1 17.85 144.5 13.75 149.3 16.15 149.5 16.25 149.5 20.0" fill="#009933" fill-rule="evenodd" stroke="none"/>
      <path d="M144.5 13.75 L149.2 10.65 149.3 16.15 144.5 13.75" fill="#00cc33" fill-rule="evenodd" stroke="none"/>
      <path d="M154.45 13.45 L153.85 17.5 149.5 20.0 149.5 16.25 154.45 13.45" fill="#00cc66" fill-rule="evenodd" stroke="none"/>
      <path d="M43.2 3.65 L48.45 6.45 43.5 9.25 43.3 9.15 43.2 3.65" fill="#33ff99" fill-rule="evenodd" stroke="none"/>
      <path d="M43.5 13.0 L39.1 10.85 38.5 6.75 43.3 9.15 43.5 9.25 43.5 13.0" fill="#009933" fill-rule="evenodd" stroke="none"/>
      <path d="M48.45 6.45 L47.85 10.5 43.5 13.0 43.5 9.25 48.45 6.45" fill="#00cc66" fill-rule="evenodd" stroke="none"/>
      <path d="M38.5 6.75 L43.2 3.65 43.3 9.15 38.5 6.75" fill="#00cc33" fill-rule="evenodd" stroke="none"/>
      <path d="M47.25 1.75 L51.95 -1.35 52.05 4.15 47.25 1.75" fill="#00cc33" fill-rule="evenodd" stroke="none"/>
      <path d="M52.25 8.0 L47.85 5.85 47.25 1.75 52.05 4.15 52.25 4.25 52.25 8.0" fill="#009933" fill-rule="evenodd" stroke="none"/>
      <path d="M51.95 -1.35 L57.2 1.45 52.25 4.25 52.05 4.15 51.95 -1.35" fill="#33ff99" fill-rule="evenodd" stroke="none"/>
      <path d="M57.2 1.45 L56.6 5.5 52.25 8.0 52.25 4.25 57.2 1.45" fill="#00cc66" fill-rule="evenodd" stroke="none"/>
      <path d="M42.95 -4.35 L48.2 -1.55 43.25 1.25 43.05 1.15 42.95 -4.35" fill="#33ff99" fill-rule="evenodd" stroke="none"/>
      <path d="M38.25 -1.25 L42.95 -4.35 43.05 1.15 38.25 -1.25" fill="#00cc33" fill-rule="evenodd" stroke="none"/>
      <path d="M43.25 5.0 L38.85 2.85 38.25 -1.25 43.05 1.15 43.25 1.25 43.25 5.0" fill="#009933" fill-rule="evenodd" stroke="none"/>
      <path d="M48.2 -1.55 L47.6 2.5 43.25 5.0 43.25 1.25 48.2 -1.55" fill="#00cc66" fill-rule="evenodd" stroke="none"/>
      <path d="M105.0 -9.5 L100.6 -11.65 100.0 -15.75 104.8 -13.35 105.0 -13.25 105.0 -9.5" fill="#009933" fill-rule="evenodd" stroke="none"/>
      <path d="M104.7 -18.85 L109.95 -16.05 105.0 -13.25 104.8 -13.35 104.7 -18.85" fill="#33ff99" fill-rule="evenodd" stroke="none"/>
      <path d="M109.95 -16.05 L109.35 -12.0 105.0 -9.5 105.0 -13.25 109.95 -16.05" fill="#00cc66" fill-rule="evenodd" stroke="none"/>
      <path d="M100.0 -15.75 L104.7 -18.85 104.8 -13.35 100.0 -15.75" fill="#00cc33" fill-rule="evenodd" stroke="none"/>
      <path d="M107.3 -5.35 L107.2 -10.85 112.45 -8.05 107.5 -5.25 107.3 -5.35" fill="#33ff99" fill-rule="evenodd" stroke="none"/>
      <path d="M107.3 -5.35 L107.5 -5.25 107.5 -1.5 103.1 -3.65 102.5 -7.75 107.3 -5.35" fill="#009933" fill-rule="evenodd" stroke="none"/>
      <path d="M107.2 -10.85 L107.3 -5.35 102.5 -7.75 107.2 -10.85" fill="#00cc33" fill-rule="evenodd" stroke="none"/>
      <path d="M107.5 -5.25 L112.45 -8.05 111.85 -4.0 107.5 -1.5 107.5 -5.25" fill="#00cc66" fill-rule="evenodd" stroke="none"/>
      <path d="M124.25 76.2 L114.95 71.05 117.95 64.9 124.75 68.05 124.25 76.2" fill="#666666" fill-rule="evenodd" stroke="none"/>
      <path d="M117.95 64.9 L123.75 61.7 130.6 64.9 124.75 68.05 117.95 64.9" fill="#ffffff" fill-rule="evenodd" stroke="none"/>
      <path d="M130.6 64.9 L135.25 71.05 124.25 76.2 124.75 68.05 130.6 64.9" fill="#999999" fill-rule="evenodd" stroke="none"/>
      <path d="M120.7 48.15 L125.95 50.95 121.0 53.75 120.8 53.65 120.7 48.15" fill="#33ff99" fill-rule="evenodd" stroke="none"/>
      <path d="M121.0 57.5 L116.6 55.35 116.0 51.25 120.8 53.65 121.0 53.75 121.0 57.5" fill="#009933" fill-rule="evenodd" stroke="none"/>
      <path d="M116.0 51.25 L120.7 48.15 120.8 53.65 116.0 51.25" fill="#00cc33" fill-rule="evenodd" stroke="none"/>
      <path d="M125.95 50.95 L125.35 55.0 121.0 57.5 121.0 53.75 125.95 50.95" fill="#00cc66" fill-rule="evenodd" stroke="none"/>
      <path d="M129.2 49.15 L134.45 51.95 129.5 54.75 129.3 54.65 129.2 49.15" fill="#33ff99" fill-rule="evenodd" stroke="none"/>
      <path d="M129.5 58.5 L125.1 56.35 124.5 52.25 129.3 54.65 129.5 54.75 129.5 58.5" fill="#009933" fill-rule="evenodd" stroke="none"/>
      <path d="M124.5 52.25 L129.2 49.15 129.3 54.65 124.5 52.25" fill="#00cc33" fill-rule="evenodd" stroke="none"/>
      <path d="M134.45 51.95 L133.85 56.0 129.5 58.5 129.5 54.75 134.45 51.95" fill="#00cc66" fill-rule="evenodd" stroke="none"/>
    </g>
  </defs>
</svg>
