<?xml version="1.0" encoding="UTF-8" standalone="no"?>
<svg xmlns:xlink="http://www.w3.org/1999/xlink" height="131.15px" width="101.3px" xmlns="http://www.w3.org/2000/svg">
  <g transform="matrix(1.0, 0.0, 0.0, 1.0, 1.05, 70.95)">
    <use height="60.4" transform="matrix(1.0, 0.0, 0.0, 1.0, -0.2, -0.65)" width="100.45" xlink:href="#sprite0"/>
    <use height="27.7" transform="matrix(0.697, 0.0, 0.0, 0.697, 21.335, 16.2243)" width="29.65" xlink:href="#sprite1"/>
    <use height="27.7" transform="matrix(0.697, 0.0, 0.0, 0.697, 42.335, 6.2243)" width="29.65" xlink:href="#sprite1"/>
    <use height="27.7" transform="matrix(0.697, 0.0, 0.0, 0.697, 56.335, 20.2243)" width="29.65" xlink:href="#sprite1"/>
    <use height="6.35" transform="matrix(1.0, 0.0, 0.0, 1.0, 42.0, 38.6)" width="7.0" xlink:href="#sprite2"/>
    <use height="6.35" transform="matrix(1.0, 0.0, 0.0, 1.0, 48.0, 35.6)" width="7.0" xlink:href="#sprite2"/>
  </g>
  <defs>
    <g id="sprite0" transform="matrix(1.0, 0.0, 0.0, 1.0, 0.2, 0.4)">
      <use height="60.4" transform="matrix(1.0, 0.0, 0.0, 1.0, -0.2, -0.4)" width="100.45" xlink:href="#shape0"/>
    </g>
    <g id="shape0" transform="matrix(1.0, 0.0, 0.0, 1.0, 0.2, 0.4)">
      <path d="M9.25 22.65 L33.75 10.0 23.5 44.1 9.25 22.65 M73.75 13.4 L83.95 40.35 45.15 29.6 73.75 13.4" fill="#999999" fill-opacity="0.0" fill-rule="evenodd" stroke="none"/>
      <path d="M73.75 13.4 L100.25 29.9 83.95 40.35 73.75 13.4 M60.05 54.0 L49.95 60.0 45.15 29.6 23.5 44.1 33.75 10.0 45.15 29.6 60.05 54.0" fill="#ffffff" fill-opacity="0.0" fill-rule="evenodd" stroke="none"/>
      <path d="M83.95 40.35 L60.05 54.0 45.15 29.6 83.95 40.35 M49.95 60.0 L23.5 44.1 -0.2 30.0 9.25 22.65 23.5 44.1 45.15 29.6 49.95 60.0 M33.75 10.0 L49.95 -0.4 45.15 29.6 33.75 10.0" fill="#cccccc" fill-opacity="0.0" fill-rule="evenodd" stroke="none"/>
      <path d="M49.95 -0.4 L73.75 13.4 45.15 29.6 49.95 -0.4" fill="#666666" fill-opacity="0.0" fill-rule="evenodd" stroke="none"/>
      <path d="M49.9 -0.4 L73.75 13.45 100.0 30.0 83.95 40.35 49.95 60.0 0.0 29.95 9.2 22.55 9.35 22.6 33.65 10.0 49.9 -0.4" fill="#ffffff" fill-opacity="0.0" fill-rule="evenodd" stroke="none"/>
    </g>
    <g id="sprite1" transform="matrix(1.0, 0.0, 0.0, 1.0, 14.8, 8.0)">
      <use height="27.7" transform="matrix(1.0, 0.0, 0.0, 1.0, -14.8, -8.0)" width="29.65" xlink:href="#shape1"/>
    </g>
    <g id="shape1" transform="matrix(1.0, 0.0, 0.0, 1.0, 14.8, 8.0)">
      <path d="M7.85 9.1 L7.9 17.0 7.75 17.2 0.0 19.7 -0.05 19.65 -0.05 11.7 0.0 11.7 7.75 9.2 7.85 9.1" fill="#ac9452" fill-rule="evenodd" stroke="none"/>
      <path d="M7.85 9.1 L12.4 4.3 12.4 12.15 12.45 12.2 7.9 17.0 7.85 9.1 M-0.05 19.65 L-8.95 17.2 -9.05 17.0 -9.0 9.15 -8.95 9.2 -0.05 11.7 -0.05 19.65" fill="#71643c" fill-rule="evenodd" stroke="none"/>
      <path d="M-9.05 17.0 L-12.45 12.2 -12.45 4.25 -9.0 9.15 -9.05 17.0" fill="#554b2d" fill-rule="evenodd" stroke="none"/>
      <path d="M0.5 -8.0 L10.0 -2.1 14.8 4.45 0.5 -8.0 -10.7 10.3 -14.8 4.5 -14.6 4.25 0.5 -8.0" fill="#71643c" fill-rule="evenodd" stroke="none"/>
      <path d="M9.35 10.25 L9.2 10.4 0.0 13.4 -0.1 13.35 0.5 -8.0 9.35 10.25" fill="#bda665" fill-rule="evenodd" stroke="none"/>
      <path d="M14.8 4.45 L14.85 4.5 9.35 10.25 0.5 -8.0 -0.1 13.35 -10.6 10.4 -10.7 10.3 0.5 -8.0 14.8 4.45" fill="#a89458" fill-rule="evenodd" stroke="none"/>
      <path d="M-14.6 4.25 L-10.15 -2.1 0.5 -8.0 -14.6 4.25" fill="#554b2d" fill-rule="evenodd" stroke="none"/>
    </g>
    <g id="sprite2" transform="matrix(1.0, 0.0, 0.0, 1.0, 3.5, 3.15)">
      <use height="6.35" transform="matrix(1.0, 0.0, 0.0, 1.0, -3.5, -3.15)" width="7.0" xlink:href="#shape2"/>
    </g>
    <g id="shape2" transform="matrix(1.0, 0.0, 0.0, 1.0, 13.9, 5.15)">
      <path d="M-9.05 1.2 L-9.2 -1.2 -6.9 -2.5 -6.9 0.0 -9.05 1.2" fill="#ffcc00" fill-rule="evenodd" stroke="none"/>
      <path d="M-9.2 -1.2 L-13.9 -4.0 -11.65 -5.15 -6.9 -2.5 -9.2 -1.2" fill="#330000" fill-rule="evenodd" stroke="none"/>
      <path d="M-13.9 -4.0 L-9.2 -1.2 -9.05 1.2 -13.75 -1.85 -13.9 -4.0" fill="#663300" fill-rule="evenodd" stroke="none"/>
    </g>
  </defs>
</svg>
