<?xml version="1.0" encoding="UTF-8" standalone="no"?>
<svg xmlns:xlink="http://www.w3.org/1999/xlink" height="191.4px" width="201.65px" xmlns="http://www.w3.org/2000/svg">
  <g transform="matrix(1.0, 0.0, 0.0, 1.0, 0.4, 1.5)">
    <use height="59.7" transform="matrix(1.0, 0.0, 0.0, 1.0, 68.2, 61.55)" width="79.4" xlink:href="#shape0"/>
    <use height="60.4" id="ground" transform="matrix(2.0, 0.0, 0.0, 2.0, -0.4, 33.8)" width="100.45" xlink:href="#sprite0"/>
    <use height="116.95" id="waterEast" transform="matrix(1.0, 0.0, 0.0, 1.0, 100.0, 72.85)" width="100.05" xlink:href="#sprite1"/>

    <use height="94.85" transform="matrix(1.0, 0.0, 0.0, 1.0, 0.0, 95.25)" width="200.0" xlink:href="#shape4"/>
    <use height="60.05" transform="matrix(2.0, 0.0, 0.0, 2.0, 0.0, 12.8)" width="100.0" xlink:href="#sprite3"/>
  </g>
  <defs>
    <g id="shape0" transform="matrix(1.0, 0.0, 0.0, 1.0, -68.2, -61.55)">
      <path d="M100.4 61.55 L147.6 86.65 90.2 121.25 100.4 61.55" fill="#666666" fill-rule="evenodd" stroke="none"/>
      <path d="M90.2 121.25 L68.2 82.15 100.4 61.55 90.2 121.25" fill="#cccccc" fill-rule="evenodd" stroke="none"/>
    </g>
    <g id="sprite0" transform="matrix(1.0, 0.0, 0.0, 1.0, 0.2, 0.4)">
      <use height="60.4" transform="matrix(1.0, 0.0, 0.0, 1.0, -0.2, -0.4)" width="100.45" xlink:href="#shape1"/>
    </g>
    <g id="shape1" transform="matrix(1.0, 0.0, 0.0, 1.0, 0.2, 0.4)">
      <path d="M9.25 22.65 L33.75 10.0 23.5 44.1 9.25 22.65 M73.75 13.4 L83.95 40.35 45.15 29.6 73.75 13.4" fill="#f1f1c4" fill-rule="evenodd" stroke="none"/>
      <path d="M73.75 13.4 L100.25 29.9 83.95 40.35 73.75 13.4 M60.05 54.0 L49.95 60.0 45.15 29.6 23.5 44.1 33.75 10.0 45.15 29.6 60.05 54.0" fill="#fefed1" fill-rule="evenodd" stroke="none"/>
      <path d="M83.95 40.35 L60.05 54.0 45.15 29.6 83.95 40.35 M49.95 60.0 L23.5 44.1 -0.2 30.0 9.25 22.65 23.5 44.1 45.15 29.6 49.95 60.0 M33.75 10.0 L49.95 -0.4 45.15 29.6 33.75 10.0" fill="#f8f8cb" fill-rule="evenodd" stroke="none"/>
      <path d="M49.95 -0.4 L73.75 13.4 45.15 29.6 49.95 -0.4" fill="#ebebbe" fill-rule="evenodd" stroke="none"/>
      <path d="M49.9 -0.4 L73.75 13.45 100.0 30.0 83.95 40.35 49.95 60.0 0.0 29.95 9.2 22.55 9.35 22.6 33.65 10.0 49.9 -0.4" fill="#fefed1" fill-opacity="0.4" fill-rule="evenodd" stroke="none"/>
    </g>
    <g id="sprite1" transform="matrix(1.0, 0.0, 0.0, 1.0, 0.0, -1.65)">
      <use height="116.95" transform="matrix(1.0, 0.0, 0.0, 1.0, 0.0, 1.65)" width="100.05" xlink:href="#shape2"/>
    </g>
    <g id="shape2" transform="matrix(1.0, 0.0, 0.0, 1.0, 0.0, -1.65)">
      <path d="M0.0 61.5 L19.45 46.4 67.75 21.05 99.9 1.65 100.05 58.85 0.1 118.6 0.0 61.5" fill="#66ffff" fill-opacity="0.5568628" fill-rule="evenodd" stroke="none"/>
    </g>
    <g id="sprite2" transform="matrix(1.0, 0.0, 0.0, 1.0, 0.0, 0.0)">
      <use height="117.3" transform="matrix(1.0, 0.0, 0.0, 1.0, 0.0, 0.0)" width="100.0" xlink:href="#shape3"/>
    </g>
    <g id="shape3" transform="matrix(1.0, 0.0, 0.0, 1.0, 0.0, 0.0)">
      <path d="M0.0 0.0 L47.55 24.85 100.0 60.05 100.0 117.3 0.0 56.55 0.0 0.0" fill="#00cccc" fill-opacity="0.49803922" fill-rule="evenodd" stroke="none"/>
    </g>
    <g id="shape4" transform="matrix(1.0, 0.0, 0.0, 1.0, 0.0, -95.25)">
      <path d="M100.0 190.1 L0.0 129.45 0.0 95.25 100.05 154.25 100.0 154.5 100.15 154.55 100.0 190.1" fill="#ffff67" fill-rule="evenodd" stroke="none"/>
      <path d="M100.05 154.25 L200.0 95.35 200.0 130.05 100.0 190.1 100.15 154.55 100.0 154.5 100.05 154.25" fill="#fff1b9" fill-rule="evenodd" stroke="none"/>
    </g>
    <g id="sprite3" transform="matrix(1.0, 0.0, 0.0, 1.0, 0.0, 0.0)">
      <use height="60.05" transform="matrix(1.0, 0.0, 0.0, 1.0, 0.0, 0.0)" width="100.0" xlink:href="#shape5"/>
    </g>
    <g id="shape5" transform="matrix(1.0, 0.0, 0.0, 1.0, 0.0, 0.0)">
      <path d="M83.8 39.75 L59.65 52.45 50.0 60.05 23.45 42.2 0.0 30.05 9.65 22.45 50.05 0.0 73.45 12.2 100.0 30.05 83.8 39.75" fill="#4bc2ff" fill-opacity="0.81960785" fill-rule="evenodd" stroke="none"/>
    </g>
  </defs>
</svg>
